<svg xmlns="http://www.w3.org/2000/svg" width="720" height="320" viewBox="0 0 720 320" font-family="JetBrains Mono, ui-monospace, monospace">
<rect width="720" height="320" fill="#15130f"/>
<line x1="54" y1="290" x2="570" y2="290" stroke="#2a261f"/>
<text x="46" y="293" fill="#7c756a" font-size="10" text-anchor="end">0.0</text>
<line x1="54" y1="162" x2="570" y2="162" stroke="#2a261f"/>
<text x="46" y="165" fill="#7c756a" font-size="10" text-anchor="end">0.5</text>
<line x1="54" y1="34" x2="570" y2="34" stroke="#2a261f"/>
<text x="46" y="37" fill="#7c756a" font-size="10" text-anchor="end">1.0</text>
<line x1="54" y1="34" x2="54" y2="290" stroke="#211e18"/>
<text x="54" y="308" fill="#7c756a" font-size="10" text-anchor="middle">0</text>
<line x1="312" y1="34" x2="312" y2="290" stroke="#211e18"/>
<text x="312" y="308" fill="#7c756a" font-size="10" text-anchor="middle">4</text>
<line x1="570" y1="34" x2="570" y2="290" stroke="#211e18"/>
<text x="570" y="308" fill="#7c756a" font-size="10" text-anchor="middle">8</text>
<polyline points="54,162 55.344,162.005 56.688,162.021 58.031,162.048 59.375,162.085 60.719,162.133 62.063,162.191 63.406,162.26 64.75,162.339 66.094,162.429 67.438,162.53 68.781,162.641 70.125,162.762 71.469,162.894 72.813,163.037 74.156,163.189 75.5,163.352 76.844,163.525 78.188,163.709 79.531,163.902 80.875,164.106 82.219,164.32 83.563,164.543 84.906,164.777 86.25,165.02 87.594,165.274 88.938,165.537 90.281,165.81 91.625,166.092 92.969,166.384 94.313,166.685 95.656,166.996 97,167.316 98.344,167.645 99.688,167.984 101.031,168.331 102.375,168.687 103.719,169.052 105.063,169.426 106.406,169.809 107.75,170.2 109.094,170.599 110.438,171.007 111.781,171.423 113.125,171.847 114.469,172.279 115.813,172.719 117.156,173.167 118.5,173.622 119.844,174.085 121.188,174.555 122.531,175.033 123.875,175.517 125.219,176.009 126.563,176.507 127.906,177.013 129.25,177.524 130.594,178.043 131.938,178.567 133.281,179.098 134.625,179.635 135.969,180.178 137.313,180.726 138.656,181.28 140,181.84 141.344,182.405 142.688,182.975 144.031,183.55 145.375,184.13 146.719,184.715 148.063,185.304 149.406,185.897 150.75,186.495 152.094,187.097 153.438,187.703 154.781,188.312 156.125,188.925 157.469,189.542 158.813,190.162 160.156,190.784 161.5,191.41 162.844,192.039 164.188,192.67 165.531,193.303 166.875,193.939 168.219,194.577 169.563,195.216 170.906,195.858 172.25,196.501 173.594,197.145 174.938,197.791 176.281,198.437 177.625,199.085 178.969,199.733 180.313,200.382 181.656,201.031 183,201.68 184.344,202.329 185.688,202.978 187.031,203.627 188.375,204.275 189.719,204.923 191.063,205.569 192.406,206.215 193.75,206.859 195.094,207.502 196.438,208.144 197.781,208.783 199.125,209.421 200.469,210.057 201.813,210.69 203.156,211.321 204.5,211.95 205.844,212.576 207.188,213.198 208.531,213.818 209.875,214.435 211.219,215.048 212.563,215.657 213.906,216.263 215.25,216.865 216.594,217.463 217.938,218.056 219.281,218.645 220.625,219.23 221.969,219.81 223.313,220.385 224.656,220.955 226,221.52 227.344,222.08 228.688,222.634 230.031,223.182 231.375,223.725 232.719,224.262 234.063,224.793 235.406,225.317 236.75,225.836 238.094,226.347 239.438,226.853 240.781,227.351 242.125,227.843 243.469,228.327 244.813,228.805 246.156,229.275 247.5,229.738 248.844,230.193 250.188,230.641 251.531,231.081 252.875,231.513 254.219,231.937 255.563,232.353 256.906,232.761 258.25,233.16 259.594,233.551 260.938,233.934 262.281,234.308 263.625,234.673 264.969,235.029 266.313,235.376 267.656,235.715 269,236.044 270.344,236.364 271.688,236.675 273.031,236.976 274.375,237.268 275.719,237.55 277.063,237.823 278.406,238.086 279.75,238.34 281.094,238.583 282.438,238.817 283.781,239.04 285.125,239.254 286.469,239.458 287.813,239.651 289.156,239.835 290.5,240.008 291.844,240.171 293.188,240.323 294.531,240.466 295.875,240.598 297.219,240.719 298.563,240.83 299.906,240.931 301.25,241.021 302.594,241.1 303.938,241.169 305.281,241.227 306.625,241.275 307.969,241.312 309.313,241.339 310.656,241.355 312,241.36 313.344,241.355 314.688,241.339 316.031,241.312 317.375,241.275 318.719,241.227 320.063,241.169 321.406,241.1 322.75,241.021 324.094,240.931 325.438,240.83 326.781,240.719 328.125,240.598 329.469,240.466 330.813,240.323 332.156,240.171 333.5,240.008 334.844,239.835 336.188,239.651 337.531,239.458 338.875,239.254 340.219,239.04 341.563,238.817 342.906,238.583 344.25,238.34 345.594,238.086 346.938,237.823 348.281,237.55 349.625,237.268 350.969,236.976 352.313,236.675 353.656,236.364 355,236.044 356.344,235.715 357.688,235.376 359.031,235.029 360.375,234.673 361.719,234.308 363.063,233.934 364.406,233.551 365.75,233.16 367.094,232.761 368.438,232.353 369.781,231.937 371.125,231.513 372.469,231.081 373.813,230.641 375.156,230.193 376.5,229.738 377.844,229.275 379.188,228.805 380.531,228.327 381.875,227.843 383.219,227.351 384.563,226.853 385.906,226.347 387.25,225.836 388.594,225.317 389.938,224.793 391.281,224.262 392.625,223.725 393.969,223.182 395.313,222.634 396.656,222.08 398,221.52 399.344,220.955 400.688,220.385 402.031,219.81 403.375,219.23 404.719,218.645 406.063,218.056 407.406,217.463 408.75,216.865 410.094,216.263 411.438,215.657 412.781,215.048 414.125,214.435 415.469,213.818 416.813,213.198 418.156,212.576 419.5,211.95 420.844,211.321 422.188,210.69 423.531,210.057 424.875,209.421 426.219,208.783 427.563,208.144 428.906,207.502 430.25,206.859 431.594,206.215 432.938,205.569 434.281,204.923 435.625,204.275 436.969,203.627 438.313,202.978 439.656,202.329 441,201.68 442.344,201.031 443.688,200.382 445.031,199.733 446.375,199.085 447.719,198.437 449.063,197.791 450.406,197.145 451.75,196.501 453.094,195.858 454.438,195.216 455.781,194.577 457.125,193.939 458.469,193.303 459.813,192.67 461.156,192.039 462.5,191.41 463.844,190.784 465.188,190.162 466.531,189.542 467.875,188.925 469.219,188.312 470.563,187.703 471.906,187.097 473.25,186.495 474.594,185.897 475.938,185.304 477.281,184.715 478.625,184.13 479.969,183.55 481.313,182.975 482.656,182.405 484,181.84 485.344,181.28 486.688,180.726 488.031,180.178 489.375,179.635 490.719,179.098 492.063,178.567 493.406,178.043 494.75,177.524 496.094,177.013 497.438,176.507 498.781,176.009 500.125,175.517 501.469,175.033 502.813,174.555 504.156,174.085 505.5,173.622 506.844,173.167 508.188,172.719 509.531,172.279 510.875,171.847 512.219,171.423 513.563,171.007 514.906,170.599 516.25,170.2 517.594,169.809 518.938,169.426 520.281,169.052 521.625,168.687 522.969,168.331 524.313,167.984 525.656,167.645 527,167.316 528.344,166.996 529.688,166.685 531.031,166.384 532.375,166.092 533.719,165.81 535.063,165.537 536.406,165.274 537.75,165.02 539.094,164.777 540.438,164.543 541.781,164.32 543.125,164.106 544.469,163.902 545.813,163.709 547.156,163.525 548.5,163.352 549.844,163.189 551.188,163.037 552.531,162.894 553.875,162.762 555.219,162.641 556.563,162.53 557.906,162.429 559.25,162.339 560.594,162.26 561.938,162.191 563.281,162.133 564.625,162.085 565.969,162.048 567.313,162.021 568.656,162.005 570,162" fill="none" stroke="#c2622a" stroke-width="2" opacity="0.9"/>
<rect x="582" y="38" width="10" height="10" fill="#c2622a"/>
<text x="596" y="47" fill="#c9bfa9" font-size="10">HiDrumsBus DJ</text>
<polyline points="54,162 55.344,162.005 56.688,162.021 58.031,162.048 59.375,162.085 60.719,162.133 62.063,162.191 63.406,162.26 64.75,162.339 66.094,162.429 67.438,162.53 68.781,162.641 70.125,162.762 71.469,162.894 72.813,163.037 74.156,163.189 75.5,163.352 76.844,163.525 78.188,163.709 79.531,163.902 80.875,164.106 82.219,164.32 83.563,164.543 84.906,164.777 86.25,165.02 87.594,165.274 88.938,165.537 90.281,165.81 91.625,166.092 92.969,166.384 94.313,166.685 95.656,166.996 97,167.316 98.344,167.645 99.688,167.984 101.031,168.331 102.375,168.687 103.719,169.052 105.063,169.426 106.406,169.809 107.75,170.2 109.094,170.599 110.438,171.007 111.781,171.423 113.125,171.847 114.469,172.279 115.813,172.719 117.156,173.167 118.5,173.622 119.844,174.085 121.188,174.555 122.531,175.033 123.875,175.517 125.219,176.009 126.563,176.507 127.906,177.013 129.25,177.524 130.594,178.043 131.938,178.567 133.281,179.098 134.625,179.635 135.969,180.178 137.313,180.726 138.656,181.28 140,181.84 141.344,182.405 142.688,182.975 144.031,183.55 145.375,184.13 146.719,184.715 148.063,185.304 149.406,185.897 150.75,186.495 152.094,187.097 153.438,187.703 154.781,188.312 156.125,188.925 157.469,189.542 158.813,190.162 160.156,190.784 161.5,191.41 162.844,192.039 164.188,192.67 165.531,193.303 166.875,193.939 168.219,194.577 169.563,195.216 170.906,195.858 172.25,196.501 173.594,197.145 174.938,197.791 176.281,198.437 177.625,199.085 178.969,199.733 180.313,200.382 181.656,201.031 183,201.68 184.344,202.329 185.688,202.978 187.031,203.627 188.375,204.275 189.719,204.923 191.063,205.569 192.406,206.215 193.75,206.859 195.094,207.502 196.438,208.144 197.781,208.783 199.125,209.421 200.469,210.057 201.813,210.69 203.156,211.321 204.5,211.95 205.844,212.576 207.188,213.198 208.531,213.818 209.875,214.435 211.219,215.048 212.563,215.657 213.906,216.263 215.25,216.865 216.594,217.463 217.938,218.056 219.281,218.645 220.625,219.23 221.969,219.81 223.313,220.385 224.656,220.955 226,221.52 227.344,222.08 228.688,222.634 230.031,223.182 231.375,223.725 232.719,224.262 234.063,224.793 235.406,225.317 236.75,225.836 238.094,226.347 239.438,226.853 240.781,227.351 242.125,227.843 243.469,228.327 244.813,228.805 246.156,229.275 247.5,229.738 248.844,230.193 250.188,230.641 251.531,231.081 252.875,231.513 254.219,231.937 255.563,232.353 256.906,232.761 258.25,233.16 259.594,233.551 260.938,233.934 262.281,234.308 263.625,234.673 264.969,235.029 266.313,235.376 267.656,235.715 269,236.044 270.344,236.364 271.688,236.675 273.031,236.976 274.375,237.268 275.719,237.55 277.063,237.823 278.406,238.086 279.75,238.34 281.094,238.583 282.438,238.817 283.781,239.04 285.125,239.254 286.469,239.458 287.813,239.651 289.156,239.835 290.5,240.008 291.844,240.171 293.188,240.323 294.531,240.466 295.875,240.598 297.219,240.719 298.563,240.83 299.906,240.931 301.25,241.021 302.594,241.1 303.938,241.169 305.281,241.227 306.625,241.275 307.969,241.312 309.313,241.339 310.656,241.355 312,241.36 313.344,241.355 314.688,241.339 316.031,241.312 317.375,241.275 318.719,241.227 320.063,241.169 321.406,241.1 322.75,241.021 324.094,240.931 325.438,240.83 326.781,240.719 328.125,240.598 329.469,240.466 330.813,240.323 332.156,240.171 333.5,240.008 334.844,239.835 336.188,239.651 337.531,239.458 338.875,239.254 340.219,239.04 341.563,238.817 342.906,238.583 344.25,238.34 345.594,238.086 346.938,237.823 348.281,237.55 349.625,237.268 350.969,236.976 352.313,236.675 353.656,236.364 355,236.044 356.344,235.715 357.688,235.376 359.031,235.029 360.375,234.673 361.719,234.308 363.063,233.934 364.406,233.551 365.75,233.16 367.094,232.761 368.438,232.353 369.781,231.937 371.125,231.513 372.469,231.081 373.813,230.641 375.156,230.193 376.5,229.738 377.844,229.275 379.188,228.805 380.531,228.327 381.875,227.843 383.219,227.351 384.563,226.853 385.906,226.347 387.25,225.836 388.594,225.317 389.938,224.793 391.281,224.262 392.625,223.725 393.969,223.182 395.313,222.634 396.656,222.08 398,221.52 399.344,220.955 400.688,220.385 402.031,219.81 403.375,219.23 404.719,218.645 406.063,218.056 407.406,217.463 408.75,216.865 410.094,216.263 411.438,215.657 412.781,215.048 414.125,214.435 415.469,213.818 416.813,213.198 418.156,212.576 419.5,211.95 420.844,211.321 422.188,210.69 423.531,210.057 424.875,209.421 426.219,208.783 427.563,208.144 428.906,207.502 430.25,206.859 431.594,206.215 432.938,205.569 434.281,204.923 435.625,204.275 436.969,203.627 438.313,202.978 439.656,202.329 441,201.68 442.344,201.031 443.688,200.382 445.031,199.733 446.375,199.085 447.719,198.437 449.063,197.791 450.406,197.145 451.75,196.501 453.094,195.858 454.438,195.216 455.781,194.577 457.125,193.939 458.469,193.303 459.813,192.67 461.156,192.039 462.5,191.41 463.844,190.784 465.188,190.162 466.531,189.542 467.875,188.925 469.219,188.312 470.563,187.703 471.906,187.097 473.25,186.495 474.594,185.897 475.938,185.304 477.281,184.715 478.625,184.13 479.969,183.55 481.313,182.975 482.656,182.405 484,181.84 485.344,181.28 486.688,180.726 488.031,180.178 489.375,179.635 490.719,179.098 492.063,178.567 493.406,178.043 494.75,177.524 496.094,177.013 497.438,176.507 498.781,176.009 500.125,175.517 501.469,175.033 502.813,174.555 504.156,174.085 505.5,173.622 506.844,173.167 508.188,172.719 509.531,172.279 510.875,171.847 512.219,171.423 513.563,171.007 514.906,170.599 516.25,170.2 517.594,169.809 518.938,169.426 520.281,169.052 521.625,168.687 522.969,168.331 524.313,167.984 525.656,167.645 527,167.316 528.344,166.996 529.688,166.685 531.031,166.384 532.375,166.092 533.719,165.81 535.063,165.537 536.406,165.274 537.75,165.02 539.094,164.777 540.438,164.543 541.781,164.32 543.125,164.106 544.469,163.902 545.813,163.709 547.156,163.525 548.5,163.352 549.844,163.189 551.188,163.037 552.531,162.894 553.875,162.762 555.219,162.641 556.563,162.53 557.906,162.429 559.25,162.339 560.594,162.26 561.938,162.191 563.281,162.133 564.625,162.085 565.969,162.048 567.313,162.021 568.656,162.005 570,162" fill="none" stroke="#2bb3a3" stroke-width="2" opacity="0.9"/>
<rect x="582" y="53" width="10" height="10" fill="#2bb3a3"/>
<text x="596" y="62" fill="#c9bfa9" font-size="10">PercBus DJ</text>
<polyline points="54,162 55.344,162.005 56.688,162.021 58.031,162.048 59.375,162.085 60.719,162.133 62.063,162.191 63.406,162.26 64.75,162.339 66.094,162.429 67.438,162.53 68.781,162.641 70.125,162.762 71.469,162.894 72.813,163.037 74.156,163.189 75.5,163.352 76.844,163.525 78.188,163.709 79.531,163.902 80.875,164.106 82.219,164.32 83.563,164.543 84.906,164.777 86.25,165.02 87.594,165.274 88.938,165.537 90.281,165.81 91.625,166.092 92.969,166.384 94.313,166.685 95.656,166.996 97,167.316 98.344,167.645 99.688,167.984 101.031,168.331 102.375,168.687 103.719,169.052 105.063,169.426 106.406,169.809 107.75,170.2 109.094,170.599 110.438,171.007 111.781,171.423 113.125,171.847 114.469,172.279 115.813,172.719 117.156,173.167 118.5,173.622 119.844,174.085 121.188,174.555 122.531,175.033 123.875,175.517 125.219,176.009 126.563,176.507 127.906,177.013 129.25,177.524 130.594,178.043 131.938,178.567 133.281,179.098 134.625,179.635 135.969,180.178 137.313,180.726 138.656,181.28 140,181.84 141.344,182.405 142.688,182.975 144.031,183.55 145.375,184.13 146.719,184.715 148.063,185.304 149.406,185.897 150.75,186.495 152.094,187.097 153.438,187.703 154.781,188.312 156.125,188.925 157.469,189.542 158.813,190.162 160.156,190.784 161.5,191.41 162.844,192.039 164.188,192.67 165.531,193.303 166.875,193.939 168.219,194.577 169.563,195.216 170.906,195.858 172.25,196.501 173.594,197.145 174.938,197.791 176.281,198.437 177.625,199.085 178.969,199.733 180.313,200.382 181.656,201.031 183,201.68 184.344,202.329 185.688,202.978 187.031,203.627 188.375,204.275 189.719,204.923 191.063,205.569 192.406,206.215 193.75,206.859 195.094,207.502 196.438,208.144 197.781,208.783 199.125,209.421 200.469,210.057 201.813,210.69 203.156,211.321 204.5,211.95 205.844,212.576 207.188,213.198 208.531,213.818 209.875,214.435 211.219,215.048 212.563,215.657 213.906,216.263 215.25,216.865 216.594,217.463 217.938,218.056 219.281,218.645 220.625,219.23 221.969,219.81 223.313,220.385 224.656,220.955 226,221.52 227.344,222.08 228.688,222.634 230.031,223.182 231.375,223.725 232.719,224.262 234.063,224.793 235.406,225.317 236.75,225.836 238.094,226.347 239.438,226.853 240.781,227.351 242.125,227.843 243.469,228.327 244.813,228.805 246.156,229.275 247.5,229.738 248.844,230.193 250.188,230.641 251.531,231.081 252.875,231.513 254.219,231.937 255.563,232.353 256.906,232.761 258.25,233.16 259.594,233.551 260.938,233.934 262.281,234.308 263.625,234.673 264.969,235.029 266.313,235.376 267.656,235.715 269,236.044 270.344,236.364 271.688,236.675 273.031,236.976 274.375,237.268 275.719,237.55 277.063,237.823 278.406,238.086 279.75,238.34 281.094,238.583 282.438,238.817 283.781,239.04 285.125,239.254 286.469,239.458 287.813,239.651 289.156,239.835 290.5,240.008 291.844,240.171 293.188,240.323 294.531,240.466 295.875,240.598 297.219,240.719 298.563,240.83 299.906,240.931 301.25,241.021 302.594,241.1 303.938,241.169 305.281,241.227 306.625,241.275 307.969,241.312 309.313,241.339 310.656,241.355 312,241.36 313.344,241.355 314.688,241.339 316.031,241.312 317.375,241.275 318.719,241.227 320.063,241.169 321.406,241.1 322.75,241.021 324.094,240.931 325.438,240.83 326.781,240.719 328.125,240.598 329.469,240.466 330.813,240.323 332.156,240.171 333.5,240.008 334.844,239.835 336.188,239.651 337.531,239.458 338.875,239.254 340.219,239.04 341.563,238.817 342.906,238.583 344.25,238.34 345.594,238.086 346.938,237.823 348.281,237.55 349.625,237.268 350.969,236.976 352.313,236.675 353.656,236.364 355,236.044 356.344,235.715 357.688,235.376 359.031,235.029 360.375,234.673 361.719,234.308 363.063,233.934 364.406,233.551 365.75,233.16 367.094,232.761 368.438,232.353 369.781,231.937 371.125,231.513 372.469,231.081 373.813,230.641 375.156,230.193 376.5,229.738 377.844,229.275 379.188,228.805 380.531,228.327 381.875,227.843 383.219,227.351 384.563,226.853 385.906,226.347 387.25,225.836 388.594,225.317 389.938,224.793 391.281,224.262 392.625,223.725 393.969,223.182 395.313,222.634 396.656,222.08 398,221.52 399.344,220.955 400.688,220.385 402.031,219.81 403.375,219.23 404.719,218.645 406.063,218.056 407.406,217.463 408.75,216.865 410.094,216.263 411.438,215.657 412.781,215.048 414.125,214.435 415.469,213.818 416.813,213.198 418.156,212.576 419.5,211.95 420.844,211.321 422.188,210.69 423.531,210.057 424.875,209.421 426.219,208.783 427.563,208.144 428.906,207.502 430.25,206.859 431.594,206.215 432.938,205.569 434.281,204.923 435.625,204.275 436.969,203.627 438.313,202.978 439.656,202.329 441,201.68 442.344,201.031 443.688,200.382 445.031,199.733 446.375,199.085 447.719,198.437 449.063,197.791 450.406,197.145 451.75,196.501 453.094,195.858 454.438,195.216 455.781,194.577 457.125,193.939 458.469,193.303 459.813,192.67 461.156,192.039 462.5,191.41 463.844,190.784 465.188,190.162 466.531,189.542 467.875,188.925 469.219,188.312 470.563,187.703 471.906,187.097 473.25,186.495 474.594,185.897 475.938,185.304 477.281,184.715 478.625,184.13 479.969,183.55 481.313,182.975 482.656,182.405 484,181.84 485.344,181.28 486.688,180.726 488.031,180.178 489.375,179.635 490.719,179.098 492.063,178.567 493.406,178.043 494.75,177.524 496.094,177.013 497.438,176.507 498.781,176.009 500.125,175.517 501.469,175.033 502.813,174.555 504.156,174.085 505.5,173.622 506.844,173.167 508.188,172.719 509.531,172.279 510.875,171.847 512.219,171.423 513.563,171.007 514.906,170.599 516.25,170.2 517.594,169.809 518.938,169.426 520.281,169.052 521.625,168.687 522.969,168.331 524.313,167.984 525.656,167.645 527,167.316 528.344,166.996 529.688,166.685 531.031,166.384 532.375,166.092 533.719,165.81 535.063,165.537 536.406,165.274 537.75,165.02 539.094,164.777 540.438,164.543 541.781,164.32 543.125,164.106 544.469,163.902 545.813,163.709 547.156,163.525 548.5,163.352 549.844,163.189 551.188,163.037 552.531,162.894 553.875,162.762 555.219,162.641 556.563,162.53 557.906,162.429 559.25,162.339 560.594,162.26 561.938,162.191 563.281,162.133 564.625,162.085 565.969,162.048 567.313,162.021 568.656,162.005 570,162" fill="none" stroke="#8a6bd6" stroke-width="2" opacity="0.9"/>
<rect x="582" y="68" width="10" height="10" fill="#8a6bd6"/>
<text x="596" y="77" fill="#c9bfa9" font-size="10">PadsBus DJ</text>
<polyline points="54,162 55.344,162.005 56.688,162.021 58.031,162.048 59.375,162.085 60.719,162.133 62.063,162.191 63.406,162.26 64.75,162.339 66.094,162.429 67.438,162.53 68.781,162.641 70.125,162.762 71.469,162.894 72.813,163.037 74.156,163.189 75.5,163.352 76.844,163.525 78.188,163.709 79.531,163.902 80.875,164.106 82.219,164.32 83.563,164.543 84.906,164.777 86.25,165.02 87.594,165.274 88.938,165.537 90.281,165.81 91.625,166.092 92.969,166.384 94.313,166.685 95.656,166.996 97,167.316 98.344,167.645 99.688,167.984 101.031,168.331 102.375,168.687 103.719,169.052 105.063,169.426 106.406,169.809 107.75,170.2 109.094,170.599 110.438,171.007 111.781,171.423 113.125,171.847 114.469,172.279 115.813,172.719 117.156,173.167 118.5,173.622 119.844,174.085 121.188,174.555 122.531,175.033 123.875,175.517 125.219,176.009 126.563,176.507 127.906,177.013 129.25,177.524 130.594,178.043 131.938,178.567 133.281,179.098 134.625,179.635 135.969,180.178 137.313,180.726 138.656,181.28 140,181.84 141.344,182.405 142.688,182.975 144.031,183.55 145.375,184.13 146.719,184.715 148.063,185.304 149.406,185.897 150.75,186.495 152.094,187.097 153.438,187.703 154.781,188.312 156.125,188.925 157.469,189.542 158.813,190.162 160.156,190.784 161.5,191.41 162.844,192.039 164.188,192.67 165.531,193.303 166.875,193.939 168.219,194.577 169.563,195.216 170.906,195.858 172.25,196.501 173.594,197.145 174.938,197.791 176.281,198.437 177.625,199.085 178.969,199.733 180.313,200.382 181.656,201.031 183,201.68 184.344,202.329 185.688,202.978 187.031,203.627 188.375,204.275 189.719,204.923 191.063,205.569 192.406,206.215 193.75,206.859 195.094,207.502 196.438,208.144 197.781,208.783 199.125,209.421 200.469,210.057 201.813,210.69 203.156,211.321 204.5,211.95 205.844,212.576 207.188,213.198 208.531,213.818 209.875,214.435 211.219,215.048 212.563,215.657 213.906,216.263 215.25,216.865 216.594,217.463 217.938,218.056 219.281,218.645 220.625,219.23 221.969,219.81 223.313,220.385 224.656,220.955 226,221.52 227.344,222.08 228.688,222.634 230.031,223.182 231.375,223.725 232.719,224.262 234.063,224.793 235.406,225.317 236.75,225.836 238.094,226.347 239.438,226.853 240.781,227.351 242.125,227.843 243.469,228.327 244.813,228.805 246.156,229.275 247.5,229.738 248.844,230.193 250.188,230.641 251.531,231.081 252.875,231.513 254.219,231.937 255.563,232.353 256.906,232.761 258.25,233.16 259.594,233.551 260.938,233.934 262.281,234.308 263.625,234.673 264.969,235.029 266.313,235.376 267.656,235.715 269,236.044 270.344,236.364 271.688,236.675 273.031,236.976 274.375,237.268 275.719,237.55 277.063,237.823 278.406,238.086 279.75,238.34 281.094,238.583 282.438,238.817 283.781,239.04 285.125,239.254 286.469,239.458 287.813,239.651 289.156,239.835 290.5,240.008 291.844,240.171 293.188,240.323 294.531,240.466 295.875,240.598 297.219,240.719 298.563,240.83 299.906,240.931 301.25,241.021 302.594,241.1 303.938,241.169 305.281,241.227 306.625,241.275 307.969,241.312 309.313,241.339 310.656,241.355 312,241.36 313.344,241.355 314.688,241.339 316.031,241.312 317.375,241.275 318.719,241.227 320.063,241.169 321.406,241.1 322.75,241.021 324.094,240.931 325.438,240.83 326.781,240.719 328.125,240.598 329.469,240.466 330.813,240.323 332.156,240.171 333.5,240.008 334.844,239.835 336.188,239.651 337.531,239.458 338.875,239.254 340.219,239.04 341.563,238.817 342.906,238.583 344.25,238.34 345.594,238.086 346.938,237.823 348.281,237.55 349.625,237.268 350.969,236.976 352.313,236.675 353.656,236.364 355,236.044 356.344,235.715 357.688,235.376 359.031,235.029 360.375,234.673 361.719,234.308 363.063,233.934 364.406,233.551 365.75,233.16 367.094,232.761 368.438,232.353 369.781,231.937 371.125,231.513 372.469,231.081 373.813,230.641 375.156,230.193 376.5,229.738 377.844,229.275 379.188,228.805 380.531,228.327 381.875,227.843 383.219,227.351 384.563,226.853 385.906,226.347 387.25,225.836 388.594,225.317 389.938,224.793 391.281,224.262 392.625,223.725 393.969,223.182 395.313,222.634 396.656,222.08 398,221.52 399.344,220.955 400.688,220.385 402.031,219.81 403.375,219.23 404.719,218.645 406.063,218.056 407.406,217.463 408.75,216.865 410.094,216.263 411.438,215.657 412.781,215.048 414.125,214.435 415.469,213.818 416.813,213.198 418.156,212.576 419.5,211.95 420.844,211.321 422.188,210.69 423.531,210.057 424.875,209.421 426.219,208.783 427.563,208.144 428.906,207.502 430.25,206.859 431.594,206.215 432.938,205.569 434.281,204.923 435.625,204.275 436.969,203.627 438.313,202.978 439.656,202.329 441,201.68 442.344,201.031 443.688,200.382 445.031,199.733 446.375,199.085 447.719,198.437 449.063,197.791 450.406,197.145 451.75,196.501 453.094,195.858 454.438,195.216 455.781,194.577 457.125,193.939 458.469,193.303 459.813,192.67 461.156,192.039 462.5,191.41 463.844,190.784 465.188,190.162 466.531,189.542 467.875,188.925 469.219,188.312 470.563,187.703 471.906,187.097 473.25,186.495 474.594,185.897 475.938,185.304 477.281,184.715 478.625,184.13 479.969,183.55 481.313,182.975 482.656,182.405 484,181.84 485.344,181.28 486.688,180.726 488.031,180.178 489.375,179.635 490.719,179.098 492.063,178.567 493.406,178.043 494.75,177.524 496.094,177.013 497.438,176.507 498.781,176.009 500.125,175.517 501.469,175.033 502.813,174.555 504.156,174.085 505.5,173.622 506.844,173.167 508.188,172.719 509.531,172.279 510.875,171.847 512.219,171.423 513.563,171.007 514.906,170.599 516.25,170.2 517.594,169.809 518.938,169.426 520.281,169.052 521.625,168.687 522.969,168.331 524.313,167.984 525.656,167.645 527,167.316 528.344,166.996 529.688,166.685 531.031,166.384 532.375,166.092 533.719,165.81 535.063,165.537 536.406,165.274 537.75,165.02 539.094,164.777 540.438,164.543 541.781,164.32 543.125,164.106 544.469,163.902 545.813,163.709 547.156,163.525 548.5,163.352 549.844,163.189 551.188,163.037 552.531,162.894 553.875,162.762 555.219,162.641 556.563,162.53 557.906,162.429 559.25,162.339 560.594,162.26 561.938,162.191 563.281,162.133 564.625,162.085 565.969,162.048 567.313,162.021 568.656,162.005 570,162" fill="none" stroke="#4caf6e" stroke-width="2" opacity="0.9"/>
<rect x="582" y="83" width="10" height="10" fill="#4caf6e"/>
<text x="596" y="92" fill="#c9bfa9" font-size="10">LeadsBus DJ</text>
<text x="54" y="20" fill="#f3ead9" font-size="14" font-weight="700">BREATH 8</text>
<text x="570" y="20" fill="#7c756a" font-size="10" text-anchor="end">8 bars @ 94 BPM · y = normalized 0..1</text>
</svg>