<svg xmlns="http://www.w3.org/2000/svg" width="720" height="320" viewBox="0 0 720 320" font-family="JetBrains Mono, ui-monospace, monospace">
<rect width="720" height="320" fill="#15130f"/>
<line x1="54" y1="290" x2="570" y2="290" stroke="#2a261f"/>
<text x="46" y="293" fill="#7c756a" font-size="10" text-anchor="end">0.0</text>
<line x1="54" y1="162" x2="570" y2="162" stroke="#2a261f"/>
<text x="46" y="165" fill="#7c756a" font-size="10" text-anchor="end">0.5</text>
<line x1="54" y1="34" x2="570" y2="34" stroke="#2a261f"/>
<text x="46" y="37" fill="#7c756a" font-size="10" text-anchor="end">1.0</text>
<line x1="54" y1="34" x2="54" y2="290" stroke="#211e18"/>
<text x="54" y="308" fill="#7c756a" font-size="10" text-anchor="middle">0</text>
<line x1="312" y1="34" x2="312" y2="290" stroke="#211e18"/>
<text x="312" y="308" fill="#7c756a" font-size="10" text-anchor="middle">4</text>
<line x1="570" y1="34" x2="570" y2="290" stroke="#211e18"/>
<text x="570" y="308" fill="#7c756a" font-size="10" text-anchor="middle">8</text>
<polyline points="54,72.4 55.344,72.4 56.688,72.4 58.031,72.4 59.375,72.4 60.719,72.4 62.063,72.4 63.406,72.4 64.75,72.4 66.094,72.4 67.438,72.4 68.781,72.4 70.125,72.4 71.469,72.4 72.813,72.4 74.156,72.4 75.5,72.4 76.844,72.4 78.188,72.4 79.531,72.4 80.875,72.4 82.219,72.4 83.563,72.4 84.906,72.4 86.25,72.4 87.594,72.4 88.938,72.4 90.281,72.4 91.625,72.4 92.969,72.4 94.313,72.4 95.656,72.4 97,72.4 98.344,72.4 99.688,72.4 101.031,72.4 102.375,72.4 103.719,72.4 105.063,72.4 106.406,72.4 107.75,72.4 109.094,72.4 110.438,72.4 111.781,72.4 113.125,72.4 114.469,72.4 115.813,72.4 117.156,72.4 118.5,72.4 119.844,72.4 121.188,72.4 122.531,72.4 123.875,72.4 125.219,72.4 126.563,72.4 127.906,72.4 129.25,72.4 130.594,72.4 131.938,72.4 133.281,72.4 134.625,72.4 135.969,72.4 137.313,72.4 138.656,72.4 140,72.4 141.344,72.4 142.688,72.4 144.031,72.4 145.375,72.4 146.719,72.4 148.063,72.4 149.406,72.4 150.75,72.4 152.094,72.4 153.438,72.4 154.781,72.4 156.125,72.4 157.469,72.4 158.813,72.4 160.156,72.4 161.5,72.4 162.844,72.4 164.188,72.4 165.531,72.4 166.875,72.4 168.219,72.4 169.563,72.4 170.906,72.4 172.25,72.4 173.594,72.4 174.938,72.4 176.281,72.4 177.625,72.4 178.969,72.4 180.313,72.4 181.656,72.4 183,72.4 184.344,72.4 185.688,72.4 187.031,72.4 188.375,72.4 189.719,72.4 191.063,72.4 192.406,72.4 193.75,72.4 195.094,72.4 196.438,72.4 197.781,72.4 199.125,72.4 200.469,72.4 201.813,72.4 203.156,72.4 204.5,72.4 205.844,72.4 207.188,72.4 208.531,72.4 209.875,72.4 211.219,72.4 212.563,72.4 213.906,72.4 215.25,72.4 216.594,72.4 217.938,72.4 219.281,72.4 220.625,72.4 221.969,72.4 223.313,72.4 224.656,72.4 226,72.4 227.344,72.4 228.688,72.4 230.031,72.4 231.375,72.4 232.719,72.4 234.063,72.4 235.406,72.4 236.75,72.4 238.094,72.4 239.438,72.4 240.781,72.4 242.125,72.4 243.469,72.4 244.813,72.4 246.156,72.4 247.5,72.4 248.844,72.4 250.188,72.4 251.531,72.4 252.875,72.4 254.219,72.4 255.563,72.4 256.906,72.4 258.25,72.4 259.594,72.4 260.938,72.4 262.281,72.4 263.625,72.4 264.969,72.4 266.313,72.4 267.656,72.4 269,72.4 270.344,72.4 271.688,72.4 273.031,72.4 274.375,72.4 275.719,72.4 277.063,72.4 278.406,72.4 279.75,72.4 281.094,72.4 282.438,72.4 283.781,72.4 285.125,72.4 286.469,72.4 287.813,72.4 289.156,72.4 290.5,72.4 291.844,72.4 293.188,72.4 294.531,72.4 295.875,72.4 297.219,72.4 298.563,72.4 299.906,72.4 301.25,72.4 302.594,72.4 303.938,72.4 305.281,72.4 306.625,72.4 307.969,72.4 309.313,72.4 310.656,72.4 312,72.4 313.344,72.4 314.688,72.4 316.031,72.4 317.375,72.4 318.719,72.4 320.063,72.4 321.406,72.4 322.75,72.4 324.094,72.4 325.438,72.4 326.781,72.4 328.125,72.4 329.469,72.4 330.813,72.4 332.156,72.4 333.5,72.4 334.844,72.4 336.188,72.4 337.531,72.4 338.875,72.4 340.219,72.4 341.563,72.4 342.906,72.4 344.25,72.4 345.594,72.4 346.938,72.4 348.281,72.4 349.625,72.4 350.969,72.4 352.313,72.4 353.656,72.4 355,72.4 356.344,72.4 357.688,72.4 359.031,72.4 360.375,72.4 361.719,72.4 363.063,72.4 364.406,72.4 365.75,72.4 367.094,72.4 368.438,72.4 369.781,72.4 371.125,72.4 372.469,72.4 373.813,72.4 375.156,72.4 376.5,72.4 377.844,72.4 379.188,72.4 380.531,72.4 381.875,72.4 383.219,72.4 384.563,72.4 385.906,72.4 387.25,72.4 388.594,72.4 389.938,72.4 391.281,72.4 392.625,72.4 393.969,72.4 395.313,72.4 396.656,72.4 398,72.4 399.344,72.4 400.688,72.4 402.031,72.4 403.375,72.4 404.719,72.4 406.063,72.4 407.406,72.4 408.75,72.4 410.094,72.4 411.438,72.4 412.781,72.4 414.125,72.4 415.469,72.4 416.813,72.4 418.156,72.4 419.5,72.4 420.844,72.4 422.188,72.4 423.531,72.4 424.875,72.4 426.219,72.4 427.563,72.4 428.906,72.4 430.25,72.4 431.594,72.4 432.938,72.4 434.281,72.4 435.625,72.4 436.969,72.4 438.313,72.4 439.656,72.4 441,72.4 442.344,72.4 443.688,72.4 445.031,72.4 446.375,72.4 447.719,72.4 449.063,72.4 450.406,72.4 451.75,72.4 453.094,72.4 454.438,72.4 455.781,72.4 457.125,72.4 458.469,72.4 459.813,72.4 461.156,72.4 462.5,72.4 463.844,72.4 465.188,72.4 466.531,72.4 467.875,72.4 469.219,72.4 470.563,72.4 471.906,72.4 473.25,72.4 474.594,72.4 475.938,72.4 477.281,72.4 478.625,72.4 479.969,72.4 481.313,72.4 482.656,72.4 484,72.4 485.344,72.4 486.688,72.4 488.031,72.4 489.375,72.4 490.719,72.4 492.063,72.4 493.406,72.4 494.75,72.4 496.094,72.4 497.438,72.4 498.781,72.4 500.125,72.4 501.469,72.4 502.813,72.4 504.156,72.4 505.5,72.4 506.844,72.4 508.188,72.4 509.531,72.4 510.875,72.4 512.219,72.4 513.563,72.4 514.906,72.4 516.25,72.4 517.594,72.4 518.938,72.4 520.281,72.4 521.625,72.4 522.969,72.4 524.313,72.4 525.656,72.4 527,72.4 528.344,72.4 529.688,72.4 531.031,72.4 532.375,72.4 533.719,72.4 535.063,72.4 536.406,72.4 537.75,72.4 539.094,72.4 540.438,72.4 541.781,72.4 543.125,72.4 544.469,72.4 545.813,72.4 547.156,72.4 548.5,72.4 549.844,72.4 551.188,72.4 552.531,72.4 553.875,72.4 555.219,72.4 556.563,72.4 557.906,72.4 559.25,72.4 560.594,72.4 561.938,72.4 563.281,72.4 564.625,72.4 565.969,72.4 567.313,72.4 568.656,72.4 570,72.4" fill="none" stroke="#c2622a" stroke-width="2" opacity="0.9"/>
<rect x="582" y="38" width="10" height="10" fill="#c2622a"/>
<text x="596" y="47" fill="#c9bfa9" font-size="10">CL#1 Perc</text>
<polyline points="54,72.4 55.344,72.4 56.688,72.4 58.031,72.4 59.375,72.4 60.719,72.4 62.063,72.4 63.406,72.4 64.75,72.4 66.094,72.4 67.438,72.4 68.781,72.4 70.125,72.4 71.469,72.4 72.813,72.4 74.156,72.4 75.5,72.4 76.844,72.4 78.188,72.4 79.531,72.4 80.875,72.4 82.219,72.4 83.563,72.4 84.906,72.4 86.25,72.4 87.594,72.4 88.938,72.4 90.281,72.4 91.625,72.4 92.969,72.4 94.313,72.4 95.656,72.4 97,72.4 98.344,72.4 99.688,72.4 101.031,72.4 102.375,72.4 103.719,72.4 105.063,72.4 106.406,72.4 107.75,72.4 109.094,72.4 110.438,72.4 111.781,72.4 113.125,72.4 114.469,72.4 115.813,72.4 117.156,72.4 118.5,72.4 119.844,72.4 121.188,72.4 122.531,72.4 123.875,72.4 125.219,72.4 126.563,72.4 127.906,72.4 129.25,72.4 130.594,72.4 131.938,72.4 133.281,72.4 134.625,72.4 135.969,72.4 137.313,72.4 138.656,72.4 140,72.4 141.344,72.4 142.688,72.4 144.031,72.4 145.375,72.4 146.719,72.4 148.063,72.4 149.406,72.4 150.75,72.4 152.094,72.4 153.438,72.4 154.781,72.4 156.125,72.4 157.469,72.4 158.813,72.4 160.156,72.4 161.5,72.4 162.844,72.4 164.188,72.4 165.531,72.4 166.875,72.4 168.219,72.4 169.563,72.4 170.906,72.4 172.25,72.4 173.594,72.4 174.938,72.4 176.281,72.4 177.625,72.4 178.969,72.4 180.313,72.4 181.656,72.4 183,72.4 184.344,72.4 185.688,72.4 187.031,72.4 188.375,72.4 189.719,72.4 191.063,72.4 192.406,72.4 193.75,72.4 195.094,72.4 196.438,72.4 197.781,72.4 199.125,72.4 200.469,72.4 201.813,72.4 203.156,72.4 204.5,72.4 205.844,72.4 207.188,72.4 208.531,72.4 209.875,72.4 211.219,72.4 212.563,72.4 213.906,72.4 215.25,72.4 216.594,72.4 217.938,72.4 219.281,72.4 220.625,72.4 221.969,72.4 223.313,72.4 224.656,72.4 226,72.4 227.344,72.4 228.688,72.4 230.031,72.4 231.375,72.4 232.719,72.4 234.063,72.4 235.406,72.4 236.75,72.4 238.094,72.4 239.438,72.4 240.781,72.4 242.125,72.4 243.469,72.4 244.813,72.4 246.156,72.4 247.5,72.4 248.844,72.4 250.188,72.4 251.531,72.4 252.875,72.4 254.219,72.4 255.563,72.4 256.906,72.4 258.25,72.4 259.594,72.4 260.938,72.4 262.281,72.4 263.625,72.4 264.969,72.4 266.313,72.4 267.656,72.4 269,72.4 270.344,72.4 271.688,72.4 273.031,72.4 274.375,72.4 275.719,72.4 277.063,72.4 278.406,72.4 279.75,72.4 281.094,72.4 282.438,72.4 283.781,72.4 285.125,72.4 286.469,72.4 287.813,72.4 289.156,72.4 290.5,72.4 291.844,72.4 293.188,72.4 294.531,72.4 295.875,72.4 297.219,72.4 298.563,72.4 299.906,72.4 301.25,72.4 302.594,72.4 303.938,72.4 305.281,72.4 306.625,72.4 307.969,72.4 309.313,72.4 310.656,72.4 312,72.4 313.344,72.4 314.688,72.4 316.031,72.4 317.375,72.4 318.719,72.4 320.063,72.4 321.406,72.4 322.75,72.4 324.094,72.4 325.438,72.4 326.781,72.4 328.125,72.4 329.469,72.4 330.813,72.4 332.156,72.4 333.5,72.4 334.844,72.4 336.188,72.4 337.531,72.4 338.875,72.4 340.219,72.4 341.563,72.4 342.906,72.4 344.25,72.4 345.594,72.4 346.938,72.4 348.281,72.4 349.625,72.4 350.969,72.4 352.313,72.4 353.656,72.4 355,72.4 356.344,72.4 357.688,72.4 359.031,72.4 360.375,72.4 361.719,72.4 363.063,72.4 364.406,72.4 365.75,72.4 367.094,72.4 368.438,72.4 369.781,72.4 371.125,72.4 372.469,72.4 373.813,72.4 375.156,72.4 376.5,72.4 377.844,72.4 379.188,72.4 380.531,72.4 381.875,72.4 383.219,72.4 384.563,72.4 385.906,72.4 387.25,72.4 388.594,72.4 389.938,72.4 391.281,72.4 392.625,72.4 393.969,72.4 395.313,72.4 396.656,72.4 398,72.4 399.344,72.4 400.688,72.4 402.031,72.4 403.375,72.4 404.719,72.4 406.063,72.4 407.406,72.4 408.75,72.4 410.094,72.4 411.438,72.4 412.781,72.4 414.125,72.4 415.469,72.4 416.813,72.4 418.156,72.4 419.5,72.4 420.844,72.4 422.188,72.4 423.531,72.4 424.875,72.4 426.219,72.4 427.563,72.4 428.906,72.4 430.25,72.4 431.594,72.4 432.938,72.4 434.281,72.4 435.625,72.4 436.969,72.4 438.313,72.4 439.656,72.4 441,72.4 442.344,72.4 443.688,72.4 445.031,72.4 446.375,72.4 447.719,72.4 449.063,72.4 450.406,72.4 451.75,72.4 453.094,72.4 454.438,72.4 455.781,72.4 457.125,72.4 458.469,72.4 459.813,72.4 461.156,72.4 462.5,72.4 463.844,72.4 465.188,72.4 466.531,72.4 467.875,72.4 469.219,72.4 470.563,72.4 471.906,72.4 473.25,72.4 474.594,72.4 475.938,72.4 477.281,72.4 478.625,72.4 479.969,72.4 481.313,72.4 482.656,72.4 484,72.4 485.344,72.4 486.688,72.4 488.031,72.4 489.375,72.4 490.719,72.4 492.063,72.4 493.406,72.4 494.75,72.4 496.094,72.4 497.438,72.4 498.781,72.4 500.125,72.4 501.469,72.4 502.813,72.4 504.156,72.4 505.5,72.4 506.844,72.4 508.188,72.4 509.531,72.4 510.875,72.4 512.219,72.4 513.563,72.4 514.906,72.4 516.25,72.4 517.594,72.4 518.938,72.4 520.281,72.4 521.625,72.4 522.969,72.4 524.313,72.4 525.656,72.4 527,72.4 528.344,72.4 529.688,72.4 531.031,72.4 532.375,72.4 533.719,72.4 535.063,72.4 536.406,72.4 537.75,72.4 539.094,72.4 540.438,72.4 541.781,72.4 543.125,72.4 544.469,72.4 545.813,72.4 547.156,72.4 548.5,72.4 549.844,72.4 551.188,72.4 552.531,72.4 553.875,72.4 555.219,72.4 556.563,72.4 557.906,72.4 559.25,72.4 560.594,72.4 561.938,72.4 563.281,72.4 564.625,72.4 565.969,72.4 567.313,72.4 568.656,72.4 570,72.4" fill="none" stroke="#2bb3a3" stroke-width="2" opacity="0.9"/>
<rect x="582" y="53" width="10" height="10" fill="#2bb3a3"/>
<text x="596" y="62" fill="#c9bfa9" font-size="10">CL#2 Dr Hi</text>
<polyline points="54,72.4 55.344,72.4 56.688,72.4 58.031,72.4 59.375,72.4 60.719,72.4 62.063,72.4 63.406,72.4 64.75,72.4 66.094,72.4 67.438,72.4 68.781,72.4 70.125,72.4 71.469,72.4 72.813,72.4 74.156,72.4 75.5,72.4 76.844,72.4 78.188,72.4 79.531,72.4 80.875,72.4 82.219,72.4 83.563,72.4 84.906,72.4 86.25,72.4 87.594,72.4 88.938,72.4 90.281,72.4 91.625,72.4 92.969,72.4 94.313,72.4 95.656,72.4 97,72.4 98.344,72.4 99.688,72.4 101.031,72.4 102.375,72.4 103.719,72.4 105.063,72.4 106.406,72.4 107.75,72.4 109.094,72.4 110.438,72.4 111.781,72.4 113.125,72.4 114.469,72.4 115.813,72.4 117.156,72.4 118.5,72.4 119.844,72.4 121.188,72.4 122.531,72.4 123.875,72.4 125.219,72.4 126.563,72.4 127.906,72.4 129.25,72.4 130.594,72.4 131.938,72.4 133.281,72.4 134.625,72.4 135.969,72.4 137.313,72.4 138.656,72.4 140,72.4 141.344,72.4 142.688,72.4 144.031,72.4 145.375,72.4 146.719,72.4 148.063,72.4 149.406,72.4 150.75,72.4 152.094,72.4 153.438,72.4 154.781,72.4 156.125,72.4 157.469,72.4 158.813,72.4 160.156,72.4 161.5,72.4 162.844,72.4 164.188,72.4 165.531,72.4 166.875,72.4 168.219,72.4 169.563,72.4 170.906,72.4 172.25,72.4 173.594,72.4 174.938,72.4 176.281,72.4 177.625,72.4 178.969,72.4 180.313,72.4 181.656,72.4 183,72.4 184.344,72.4 185.688,72.4 187.031,72.4 188.375,72.4 189.719,72.4 191.063,72.4 192.406,72.4 193.75,72.4 195.094,72.4 196.438,72.4 197.781,72.4 199.125,72.4 200.469,72.4 201.813,72.4 203.156,72.4 204.5,72.4 205.844,72.4 207.188,72.4 208.531,72.4 209.875,72.4 211.219,72.4 212.563,72.4 213.906,72.4 215.25,72.4 216.594,72.4 217.938,72.4 219.281,72.4 220.625,72.4 221.969,72.4 223.313,72.4 224.656,72.4 226,72.4 227.344,72.4 228.688,72.4 230.031,72.4 231.375,72.4 232.719,72.4 234.063,72.4 235.406,72.4 236.75,72.4 238.094,72.4 239.438,72.4 240.781,72.4 242.125,72.4 243.469,72.4 244.813,72.4 246.156,72.4 247.5,72.4 248.844,72.4 250.188,72.4 251.531,72.4 252.875,72.4 254.219,72.4 255.563,72.4 256.906,72.4 258.25,72.4 259.594,72.4 260.938,72.4 262.281,72.4 263.625,72.4 264.969,72.4 266.313,72.4 267.656,72.4 269,72.4 270.344,72.4 271.688,72.4 273.031,72.4 274.375,72.4 275.719,72.4 277.063,72.4 278.406,72.4 279.75,72.4 281.094,72.4 282.438,72.4 283.781,72.4 285.125,72.4 286.469,72.4 287.813,72.4 289.156,72.4 290.5,72.4 291.844,72.4 293.188,72.4 294.531,72.4 295.875,72.4 297.219,72.4 298.563,72.4 299.906,72.4 301.25,72.4 302.594,72.4 303.938,72.4 305.281,72.4 306.625,72.4 307.969,72.4 309.313,72.4 310.656,72.4 312,72.4 313.344,72.4 314.688,72.4 316.031,72.4 317.375,72.4 318.719,72.4 320.063,72.4 321.406,72.4 322.75,72.4 324.094,72.4 325.438,72.4 326.781,72.4 328.125,72.4 329.469,72.4 330.813,72.4 332.156,72.4 333.5,72.4 334.844,72.4 336.188,72.4 337.531,72.4 338.875,72.4 340.219,72.4 341.563,72.4 342.906,72.4 344.25,72.4 345.594,72.4 346.938,72.4 348.281,72.4 349.625,72.4 350.969,72.4 352.313,72.4 353.656,72.4 355,72.4 356.344,72.4 357.688,72.4 359.031,72.4 360.375,72.4 361.719,72.4 363.063,72.4 364.406,72.4 365.75,72.4 367.094,72.4 368.438,72.4 369.781,72.4 371.125,72.4 372.469,72.4 373.813,72.4 375.156,72.4 376.5,72.4 377.844,72.4 379.188,72.4 380.531,72.4 381.875,72.4 383.219,72.4 384.563,72.4 385.906,72.4 387.25,72.4 388.594,72.4 389.938,72.4 391.281,72.4 392.625,72.4 393.969,72.4 395.313,72.4 396.656,72.4 398,72.4 399.344,72.4 400.688,72.4 402.031,72.4 403.375,72.4 404.719,72.4 406.063,72.4 407.406,72.4 408.75,72.4 410.094,72.4 411.438,72.4 412.781,72.4 414.125,72.4 415.469,72.4 416.813,72.4 418.156,72.4 419.5,72.4 420.844,72.4 422.188,72.4 423.531,72.4 424.875,72.4 426.219,72.4 427.563,72.4 428.906,72.4 430.25,72.4 431.594,72.4 432.938,72.4 434.281,72.4 435.625,72.4 436.969,72.4 438.313,72.4 439.656,72.4 441,72.4 442.344,72.4 443.688,72.4 445.031,72.4 446.375,72.4 447.719,72.4 449.063,72.4 450.406,72.4 451.75,72.4 453.094,72.4 454.438,72.4 455.781,72.4 457.125,72.4 458.469,72.4 459.813,72.4 461.156,72.4 462.5,72.4 463.844,72.4 465.188,72.4 466.531,72.4 467.875,72.4 469.219,72.4 470.563,72.4 471.906,72.4 473.25,72.4 474.594,72.4 475.938,72.4 477.281,72.4 478.625,72.4 479.969,72.4 481.313,72.4 482.656,72.4 484,72.4 485.344,72.4 486.688,72.4 488.031,72.4 489.375,72.4 490.719,72.4 492.063,72.4 493.406,72.4 494.75,72.4 496.094,72.4 497.438,72.4 498.781,72.4 500.125,72.4 501.469,72.4 502.813,72.4 504.156,72.4 505.5,72.4 506.844,72.4 508.188,72.4 509.531,72.4 510.875,72.4 512.219,72.4 513.563,72.4 514.906,72.4 516.25,72.4 517.594,72.4 518.938,72.4 520.281,72.4 521.625,72.4 522.969,72.4 524.313,72.4 525.656,72.4 527,72.4 528.344,72.4 529.688,72.4 531.031,72.4 532.375,72.4 533.719,72.4 535.063,72.4 536.406,72.4 537.75,72.4 539.094,72.4 540.438,72.4 541.781,72.4 543.125,72.4 544.469,72.4 545.813,72.4 547.156,72.4 548.5,72.4 549.844,72.4 551.188,72.4 552.531,72.4 553.875,72.4 555.219,72.4 556.563,72.4 557.906,72.4 559.25,72.4 560.594,72.4 561.938,72.4 563.281,72.4 564.625,72.4 565.969,72.4 567.313,72.4 568.656,72.4 570,72.4" fill="none" stroke="#8a6bd6" stroke-width="2" opacity="0.9"/>
<rect x="582" y="68" width="10" height="10" fill="#8a6bd6"/>
<text x="596" y="77" fill="#c9bfa9" font-size="10">CL#3 BASS</text>
<polyline points="54,72.4 55.344,72.4 56.688,72.4 58.031,72.4 59.375,72.4 60.719,72.4 62.063,72.4 63.406,72.4 64.75,72.4 66.094,72.4 67.438,72.4 68.781,72.4 70.125,72.4 71.469,72.4 72.813,72.4 74.156,72.4 75.5,72.4 76.844,72.4 78.188,72.4 79.531,72.4 80.875,72.4 82.219,72.4 83.563,72.4 84.906,72.4 86.25,72.4 87.594,72.4 88.938,72.4 90.281,72.4 91.625,72.4 92.969,72.4 94.313,72.4 95.656,72.4 97,72.4 98.344,72.4 99.688,72.4 101.031,72.4 102.375,72.4 103.719,72.4 105.063,72.4 106.406,72.4 107.75,72.4 109.094,72.4 110.438,72.4 111.781,72.4 113.125,72.4 114.469,72.4 115.813,72.4 117.156,72.4 118.5,72.4 119.844,72.4 121.188,72.4 122.531,72.4 123.875,72.4 125.219,72.4 126.563,72.4 127.906,72.4 129.25,72.4 130.594,72.4 131.938,72.4 133.281,72.4 134.625,72.4 135.969,72.4 137.313,72.4 138.656,72.4 140,72.4 141.344,72.4 142.688,72.4 144.031,72.4 145.375,72.4 146.719,72.4 148.063,72.4 149.406,72.4 150.75,72.4 152.094,72.4 153.438,72.4 154.781,72.4 156.125,72.4 157.469,72.4 158.813,72.4 160.156,72.4 161.5,72.4 162.844,72.4 164.188,72.4 165.531,72.4 166.875,72.4 168.219,72.4 169.563,72.4 170.906,72.4 172.25,72.4 173.594,72.4 174.938,72.4 176.281,72.4 177.625,72.4 178.969,72.4 180.313,72.4 181.656,72.4 183,72.4 184.344,72.4 185.688,72.4 187.031,72.4 188.375,72.4 189.719,72.4 191.063,72.4 192.406,72.4 193.75,72.4 195.094,72.4 196.438,72.4 197.781,72.4 199.125,72.4 200.469,72.4 201.813,72.4 203.156,72.4 204.5,72.4 205.844,72.4 207.188,72.4 208.531,72.4 209.875,72.4 211.219,72.4 212.563,72.4 213.906,72.4 215.25,72.4 216.594,72.4 217.938,72.4 219.281,72.4 220.625,72.4 221.969,72.4 223.313,72.4 224.656,72.4 226,72.4 227.344,72.4 228.688,72.4 230.031,72.4 231.375,72.4 232.719,72.4 234.063,72.4 235.406,72.4 236.75,72.4 238.094,72.4 239.438,72.4 240.781,72.4 242.125,72.4 243.469,72.4 244.813,72.4 246.156,72.4 247.5,72.4 248.844,72.4 250.188,72.4 251.531,72.4 252.875,72.4 254.219,72.4 255.563,72.4 256.906,72.4 258.25,72.4 259.594,72.4 260.938,72.4 262.281,72.4 263.625,72.4 264.969,72.4 266.313,72.4 267.656,72.4 269,72.4 270.344,72.4 271.688,72.4 273.031,72.4 274.375,72.4 275.719,72.4 277.063,72.4 278.406,72.4 279.75,72.4 281.094,72.4 282.438,72.4 283.781,72.4 285.125,72.4 286.469,72.4 287.813,72.4 289.156,72.4 290.5,72.4 291.844,72.4 293.188,72.4 294.531,72.4 295.875,72.4 297.219,72.4 298.563,72.4 299.906,72.4 301.25,72.4 302.594,72.4 303.938,72.4 305.281,72.4 306.625,72.4 307.969,72.4 309.313,72.4 310.656,72.4 312,72.4 313.344,72.4 314.688,72.4 316.031,72.4 317.375,72.4 318.719,72.4 320.063,72.4 321.406,72.4 322.75,72.4 324.094,72.4 325.438,72.4 326.781,72.4 328.125,72.4 329.469,72.4 330.813,72.4 332.156,72.4 333.5,72.4 334.844,72.4 336.188,72.4 337.531,72.4 338.875,72.4 340.219,72.4 341.563,72.4 342.906,72.4 344.25,72.4 345.594,72.4 346.938,72.4 348.281,72.4 349.625,72.4 350.969,72.4 352.313,72.4 353.656,72.4 355,72.4 356.344,72.4 357.688,72.4 359.031,72.4 360.375,72.4 361.719,72.4 363.063,72.4 364.406,72.4 365.75,72.4 367.094,72.4 368.438,72.4 369.781,72.4 371.125,72.4 372.469,72.4 373.813,72.4 375.156,72.4 376.5,72.4 377.844,72.4 379.188,72.4 380.531,72.4 381.875,72.4 383.219,72.4 384.563,72.4 385.906,72.4 387.25,72.4 388.594,72.4 389.938,72.4 391.281,72.4 392.625,72.4 393.969,72.4 395.313,72.4 396.656,72.4 398,72.4 399.344,72.4 400.688,72.4 402.031,72.4 403.375,72.4 404.719,72.4 406.063,72.4 407.406,72.4 408.75,72.4 410.094,72.4 411.438,72.4 412.781,72.4 414.125,72.4 415.469,72.4 416.813,72.4 418.156,72.4 419.5,72.4 420.844,72.4 422.188,72.4 423.531,72.4 424.875,72.4 426.219,72.4 427.563,72.4 428.906,72.4 430.25,72.4 431.594,72.4 432.938,72.4 434.281,72.4 435.625,72.4 436.969,72.4 438.313,72.4 439.656,72.4 441,72.4 442.344,72.4 443.688,72.4 445.031,72.4 446.375,72.4 447.719,72.4 449.063,72.4 450.406,72.4 451.75,72.4 453.094,72.4 454.438,72.4 455.781,72.4 457.125,72.4 458.469,72.4 459.813,72.4 461.156,72.4 462.5,72.4 463.844,72.4 465.188,72.4 466.531,72.4 467.875,72.4 469.219,72.4 470.563,72.4 471.906,72.4 473.25,72.4 474.594,72.4 475.938,72.4 477.281,72.4 478.625,72.4 479.969,72.4 481.313,72.4 482.656,72.4 484,72.4 485.344,72.4 486.688,72.4 488.031,72.4 489.375,72.4 490.719,72.4 492.063,72.4 493.406,72.4 494.75,72.4 496.094,72.4 497.438,72.4 498.781,72.4 500.125,72.4 501.469,72.4 502.813,72.4 504.156,72.4 505.5,72.4 506.844,72.4 508.188,72.4 509.531,72.4 510.875,72.4 512.219,72.4 513.563,72.4 514.906,72.4 516.25,72.4 517.594,72.4 518.938,72.4 520.281,72.4 521.625,72.4 522.969,72.4 524.313,72.4 525.656,72.4 527,72.4 528.344,72.4 529.688,72.4 531.031,72.4 532.375,72.4 533.719,72.4 535.063,72.4 536.406,72.4 537.75,72.4 539.094,72.4 540.438,72.4 541.781,72.4 543.125,72.4 544.469,72.4 545.813,72.4 547.156,72.4 548.5,72.4 549.844,72.4 551.188,72.4 552.531,72.4 553.875,72.4 555.219,72.4 556.563,72.4 557.906,72.4 559.25,72.4 560.594,72.4 561.938,72.4 563.281,72.4 564.625,72.4 565.969,72.4 567.313,72.4 568.656,72.4 570,72.4" fill="none" stroke="#4caf6e" stroke-width="2" opacity="0.9"/>
<rect x="582" y="83" width="10" height="10" fill="#4caf6e"/>
<text x="596" y="92" fill="#c9bfa9" font-size="10">CL#4 PAD</text>
<polyline points="54,72.4 55.344,72.4 56.688,72.4 58.031,72.4 59.375,72.4 60.719,72.4 62.063,72.4 63.406,72.4 64.75,72.4 66.094,72.4 67.438,72.4 68.781,72.4 70.125,72.4 71.469,72.4 72.813,72.4 74.156,72.4 75.5,72.4 76.844,72.4 78.188,72.4 79.531,72.4 80.875,72.4 82.219,72.4 83.563,72.4 84.906,72.4 86.25,72.4 87.594,72.4 88.938,72.4 90.281,72.4 91.625,72.4 92.969,72.4 94.313,72.4 95.656,72.4 97,72.4 98.344,72.4 99.688,72.4 101.031,72.4 102.375,72.4 103.719,72.4 105.063,72.4 106.406,72.4 107.75,72.4 109.094,72.4 110.438,72.4 111.781,72.4 113.125,72.4 114.469,72.4 115.813,72.4 117.156,72.4 118.5,72.4 119.844,72.4 121.188,72.4 122.531,72.4 123.875,72.4 125.219,72.4 126.563,72.4 127.906,72.4 129.25,72.4 130.594,72.4 131.938,72.4 133.281,72.4 134.625,72.4 135.969,72.4 137.313,72.4 138.656,72.4 140,72.4 141.344,72.4 142.688,72.4 144.031,72.4 145.375,72.4 146.719,72.4 148.063,72.4 149.406,72.4 150.75,72.4 152.094,72.4 153.438,72.4 154.781,72.4 156.125,72.4 157.469,72.4 158.813,72.4 160.156,72.4 161.5,72.4 162.844,72.4 164.188,72.4 165.531,72.4 166.875,72.4 168.219,72.4 169.563,72.4 170.906,72.4 172.25,72.4 173.594,72.4 174.938,72.4 176.281,72.4 177.625,72.4 178.969,72.4 180.313,72.4 181.656,72.4 183,72.4 184.344,72.4 185.688,72.4 187.031,72.4 188.375,72.4 189.719,72.4 191.063,72.4 192.406,72.4 193.75,72.4 195.094,72.4 196.438,72.4 197.781,72.4 199.125,72.4 200.469,72.4 201.813,72.4 203.156,72.4 204.5,72.4 205.844,72.4 207.188,72.4 208.531,72.4 209.875,72.4 211.219,72.4 212.563,72.4 213.906,72.4 215.25,72.4 216.594,72.4 217.938,72.4 219.281,72.4 220.625,72.4 221.969,72.4 223.313,72.4 224.656,72.4 226,72.4 227.344,72.4 228.688,72.4 230.031,72.4 231.375,72.4 232.719,72.4 234.063,72.4 235.406,72.4 236.75,72.4 238.094,72.4 239.438,72.4 240.781,72.4 242.125,72.4 243.469,72.4 244.813,72.4 246.156,72.4 247.5,72.4 248.844,72.4 250.188,72.4 251.531,72.4 252.875,72.4 254.219,72.4 255.563,72.4 256.906,72.4 258.25,72.4 259.594,72.4 260.938,72.4 262.281,72.4 263.625,72.4 264.969,72.4 266.313,72.4 267.656,72.4 269,72.4 270.344,72.4 271.688,72.4 273.031,72.4 274.375,72.4 275.719,72.4 277.063,72.4 278.406,72.4 279.75,72.4 281.094,72.4 282.438,72.4 283.781,72.4 285.125,72.4 286.469,72.4 287.813,72.4 289.156,72.4 290.5,72.4 291.844,72.4 293.188,72.4 294.531,72.4 295.875,72.4 297.219,72.4 298.563,72.4 299.906,72.4 301.25,72.4 302.594,72.4 303.938,72.4 305.281,72.4 306.625,72.4 307.969,72.4 309.313,72.4 310.656,72.4 312,72.4 313.344,72.4 314.688,72.4 316.031,72.4 317.375,72.4 318.719,72.4 320.063,72.4 321.406,72.4 322.75,72.4 324.094,72.4 325.438,72.4 326.781,72.4 328.125,72.4 329.469,72.4 330.813,72.4 332.156,72.4 333.5,72.4 334.844,72.4 336.188,72.4 337.531,72.4 338.875,72.4 340.219,72.4 341.563,72.4 342.906,72.4 344.25,72.4 345.594,72.4 346.938,72.4 348.281,72.4 349.625,72.4 350.969,72.4 352.313,72.4 353.656,72.4 355,72.4 356.344,72.4 357.688,72.4 359.031,72.4 360.375,72.4 361.719,72.4 363.063,72.4 364.406,72.4 365.75,72.4 367.094,72.4 368.438,72.4 369.781,72.4 371.125,72.4 372.469,72.4 373.813,72.4 375.156,72.4 376.5,72.4 377.844,72.4 379.188,72.4 380.531,72.4 381.875,72.4 383.219,72.4 384.563,72.4 385.906,72.4 387.25,72.4 388.594,72.4 389.938,72.4 391.281,72.4 392.625,72.4 393.969,72.4 395.313,72.4 396.656,72.4 398,72.4 399.344,72.4 400.688,72.4 402.031,72.4 403.375,72.4 404.719,72.4 406.063,72.4 407.406,72.4 408.75,72.4 410.094,72.4 411.438,72.4 412.781,72.4 414.125,72.4 415.469,72.4 416.813,72.4 418.156,72.4 419.5,72.4 420.844,72.4 422.188,72.4 423.531,72.4 424.875,72.4 426.219,72.4 427.563,72.4 428.906,72.4 430.25,72.4 431.594,72.4 432.938,72.4 434.281,72.4 435.625,72.4 436.969,72.4 438.313,72.4 439.656,72.4 441,72.4 442.344,72.4 443.688,72.4 445.031,72.4 446.375,72.4 447.719,72.4 449.063,72.4 450.406,72.4 451.75,72.4 453.094,72.4 454.438,72.4 455.781,72.4 457.125,72.4 458.469,72.4 459.813,72.4 461.156,72.4 462.5,72.4 463.844,72.4 465.188,72.4 466.531,72.4 467.875,72.4 469.219,72.4 470.563,72.4 471.906,72.4 473.25,72.4 474.594,72.4 475.938,72.4 477.281,72.4 478.625,72.4 479.969,72.4 481.313,72.4 482.656,72.4 484,72.4 485.344,72.4 486.688,72.4 488.031,72.4 489.375,72.4 490.719,72.4 492.063,72.4 493.406,72.4 494.75,72.4 496.094,72.4 497.438,72.4 498.781,72.4 500.125,72.4 501.469,72.4 502.813,72.4 504.156,72.4 505.5,72.4 506.844,72.4 508.188,72.4 509.531,72.4 510.875,72.4 512.219,72.4 513.563,72.4 514.906,72.4 516.25,72.4 517.594,72.4 518.938,72.4 520.281,72.4 521.625,72.4 522.969,72.4 524.313,72.4 525.656,72.4 527,72.4 528.344,72.4 529.688,72.4 531.031,72.4 532.375,72.4 533.719,72.4 535.063,72.4 536.406,72.4 537.75,72.4 539.094,72.4 540.438,72.4 541.781,72.4 543.125,72.4 544.469,72.4 545.813,72.4 547.156,72.4 548.5,72.4 549.844,72.4 551.188,72.4 552.531,72.4 553.875,72.4 555.219,72.4 556.563,72.4 557.906,72.4 559.25,72.4 560.594,72.4 561.938,72.4 563.281,72.4 564.625,72.4 565.969,72.4 567.313,72.4 568.656,72.4 570,72.4" fill="none" stroke="#d65a9a" stroke-width="2" opacity="0.9"/>
<rect x="582" y="98" width="10" height="10" fill="#d65a9a"/>
<text x="596" y="107" fill="#c9bfa9" font-size="10">CL#5 LEAD</text>
<polyline points="54,72.4 55.344,72.4 56.688,72.4 58.031,72.4 59.375,72.4 60.719,72.4 62.063,72.4 63.406,72.4 64.75,72.4 66.094,72.4 67.438,72.4 68.781,72.4 70.125,72.4 71.469,72.4 72.813,72.4 74.156,72.4 75.5,72.4 76.844,72.4 78.188,72.4 79.531,72.4 80.875,72.4 82.219,72.4 83.563,72.4 84.906,72.4 86.25,72.4 87.594,72.4 88.938,72.4 90.281,72.4 91.625,72.4 92.969,72.4 94.313,72.4 95.656,72.4 97,72.4 98.344,72.4 99.688,72.4 101.031,72.4 102.375,72.4 103.719,72.4 105.063,72.4 106.406,72.4 107.75,72.4 109.094,72.4 110.438,72.4 111.781,72.4 113.125,72.4 114.469,72.4 115.813,72.4 117.156,72.4 118.5,72.4 119.844,72.4 121.188,72.4 122.531,72.4 123.875,72.4 125.219,72.4 126.563,72.4 127.906,72.4 129.25,72.4 130.594,72.4 131.938,72.4 133.281,72.4 134.625,72.4 135.969,72.4 137.313,72.4 138.656,72.4 140,72.4 141.344,72.4 142.688,72.4 144.031,72.4 145.375,72.4 146.719,72.4 148.063,72.4 149.406,72.4 150.75,72.4 152.094,72.4 153.438,72.4 154.781,72.4 156.125,72.4 157.469,72.4 158.813,72.4 160.156,72.4 161.5,72.4 162.844,72.4 164.188,72.4 165.531,72.4 166.875,72.4 168.219,72.4 169.563,72.4 170.906,72.4 172.25,72.4 173.594,72.4 174.938,72.4 176.281,72.4 177.625,72.4 178.969,72.4 180.313,72.4 181.656,72.4 183,72.4 184.344,72.4 185.688,72.4 187.031,72.4 188.375,72.4 189.719,72.4 191.063,72.4 192.406,72.4 193.75,72.4 195.094,72.4 196.438,72.4 197.781,72.4 199.125,72.4 200.469,72.4 201.813,72.4 203.156,72.4 204.5,72.4 205.844,72.4 207.188,72.4 208.531,72.4 209.875,72.4 211.219,72.4 212.563,72.4 213.906,72.4 215.25,72.4 216.594,72.4 217.938,72.4 219.281,72.4 220.625,72.4 221.969,72.4 223.313,72.4 224.656,72.4 226,72.4 227.344,72.4 228.688,72.4 230.031,72.4 231.375,72.4 232.719,72.4 234.063,72.4 235.406,72.4 236.75,72.4 238.094,72.4 239.438,72.4 240.781,72.4 242.125,72.4 243.469,72.4 244.813,72.4 246.156,72.4 247.5,72.4 248.844,72.4 250.188,72.4 251.531,72.4 252.875,72.4 254.219,72.4 255.563,72.4 256.906,72.4 258.25,72.4 259.594,72.4 260.938,72.4 262.281,72.4 263.625,72.4 264.969,72.4 266.313,72.4 267.656,72.4 269,72.4 270.344,72.4 271.688,72.4 273.031,72.4 274.375,72.4 275.719,72.4 277.063,72.4 278.406,72.4 279.75,72.4 281.094,72.4 282.438,72.4 283.781,72.4 285.125,72.4 286.469,72.4 287.813,72.4 289.156,72.4 290.5,72.4 291.844,72.4 293.188,72.4 294.531,72.4 295.875,72.4 297.219,72.4 298.563,72.4 299.906,72.4 301.25,72.4 302.594,72.4 303.938,72.4 305.281,72.4 306.625,72.4 307.969,72.4 309.313,72.4 310.656,72.4 312,72.4 313.344,72.4 314.688,72.4 316.031,72.4 317.375,72.4 318.719,72.4 320.063,72.4 321.406,72.4 322.75,72.4 324.094,72.4 325.438,72.4 326.781,72.4 328.125,72.4 329.469,72.4 330.813,72.4 332.156,72.4 333.5,72.4 334.844,72.4 336.188,72.4 337.531,72.4 338.875,72.4 340.219,72.4 341.563,72.4 342.906,72.4 344.25,72.4 345.594,72.4 346.938,72.4 348.281,72.4 349.625,72.4 350.969,72.4 352.313,72.4 353.656,72.4 355,72.4 356.344,72.4 357.688,72.4 359.031,72.4 360.375,72.4 361.719,72.4 363.063,72.4 364.406,72.4 365.75,72.4 367.094,72.4 368.438,72.4 369.781,72.4 371.125,72.4 372.469,72.4 373.813,72.4 375.156,72.4 376.5,72.4 377.844,72.4 379.188,72.4 380.531,72.4 381.875,72.4 383.219,72.4 384.563,72.4 385.906,72.4 387.25,72.4 388.594,72.4 389.938,72.4 391.281,72.4 392.625,72.4 393.969,72.4 395.313,72.4 396.656,72.4 398,72.4 399.344,72.4 400.688,72.4 402.031,72.4 403.375,72.4 404.719,72.4 406.063,72.4 407.406,72.4 408.75,72.4 410.094,72.4 411.438,72.4 412.781,72.4 414.125,72.4 415.469,72.4 416.813,72.4 418.156,72.4 419.5,72.4 420.844,72.4 422.188,72.4 423.531,72.4 424.875,72.4 426.219,72.4 427.563,72.4 428.906,72.4 430.25,72.4 431.594,72.4 432.938,72.4 434.281,72.4 435.625,72.4 436.969,72.4 438.313,72.4 439.656,72.4 441,72.4 442.344,72.4 443.688,72.4 445.031,72.4 446.375,72.4 447.719,72.4 449.063,72.4 450.406,72.4 451.75,72.4 453.094,72.4 454.438,72.4 455.781,72.4 457.125,72.4 458.469,72.4 459.813,72.4 461.156,72.4 462.5,72.4 463.844,72.4 465.188,72.4 466.531,72.4 467.875,72.4 469.219,72.4 470.563,72.4 471.906,72.4 473.25,72.4 474.594,72.4 475.938,72.4 477.281,72.4 478.625,72.4 479.969,72.4 481.313,72.4 482.656,72.4 484,72.4 485.344,72.4 486.688,72.4 488.031,72.4 489.375,72.4 490.719,72.4 492.063,72.4 493.406,72.4 494.75,72.4 496.094,72.4 497.438,72.4 498.781,72.4 500.125,72.4 501.469,72.4 502.813,72.4 504.156,72.4 505.5,72.4 506.844,72.4 508.188,72.4 509.531,72.4 510.875,72.4 512.219,72.4 513.563,72.4 514.906,72.4 516.25,72.4 517.594,72.4 518.938,72.4 520.281,72.4 521.625,72.4 522.969,72.4 524.313,72.4 525.656,72.4 527,72.4 528.344,72.4 529.688,72.4 531.031,72.4 532.375,72.4 533.719,72.4 535.063,72.4 536.406,72.4 537.75,72.4 539.094,72.4 540.438,72.4 541.781,72.4 543.125,72.4 544.469,72.4 545.813,72.4 547.156,72.4 548.5,72.4 549.844,72.4 551.188,72.4 552.531,72.4 553.875,72.4 555.219,72.4 556.563,72.4 557.906,72.4 559.25,72.4 560.594,72.4 561.938,72.4 563.281,72.4 564.625,72.4 565.969,72.4 567.313,72.4 568.656,72.4 570,72.4" fill="none" stroke="#3b7dd8" stroke-width="2" opacity="0.9"/>
<rect x="582" y="113" width="10" height="10" fill="#3b7dd8"/>
<text x="596" y="122" fill="#c9bfa9" font-size="10">CL#6 LEAD</text>
<text x="54" y="20" fill="#f3ead9" font-size="14" font-weight="700">DISSOLVE BACK 8</text>
<text x="570" y="20" fill="#7c756a" font-size="10" text-anchor="end">8 bars @ 94 BPM · y = normalized 0..1</text>
</svg>