<svg xmlns="http://www.w3.org/2000/svg" width="720" height="320" viewBox="0 0 720 320" font-family="JetBrains Mono, ui-monospace, monospace">
<rect width="720" height="320" fill="#15130f"/>
<line x1="54" y1="290" x2="570" y2="290" stroke="#2a261f"/>
<text x="46" y="293" fill="#7c756a" font-size="10" text-anchor="end">0.0</text>
<line x1="54" y1="162" x2="570" y2="162" stroke="#2a261f"/>
<text x="46" y="165" fill="#7c756a" font-size="10" text-anchor="end">0.5</text>
<line x1="54" y1="34" x2="570" y2="34" stroke="#2a261f"/>
<text x="46" y="37" fill="#7c756a" font-size="10" text-anchor="end">1.0</text>
<line x1="54" y1="34" x2="54" y2="290" stroke="#211e18"/>
<text x="54" y="308" fill="#7c756a" font-size="10" text-anchor="middle">0</text>
<line x1="183" y1="34" x2="183" y2="290" stroke="#211e18"/>
<text x="183" y="308" fill="#7c756a" font-size="10" text-anchor="middle">4</text>
<line x1="312" y1="34" x2="312" y2="290" stroke="#211e18"/>
<text x="312" y="308" fill="#7c756a" font-size="10" text-anchor="middle">8</text>
<line x1="441" y1="34" x2="441" y2="290" stroke="#211e18"/>
<text x="441" y="308" fill="#7c756a" font-size="10" text-anchor="middle">12</text>
<line x1="570" y1="34" x2="570" y2="290" stroke="#211e18"/>
<text x="570" y="308" fill="#7c756a" font-size="10" text-anchor="middle">16</text>
<polyline points="54,72.4 54.672,72.401 55.344,72.404 56.016,72.408 56.688,72.415 57.359,72.423 58.031,72.433 58.703,72.445 59.375,72.458 60.047,72.474 60.719,72.491 61.391,72.51 62.063,72.531 62.734,72.554 63.406,72.578 64.078,72.605 64.75,72.633 65.422,72.663 66.094,72.695 66.766,72.728 67.438,72.764 68.109,72.801 68.781,72.84 69.453,72.881 70.125,72.924 70.797,72.968 71.469,73.015 72.141,73.063 72.813,73.113 73.484,73.165 74.156,73.218 74.828,73.274 75.5,73.331 76.172,73.39 76.844,73.451 77.516,73.513 78.188,73.578 78.859,73.644 79.531,73.712 80.203,73.782 80.875,73.853 81.547,73.927 82.219,74.002 82.891,74.079 83.563,74.158 84.234,74.238 84.906,74.32 85.578,74.405 86.25,74.491 86.922,74.578 87.594,74.668 88.266,74.759 88.938,74.852 89.609,74.947 90.281,75.044 90.953,75.142 91.625,75.242 92.297,75.344 92.969,75.448 93.641,75.553 94.313,75.661 94.984,75.77 95.656,75.88 96.328,75.993 97,76.107 97.672,76.223 98.344,76.341 99.016,76.461 99.688,76.582 100.359,76.705 101.031,76.83 101.703,76.957 102.375,77.085 103.047,77.215 103.719,77.347 104.391,77.48 105.063,77.616 105.734,77.753 106.406,77.891 107.078,78.032 107.75,78.174 108.422,78.318 109.094,78.464 109.766,78.611 110.438,78.76 111.109,78.911 111.781,79.063 112.453,79.218 113.125,79.373 113.797,79.531 114.469,79.69 115.141,79.851 115.813,80.014 116.484,80.179 117.156,80.345 117.828,80.512 118.5,80.682 119.172,80.853 119.844,81.026 120.516,81.2 121.188,81.377 121.859,81.554 122.531,81.734 123.203,81.915 123.875,82.098 124.547,82.283 125.219,82.469 125.891,82.657 126.563,82.846 127.234,83.037 127.906,83.23 128.578,83.424 129.25,83.62 129.922,83.818 130.594,84.017 131.266,84.218 131.938,84.421 132.609,84.625 133.281,84.831 133.953,85.038 134.625,85.247 135.297,85.458 135.969,85.67 136.641,85.884 137.313,86.099 137.984,86.316 138.656,86.535 139.328,86.755 140,86.976 140.672,87.2 141.344,87.425 142.016,87.651 142.688,87.879 143.359,88.109 144.031,88.34 144.703,88.573 145.375,88.807 146.047,89.043 146.719,89.28 147.391,89.519 148.063,89.759 148.734,90.001 149.406,90.245 150.078,90.49 150.75,90.736 151.422,90.984 152.094,91.234 152.766,91.485 153.438,91.737 154.109,91.991 154.781,92.247 155.453,92.504 156.125,92.762 156.797,93.022 157.469,93.284 158.141,93.547 158.813,93.811 159.484,94.077 160.156,94.344 160.828,94.613 161.5,94.883 162.172,95.155 162.844,95.428 163.516,95.702 164.188,95.978 164.859,96.256 165.531,96.535 166.203,96.815 166.875,97.096 167.547,97.38 168.219,97.664 168.891,97.95 169.563,98.237 170.234,98.526 170.906,98.816 171.578,99.107 172.25,99.4 172.922,99.694 173.594,99.989 174.266,100.286 174.938,100.585 175.609,100.884 176.281,101.185 176.953,101.487 177.625,101.791 178.297,102.096 178.969,102.402 179.641,102.709 180.313,103.018 180.984,103.328 181.656,103.64 182.328,103.953 183,104.267 183.672,104.582 184.344,104.899 185.016,105.217 185.688,105.536 186.359,105.856 187.031,106.178 187.703,106.501 188.375,106.825 189.047,107.151 189.719,107.477 190.391,107.805 191.063,108.134 191.734,108.465 192.406,108.796 193.078,109.129 193.75,109.463 194.422,109.798 195.094,110.135 195.766,110.472 196.438,110.811 197.109,111.151 197.781,111.492 198.453,111.835 199.125,112.178 199.797,112.523 200.469,112.868 201.141,113.215 201.813,113.563 202.484,113.913 203.156,114.263 203.828,114.614 204.5,114.967 205.172,115.32 205.844,115.675 206.516,116.031 207.188,116.388 207.859,116.746 208.531,117.105 209.203,117.465 209.875,117.826 210.547,118.189 211.219,118.552 211.891,118.916 212.563,119.282 213.234,119.648 213.906,120.016 214.578,120.384 215.25,120.754 215.922,121.125 216.594,121.496 217.266,121.869 217.938,122.242 218.609,122.617 219.281,122.992 219.953,123.369 220.625,123.746 221.297,124.125 221.969,124.504 222.641,124.884 223.313,125.266 223.984,125.648 224.656,126.031 225.328,126.415 226,126.8 226.672,127.186 227.344,127.573 228.016,127.96 228.688,128.349 229.359,128.738 230.031,129.129 230.703,129.52 231.375,129.912 232.047,130.305 232.719,130.699 233.391,131.093 234.063,131.489 234.734,131.885 235.406,132.282 236.078,132.68 236.75,133.079 237.422,133.479 238.094,133.879 238.766,134.28 239.438,134.682 240.109,135.085 240.781,135.488 241.453,135.892 242.125,136.297 242.797,136.703 243.469,137.11 244.141,137.517 244.813,137.925 245.484,138.334 246.156,138.743 246.828,139.153 247.5,139.564 248.172,139.976 248.844,140.388 249.516,140.801 250.188,141.214 250.859,141.629 251.531,142.043 252.203,142.459 252.875,142.875 253.547,143.292 254.219,143.71 254.891,144.128 255.563,144.546 256.234,144.966 256.906,145.386 257.578,145.806 258.25,146.227 258.922,146.649 259.594,147.071 260.266,147.494 260.938,147.918 261.609,148.342 262.281,148.766 262.953,149.191 263.625,149.617 264.297,150.043 264.969,150.47 265.641,150.897 266.313,151.325 266.984,151.753 267.656,152.182 268.328,152.611 269,153.04 269.672,153.471 270.344,153.901 271.016,154.332 271.688,154.764 272.359,155.196 273.031,155.628 273.703,156.061 274.375,156.494 275.047,156.928 275.719,157.362 276.391,157.796 277.063,158.231 277.734,158.666 278.406,159.102 279.078,159.538 279.75,159.974 280.422,160.411 281.094,160.848 281.766,161.285 282.438,161.723 283.109,162.161 283.781,162.599 284.453,163.038 285.125,163.477 285.797,163.916 286.469,164.356 287.141,164.796 287.813,165.236 288.484,165.676 289.156,166.117 289.828,166.558 290.5,166.999 291.172,167.44 291.844,167.882 292.516,168.324 293.188,168.766 293.859,169.208 294.531,169.65 295.203,170.093 295.875,170.536 296.547,170.979 297.219,171.422 297.891,171.865 298.563,172.309 299.234,172.752 299.906,173.196 300.578,173.64 301.25,174.084 301.922,174.528 302.594,174.973 303.266,175.417 303.938,175.861 304.609,176.306 305.281,176.751 305.953,177.195 306.625,177.64 307.297,178.085 307.969,178.53 308.641,178.975 309.313,179.42 309.984,179.865 310.656,180.31 311.328,180.755 312,181.2 312.672,181.645 313.344,182.09 314.016,182.535 314.688,182.98 315.359,183.425 316.031,183.87 316.703,184.315 317.375,184.76 318.047,185.205 318.719,185.649 319.391,186.094 320.063,186.539 320.734,186.983 321.406,187.427 322.078,187.872 322.75,188.316 323.422,188.76 324.094,189.204 324.766,189.648 325.438,190.091 326.109,190.535 326.781,190.978 327.453,191.421 328.125,191.864 328.797,192.307 329.469,192.75 330.141,193.192 330.813,193.634 331.484,194.076 332.156,194.518 332.828,194.96 333.5,195.401 334.172,195.842 334.844,196.283 335.516,196.724 336.188,197.164 336.859,197.604 337.531,198.044 338.203,198.484 338.875,198.923 339.547,199.362 340.219,199.801 340.891,200.239 341.563,200.677 342.234,201.115 342.906,201.552 343.578,201.989 344.25,202.426 344.922,202.862 345.594,203.298 346.266,203.734 346.938,204.169 347.609,204.604 348.281,205.038 348.953,205.472 349.625,205.906 350.297,206.339 350.969,206.772 351.641,207.204 352.313,207.636 352.984,208.068 353.656,208.499 354.328,208.929 355,209.36 355.672,209.789 356.344,210.218 357.016,210.647 357.688,211.075 358.359,211.503 359.031,211.93 359.703,212.357 360.375,212.783 361.047,213.209 361.719,213.634 362.391,214.058 363.063,214.482 363.734,214.906 364.406,215.329 365.078,215.751 365.75,216.173 366.422,216.594 367.094,217.014 367.766,217.434 368.438,217.854 369.109,218.272 369.781,218.69 370.453,219.108 371.125,219.525 371.797,219.941 372.469,220.357 373.141,220.771 373.813,221.186 374.484,221.599 375.156,222.012 375.828,222.424 376.5,222.836 377.172,223.247 377.844,223.657 378.516,224.066 379.188,224.475 379.859,224.883 380.531,225.29 381.203,225.697 381.875,226.103 382.547,226.508 383.219,226.912 383.891,227.315 384.563,227.718 385.234,228.12 385.906,228.521 386.578,228.921 387.25,229.321 387.922,229.72 388.594,230.118 389.266,230.515 389.938,230.911 390.609,231.307 391.281,231.701 391.953,232.095 392.625,232.488 393.297,232.88 393.969,233.271 394.641,233.662 395.313,234.051 395.984,234.44 396.656,234.827 397.328,235.214 398,235.6 398.672,235.985 399.344,236.369 400.016,236.752 400.688,237.134 401.359,237.516 402.031,237.896 402.703,238.275 403.375,238.654 404.047,239.031 404.719,239.408 405.391,239.783 406.063,240.158 406.734,240.531 407.406,240.904 408.078,241.275 408.75,241.646 409.422,242.016 410.094,242.384 410.766,242.752 411.438,243.118 412.109,243.484 412.781,243.848 413.453,244.211 414.125,244.574 414.797,244.935 415.469,245.295 416.141,245.654 416.813,246.012 417.484,246.369 418.156,246.725 418.828,247.08 419.5,247.433 420.172,247.786 420.844,248.137 421.516,248.487 422.188,248.837 422.859,249.185 423.531,249.532 424.203,249.877 424.875,250.222 425.547,250.565 426.219,250.908 426.891,251.249 427.563,251.589 428.234,251.928 428.906,252.265 429.578,252.602 430.25,252.937 430.922,253.271 431.594,253.604 432.266,253.935 432.938,254.266 433.609,254.595 434.281,254.923 434.953,255.249 435.625,255.575 436.297,255.899 436.969,256.222 437.641,256.544 438.313,256.864 438.984,257.183 439.656,257.501 440.328,257.818 441,258.133 441.672,258.447 442.344,258.76 443.016,259.072 443.688,259.382 444.359,259.691 445.031,259.998 445.703,260.304 446.375,260.609 447.047,260.913 447.719,261.215 448.391,261.516 449.063,261.815 449.734,262.114 450.406,262.411 451.078,262.706 451.75,263 452.422,263.293 453.094,263.584 453.766,263.874 454.438,264.163 455.109,264.45 455.781,264.736 456.453,265.02 457.125,265.304 457.797,265.585 458.469,265.865 459.141,266.144 459.813,266.422 460.484,266.698 461.156,266.972 461.828,267.245 462.5,267.517 463.172,267.787 463.844,268.056 464.516,268.323 465.188,268.589 465.859,268.853 466.531,269.116 467.203,269.378 467.875,269.638 468.547,269.896 469.219,270.153 469.891,270.409 470.563,270.663 471.234,270.915 471.906,271.166 472.578,271.416 473.25,271.664 473.922,271.91 474.594,272.155 475.266,272.399 475.938,272.641 476.609,272.881 477.281,273.12 477.953,273.357 478.625,273.593 479.297,273.827 479.969,274.06 480.641,274.291 481.313,274.521 481.984,274.749 482.656,274.975 483.328,275.2 484,275.424 484.672,275.645 485.344,275.865 486.016,276.084 486.688,276.301 487.359,276.516 488.031,276.73 488.703,276.942 489.375,277.153 490.047,277.362 490.719,277.569 491.391,277.775 492.063,277.979 492.734,278.182 493.406,278.383 494.078,278.582 494.75,278.78 495.422,278.976 496.094,279.17 496.766,279.363 497.438,279.554 498.109,279.743 498.781,279.931 499.453,280.117 500.125,280.302 500.797,280.485 501.469,280.666 502.141,280.846 502.813,281.023 503.484,281.2 504.156,281.374 504.828,281.547 505.5,281.718 506.172,281.888 506.844,282.055 507.516,282.221 508.188,282.386 508.859,282.549 509.531,282.71 510.203,282.869 510.875,283.027 511.547,283.182 512.219,283.337 512.891,283.489 513.563,283.64 514.234,283.789 514.906,283.936 515.578,284.082 516.25,284.226 516.922,284.368 517.594,284.509 518.266,284.647 518.938,284.784 519.609,284.92 520.281,285.053 520.953,285.185 521.625,285.315 522.297,285.443 522.969,285.57 523.641,285.695 524.313,285.818 524.984,285.939 525.656,286.059 526.328,286.177 527,286.293 527.672,286.407 528.344,286.52 529.016,286.63 529.688,286.739 530.359,286.847 531.031,286.952 531.703,287.056 532.375,287.158 533.047,287.258 533.719,287.356 534.391,287.453 535.063,287.548 535.734,287.641 536.406,287.732 537.078,287.822 537.75,287.909 538.422,287.995 539.094,288.08 539.766,288.162 540.438,288.242 541.109,288.321 541.781,288.398 542.453,288.473 543.125,288.547 543.797,288.618 544.469,288.688 545.141,288.756 545.813,288.822 546.484,288.887 547.156,288.949 547.828,289.01 548.5,289.069 549.172,289.126 549.844,289.182 550.516,289.235 551.188,289.287 551.859,289.337 552.531,289.385 553.203,289.432 553.875,289.476 554.547,289.519 555.219,289.56 555.891,289.599 556.563,289.636 557.234,289.672 557.906,289.705 558.578,289.737 559.25,289.767 559.922,289.795 560.594,289.822 561.266,289.846 561.938,289.869 562.609,289.89 563.281,289.909 563.953,289.926 564.625,289.942 565.297,289.955 565.969,289.967 566.641,289.977 567.313,289.985 567.984,289.992 568.656,289.996 569.328,289.999 570,290" fill="none" stroke="#c2622a" stroke-width="2" opacity="0.9"/>
<rect x="582" y="38" width="10" height="10" fill="#c2622a"/>
<text x="596" y="47" fill="#c9bfa9" font-size="10">CL#1 Perc</text>
<polyline points="54,72.4 54.672,72.401 55.344,72.404 56.016,72.408 56.688,72.415 57.359,72.423 58.031,72.433 58.703,72.445 59.375,72.458 60.047,72.474 60.719,72.491 61.391,72.51 62.063,72.531 62.734,72.554 63.406,72.578 64.078,72.605 64.75,72.633 65.422,72.663 66.094,72.695 66.766,72.728 67.438,72.764 68.109,72.801 68.781,72.84 69.453,72.881 70.125,72.924 70.797,72.968 71.469,73.015 72.141,73.063 72.813,73.113 73.484,73.165 74.156,73.218 74.828,73.274 75.5,73.331 76.172,73.39 76.844,73.451 77.516,73.513 78.188,73.578 78.859,73.644 79.531,73.712 80.203,73.782 80.875,73.853 81.547,73.927 82.219,74.002 82.891,74.079 83.563,74.158 84.234,74.238 84.906,74.32 85.578,74.405 86.25,74.491 86.922,74.578 87.594,74.668 88.266,74.759 88.938,74.852 89.609,74.947 90.281,75.044 90.953,75.142 91.625,75.242 92.297,75.344 92.969,75.448 93.641,75.553 94.313,75.661 94.984,75.77 95.656,75.88 96.328,75.993 97,76.107 97.672,76.223 98.344,76.341 99.016,76.461 99.688,76.582 100.359,76.705 101.031,76.83 101.703,76.957 102.375,77.085 103.047,77.215 103.719,77.347 104.391,77.48 105.063,77.616 105.734,77.753 106.406,77.891 107.078,78.032 107.75,78.174 108.422,78.318 109.094,78.464 109.766,78.611 110.438,78.76 111.109,78.911 111.781,79.063 112.453,79.218 113.125,79.373 113.797,79.531 114.469,79.69 115.141,79.851 115.813,80.014 116.484,80.179 117.156,80.345 117.828,80.512 118.5,80.682 119.172,80.853 119.844,81.026 120.516,81.2 121.188,81.377 121.859,81.554 122.531,81.734 123.203,81.915 123.875,82.098 124.547,82.283 125.219,82.469 125.891,82.657 126.563,82.846 127.234,83.037 127.906,83.23 128.578,83.424 129.25,83.62 129.922,83.818 130.594,84.017 131.266,84.218 131.938,84.421 132.609,84.625 133.281,84.831 133.953,85.038 134.625,85.247 135.297,85.458 135.969,85.67 136.641,85.884 137.313,86.099 137.984,86.316 138.656,86.535 139.328,86.755 140,86.976 140.672,87.2 141.344,87.425 142.016,87.651 142.688,87.879 143.359,88.109 144.031,88.34 144.703,88.573 145.375,88.807 146.047,89.043 146.719,89.28 147.391,89.519 148.063,89.759 148.734,90.001 149.406,90.245 150.078,90.49 150.75,90.736 151.422,90.984 152.094,91.234 152.766,91.485 153.438,91.737 154.109,91.991 154.781,92.247 155.453,92.504 156.125,92.762 156.797,93.022 157.469,93.284 158.141,93.547 158.813,93.811 159.484,94.077 160.156,94.344 160.828,94.613 161.5,94.883 162.172,95.155 162.844,95.428 163.516,95.702 164.188,95.978 164.859,96.256 165.531,96.535 166.203,96.815 166.875,97.096 167.547,97.38 168.219,97.664 168.891,97.95 169.563,98.237 170.234,98.526 170.906,98.816 171.578,99.107 172.25,99.4 172.922,99.694 173.594,99.989 174.266,100.286 174.938,100.585 175.609,100.884 176.281,101.185 176.953,101.487 177.625,101.791 178.297,102.096 178.969,102.402 179.641,102.709 180.313,103.018 180.984,103.328 181.656,103.64 182.328,103.953 183,104.267 183.672,104.582 184.344,104.899 185.016,105.217 185.688,105.536 186.359,105.856 187.031,106.178 187.703,106.501 188.375,106.825 189.047,107.151 189.719,107.477 190.391,107.805 191.063,108.134 191.734,108.465 192.406,108.796 193.078,109.129 193.75,109.463 194.422,109.798 195.094,110.135 195.766,110.472 196.438,110.811 197.109,111.151 197.781,111.492 198.453,111.835 199.125,112.178 199.797,112.523 200.469,112.868 201.141,113.215 201.813,113.563 202.484,113.913 203.156,114.263 203.828,114.614 204.5,114.967 205.172,115.32 205.844,115.675 206.516,116.031 207.188,116.388 207.859,116.746 208.531,117.105 209.203,117.465 209.875,117.826 210.547,118.189 211.219,118.552 211.891,118.916 212.563,119.282 213.234,119.648 213.906,120.016 214.578,120.384 215.25,120.754 215.922,121.125 216.594,121.496 217.266,121.869 217.938,122.242 218.609,122.617 219.281,122.992 219.953,123.369 220.625,123.746 221.297,124.125 221.969,124.504 222.641,124.884 223.313,125.266 223.984,125.648 224.656,126.031 225.328,126.415 226,126.8 226.672,127.186 227.344,127.573 228.016,127.96 228.688,128.349 229.359,128.738 230.031,129.129 230.703,129.52 231.375,129.912 232.047,130.305 232.719,130.699 233.391,131.093 234.063,131.489 234.734,131.885 235.406,132.282 236.078,132.68 236.75,133.079 237.422,133.479 238.094,133.879 238.766,134.28 239.438,134.682 240.109,135.085 240.781,135.488 241.453,135.892 242.125,136.297 242.797,136.703 243.469,137.11 244.141,137.517 244.813,137.925 245.484,138.334 246.156,138.743 246.828,139.153 247.5,139.564 248.172,139.976 248.844,140.388 249.516,140.801 250.188,141.214 250.859,141.629 251.531,142.043 252.203,142.459 252.875,142.875 253.547,143.292 254.219,143.71 254.891,144.128 255.563,144.546 256.234,144.966 256.906,145.386 257.578,145.806 258.25,146.227 258.922,146.649 259.594,147.071 260.266,147.494 260.938,147.918 261.609,148.342 262.281,148.766 262.953,149.191 263.625,149.617 264.297,150.043 264.969,150.47 265.641,150.897 266.313,151.325 266.984,151.753 267.656,152.182 268.328,152.611 269,153.04 269.672,153.471 270.344,153.901 271.016,154.332 271.688,154.764 272.359,155.196 273.031,155.628 273.703,156.061 274.375,156.494 275.047,156.928 275.719,157.362 276.391,157.796 277.063,158.231 277.734,158.666 278.406,159.102 279.078,159.538 279.75,159.974 280.422,160.411 281.094,160.848 281.766,161.285 282.438,161.723 283.109,162.161 283.781,162.599 284.453,163.038 285.125,163.477 285.797,163.916 286.469,164.356 287.141,164.796 287.813,165.236 288.484,165.676 289.156,166.117 289.828,166.558 290.5,166.999 291.172,167.44 291.844,167.882 292.516,168.324 293.188,168.766 293.859,169.208 294.531,169.65 295.203,170.093 295.875,170.536 296.547,170.979 297.219,171.422 297.891,171.865 298.563,172.309 299.234,172.752 299.906,173.196 300.578,173.64 301.25,174.084 301.922,174.528 302.594,174.973 303.266,175.417 303.938,175.861 304.609,176.306 305.281,176.751 305.953,177.195 306.625,177.64 307.297,178.085 307.969,178.53 308.641,178.975 309.313,179.42 309.984,179.865 310.656,180.31 311.328,180.755 312,181.2 312.672,181.645 313.344,182.09 314.016,182.535 314.688,182.98 315.359,183.425 316.031,183.87 316.703,184.315 317.375,184.76 318.047,185.205 318.719,185.649 319.391,186.094 320.063,186.539 320.734,186.983 321.406,187.427 322.078,187.872 322.75,188.316 323.422,188.76 324.094,189.204 324.766,189.648 325.438,190.091 326.109,190.535 326.781,190.978 327.453,191.421 328.125,191.864 328.797,192.307 329.469,192.75 330.141,193.192 330.813,193.634 331.484,194.076 332.156,194.518 332.828,194.96 333.5,195.401 334.172,195.842 334.844,196.283 335.516,196.724 336.188,197.164 336.859,197.604 337.531,198.044 338.203,198.484 338.875,198.923 339.547,199.362 340.219,199.801 340.891,200.239 341.563,200.677 342.234,201.115 342.906,201.552 343.578,201.989 344.25,202.426 344.922,202.862 345.594,203.298 346.266,203.734 346.938,204.169 347.609,204.604 348.281,205.038 348.953,205.472 349.625,205.906 350.297,206.339 350.969,206.772 351.641,207.204 352.313,207.636 352.984,208.068 353.656,208.499 354.328,208.929 355,209.36 355.672,209.789 356.344,210.218 357.016,210.647 357.688,211.075 358.359,211.503 359.031,211.93 359.703,212.357 360.375,212.783 361.047,213.209 361.719,213.634 362.391,214.058 363.063,214.482 363.734,214.906 364.406,215.329 365.078,215.751 365.75,216.173 366.422,216.594 367.094,217.014 367.766,217.434 368.438,217.854 369.109,218.272 369.781,218.69 370.453,219.108 371.125,219.525 371.797,219.941 372.469,220.357 373.141,220.771 373.813,221.186 374.484,221.599 375.156,222.012 375.828,222.424 376.5,222.836 377.172,223.247 377.844,223.657 378.516,224.066 379.188,224.475 379.859,224.883 380.531,225.29 381.203,225.697 381.875,226.103 382.547,226.508 383.219,226.912 383.891,227.315 384.563,227.718 385.234,228.12 385.906,228.521 386.578,228.921 387.25,229.321 387.922,229.72 388.594,230.118 389.266,230.515 389.938,230.911 390.609,231.307 391.281,231.701 391.953,232.095 392.625,232.488 393.297,232.88 393.969,233.271 394.641,233.662 395.313,234.051 395.984,234.44 396.656,234.827 397.328,235.214 398,235.6 398.672,235.985 399.344,236.369 400.016,236.752 400.688,237.134 401.359,237.516 402.031,237.896 402.703,238.275 403.375,238.654 404.047,239.031 404.719,239.408 405.391,239.783 406.063,240.158 406.734,240.531 407.406,240.904 408.078,241.275 408.75,241.646 409.422,242.016 410.094,242.384 410.766,242.752 411.438,243.118 412.109,243.484 412.781,243.848 413.453,244.211 414.125,244.574 414.797,244.935 415.469,245.295 416.141,245.654 416.813,246.012 417.484,246.369 418.156,246.725 418.828,247.08 419.5,247.433 420.172,247.786 420.844,248.137 421.516,248.487 422.188,248.837 422.859,249.185 423.531,249.532 424.203,249.877 424.875,250.222 425.547,250.565 426.219,250.908 426.891,251.249 427.563,251.589 428.234,251.928 428.906,252.265 429.578,252.602 430.25,252.937 430.922,253.271 431.594,253.604 432.266,253.935 432.938,254.266 433.609,254.595 434.281,254.923 434.953,255.249 435.625,255.575 436.297,255.899 436.969,256.222 437.641,256.544 438.313,256.864 438.984,257.183 439.656,257.501 440.328,257.818 441,258.133 441.672,258.447 442.344,258.76 443.016,259.072 443.688,259.382 444.359,259.691 445.031,259.998 445.703,260.304 446.375,260.609 447.047,260.913 447.719,261.215 448.391,261.516 449.063,261.815 449.734,262.114 450.406,262.411 451.078,262.706 451.75,263 452.422,263.293 453.094,263.584 453.766,263.874 454.438,264.163 455.109,264.45 455.781,264.736 456.453,265.02 457.125,265.304 457.797,265.585 458.469,265.865 459.141,266.144 459.813,266.422 460.484,266.698 461.156,266.972 461.828,267.245 462.5,267.517 463.172,267.787 463.844,268.056 464.516,268.323 465.188,268.589 465.859,268.853 466.531,269.116 467.203,269.378 467.875,269.638 468.547,269.896 469.219,270.153 469.891,270.409 470.563,270.663 471.234,270.915 471.906,271.166 472.578,271.416 473.25,271.664 473.922,271.91 474.594,272.155 475.266,272.399 475.938,272.641 476.609,272.881 477.281,273.12 477.953,273.357 478.625,273.593 479.297,273.827 479.969,274.06 480.641,274.291 481.313,274.521 481.984,274.749 482.656,274.975 483.328,275.2 484,275.424 484.672,275.645 485.344,275.865 486.016,276.084 486.688,276.301 487.359,276.516 488.031,276.73 488.703,276.942 489.375,277.153 490.047,277.362 490.719,277.569 491.391,277.775 492.063,277.979 492.734,278.182 493.406,278.383 494.078,278.582 494.75,278.78 495.422,278.976 496.094,279.17 496.766,279.363 497.438,279.554 498.109,279.743 498.781,279.931 499.453,280.117 500.125,280.302 500.797,280.485 501.469,280.666 502.141,280.846 502.813,281.023 503.484,281.2 504.156,281.374 504.828,281.547 505.5,281.718 506.172,281.888 506.844,282.055 507.516,282.221 508.188,282.386 508.859,282.549 509.531,282.71 510.203,282.869 510.875,283.027 511.547,283.182 512.219,283.337 512.891,283.489 513.563,283.64 514.234,283.789 514.906,283.936 515.578,284.082 516.25,284.226 516.922,284.368 517.594,284.509 518.266,284.647 518.938,284.784 519.609,284.92 520.281,285.053 520.953,285.185 521.625,285.315 522.297,285.443 522.969,285.57 523.641,285.695 524.313,285.818 524.984,285.939 525.656,286.059 526.328,286.177 527,286.293 527.672,286.407 528.344,286.52 529.016,286.63 529.688,286.739 530.359,286.847 531.031,286.952 531.703,287.056 532.375,287.158 533.047,287.258 533.719,287.356 534.391,287.453 535.063,287.548 535.734,287.641 536.406,287.732 537.078,287.822 537.75,287.909 538.422,287.995 539.094,288.08 539.766,288.162 540.438,288.242 541.109,288.321 541.781,288.398 542.453,288.473 543.125,288.547 543.797,288.618 544.469,288.688 545.141,288.756 545.813,288.822 546.484,288.887 547.156,288.949 547.828,289.01 548.5,289.069 549.172,289.126 549.844,289.182 550.516,289.235 551.188,289.287 551.859,289.337 552.531,289.385 553.203,289.432 553.875,289.476 554.547,289.519 555.219,289.56 555.891,289.599 556.563,289.636 557.234,289.672 557.906,289.705 558.578,289.737 559.25,289.767 559.922,289.795 560.594,289.822 561.266,289.846 561.938,289.869 562.609,289.89 563.281,289.909 563.953,289.926 564.625,289.942 565.297,289.955 565.969,289.967 566.641,289.977 567.313,289.985 567.984,289.992 568.656,289.996 569.328,289.999 570,290" fill="none" stroke="#2bb3a3" stroke-width="2" opacity="0.9"/>
<rect x="582" y="53" width="10" height="10" fill="#2bb3a3"/>
<text x="596" y="62" fill="#c9bfa9" font-size="10">CL#2 Dr Hi</text>
<polyline points="54,72.4 54.672,72.401 55.344,72.404 56.016,72.408 56.688,72.415 57.359,72.423 58.031,72.433 58.703,72.445 59.375,72.458 60.047,72.474 60.719,72.491 61.391,72.51 62.063,72.531 62.734,72.554 63.406,72.578 64.078,72.605 64.75,72.633 65.422,72.663 66.094,72.695 66.766,72.728 67.438,72.764 68.109,72.801 68.781,72.84 69.453,72.881 70.125,72.924 70.797,72.968 71.469,73.015 72.141,73.063 72.813,73.113 73.484,73.165 74.156,73.218 74.828,73.274 75.5,73.331 76.172,73.39 76.844,73.451 77.516,73.513 78.188,73.578 78.859,73.644 79.531,73.712 80.203,73.782 80.875,73.853 81.547,73.927 82.219,74.002 82.891,74.079 83.563,74.158 84.234,74.238 84.906,74.32 85.578,74.405 86.25,74.491 86.922,74.578 87.594,74.668 88.266,74.759 88.938,74.852 89.609,74.947 90.281,75.044 90.953,75.142 91.625,75.242 92.297,75.344 92.969,75.448 93.641,75.553 94.313,75.661 94.984,75.77 95.656,75.88 96.328,75.993 97,76.107 97.672,76.223 98.344,76.341 99.016,76.461 99.688,76.582 100.359,76.705 101.031,76.83 101.703,76.957 102.375,77.085 103.047,77.215 103.719,77.347 104.391,77.48 105.063,77.616 105.734,77.753 106.406,77.891 107.078,78.032 107.75,78.174 108.422,78.318 109.094,78.464 109.766,78.611 110.438,78.76 111.109,78.911 111.781,79.063 112.453,79.218 113.125,79.373 113.797,79.531 114.469,79.69 115.141,79.851 115.813,80.014 116.484,80.179 117.156,80.345 117.828,80.512 118.5,80.682 119.172,80.853 119.844,81.026 120.516,81.2 121.188,81.377 121.859,81.554 122.531,81.734 123.203,81.915 123.875,82.098 124.547,82.283 125.219,82.469 125.891,82.657 126.563,82.846 127.234,83.037 127.906,83.23 128.578,83.424 129.25,83.62 129.922,83.818 130.594,84.017 131.266,84.218 131.938,84.421 132.609,84.625 133.281,84.831 133.953,85.038 134.625,85.247 135.297,85.458 135.969,85.67 136.641,85.884 137.313,86.099 137.984,86.316 138.656,86.535 139.328,86.755 140,86.976 140.672,87.2 141.344,87.425 142.016,87.651 142.688,87.879 143.359,88.109 144.031,88.34 144.703,88.573 145.375,88.807 146.047,89.043 146.719,89.28 147.391,89.519 148.063,89.759 148.734,90.001 149.406,90.245 150.078,90.49 150.75,90.736 151.422,90.984 152.094,91.234 152.766,91.485 153.438,91.737 154.109,91.991 154.781,92.247 155.453,92.504 156.125,92.762 156.797,93.022 157.469,93.284 158.141,93.547 158.813,93.811 159.484,94.077 160.156,94.344 160.828,94.613 161.5,94.883 162.172,95.155 162.844,95.428 163.516,95.702 164.188,95.978 164.859,96.256 165.531,96.535 166.203,96.815 166.875,97.096 167.547,97.38 168.219,97.664 168.891,97.95 169.563,98.237 170.234,98.526 170.906,98.816 171.578,99.107 172.25,99.4 172.922,99.694 173.594,99.989 174.266,100.286 174.938,100.585 175.609,100.884 176.281,101.185 176.953,101.487 177.625,101.791 178.297,102.096 178.969,102.402 179.641,102.709 180.313,103.018 180.984,103.328 181.656,103.64 182.328,103.953 183,104.267 183.672,104.582 184.344,104.899 185.016,105.217 185.688,105.536 186.359,105.856 187.031,106.178 187.703,106.501 188.375,106.825 189.047,107.151 189.719,107.477 190.391,107.805 191.063,108.134 191.734,108.465 192.406,108.796 193.078,109.129 193.75,109.463 194.422,109.798 195.094,110.135 195.766,110.472 196.438,110.811 197.109,111.151 197.781,111.492 198.453,111.835 199.125,112.178 199.797,112.523 200.469,112.868 201.141,113.215 201.813,113.563 202.484,113.913 203.156,114.263 203.828,114.614 204.5,114.967 205.172,115.32 205.844,115.675 206.516,116.031 207.188,116.388 207.859,116.746 208.531,117.105 209.203,117.465 209.875,117.826 210.547,118.189 211.219,118.552 211.891,118.916 212.563,119.282 213.234,119.648 213.906,120.016 214.578,120.384 215.25,120.754 215.922,121.125 216.594,121.496 217.266,121.869 217.938,122.242 218.609,122.617 219.281,122.992 219.953,123.369 220.625,123.746 221.297,124.125 221.969,124.504 222.641,124.884 223.313,125.266 223.984,125.648 224.656,126.031 225.328,126.415 226,126.8 226.672,127.186 227.344,127.573 228.016,127.96 228.688,128.349 229.359,128.738 230.031,129.129 230.703,129.52 231.375,129.912 232.047,130.305 232.719,130.699 233.391,131.093 234.063,131.489 234.734,131.885 235.406,132.282 236.078,132.68 236.75,133.079 237.422,133.479 238.094,133.879 238.766,134.28 239.438,134.682 240.109,135.085 240.781,135.488 241.453,135.892 242.125,136.297 242.797,136.703 243.469,137.11 244.141,137.517 244.813,137.925 245.484,138.334 246.156,138.743 246.828,139.153 247.5,139.564 248.172,139.976 248.844,140.388 249.516,140.801 250.188,141.214 250.859,141.629 251.531,142.043 252.203,142.459 252.875,142.875 253.547,143.292 254.219,143.71 254.891,144.128 255.563,144.546 256.234,144.966 256.906,145.386 257.578,145.806 258.25,146.227 258.922,146.649 259.594,147.071 260.266,147.494 260.938,147.918 261.609,148.342 262.281,148.766 262.953,149.191 263.625,149.617 264.297,150.043 264.969,150.47 265.641,150.897 266.313,151.325 266.984,151.753 267.656,152.182 268.328,152.611 269,153.04 269.672,153.471 270.344,153.901 271.016,154.332 271.688,154.764 272.359,155.196 273.031,155.628 273.703,156.061 274.375,156.494 275.047,156.928 275.719,157.362 276.391,157.796 277.063,158.231 277.734,158.666 278.406,159.102 279.078,159.538 279.75,159.974 280.422,160.411 281.094,160.848 281.766,161.285 282.438,161.723 283.109,162.161 283.781,162.599 284.453,163.038 285.125,163.477 285.797,163.916 286.469,164.356 287.141,164.796 287.813,165.236 288.484,165.676 289.156,166.117 289.828,166.558 290.5,166.999 291.172,167.44 291.844,167.882 292.516,168.324 293.188,168.766 293.859,169.208 294.531,169.65 295.203,170.093 295.875,170.536 296.547,170.979 297.219,171.422 297.891,171.865 298.563,172.309 299.234,172.752 299.906,173.196 300.578,173.64 301.25,174.084 301.922,174.528 302.594,174.973 303.266,175.417 303.938,175.861 304.609,176.306 305.281,176.751 305.953,177.195 306.625,177.64 307.297,178.085 307.969,178.53 308.641,178.975 309.313,179.42 309.984,179.865 310.656,180.31 311.328,180.755 312,181.2 312.672,181.645 313.344,182.09 314.016,182.535 314.688,182.98 315.359,183.425 316.031,183.87 316.703,184.315 317.375,184.76 318.047,185.205 318.719,185.649 319.391,186.094 320.063,186.539 320.734,186.983 321.406,187.427 322.078,187.872 322.75,188.316 323.422,188.76 324.094,189.204 324.766,189.648 325.438,190.091 326.109,190.535 326.781,190.978 327.453,191.421 328.125,191.864 328.797,192.307 329.469,192.75 330.141,193.192 330.813,193.634 331.484,194.076 332.156,194.518 332.828,194.96 333.5,195.401 334.172,195.842 334.844,196.283 335.516,196.724 336.188,197.164 336.859,197.604 337.531,198.044 338.203,198.484 338.875,198.923 339.547,199.362 340.219,199.801 340.891,200.239 341.563,200.677 342.234,201.115 342.906,201.552 343.578,201.989 344.25,202.426 344.922,202.862 345.594,203.298 346.266,203.734 346.938,204.169 347.609,204.604 348.281,205.038 348.953,205.472 349.625,205.906 350.297,206.339 350.969,206.772 351.641,207.204 352.313,207.636 352.984,208.068 353.656,208.499 354.328,208.929 355,209.36 355.672,209.789 356.344,210.218 357.016,210.647 357.688,211.075 358.359,211.503 359.031,211.93 359.703,212.357 360.375,212.783 361.047,213.209 361.719,213.634 362.391,214.058 363.063,214.482 363.734,214.906 364.406,215.329 365.078,215.751 365.75,216.173 366.422,216.594 367.094,217.014 367.766,217.434 368.438,217.854 369.109,218.272 369.781,218.69 370.453,219.108 371.125,219.525 371.797,219.941 372.469,220.357 373.141,220.771 373.813,221.186 374.484,221.599 375.156,222.012 375.828,222.424 376.5,222.836 377.172,223.247 377.844,223.657 378.516,224.066 379.188,224.475 379.859,224.883 380.531,225.29 381.203,225.697 381.875,226.103 382.547,226.508 383.219,226.912 383.891,227.315 384.563,227.718 385.234,228.12 385.906,228.521 386.578,228.921 387.25,229.321 387.922,229.72 388.594,230.118 389.266,230.515 389.938,230.911 390.609,231.307 391.281,231.701 391.953,232.095 392.625,232.488 393.297,232.88 393.969,233.271 394.641,233.662 395.313,234.051 395.984,234.44 396.656,234.827 397.328,235.214 398,235.6 398.672,235.985 399.344,236.369 400.016,236.752 400.688,237.134 401.359,237.516 402.031,237.896 402.703,238.275 403.375,238.654 404.047,239.031 404.719,239.408 405.391,239.783 406.063,240.158 406.734,240.531 407.406,240.904 408.078,241.275 408.75,241.646 409.422,242.016 410.094,242.384 410.766,242.752 411.438,243.118 412.109,243.484 412.781,243.848 413.453,244.211 414.125,244.574 414.797,244.935 415.469,245.295 416.141,245.654 416.813,246.012 417.484,246.369 418.156,246.725 418.828,247.08 419.5,247.433 420.172,247.786 420.844,248.137 421.516,248.487 422.188,248.837 422.859,249.185 423.531,249.532 424.203,249.877 424.875,250.222 425.547,250.565 426.219,250.908 426.891,251.249 427.563,251.589 428.234,251.928 428.906,252.265 429.578,252.602 430.25,252.937 430.922,253.271 431.594,253.604 432.266,253.935 432.938,254.266 433.609,254.595 434.281,254.923 434.953,255.249 435.625,255.575 436.297,255.899 436.969,256.222 437.641,256.544 438.313,256.864 438.984,257.183 439.656,257.501 440.328,257.818 441,258.133 441.672,258.447 442.344,258.76 443.016,259.072 443.688,259.382 444.359,259.691 445.031,259.998 445.703,260.304 446.375,260.609 447.047,260.913 447.719,261.215 448.391,261.516 449.063,261.815 449.734,262.114 450.406,262.411 451.078,262.706 451.75,263 452.422,263.293 453.094,263.584 453.766,263.874 454.438,264.163 455.109,264.45 455.781,264.736 456.453,265.02 457.125,265.304 457.797,265.585 458.469,265.865 459.141,266.144 459.813,266.422 460.484,266.698 461.156,266.972 461.828,267.245 462.5,267.517 463.172,267.787 463.844,268.056 464.516,268.323 465.188,268.589 465.859,268.853 466.531,269.116 467.203,269.378 467.875,269.638 468.547,269.896 469.219,270.153 469.891,270.409 470.563,270.663 471.234,270.915 471.906,271.166 472.578,271.416 473.25,271.664 473.922,271.91 474.594,272.155 475.266,272.399 475.938,272.641 476.609,272.881 477.281,273.12 477.953,273.357 478.625,273.593 479.297,273.827 479.969,274.06 480.641,274.291 481.313,274.521 481.984,274.749 482.656,274.975 483.328,275.2 484,275.424 484.672,275.645 485.344,275.865 486.016,276.084 486.688,276.301 487.359,276.516 488.031,276.73 488.703,276.942 489.375,277.153 490.047,277.362 490.719,277.569 491.391,277.775 492.063,277.979 492.734,278.182 493.406,278.383 494.078,278.582 494.75,278.78 495.422,278.976 496.094,279.17 496.766,279.363 497.438,279.554 498.109,279.743 498.781,279.931 499.453,280.117 500.125,280.302 500.797,280.485 501.469,280.666 502.141,280.846 502.813,281.023 503.484,281.2 504.156,281.374 504.828,281.547 505.5,281.718 506.172,281.888 506.844,282.055 507.516,282.221 508.188,282.386 508.859,282.549 509.531,282.71 510.203,282.869 510.875,283.027 511.547,283.182 512.219,283.337 512.891,283.489 513.563,283.64 514.234,283.789 514.906,283.936 515.578,284.082 516.25,284.226 516.922,284.368 517.594,284.509 518.266,284.647 518.938,284.784 519.609,284.92 520.281,285.053 520.953,285.185 521.625,285.315 522.297,285.443 522.969,285.57 523.641,285.695 524.313,285.818 524.984,285.939 525.656,286.059 526.328,286.177 527,286.293 527.672,286.407 528.344,286.52 529.016,286.63 529.688,286.739 530.359,286.847 531.031,286.952 531.703,287.056 532.375,287.158 533.047,287.258 533.719,287.356 534.391,287.453 535.063,287.548 535.734,287.641 536.406,287.732 537.078,287.822 537.75,287.909 538.422,287.995 539.094,288.08 539.766,288.162 540.438,288.242 541.109,288.321 541.781,288.398 542.453,288.473 543.125,288.547 543.797,288.618 544.469,288.688 545.141,288.756 545.813,288.822 546.484,288.887 547.156,288.949 547.828,289.01 548.5,289.069 549.172,289.126 549.844,289.182 550.516,289.235 551.188,289.287 551.859,289.337 552.531,289.385 553.203,289.432 553.875,289.476 554.547,289.519 555.219,289.56 555.891,289.599 556.563,289.636 557.234,289.672 557.906,289.705 558.578,289.737 559.25,289.767 559.922,289.795 560.594,289.822 561.266,289.846 561.938,289.869 562.609,289.89 563.281,289.909 563.953,289.926 564.625,289.942 565.297,289.955 565.969,289.967 566.641,289.977 567.313,289.985 567.984,289.992 568.656,289.996 569.328,289.999 570,290" fill="none" stroke="#8a6bd6" stroke-width="2" opacity="0.9"/>
<rect x="582" y="68" width="10" height="10" fill="#8a6bd6"/>
<text x="596" y="77" fill="#c9bfa9" font-size="10">CL#3 BASS</text>
<polyline points="54,72.4 54.672,72.401 55.344,72.404 56.016,72.408 56.688,72.415 57.359,72.423 58.031,72.433 58.703,72.445 59.375,72.458 60.047,72.474 60.719,72.491 61.391,72.51 62.063,72.531 62.734,72.554 63.406,72.578 64.078,72.605 64.75,72.633 65.422,72.663 66.094,72.695 66.766,72.728 67.438,72.764 68.109,72.801 68.781,72.84 69.453,72.881 70.125,72.924 70.797,72.968 71.469,73.015 72.141,73.063 72.813,73.113 73.484,73.165 74.156,73.218 74.828,73.274 75.5,73.331 76.172,73.39 76.844,73.451 77.516,73.513 78.188,73.578 78.859,73.644 79.531,73.712 80.203,73.782 80.875,73.853 81.547,73.927 82.219,74.002 82.891,74.079 83.563,74.158 84.234,74.238 84.906,74.32 85.578,74.405 86.25,74.491 86.922,74.578 87.594,74.668 88.266,74.759 88.938,74.852 89.609,74.947 90.281,75.044 90.953,75.142 91.625,75.242 92.297,75.344 92.969,75.448 93.641,75.553 94.313,75.661 94.984,75.77 95.656,75.88 96.328,75.993 97,76.107 97.672,76.223 98.344,76.341 99.016,76.461 99.688,76.582 100.359,76.705 101.031,76.83 101.703,76.957 102.375,77.085 103.047,77.215 103.719,77.347 104.391,77.48 105.063,77.616 105.734,77.753 106.406,77.891 107.078,78.032 107.75,78.174 108.422,78.318 109.094,78.464 109.766,78.611 110.438,78.76 111.109,78.911 111.781,79.063 112.453,79.218 113.125,79.373 113.797,79.531 114.469,79.69 115.141,79.851 115.813,80.014 116.484,80.179 117.156,80.345 117.828,80.512 118.5,80.682 119.172,80.853 119.844,81.026 120.516,81.2 121.188,81.377 121.859,81.554 122.531,81.734 123.203,81.915 123.875,82.098 124.547,82.283 125.219,82.469 125.891,82.657 126.563,82.846 127.234,83.037 127.906,83.23 128.578,83.424 129.25,83.62 129.922,83.818 130.594,84.017 131.266,84.218 131.938,84.421 132.609,84.625 133.281,84.831 133.953,85.038 134.625,85.247 135.297,85.458 135.969,85.67 136.641,85.884 137.313,86.099 137.984,86.316 138.656,86.535 139.328,86.755 140,86.976 140.672,87.2 141.344,87.425 142.016,87.651 142.688,87.879 143.359,88.109 144.031,88.34 144.703,88.573 145.375,88.807 146.047,89.043 146.719,89.28 147.391,89.519 148.063,89.759 148.734,90.001 149.406,90.245 150.078,90.49 150.75,90.736 151.422,90.984 152.094,91.234 152.766,91.485 153.438,91.737 154.109,91.991 154.781,92.247 155.453,92.504 156.125,92.762 156.797,93.022 157.469,93.284 158.141,93.547 158.813,93.811 159.484,94.077 160.156,94.344 160.828,94.613 161.5,94.883 162.172,95.155 162.844,95.428 163.516,95.702 164.188,95.978 164.859,96.256 165.531,96.535 166.203,96.815 166.875,97.096 167.547,97.38 168.219,97.664 168.891,97.95 169.563,98.237 170.234,98.526 170.906,98.816 171.578,99.107 172.25,99.4 172.922,99.694 173.594,99.989 174.266,100.286 174.938,100.585 175.609,100.884 176.281,101.185 176.953,101.487 177.625,101.791 178.297,102.096 178.969,102.402 179.641,102.709 180.313,103.018 180.984,103.328 181.656,103.64 182.328,103.953 183,104.267 183.672,104.582 184.344,104.899 185.016,105.217 185.688,105.536 186.359,105.856 187.031,106.178 187.703,106.501 188.375,106.825 189.047,107.151 189.719,107.477 190.391,107.805 191.063,108.134 191.734,108.465 192.406,108.796 193.078,109.129 193.75,109.463 194.422,109.798 195.094,110.135 195.766,110.472 196.438,110.811 197.109,111.151 197.781,111.492 198.453,111.835 199.125,112.178 199.797,112.523 200.469,112.868 201.141,113.215 201.813,113.563 202.484,113.913 203.156,114.263 203.828,114.614 204.5,114.967 205.172,115.32 205.844,115.675 206.516,116.031 207.188,116.388 207.859,116.746 208.531,117.105 209.203,117.465 209.875,117.826 210.547,118.189 211.219,118.552 211.891,118.916 212.563,119.282 213.234,119.648 213.906,120.016 214.578,120.384 215.25,120.754 215.922,121.125 216.594,121.496 217.266,121.869 217.938,122.242 218.609,122.617 219.281,122.992 219.953,123.369 220.625,123.746 221.297,124.125 221.969,124.504 222.641,124.884 223.313,125.266 223.984,125.648 224.656,126.031 225.328,126.415 226,126.8 226.672,127.186 227.344,127.573 228.016,127.96 228.688,128.349 229.359,128.738 230.031,129.129 230.703,129.52 231.375,129.912 232.047,130.305 232.719,130.699 233.391,131.093 234.063,131.489 234.734,131.885 235.406,132.282 236.078,132.68 236.75,133.079 237.422,133.479 238.094,133.879 238.766,134.28 239.438,134.682 240.109,135.085 240.781,135.488 241.453,135.892 242.125,136.297 242.797,136.703 243.469,137.11 244.141,137.517 244.813,137.925 245.484,138.334 246.156,138.743 246.828,139.153 247.5,139.564 248.172,139.976 248.844,140.388 249.516,140.801 250.188,141.214 250.859,141.629 251.531,142.043 252.203,142.459 252.875,142.875 253.547,143.292 254.219,143.71 254.891,144.128 255.563,144.546 256.234,144.966 256.906,145.386 257.578,145.806 258.25,146.227 258.922,146.649 259.594,147.071 260.266,147.494 260.938,147.918 261.609,148.342 262.281,148.766 262.953,149.191 263.625,149.617 264.297,150.043 264.969,150.47 265.641,150.897 266.313,151.325 266.984,151.753 267.656,152.182 268.328,152.611 269,153.04 269.672,153.471 270.344,153.901 271.016,154.332 271.688,154.764 272.359,155.196 273.031,155.628 273.703,156.061 274.375,156.494 275.047,156.928 275.719,157.362 276.391,157.796 277.063,158.231 277.734,158.666 278.406,159.102 279.078,159.538 279.75,159.974 280.422,160.411 281.094,160.848 281.766,161.285 282.438,161.723 283.109,162.161 283.781,162.599 284.453,163.038 285.125,163.477 285.797,163.916 286.469,164.356 287.141,164.796 287.813,165.236 288.484,165.676 289.156,166.117 289.828,166.558 290.5,166.999 291.172,167.44 291.844,167.882 292.516,168.324 293.188,168.766 293.859,169.208 294.531,169.65 295.203,170.093 295.875,170.536 296.547,170.979 297.219,171.422 297.891,171.865 298.563,172.309 299.234,172.752 299.906,173.196 300.578,173.64 301.25,174.084 301.922,174.528 302.594,174.973 303.266,175.417 303.938,175.861 304.609,176.306 305.281,176.751 305.953,177.195 306.625,177.64 307.297,178.085 307.969,178.53 308.641,178.975 309.313,179.42 309.984,179.865 310.656,180.31 311.328,180.755 312,181.2 312.672,181.645 313.344,182.09 314.016,182.535 314.688,182.98 315.359,183.425 316.031,183.87 316.703,184.315 317.375,184.76 318.047,185.205 318.719,185.649 319.391,186.094 320.063,186.539 320.734,186.983 321.406,187.427 322.078,187.872 322.75,188.316 323.422,188.76 324.094,189.204 324.766,189.648 325.438,190.091 326.109,190.535 326.781,190.978 327.453,191.421 328.125,191.864 328.797,192.307 329.469,192.75 330.141,193.192 330.813,193.634 331.484,194.076 332.156,194.518 332.828,194.96 333.5,195.401 334.172,195.842 334.844,196.283 335.516,196.724 336.188,197.164 336.859,197.604 337.531,198.044 338.203,198.484 338.875,198.923 339.547,199.362 340.219,199.801 340.891,200.239 341.563,200.677 342.234,201.115 342.906,201.552 343.578,201.989 344.25,202.426 344.922,202.862 345.594,203.298 346.266,203.734 346.938,204.169 347.609,204.604 348.281,205.038 348.953,205.472 349.625,205.906 350.297,206.339 350.969,206.772 351.641,207.204 352.313,207.636 352.984,208.068 353.656,208.499 354.328,208.929 355,209.36 355.672,209.789 356.344,210.218 357.016,210.647 357.688,211.075 358.359,211.503 359.031,211.93 359.703,212.357 360.375,212.783 361.047,213.209 361.719,213.634 362.391,214.058 363.063,214.482 363.734,214.906 364.406,215.329 365.078,215.751 365.75,216.173 366.422,216.594 367.094,217.014 367.766,217.434 368.438,217.854 369.109,218.272 369.781,218.69 370.453,219.108 371.125,219.525 371.797,219.941 372.469,220.357 373.141,220.771 373.813,221.186 374.484,221.599 375.156,222.012 375.828,222.424 376.5,222.836 377.172,223.247 377.844,223.657 378.516,224.066 379.188,224.475 379.859,224.883 380.531,225.29 381.203,225.697 381.875,226.103 382.547,226.508 383.219,226.912 383.891,227.315 384.563,227.718 385.234,228.12 385.906,228.521 386.578,228.921 387.25,229.321 387.922,229.72 388.594,230.118 389.266,230.515 389.938,230.911 390.609,231.307 391.281,231.701 391.953,232.095 392.625,232.488 393.297,232.88 393.969,233.271 394.641,233.662 395.313,234.051 395.984,234.44 396.656,234.827 397.328,235.214 398,235.6 398.672,235.985 399.344,236.369 400.016,236.752 400.688,237.134 401.359,237.516 402.031,237.896 402.703,238.275 403.375,238.654 404.047,239.031 404.719,239.408 405.391,239.783 406.063,240.158 406.734,240.531 407.406,240.904 408.078,241.275 408.75,241.646 409.422,242.016 410.094,242.384 410.766,242.752 411.438,243.118 412.109,243.484 412.781,243.848 413.453,244.211 414.125,244.574 414.797,244.935 415.469,245.295 416.141,245.654 416.813,246.012 417.484,246.369 418.156,246.725 418.828,247.08 419.5,247.433 420.172,247.786 420.844,248.137 421.516,248.487 422.188,248.837 422.859,249.185 423.531,249.532 424.203,249.877 424.875,250.222 425.547,250.565 426.219,250.908 426.891,251.249 427.563,251.589 428.234,251.928 428.906,252.265 429.578,252.602 430.25,252.937 430.922,253.271 431.594,253.604 432.266,253.935 432.938,254.266 433.609,254.595 434.281,254.923 434.953,255.249 435.625,255.575 436.297,255.899 436.969,256.222 437.641,256.544 438.313,256.864 438.984,257.183 439.656,257.501 440.328,257.818 441,258.133 441.672,258.447 442.344,258.76 443.016,259.072 443.688,259.382 444.359,259.691 445.031,259.998 445.703,260.304 446.375,260.609 447.047,260.913 447.719,261.215 448.391,261.516 449.063,261.815 449.734,262.114 450.406,262.411 451.078,262.706 451.75,263 452.422,263.293 453.094,263.584 453.766,263.874 454.438,264.163 455.109,264.45 455.781,264.736 456.453,265.02 457.125,265.304 457.797,265.585 458.469,265.865 459.141,266.144 459.813,266.422 460.484,266.698 461.156,266.972 461.828,267.245 462.5,267.517 463.172,267.787 463.844,268.056 464.516,268.323 465.188,268.589 465.859,268.853 466.531,269.116 467.203,269.378 467.875,269.638 468.547,269.896 469.219,270.153 469.891,270.409 470.563,270.663 471.234,270.915 471.906,271.166 472.578,271.416 473.25,271.664 473.922,271.91 474.594,272.155 475.266,272.399 475.938,272.641 476.609,272.881 477.281,273.12 477.953,273.357 478.625,273.593 479.297,273.827 479.969,274.06 480.641,274.291 481.313,274.521 481.984,274.749 482.656,274.975 483.328,275.2 484,275.424 484.672,275.645 485.344,275.865 486.016,276.084 486.688,276.301 487.359,276.516 488.031,276.73 488.703,276.942 489.375,277.153 490.047,277.362 490.719,277.569 491.391,277.775 492.063,277.979 492.734,278.182 493.406,278.383 494.078,278.582 494.75,278.78 495.422,278.976 496.094,279.17 496.766,279.363 497.438,279.554 498.109,279.743 498.781,279.931 499.453,280.117 500.125,280.302 500.797,280.485 501.469,280.666 502.141,280.846 502.813,281.023 503.484,281.2 504.156,281.374 504.828,281.547 505.5,281.718 506.172,281.888 506.844,282.055 507.516,282.221 508.188,282.386 508.859,282.549 509.531,282.71 510.203,282.869 510.875,283.027 511.547,283.182 512.219,283.337 512.891,283.489 513.563,283.64 514.234,283.789 514.906,283.936 515.578,284.082 516.25,284.226 516.922,284.368 517.594,284.509 518.266,284.647 518.938,284.784 519.609,284.92 520.281,285.053 520.953,285.185 521.625,285.315 522.297,285.443 522.969,285.57 523.641,285.695 524.313,285.818 524.984,285.939 525.656,286.059 526.328,286.177 527,286.293 527.672,286.407 528.344,286.52 529.016,286.63 529.688,286.739 530.359,286.847 531.031,286.952 531.703,287.056 532.375,287.158 533.047,287.258 533.719,287.356 534.391,287.453 535.063,287.548 535.734,287.641 536.406,287.732 537.078,287.822 537.75,287.909 538.422,287.995 539.094,288.08 539.766,288.162 540.438,288.242 541.109,288.321 541.781,288.398 542.453,288.473 543.125,288.547 543.797,288.618 544.469,288.688 545.141,288.756 545.813,288.822 546.484,288.887 547.156,288.949 547.828,289.01 548.5,289.069 549.172,289.126 549.844,289.182 550.516,289.235 551.188,289.287 551.859,289.337 552.531,289.385 553.203,289.432 553.875,289.476 554.547,289.519 555.219,289.56 555.891,289.599 556.563,289.636 557.234,289.672 557.906,289.705 558.578,289.737 559.25,289.767 559.922,289.795 560.594,289.822 561.266,289.846 561.938,289.869 562.609,289.89 563.281,289.909 563.953,289.926 564.625,289.942 565.297,289.955 565.969,289.967 566.641,289.977 567.313,289.985 567.984,289.992 568.656,289.996 569.328,289.999 570,290" fill="none" stroke="#4caf6e" stroke-width="2" opacity="0.9"/>
<rect x="582" y="83" width="10" height="10" fill="#4caf6e"/>
<text x="596" y="92" fill="#c9bfa9" font-size="10">CL#4 PAD</text>
<polyline points="54,72.4 54.672,72.401 55.344,72.404 56.016,72.408 56.688,72.415 57.359,72.423 58.031,72.433 58.703,72.445 59.375,72.458 60.047,72.474 60.719,72.491 61.391,72.51 62.063,72.531 62.734,72.554 63.406,72.578 64.078,72.605 64.75,72.633 65.422,72.663 66.094,72.695 66.766,72.728 67.438,72.764 68.109,72.801 68.781,72.84 69.453,72.881 70.125,72.924 70.797,72.968 71.469,73.015 72.141,73.063 72.813,73.113 73.484,73.165 74.156,73.218 74.828,73.274 75.5,73.331 76.172,73.39 76.844,73.451 77.516,73.513 78.188,73.578 78.859,73.644 79.531,73.712 80.203,73.782 80.875,73.853 81.547,73.927 82.219,74.002 82.891,74.079 83.563,74.158 84.234,74.238 84.906,74.32 85.578,74.405 86.25,74.491 86.922,74.578 87.594,74.668 88.266,74.759 88.938,74.852 89.609,74.947 90.281,75.044 90.953,75.142 91.625,75.242 92.297,75.344 92.969,75.448 93.641,75.553 94.313,75.661 94.984,75.77 95.656,75.88 96.328,75.993 97,76.107 97.672,76.223 98.344,76.341 99.016,76.461 99.688,76.582 100.359,76.705 101.031,76.83 101.703,76.957 102.375,77.085 103.047,77.215 103.719,77.347 104.391,77.48 105.063,77.616 105.734,77.753 106.406,77.891 107.078,78.032 107.75,78.174 108.422,78.318 109.094,78.464 109.766,78.611 110.438,78.76 111.109,78.911 111.781,79.063 112.453,79.218 113.125,79.373 113.797,79.531 114.469,79.69 115.141,79.851 115.813,80.014 116.484,80.179 117.156,80.345 117.828,80.512 118.5,80.682 119.172,80.853 119.844,81.026 120.516,81.2 121.188,81.377 121.859,81.554 122.531,81.734 123.203,81.915 123.875,82.098 124.547,82.283 125.219,82.469 125.891,82.657 126.563,82.846 127.234,83.037 127.906,83.23 128.578,83.424 129.25,83.62 129.922,83.818 130.594,84.017 131.266,84.218 131.938,84.421 132.609,84.625 133.281,84.831 133.953,85.038 134.625,85.247 135.297,85.458 135.969,85.67 136.641,85.884 137.313,86.099 137.984,86.316 138.656,86.535 139.328,86.755 140,86.976 140.672,87.2 141.344,87.425 142.016,87.651 142.688,87.879 143.359,88.109 144.031,88.34 144.703,88.573 145.375,88.807 146.047,89.043 146.719,89.28 147.391,89.519 148.063,89.759 148.734,90.001 149.406,90.245 150.078,90.49 150.75,90.736 151.422,90.984 152.094,91.234 152.766,91.485 153.438,91.737 154.109,91.991 154.781,92.247 155.453,92.504 156.125,92.762 156.797,93.022 157.469,93.284 158.141,93.547 158.813,93.811 159.484,94.077 160.156,94.344 160.828,94.613 161.5,94.883 162.172,95.155 162.844,95.428 163.516,95.702 164.188,95.978 164.859,96.256 165.531,96.535 166.203,96.815 166.875,97.096 167.547,97.38 168.219,97.664 168.891,97.95 169.563,98.237 170.234,98.526 170.906,98.816 171.578,99.107 172.25,99.4 172.922,99.694 173.594,99.989 174.266,100.286 174.938,100.585 175.609,100.884 176.281,101.185 176.953,101.487 177.625,101.791 178.297,102.096 178.969,102.402 179.641,102.709 180.313,103.018 180.984,103.328 181.656,103.64 182.328,103.953 183,104.267 183.672,104.582 184.344,104.899 185.016,105.217 185.688,105.536 186.359,105.856 187.031,106.178 187.703,106.501 188.375,106.825 189.047,107.151 189.719,107.477 190.391,107.805 191.063,108.134 191.734,108.465 192.406,108.796 193.078,109.129 193.75,109.463 194.422,109.798 195.094,110.135 195.766,110.472 196.438,110.811 197.109,111.151 197.781,111.492 198.453,111.835 199.125,112.178 199.797,112.523 200.469,112.868 201.141,113.215 201.813,113.563 202.484,113.913 203.156,114.263 203.828,114.614 204.5,114.967 205.172,115.32 205.844,115.675 206.516,116.031 207.188,116.388 207.859,116.746 208.531,117.105 209.203,117.465 209.875,117.826 210.547,118.189 211.219,118.552 211.891,118.916 212.563,119.282 213.234,119.648 213.906,120.016 214.578,120.384 215.25,120.754 215.922,121.125 216.594,121.496 217.266,121.869 217.938,122.242 218.609,122.617 219.281,122.992 219.953,123.369 220.625,123.746 221.297,124.125 221.969,124.504 222.641,124.884 223.313,125.266 223.984,125.648 224.656,126.031 225.328,126.415 226,126.8 226.672,127.186 227.344,127.573 228.016,127.96 228.688,128.349 229.359,128.738 230.031,129.129 230.703,129.52 231.375,129.912 232.047,130.305 232.719,130.699 233.391,131.093 234.063,131.489 234.734,131.885 235.406,132.282 236.078,132.68 236.75,133.079 237.422,133.479 238.094,133.879 238.766,134.28 239.438,134.682 240.109,135.085 240.781,135.488 241.453,135.892 242.125,136.297 242.797,136.703 243.469,137.11 244.141,137.517 244.813,137.925 245.484,138.334 246.156,138.743 246.828,139.153 247.5,139.564 248.172,139.976 248.844,140.388 249.516,140.801 250.188,141.214 250.859,141.629 251.531,142.043 252.203,142.459 252.875,142.875 253.547,143.292 254.219,143.71 254.891,144.128 255.563,144.546 256.234,144.966 256.906,145.386 257.578,145.806 258.25,146.227 258.922,146.649 259.594,147.071 260.266,147.494 260.938,147.918 261.609,148.342 262.281,148.766 262.953,149.191 263.625,149.617 264.297,150.043 264.969,150.47 265.641,150.897 266.313,151.325 266.984,151.753 267.656,152.182 268.328,152.611 269,153.04 269.672,153.471 270.344,153.901 271.016,154.332 271.688,154.764 272.359,155.196 273.031,155.628 273.703,156.061 274.375,156.494 275.047,156.928 275.719,157.362 276.391,157.796 277.063,158.231 277.734,158.666 278.406,159.102 279.078,159.538 279.75,159.974 280.422,160.411 281.094,160.848 281.766,161.285 282.438,161.723 283.109,162.161 283.781,162.599 284.453,163.038 285.125,163.477 285.797,163.916 286.469,164.356 287.141,164.796 287.813,165.236 288.484,165.676 289.156,166.117 289.828,166.558 290.5,166.999 291.172,167.44 291.844,167.882 292.516,168.324 293.188,168.766 293.859,169.208 294.531,169.65 295.203,170.093 295.875,170.536 296.547,170.979 297.219,171.422 297.891,171.865 298.563,172.309 299.234,172.752 299.906,173.196 300.578,173.64 301.25,174.084 301.922,174.528 302.594,174.973 303.266,175.417 303.938,175.861 304.609,176.306 305.281,176.751 305.953,177.195 306.625,177.64 307.297,178.085 307.969,178.53 308.641,178.975 309.313,179.42 309.984,179.865 310.656,180.31 311.328,180.755 312,181.2 312.672,181.645 313.344,182.09 314.016,182.535 314.688,182.98 315.359,183.425 316.031,183.87 316.703,184.315 317.375,184.76 318.047,185.205 318.719,185.649 319.391,186.094 320.063,186.539 320.734,186.983 321.406,187.427 322.078,187.872 322.75,188.316 323.422,188.76 324.094,189.204 324.766,189.648 325.438,190.091 326.109,190.535 326.781,190.978 327.453,191.421 328.125,191.864 328.797,192.307 329.469,192.75 330.141,193.192 330.813,193.634 331.484,194.076 332.156,194.518 332.828,194.96 333.5,195.401 334.172,195.842 334.844,196.283 335.516,196.724 336.188,197.164 336.859,197.604 337.531,198.044 338.203,198.484 338.875,198.923 339.547,199.362 340.219,199.801 340.891,200.239 341.563,200.677 342.234,201.115 342.906,201.552 343.578,201.989 344.25,202.426 344.922,202.862 345.594,203.298 346.266,203.734 346.938,204.169 347.609,204.604 348.281,205.038 348.953,205.472 349.625,205.906 350.297,206.339 350.969,206.772 351.641,207.204 352.313,207.636 352.984,208.068 353.656,208.499 354.328,208.929 355,209.36 355.672,209.789 356.344,210.218 357.016,210.647 357.688,211.075 358.359,211.503 359.031,211.93 359.703,212.357 360.375,212.783 361.047,213.209 361.719,213.634 362.391,214.058 363.063,214.482 363.734,214.906 364.406,215.329 365.078,215.751 365.75,216.173 366.422,216.594 367.094,217.014 367.766,217.434 368.438,217.854 369.109,218.272 369.781,218.69 370.453,219.108 371.125,219.525 371.797,219.941 372.469,220.357 373.141,220.771 373.813,221.186 374.484,221.599 375.156,222.012 375.828,222.424 376.5,222.836 377.172,223.247 377.844,223.657 378.516,224.066 379.188,224.475 379.859,224.883 380.531,225.29 381.203,225.697 381.875,226.103 382.547,226.508 383.219,226.912 383.891,227.315 384.563,227.718 385.234,228.12 385.906,228.521 386.578,228.921 387.25,229.321 387.922,229.72 388.594,230.118 389.266,230.515 389.938,230.911 390.609,231.307 391.281,231.701 391.953,232.095 392.625,232.488 393.297,232.88 393.969,233.271 394.641,233.662 395.313,234.051 395.984,234.44 396.656,234.827 397.328,235.214 398,235.6 398.672,235.985 399.344,236.369 400.016,236.752 400.688,237.134 401.359,237.516 402.031,237.896 402.703,238.275 403.375,238.654 404.047,239.031 404.719,239.408 405.391,239.783 406.063,240.158 406.734,240.531 407.406,240.904 408.078,241.275 408.75,241.646 409.422,242.016 410.094,242.384 410.766,242.752 411.438,243.118 412.109,243.484 412.781,243.848 413.453,244.211 414.125,244.574 414.797,244.935 415.469,245.295 416.141,245.654 416.813,246.012 417.484,246.369 418.156,246.725 418.828,247.08 419.5,247.433 420.172,247.786 420.844,248.137 421.516,248.487 422.188,248.837 422.859,249.185 423.531,249.532 424.203,249.877 424.875,250.222 425.547,250.565 426.219,250.908 426.891,251.249 427.563,251.589 428.234,251.928 428.906,252.265 429.578,252.602 430.25,252.937 430.922,253.271 431.594,253.604 432.266,253.935 432.938,254.266 433.609,254.595 434.281,254.923 434.953,255.249 435.625,255.575 436.297,255.899 436.969,256.222 437.641,256.544 438.313,256.864 438.984,257.183 439.656,257.501 440.328,257.818 441,258.133 441.672,258.447 442.344,258.76 443.016,259.072 443.688,259.382 444.359,259.691 445.031,259.998 445.703,260.304 446.375,260.609 447.047,260.913 447.719,261.215 448.391,261.516 449.063,261.815 449.734,262.114 450.406,262.411 451.078,262.706 451.75,263 452.422,263.293 453.094,263.584 453.766,263.874 454.438,264.163 455.109,264.45 455.781,264.736 456.453,265.02 457.125,265.304 457.797,265.585 458.469,265.865 459.141,266.144 459.813,266.422 460.484,266.698 461.156,266.972 461.828,267.245 462.5,267.517 463.172,267.787 463.844,268.056 464.516,268.323 465.188,268.589 465.859,268.853 466.531,269.116 467.203,269.378 467.875,269.638 468.547,269.896 469.219,270.153 469.891,270.409 470.563,270.663 471.234,270.915 471.906,271.166 472.578,271.416 473.25,271.664 473.922,271.91 474.594,272.155 475.266,272.399 475.938,272.641 476.609,272.881 477.281,273.12 477.953,273.357 478.625,273.593 479.297,273.827 479.969,274.06 480.641,274.291 481.313,274.521 481.984,274.749 482.656,274.975 483.328,275.2 484,275.424 484.672,275.645 485.344,275.865 486.016,276.084 486.688,276.301 487.359,276.516 488.031,276.73 488.703,276.942 489.375,277.153 490.047,277.362 490.719,277.569 491.391,277.775 492.063,277.979 492.734,278.182 493.406,278.383 494.078,278.582 494.75,278.78 495.422,278.976 496.094,279.17 496.766,279.363 497.438,279.554 498.109,279.743 498.781,279.931 499.453,280.117 500.125,280.302 500.797,280.485 501.469,280.666 502.141,280.846 502.813,281.023 503.484,281.2 504.156,281.374 504.828,281.547 505.5,281.718 506.172,281.888 506.844,282.055 507.516,282.221 508.188,282.386 508.859,282.549 509.531,282.71 510.203,282.869 510.875,283.027 511.547,283.182 512.219,283.337 512.891,283.489 513.563,283.64 514.234,283.789 514.906,283.936 515.578,284.082 516.25,284.226 516.922,284.368 517.594,284.509 518.266,284.647 518.938,284.784 519.609,284.92 520.281,285.053 520.953,285.185 521.625,285.315 522.297,285.443 522.969,285.57 523.641,285.695 524.313,285.818 524.984,285.939 525.656,286.059 526.328,286.177 527,286.293 527.672,286.407 528.344,286.52 529.016,286.63 529.688,286.739 530.359,286.847 531.031,286.952 531.703,287.056 532.375,287.158 533.047,287.258 533.719,287.356 534.391,287.453 535.063,287.548 535.734,287.641 536.406,287.732 537.078,287.822 537.75,287.909 538.422,287.995 539.094,288.08 539.766,288.162 540.438,288.242 541.109,288.321 541.781,288.398 542.453,288.473 543.125,288.547 543.797,288.618 544.469,288.688 545.141,288.756 545.813,288.822 546.484,288.887 547.156,288.949 547.828,289.01 548.5,289.069 549.172,289.126 549.844,289.182 550.516,289.235 551.188,289.287 551.859,289.337 552.531,289.385 553.203,289.432 553.875,289.476 554.547,289.519 555.219,289.56 555.891,289.599 556.563,289.636 557.234,289.672 557.906,289.705 558.578,289.737 559.25,289.767 559.922,289.795 560.594,289.822 561.266,289.846 561.938,289.869 562.609,289.89 563.281,289.909 563.953,289.926 564.625,289.942 565.297,289.955 565.969,289.967 566.641,289.977 567.313,289.985 567.984,289.992 568.656,289.996 569.328,289.999 570,290" fill="none" stroke="#d65a9a" stroke-width="2" opacity="0.9"/>
<rect x="582" y="98" width="10" height="10" fill="#d65a9a"/>
<text x="596" y="107" fill="#c9bfa9" font-size="10">CL#5 LEAD</text>
<polyline points="54,72.4 54.672,72.401 55.344,72.404 56.016,72.408 56.688,72.415 57.359,72.423 58.031,72.433 58.703,72.445 59.375,72.458 60.047,72.474 60.719,72.491 61.391,72.51 62.063,72.531 62.734,72.554 63.406,72.578 64.078,72.605 64.75,72.633 65.422,72.663 66.094,72.695 66.766,72.728 67.438,72.764 68.109,72.801 68.781,72.84 69.453,72.881 70.125,72.924 70.797,72.968 71.469,73.015 72.141,73.063 72.813,73.113 73.484,73.165 74.156,73.218 74.828,73.274 75.5,73.331 76.172,73.39 76.844,73.451 77.516,73.513 78.188,73.578 78.859,73.644 79.531,73.712 80.203,73.782 80.875,73.853 81.547,73.927 82.219,74.002 82.891,74.079 83.563,74.158 84.234,74.238 84.906,74.32 85.578,74.405 86.25,74.491 86.922,74.578 87.594,74.668 88.266,74.759 88.938,74.852 89.609,74.947 90.281,75.044 90.953,75.142 91.625,75.242 92.297,75.344 92.969,75.448 93.641,75.553 94.313,75.661 94.984,75.77 95.656,75.88 96.328,75.993 97,76.107 97.672,76.223 98.344,76.341 99.016,76.461 99.688,76.582 100.359,76.705 101.031,76.83 101.703,76.957 102.375,77.085 103.047,77.215 103.719,77.347 104.391,77.48 105.063,77.616 105.734,77.753 106.406,77.891 107.078,78.032 107.75,78.174 108.422,78.318 109.094,78.464 109.766,78.611 110.438,78.76 111.109,78.911 111.781,79.063 112.453,79.218 113.125,79.373 113.797,79.531 114.469,79.69 115.141,79.851 115.813,80.014 116.484,80.179 117.156,80.345 117.828,80.512 118.5,80.682 119.172,80.853 119.844,81.026 120.516,81.2 121.188,81.377 121.859,81.554 122.531,81.734 123.203,81.915 123.875,82.098 124.547,82.283 125.219,82.469 125.891,82.657 126.563,82.846 127.234,83.037 127.906,83.23 128.578,83.424 129.25,83.62 129.922,83.818 130.594,84.017 131.266,84.218 131.938,84.421 132.609,84.625 133.281,84.831 133.953,85.038 134.625,85.247 135.297,85.458 135.969,85.67 136.641,85.884 137.313,86.099 137.984,86.316 138.656,86.535 139.328,86.755 140,86.976 140.672,87.2 141.344,87.425 142.016,87.651 142.688,87.879 143.359,88.109 144.031,88.34 144.703,88.573 145.375,88.807 146.047,89.043 146.719,89.28 147.391,89.519 148.063,89.759 148.734,90.001 149.406,90.245 150.078,90.49 150.75,90.736 151.422,90.984 152.094,91.234 152.766,91.485 153.438,91.737 154.109,91.991 154.781,92.247 155.453,92.504 156.125,92.762 156.797,93.022 157.469,93.284 158.141,93.547 158.813,93.811 159.484,94.077 160.156,94.344 160.828,94.613 161.5,94.883 162.172,95.155 162.844,95.428 163.516,95.702 164.188,95.978 164.859,96.256 165.531,96.535 166.203,96.815 166.875,97.096 167.547,97.38 168.219,97.664 168.891,97.95 169.563,98.237 170.234,98.526 170.906,98.816 171.578,99.107 172.25,99.4 172.922,99.694 173.594,99.989 174.266,100.286 174.938,100.585 175.609,100.884 176.281,101.185 176.953,101.487 177.625,101.791 178.297,102.096 178.969,102.402 179.641,102.709 180.313,103.018 180.984,103.328 181.656,103.64 182.328,103.953 183,104.267 183.672,104.582 184.344,104.899 185.016,105.217 185.688,105.536 186.359,105.856 187.031,106.178 187.703,106.501 188.375,106.825 189.047,107.151 189.719,107.477 190.391,107.805 191.063,108.134 191.734,108.465 192.406,108.796 193.078,109.129 193.75,109.463 194.422,109.798 195.094,110.135 195.766,110.472 196.438,110.811 197.109,111.151 197.781,111.492 198.453,111.835 199.125,112.178 199.797,112.523 200.469,112.868 201.141,113.215 201.813,113.563 202.484,113.913 203.156,114.263 203.828,114.614 204.5,114.967 205.172,115.32 205.844,115.675 206.516,116.031 207.188,116.388 207.859,116.746 208.531,117.105 209.203,117.465 209.875,117.826 210.547,118.189 211.219,118.552 211.891,118.916 212.563,119.282 213.234,119.648 213.906,120.016 214.578,120.384 215.25,120.754 215.922,121.125 216.594,121.496 217.266,121.869 217.938,122.242 218.609,122.617 219.281,122.992 219.953,123.369 220.625,123.746 221.297,124.125 221.969,124.504 222.641,124.884 223.313,125.266 223.984,125.648 224.656,126.031 225.328,126.415 226,126.8 226.672,127.186 227.344,127.573 228.016,127.96 228.688,128.349 229.359,128.738 230.031,129.129 230.703,129.52 231.375,129.912 232.047,130.305 232.719,130.699 233.391,131.093 234.063,131.489 234.734,131.885 235.406,132.282 236.078,132.68 236.75,133.079 237.422,133.479 238.094,133.879 238.766,134.28 239.438,134.682 240.109,135.085 240.781,135.488 241.453,135.892 242.125,136.297 242.797,136.703 243.469,137.11 244.141,137.517 244.813,137.925 245.484,138.334 246.156,138.743 246.828,139.153 247.5,139.564 248.172,139.976 248.844,140.388 249.516,140.801 250.188,141.214 250.859,141.629 251.531,142.043 252.203,142.459 252.875,142.875 253.547,143.292 254.219,143.71 254.891,144.128 255.563,144.546 256.234,144.966 256.906,145.386 257.578,145.806 258.25,146.227 258.922,146.649 259.594,147.071 260.266,147.494 260.938,147.918 261.609,148.342 262.281,148.766 262.953,149.191 263.625,149.617 264.297,150.043 264.969,150.47 265.641,150.897 266.313,151.325 266.984,151.753 267.656,152.182 268.328,152.611 269,153.04 269.672,153.471 270.344,153.901 271.016,154.332 271.688,154.764 272.359,155.196 273.031,155.628 273.703,156.061 274.375,156.494 275.047,156.928 275.719,157.362 276.391,157.796 277.063,158.231 277.734,158.666 278.406,159.102 279.078,159.538 279.75,159.974 280.422,160.411 281.094,160.848 281.766,161.285 282.438,161.723 283.109,162.161 283.781,162.599 284.453,163.038 285.125,163.477 285.797,163.916 286.469,164.356 287.141,164.796 287.813,165.236 288.484,165.676 289.156,166.117 289.828,166.558 290.5,166.999 291.172,167.44 291.844,167.882 292.516,168.324 293.188,168.766 293.859,169.208 294.531,169.65 295.203,170.093 295.875,170.536 296.547,170.979 297.219,171.422 297.891,171.865 298.563,172.309 299.234,172.752 299.906,173.196 300.578,173.64 301.25,174.084 301.922,174.528 302.594,174.973 303.266,175.417 303.938,175.861 304.609,176.306 305.281,176.751 305.953,177.195 306.625,177.64 307.297,178.085 307.969,178.53 308.641,178.975 309.313,179.42 309.984,179.865 310.656,180.31 311.328,180.755 312,181.2 312.672,181.645 313.344,182.09 314.016,182.535 314.688,182.98 315.359,183.425 316.031,183.87 316.703,184.315 317.375,184.76 318.047,185.205 318.719,185.649 319.391,186.094 320.063,186.539 320.734,186.983 321.406,187.427 322.078,187.872 322.75,188.316 323.422,188.76 324.094,189.204 324.766,189.648 325.438,190.091 326.109,190.535 326.781,190.978 327.453,191.421 328.125,191.864 328.797,192.307 329.469,192.75 330.141,193.192 330.813,193.634 331.484,194.076 332.156,194.518 332.828,194.96 333.5,195.401 334.172,195.842 334.844,196.283 335.516,196.724 336.188,197.164 336.859,197.604 337.531,198.044 338.203,198.484 338.875,198.923 339.547,199.362 340.219,199.801 340.891,200.239 341.563,200.677 342.234,201.115 342.906,201.552 343.578,201.989 344.25,202.426 344.922,202.862 345.594,203.298 346.266,203.734 346.938,204.169 347.609,204.604 348.281,205.038 348.953,205.472 349.625,205.906 350.297,206.339 350.969,206.772 351.641,207.204 352.313,207.636 352.984,208.068 353.656,208.499 354.328,208.929 355,209.36 355.672,209.789 356.344,210.218 357.016,210.647 357.688,211.075 358.359,211.503 359.031,211.93 359.703,212.357 360.375,212.783 361.047,213.209 361.719,213.634 362.391,214.058 363.063,214.482 363.734,214.906 364.406,215.329 365.078,215.751 365.75,216.173 366.422,216.594 367.094,217.014 367.766,217.434 368.438,217.854 369.109,218.272 369.781,218.69 370.453,219.108 371.125,219.525 371.797,219.941 372.469,220.357 373.141,220.771 373.813,221.186 374.484,221.599 375.156,222.012 375.828,222.424 376.5,222.836 377.172,223.247 377.844,223.657 378.516,224.066 379.188,224.475 379.859,224.883 380.531,225.29 381.203,225.697 381.875,226.103 382.547,226.508 383.219,226.912 383.891,227.315 384.563,227.718 385.234,228.12 385.906,228.521 386.578,228.921 387.25,229.321 387.922,229.72 388.594,230.118 389.266,230.515 389.938,230.911 390.609,231.307 391.281,231.701 391.953,232.095 392.625,232.488 393.297,232.88 393.969,233.271 394.641,233.662 395.313,234.051 395.984,234.44 396.656,234.827 397.328,235.214 398,235.6 398.672,235.985 399.344,236.369 400.016,236.752 400.688,237.134 401.359,237.516 402.031,237.896 402.703,238.275 403.375,238.654 404.047,239.031 404.719,239.408 405.391,239.783 406.063,240.158 406.734,240.531 407.406,240.904 408.078,241.275 408.75,241.646 409.422,242.016 410.094,242.384 410.766,242.752 411.438,243.118 412.109,243.484 412.781,243.848 413.453,244.211 414.125,244.574 414.797,244.935 415.469,245.295 416.141,245.654 416.813,246.012 417.484,246.369 418.156,246.725 418.828,247.08 419.5,247.433 420.172,247.786 420.844,248.137 421.516,248.487 422.188,248.837 422.859,249.185 423.531,249.532 424.203,249.877 424.875,250.222 425.547,250.565 426.219,250.908 426.891,251.249 427.563,251.589 428.234,251.928 428.906,252.265 429.578,252.602 430.25,252.937 430.922,253.271 431.594,253.604 432.266,253.935 432.938,254.266 433.609,254.595 434.281,254.923 434.953,255.249 435.625,255.575 436.297,255.899 436.969,256.222 437.641,256.544 438.313,256.864 438.984,257.183 439.656,257.501 440.328,257.818 441,258.133 441.672,258.447 442.344,258.76 443.016,259.072 443.688,259.382 444.359,259.691 445.031,259.998 445.703,260.304 446.375,260.609 447.047,260.913 447.719,261.215 448.391,261.516 449.063,261.815 449.734,262.114 450.406,262.411 451.078,262.706 451.75,263 452.422,263.293 453.094,263.584 453.766,263.874 454.438,264.163 455.109,264.45 455.781,264.736 456.453,265.02 457.125,265.304 457.797,265.585 458.469,265.865 459.141,266.144 459.813,266.422 460.484,266.698 461.156,266.972 461.828,267.245 462.5,267.517 463.172,267.787 463.844,268.056 464.516,268.323 465.188,268.589 465.859,268.853 466.531,269.116 467.203,269.378 467.875,269.638 468.547,269.896 469.219,270.153 469.891,270.409 470.563,270.663 471.234,270.915 471.906,271.166 472.578,271.416 473.25,271.664 473.922,271.91 474.594,272.155 475.266,272.399 475.938,272.641 476.609,272.881 477.281,273.12 477.953,273.357 478.625,273.593 479.297,273.827 479.969,274.06 480.641,274.291 481.313,274.521 481.984,274.749 482.656,274.975 483.328,275.2 484,275.424 484.672,275.645 485.344,275.865 486.016,276.084 486.688,276.301 487.359,276.516 488.031,276.73 488.703,276.942 489.375,277.153 490.047,277.362 490.719,277.569 491.391,277.775 492.063,277.979 492.734,278.182 493.406,278.383 494.078,278.582 494.75,278.78 495.422,278.976 496.094,279.17 496.766,279.363 497.438,279.554 498.109,279.743 498.781,279.931 499.453,280.117 500.125,280.302 500.797,280.485 501.469,280.666 502.141,280.846 502.813,281.023 503.484,281.2 504.156,281.374 504.828,281.547 505.5,281.718 506.172,281.888 506.844,282.055 507.516,282.221 508.188,282.386 508.859,282.549 509.531,282.71 510.203,282.869 510.875,283.027 511.547,283.182 512.219,283.337 512.891,283.489 513.563,283.64 514.234,283.789 514.906,283.936 515.578,284.082 516.25,284.226 516.922,284.368 517.594,284.509 518.266,284.647 518.938,284.784 519.609,284.92 520.281,285.053 520.953,285.185 521.625,285.315 522.297,285.443 522.969,285.57 523.641,285.695 524.313,285.818 524.984,285.939 525.656,286.059 526.328,286.177 527,286.293 527.672,286.407 528.344,286.52 529.016,286.63 529.688,286.739 530.359,286.847 531.031,286.952 531.703,287.056 532.375,287.158 533.047,287.258 533.719,287.356 534.391,287.453 535.063,287.548 535.734,287.641 536.406,287.732 537.078,287.822 537.75,287.909 538.422,287.995 539.094,288.08 539.766,288.162 540.438,288.242 541.109,288.321 541.781,288.398 542.453,288.473 543.125,288.547 543.797,288.618 544.469,288.688 545.141,288.756 545.813,288.822 546.484,288.887 547.156,288.949 547.828,289.01 548.5,289.069 549.172,289.126 549.844,289.182 550.516,289.235 551.188,289.287 551.859,289.337 552.531,289.385 553.203,289.432 553.875,289.476 554.547,289.519 555.219,289.56 555.891,289.599 556.563,289.636 557.234,289.672 557.906,289.705 558.578,289.737 559.25,289.767 559.922,289.795 560.594,289.822 561.266,289.846 561.938,289.869 562.609,289.89 563.281,289.909 563.953,289.926 564.625,289.942 565.297,289.955 565.969,289.967 566.641,289.977 567.313,289.985 567.984,289.992 568.656,289.996 569.328,289.999 570,290" fill="none" stroke="#3b7dd8" stroke-width="2" opacity="0.9"/>
<rect x="582" y="113" width="10" height="10" fill="#3b7dd8"/>
<text x="596" y="122" fill="#c9bfa9" font-size="10">CL#6 LEAD</text>
<text x="54" y="20" fill="#f3ead9" font-size="14" font-weight="700">DISSOLVE 16</text>
<text x="570" y="20" fill="#7c756a" font-size="10" text-anchor="end">16 bars @ 94 BPM · y = normalized 0..1</text>
</svg>