<svg xmlns="http://www.w3.org/2000/svg" width="720" height="320" viewBox="0 0 720 320" font-family="JetBrains Mono, ui-monospace, monospace">
<rect width="720" height="320" fill="#15130f"/>
<line x1="54" y1="290" x2="570" y2="290" stroke="#2a261f"/>
<text x="46" y="293" fill="#7c756a" font-size="10" text-anchor="end">0.0</text>
<line x1="54" y1="162" x2="570" y2="162" stroke="#2a261f"/>
<text x="46" y="165" fill="#7c756a" font-size="10" text-anchor="end">0.5</text>
<line x1="54" y1="34" x2="570" y2="34" stroke="#2a261f"/>
<text x="46" y="37" fill="#7c756a" font-size="10" text-anchor="end">1.0</text>
<line x1="54" y1="34" x2="54" y2="290" stroke="#211e18"/>
<text x="54" y="308" fill="#7c756a" font-size="10" text-anchor="middle">0</text>
<line x1="183" y1="34" x2="183" y2="290" stroke="#211e18"/>
<text x="183" y="308" fill="#7c756a" font-size="10" text-anchor="middle">4</text>
<line x1="312" y1="34" x2="312" y2="290" stroke="#211e18"/>
<text x="312" y="308" fill="#7c756a" font-size="10" text-anchor="middle">8</text>
<line x1="441" y1="34" x2="441" y2="290" stroke="#211e18"/>
<text x="441" y="308" fill="#7c756a" font-size="10" text-anchor="middle">12</text>
<line x1="570" y1="34" x2="570" y2="290" stroke="#211e18"/>
<text x="570" y="308" fill="#7c756a" font-size="10" text-anchor="middle">16</text>
<polyline points="54,162 54.672,162.005 55.344,162.021 56.016,162.046 56.688,162.082 57.359,162.128 58.031,162.185 58.703,162.252 59.375,162.329 60.047,162.416 60.719,162.513 61.391,162.62 62.063,162.738 62.734,162.865 63.406,163.003 64.078,163.151 64.75,163.308 65.422,163.476 66.094,163.653 66.766,163.841 67.438,164.038 68.109,164.245 68.781,164.461 69.453,164.687 70.125,164.923 70.797,165.168 71.469,165.423 72.141,165.687 72.813,165.96 73.484,166.243 74.156,166.534 74.828,166.835 75.5,167.145 76.172,167.463 76.844,167.791 77.516,168.127 78.188,168.472 78.859,168.825 79.531,169.187 80.203,169.557 80.875,169.935 81.547,170.322 82.219,170.716 82.891,171.119 83.563,171.529 84.234,171.947 84.906,172.373 85.578,172.806 86.25,173.247 86.922,173.695 87.594,174.15 88.266,174.612 88.938,175.081 89.609,175.557 90.281,176.039 90.953,176.528 91.625,177.024 92.297,177.525 92.969,178.033 93.641,178.547 94.313,179.066 94.984,179.591 95.656,180.122 96.328,180.658 97,181.2 97.672,181.747 98.344,182.298 99.016,182.855 99.688,183.416 100.359,183.982 101.031,184.552 101.703,185.126 102.375,185.705 103.047,186.287 103.719,186.874 104.391,187.463 105.063,188.057 105.734,188.653 106.406,189.253 107.078,189.856 107.75,190.461 108.422,191.07 109.094,191.68 109.766,192.293 110.438,192.909 111.109,193.526 111.781,194.145 112.453,194.766 113.125,195.388 113.797,196.011 114.469,196.636 115.141,197.262 115.813,197.889 116.484,198.516 117.156,199.144 117.828,199.772 118.5,200.4 119.172,201.028 119.844,201.656 120.516,202.284 121.188,202.911 121.859,203.538 122.531,204.164 123.203,204.789 123.875,205.412 124.547,206.034 125.219,206.655 125.891,207.274 126.563,207.891 127.234,208.507 127.906,209.12 128.578,209.73 129.25,210.339 129.922,210.944 130.594,211.547 131.266,212.147 131.938,212.743 132.609,213.337 133.281,213.926 133.953,214.513 134.625,215.095 135.297,215.674 135.969,216.248 136.641,216.818 137.313,217.384 137.984,217.945 138.656,218.502 139.328,219.053 140,219.6 140.672,220.142 141.344,220.678 142.016,221.209 142.688,221.734 143.359,222.253 144.031,222.767 144.703,223.275 145.375,223.776 146.047,224.272 146.719,224.761 147.391,225.243 148.063,225.719 148.734,226.188 149.406,226.65 150.078,227.105 150.75,227.553 151.422,227.994 152.094,228.427 152.766,228.853 153.438,229.271 154.109,229.681 154.781,230.084 155.453,230.478 156.125,230.865 156.797,231.243 157.469,231.613 158.141,231.975 158.813,232.328 159.484,232.673 160.156,233.009 160.828,233.337 161.5,233.655 162.172,233.965 162.844,234.266 163.516,234.557 164.188,234.84 164.859,235.113 165.531,235.377 166.203,235.632 166.875,235.877 167.547,236.113 168.219,236.339 168.891,236.555 169.563,236.762 170.234,236.959 170.906,237.147 171.578,237.324 172.25,237.492 172.922,237.649 173.594,237.797 174.266,237.935 174.938,238.062 175.609,238.18 176.281,238.287 176.953,238.384 177.625,238.471 178.297,238.548 178.969,238.615 179.641,238.672 180.313,238.718 180.984,238.754 181.656,238.779 182.328,238.795 183,238.8 183.672,238.8 184.344,238.8 185.016,238.8 185.688,238.8 186.359,238.8 187.031,238.8 187.703,238.8 188.375,238.8 189.047,238.8 189.719,238.8 190.391,238.8 191.063,238.8 191.734,238.8 192.406,238.8 193.078,238.8 193.75,238.8 194.422,238.8 195.094,238.8 195.766,238.8 196.438,238.8 197.109,238.8 197.781,238.8 198.453,238.8 199.125,238.8 199.797,238.8 200.469,238.8 201.141,238.8 201.813,238.8 202.484,238.8 203.156,238.8 203.828,238.8 204.5,238.8 205.172,238.8 205.844,238.8 206.516,238.8 207.188,238.8 207.859,238.8 208.531,238.8 209.203,238.8 209.875,238.8 210.547,238.8 211.219,238.8 211.891,238.8 212.563,238.8 213.234,238.8 213.906,238.8 214.578,238.8 215.25,238.8 215.922,238.8 216.594,238.8 217.266,238.8 217.938,238.8 218.609,238.8 219.281,238.8 219.953,238.8 220.625,238.8 221.297,238.8 221.969,238.8 222.641,238.8 223.313,238.8 223.984,238.8 224.656,238.8 225.328,238.8 226,238.8 226.672,238.8 227.344,238.8 228.016,238.8 228.688,238.8 229.359,238.8 230.031,238.8 230.703,238.8 231.375,238.8 232.047,238.8 232.719,238.8 233.391,238.8 234.063,238.8 234.734,238.8 235.406,238.8 236.078,238.8 236.75,238.8 237.422,238.8 238.094,238.8 238.766,238.8 239.438,238.8 240.109,238.8 240.781,238.8 241.453,238.8 242.125,238.8 242.797,238.8 243.469,238.8 244.141,238.8 244.813,238.8 245.484,238.8 246.156,238.8 246.828,238.8 247.5,238.8 248.172,238.8 248.844,238.8 249.516,238.8 250.188,238.8 250.859,238.8 251.531,238.8 252.203,238.8 252.875,238.8 253.547,238.8 254.219,238.8 254.891,238.8 255.563,238.8 256.234,238.8 256.906,238.8 257.578,238.8 258.25,238.8 258.922,238.8 259.594,238.8 260.266,238.8 260.938,238.8 261.609,238.8 262.281,238.8 262.953,238.8 263.625,238.8 264.297,238.8 264.969,238.8 265.641,238.8 266.313,238.8 266.984,238.8 267.656,238.8 268.328,238.8 269,238.8 269.672,238.8 270.344,238.8 271.016,238.8 271.688,238.8 272.359,238.8 273.031,238.8 273.703,238.8 274.375,238.8 275.047,238.8 275.719,238.8 276.391,238.8 277.063,238.8 277.734,238.8 278.406,238.8 279.078,238.8 279.75,238.8 280.422,238.8 281.094,238.8 281.766,238.8 282.438,238.8 283.109,238.8 283.781,238.8 284.453,238.8 285.125,238.8 285.797,238.8 286.469,238.8 287.141,238.8 287.813,238.8 288.484,238.8 289.156,238.8 289.828,238.8 290.5,238.8 291.172,238.8 291.844,238.8 292.516,238.8 293.188,238.8 293.859,238.8 294.531,238.8 295.203,238.8 295.875,238.8 296.547,238.8 297.219,238.8 297.891,238.8 298.563,238.8 299.234,238.8 299.906,238.8 300.578,238.8 301.25,238.8 301.922,238.8 302.594,238.8 303.266,238.8 303.938,238.8 304.609,238.8 305.281,238.8 305.953,238.8 306.625,238.8 307.297,238.8 307.969,238.8 308.641,238.8 309.313,238.8 309.984,238.8 310.656,238.8 311.328,238.8 312,238.8 312.672,238.8 313.344,238.8 314.016,238.8 314.688,238.8 315.359,238.8 316.031,238.8 316.703,238.8 317.375,238.8 318.047,238.8 318.719,238.8 319.391,238.8 320.063,238.8 320.734,238.8 321.406,238.8 322.078,238.8 322.75,238.8 323.422,238.8 324.094,238.8 324.766,238.8 325.438,238.8 326.109,238.8 326.781,238.8 327.453,238.8 328.125,238.8 328.797,238.8 329.469,238.8 330.141,238.8 330.813,238.8 331.484,238.8 332.156,238.8 332.828,238.8 333.5,238.8 334.172,238.8 334.844,238.8 335.516,238.8 336.188,238.8 336.859,238.8 337.531,238.8 338.203,238.8 338.875,238.8 339.547,238.8 340.219,238.8 340.891,238.8 341.563,238.8 342.234,238.8 342.906,238.8 343.578,238.8 344.25,238.8 344.922,238.8 345.594,238.8 346.266,238.8 346.938,238.8 347.609,238.8 348.281,238.8 348.953,238.8 349.625,238.8 350.297,238.8 350.969,238.8 351.641,238.8 352.313,238.8 352.984,238.8 353.656,238.8 354.328,238.8 355,238.8 355.672,238.8 356.344,238.8 357.016,238.8 357.688,238.8 358.359,238.8 359.031,238.8 359.703,238.8 360.375,238.8 361.047,238.8 361.719,238.8 362.391,238.8 363.063,238.8 363.734,238.8 364.406,238.8 365.078,238.8 365.75,238.8 366.422,238.8 367.094,238.8 367.766,238.8 368.438,238.8 369.109,238.8 369.781,238.8 370.453,238.8 371.125,238.8 371.797,238.8 372.469,238.8 373.141,238.8 373.813,238.8 374.484,238.8 375.156,238.8 375.828,238.8 376.5,238.8 377.172,238.8 377.844,238.8 378.516,238.8 379.188,238.8 379.859,238.8 380.531,238.8 381.203,238.8 381.875,238.8 382.547,238.8 383.219,238.8 383.891,238.8 384.563,238.8 385.234,238.8 385.906,238.8 386.578,238.8 387.25,238.8 387.922,238.8 388.594,238.8 389.266,238.8 389.938,238.8 390.609,238.8 391.281,238.8 391.953,238.8 392.625,238.8 393.297,238.8 393.969,238.8 394.641,238.8 395.313,238.8 395.984,238.8 396.656,238.8 397.328,238.8 398,238.8 398.672,238.8 399.344,238.8 400.016,238.8 400.688,238.8 401.359,238.8 402.031,238.8 402.703,238.8 403.375,238.8 404.047,238.8 404.719,238.8 405.391,238.8 406.063,238.8 406.734,238.8 407.406,238.8 408.078,238.8 408.75,238.8 409.422,238.8 410.094,238.8 410.766,238.8 411.438,238.8 412.109,238.8 412.781,238.8 413.453,238.8 414.125,238.8 414.797,238.8 415.469,238.8 416.141,238.8 416.813,238.8 417.484,238.8 418.156,238.8 418.828,238.8 419.5,238.8 420.172,238.8 420.844,238.8 421.516,238.8 422.188,238.8 422.859,238.8 423.531,238.8 424.203,238.8 424.875,238.8 425.547,238.8 426.219,238.8 426.891,238.8 427.563,238.8 428.234,238.8 428.906,238.8 429.578,238.8 430.25,238.8 430.922,238.8 431.594,238.8 432.266,238.8 432.938,238.8 433.609,238.8 434.281,238.8 434.953,238.8 435.625,238.8 436.297,238.8 436.969,238.8 437.641,238.8 438.313,238.8 438.984,238.8 439.656,238.8 440.328,238.8 441,238.8 441.672,238.795 442.344,238.779 443.016,238.754 443.688,238.718 444.359,238.672 445.031,238.615 445.703,238.548 446.375,238.471 447.047,238.384 447.719,238.287 448.391,238.18 449.063,238.062 449.734,237.935 450.406,237.797 451.078,237.649 451.75,237.492 452.422,237.324 453.094,237.147 453.766,236.959 454.438,236.762 455.109,236.555 455.781,236.339 456.453,236.113 457.125,235.877 457.797,235.632 458.469,235.377 459.141,235.113 459.813,234.84 460.484,234.557 461.156,234.266 461.828,233.965 462.5,233.655 463.172,233.337 463.844,233.009 464.516,232.673 465.188,232.328 465.859,231.975 466.531,231.613 467.203,231.243 467.875,230.865 468.547,230.478 469.219,230.084 469.891,229.681 470.563,229.271 471.234,228.853 471.906,228.427 472.578,227.994 473.25,227.553 473.922,227.105 474.594,226.65 475.266,226.188 475.938,225.719 476.609,225.243 477.281,224.761 477.953,224.272 478.625,223.776 479.297,223.275 479.969,222.767 480.641,222.253 481.313,221.734 481.984,221.209 482.656,220.678 483.328,220.142 484,219.6 484.672,219.053 485.344,218.502 486.016,217.945 486.688,217.384 487.359,216.818 488.031,216.248 488.703,215.674 489.375,215.095 490.047,214.513 490.719,213.926 491.391,213.337 492.063,212.743 492.734,212.147 493.406,211.547 494.078,210.944 494.75,210.339 495.422,209.73 496.094,209.12 496.766,208.507 497.438,207.891 498.109,207.274 498.781,206.655 499.453,206.034 500.125,205.412 500.797,204.789 501.469,204.164 502.141,203.538 502.813,202.911 503.484,202.284 504.156,201.656 504.828,201.028 505.5,200.4 506.172,199.772 506.844,199.144 507.516,198.516 508.188,197.889 508.859,197.262 509.531,196.636 510.203,196.011 510.875,195.388 511.547,194.766 512.219,194.145 512.891,193.526 513.563,192.909 514.234,192.293 514.906,191.68 515.578,191.07 516.25,190.461 516.922,189.856 517.594,189.253 518.266,188.653 518.938,188.057 519.609,187.463 520.281,186.874 520.953,186.287 521.625,185.705 522.297,185.126 522.969,184.552 523.641,183.982 524.313,183.416 524.984,182.855 525.656,182.298 526.328,181.747 527,181.2 527.672,180.658 528.344,180.122 529.016,179.591 529.688,179.066 530.359,178.547 531.031,178.033 531.703,177.525 532.375,177.024 533.047,176.528 533.719,176.039 534.391,175.557 535.063,175.081 535.734,174.612 536.406,174.15 537.078,173.695 537.75,173.247 538.422,172.806 539.094,172.373 539.766,171.947 540.438,171.529 541.109,171.119 541.781,170.716 542.453,170.322 543.125,169.935 543.797,169.557 544.469,169.187 545.141,168.825 545.813,168.472 546.484,168.127 547.156,167.791 547.828,167.463 548.5,167.145 549.172,166.835 549.844,166.534 550.516,166.243 551.188,165.96 551.859,165.687 552.531,165.423 553.203,165.168 553.875,164.923 554.547,164.687 555.219,164.461 555.891,164.245 556.563,164.038 557.234,163.841 557.906,163.653 558.578,163.476 559.25,163.308 559.922,163.151 560.594,163.003 561.266,162.865 561.938,162.738 562.609,162.62 563.281,162.513 563.953,162.416 564.625,162.329 565.297,162.252 565.969,162.185 566.641,162.128 567.313,162.082 567.984,162.046 568.656,162.021 569.328,162.005 570,162" fill="none" stroke="#c2622a" stroke-width="2" opacity="0.9"/>
<rect x="582" y="38" width="10" height="10" fill="#c2622a"/>
<text x="596" y="47" fill="#c9bfa9" font-size="10">HiDrumsBus DJ</text>
<polyline points="54,162 54.672,162.005 55.344,162.021 56.016,162.046 56.688,162.082 57.359,162.128 58.031,162.185 58.703,162.252 59.375,162.329 60.047,162.416 60.719,162.513 61.391,162.62 62.063,162.738 62.734,162.865 63.406,163.003 64.078,163.151 64.75,163.308 65.422,163.476 66.094,163.653 66.766,163.841 67.438,164.038 68.109,164.245 68.781,164.461 69.453,164.687 70.125,164.923 70.797,165.168 71.469,165.423 72.141,165.687 72.813,165.96 73.484,166.243 74.156,166.534 74.828,166.835 75.5,167.145 76.172,167.463 76.844,167.791 77.516,168.127 78.188,168.472 78.859,168.825 79.531,169.187 80.203,169.557 80.875,169.935 81.547,170.322 82.219,170.716 82.891,171.119 83.563,171.529 84.234,171.947 84.906,172.373 85.578,172.806 86.25,173.247 86.922,173.695 87.594,174.15 88.266,174.612 88.938,175.081 89.609,175.557 90.281,176.039 90.953,176.528 91.625,177.024 92.297,177.525 92.969,178.033 93.641,178.547 94.313,179.066 94.984,179.591 95.656,180.122 96.328,180.658 97,181.2 97.672,181.747 98.344,182.298 99.016,182.855 99.688,183.416 100.359,183.982 101.031,184.552 101.703,185.126 102.375,185.705 103.047,186.287 103.719,186.874 104.391,187.463 105.063,188.057 105.734,188.653 106.406,189.253 107.078,189.856 107.75,190.461 108.422,191.07 109.094,191.68 109.766,192.293 110.438,192.909 111.109,193.526 111.781,194.145 112.453,194.766 113.125,195.388 113.797,196.011 114.469,196.636 115.141,197.262 115.813,197.889 116.484,198.516 117.156,199.144 117.828,199.772 118.5,200.4 119.172,201.028 119.844,201.656 120.516,202.284 121.188,202.911 121.859,203.538 122.531,204.164 123.203,204.789 123.875,205.412 124.547,206.034 125.219,206.655 125.891,207.274 126.563,207.891 127.234,208.507 127.906,209.12 128.578,209.73 129.25,210.339 129.922,210.944 130.594,211.547 131.266,212.147 131.938,212.743 132.609,213.337 133.281,213.926 133.953,214.513 134.625,215.095 135.297,215.674 135.969,216.248 136.641,216.818 137.313,217.384 137.984,217.945 138.656,218.502 139.328,219.053 140,219.6 140.672,220.142 141.344,220.678 142.016,221.209 142.688,221.734 143.359,222.253 144.031,222.767 144.703,223.275 145.375,223.776 146.047,224.272 146.719,224.761 147.391,225.243 148.063,225.719 148.734,226.188 149.406,226.65 150.078,227.105 150.75,227.553 151.422,227.994 152.094,228.427 152.766,228.853 153.438,229.271 154.109,229.681 154.781,230.084 155.453,230.478 156.125,230.865 156.797,231.243 157.469,231.613 158.141,231.975 158.813,232.328 159.484,232.673 160.156,233.009 160.828,233.337 161.5,233.655 162.172,233.965 162.844,234.266 163.516,234.557 164.188,234.84 164.859,235.113 165.531,235.377 166.203,235.632 166.875,235.877 167.547,236.113 168.219,236.339 168.891,236.555 169.563,236.762 170.234,236.959 170.906,237.147 171.578,237.324 172.25,237.492 172.922,237.649 173.594,237.797 174.266,237.935 174.938,238.062 175.609,238.18 176.281,238.287 176.953,238.384 177.625,238.471 178.297,238.548 178.969,238.615 179.641,238.672 180.313,238.718 180.984,238.754 181.656,238.779 182.328,238.795 183,238.8 183.672,238.8 184.344,238.8 185.016,238.8 185.688,238.8 186.359,238.8 187.031,238.8 187.703,238.8 188.375,238.8 189.047,238.8 189.719,238.8 190.391,238.8 191.063,238.8 191.734,238.8 192.406,238.8 193.078,238.8 193.75,238.8 194.422,238.8 195.094,238.8 195.766,238.8 196.438,238.8 197.109,238.8 197.781,238.8 198.453,238.8 199.125,238.8 199.797,238.8 200.469,238.8 201.141,238.8 201.813,238.8 202.484,238.8 203.156,238.8 203.828,238.8 204.5,238.8 205.172,238.8 205.844,238.8 206.516,238.8 207.188,238.8 207.859,238.8 208.531,238.8 209.203,238.8 209.875,238.8 210.547,238.8 211.219,238.8 211.891,238.8 212.563,238.8 213.234,238.8 213.906,238.8 214.578,238.8 215.25,238.8 215.922,238.8 216.594,238.8 217.266,238.8 217.938,238.8 218.609,238.8 219.281,238.8 219.953,238.8 220.625,238.8 221.297,238.8 221.969,238.8 222.641,238.8 223.313,238.8 223.984,238.8 224.656,238.8 225.328,238.8 226,238.8 226.672,238.8 227.344,238.8 228.016,238.8 228.688,238.8 229.359,238.8 230.031,238.8 230.703,238.8 231.375,238.8 232.047,238.8 232.719,238.8 233.391,238.8 234.063,238.8 234.734,238.8 235.406,238.8 236.078,238.8 236.75,238.8 237.422,238.8 238.094,238.8 238.766,238.8 239.438,238.8 240.109,238.8 240.781,238.8 241.453,238.8 242.125,238.8 242.797,238.8 243.469,238.8 244.141,238.8 244.813,238.8 245.484,238.8 246.156,238.8 246.828,238.8 247.5,238.8 248.172,238.8 248.844,238.8 249.516,238.8 250.188,238.8 250.859,238.8 251.531,238.8 252.203,238.8 252.875,238.8 253.547,238.8 254.219,238.8 254.891,238.8 255.563,238.8 256.234,238.8 256.906,238.8 257.578,238.8 258.25,238.8 258.922,238.8 259.594,238.8 260.266,238.8 260.938,238.8 261.609,238.8 262.281,238.8 262.953,238.8 263.625,238.8 264.297,238.8 264.969,238.8 265.641,238.8 266.313,238.8 266.984,238.8 267.656,238.8 268.328,238.8 269,238.8 269.672,238.8 270.344,238.8 271.016,238.8 271.688,238.8 272.359,238.8 273.031,238.8 273.703,238.8 274.375,238.8 275.047,238.8 275.719,238.8 276.391,238.8 277.063,238.8 277.734,238.8 278.406,238.8 279.078,238.8 279.75,238.8 280.422,238.8 281.094,238.8 281.766,238.8 282.438,238.8 283.109,238.8 283.781,238.8 284.453,238.8 285.125,238.8 285.797,238.8 286.469,238.8 287.141,238.8 287.813,238.8 288.484,238.8 289.156,238.8 289.828,238.8 290.5,238.8 291.172,238.8 291.844,238.8 292.516,238.8 293.188,238.8 293.859,238.8 294.531,238.8 295.203,238.8 295.875,238.8 296.547,238.8 297.219,238.8 297.891,238.8 298.563,238.8 299.234,238.8 299.906,238.8 300.578,238.8 301.25,238.8 301.922,238.8 302.594,238.8 303.266,238.8 303.938,238.8 304.609,238.8 305.281,238.8 305.953,238.8 306.625,238.8 307.297,238.8 307.969,238.8 308.641,238.8 309.313,238.8 309.984,238.8 310.656,238.8 311.328,238.8 312,238.8 312.672,238.8 313.344,238.8 314.016,238.8 314.688,238.8 315.359,238.8 316.031,238.8 316.703,238.8 317.375,238.8 318.047,238.8 318.719,238.8 319.391,238.8 320.063,238.8 320.734,238.8 321.406,238.8 322.078,238.8 322.75,238.8 323.422,238.8 324.094,238.8 324.766,238.8 325.438,238.8 326.109,238.8 326.781,238.8 327.453,238.8 328.125,238.8 328.797,238.8 329.469,238.8 330.141,238.8 330.813,238.8 331.484,238.8 332.156,238.8 332.828,238.8 333.5,238.8 334.172,238.8 334.844,238.8 335.516,238.8 336.188,238.8 336.859,238.8 337.531,238.8 338.203,238.8 338.875,238.8 339.547,238.8 340.219,238.8 340.891,238.8 341.563,238.8 342.234,238.8 342.906,238.8 343.578,238.8 344.25,238.8 344.922,238.8 345.594,238.8 346.266,238.8 346.938,238.8 347.609,238.8 348.281,238.8 348.953,238.8 349.625,238.8 350.297,238.8 350.969,238.8 351.641,238.8 352.313,238.8 352.984,238.8 353.656,238.8 354.328,238.8 355,238.8 355.672,238.8 356.344,238.8 357.016,238.8 357.688,238.8 358.359,238.8 359.031,238.8 359.703,238.8 360.375,238.8 361.047,238.8 361.719,238.8 362.391,238.8 363.063,238.8 363.734,238.8 364.406,238.8 365.078,238.8 365.75,238.8 366.422,238.8 367.094,238.8 367.766,238.8 368.438,238.8 369.109,238.8 369.781,238.8 370.453,238.8 371.125,238.8 371.797,238.8 372.469,238.8 373.141,238.8 373.813,238.8 374.484,238.8 375.156,238.8 375.828,238.8 376.5,238.8 377.172,238.8 377.844,238.8 378.516,238.8 379.188,238.8 379.859,238.8 380.531,238.8 381.203,238.8 381.875,238.8 382.547,238.8 383.219,238.8 383.891,238.8 384.563,238.8 385.234,238.8 385.906,238.8 386.578,238.8 387.25,238.8 387.922,238.8 388.594,238.8 389.266,238.8 389.938,238.8 390.609,238.8 391.281,238.8 391.953,238.8 392.625,238.8 393.297,238.8 393.969,238.8 394.641,238.8 395.313,238.8 395.984,238.8 396.656,238.8 397.328,238.8 398,238.8 398.672,238.8 399.344,238.8 400.016,238.8 400.688,238.8 401.359,238.8 402.031,238.8 402.703,238.8 403.375,238.8 404.047,238.8 404.719,238.8 405.391,238.8 406.063,238.8 406.734,238.8 407.406,238.8 408.078,238.8 408.75,238.8 409.422,238.8 410.094,238.8 410.766,238.8 411.438,238.8 412.109,238.8 412.781,238.8 413.453,238.8 414.125,238.8 414.797,238.8 415.469,238.8 416.141,238.8 416.813,238.8 417.484,238.8 418.156,238.8 418.828,238.8 419.5,238.8 420.172,238.8 420.844,238.8 421.516,238.8 422.188,238.8 422.859,238.8 423.531,238.8 424.203,238.8 424.875,238.8 425.547,238.8 426.219,238.8 426.891,238.8 427.563,238.8 428.234,238.8 428.906,238.8 429.578,238.8 430.25,238.8 430.922,238.8 431.594,238.8 432.266,238.8 432.938,238.8 433.609,238.8 434.281,238.8 434.953,238.8 435.625,238.8 436.297,238.8 436.969,238.8 437.641,238.8 438.313,238.8 438.984,238.8 439.656,238.8 440.328,238.8 441,238.8 441.672,238.795 442.344,238.779 443.016,238.754 443.688,238.718 444.359,238.672 445.031,238.615 445.703,238.548 446.375,238.471 447.047,238.384 447.719,238.287 448.391,238.18 449.063,238.062 449.734,237.935 450.406,237.797 451.078,237.649 451.75,237.492 452.422,237.324 453.094,237.147 453.766,236.959 454.438,236.762 455.109,236.555 455.781,236.339 456.453,236.113 457.125,235.877 457.797,235.632 458.469,235.377 459.141,235.113 459.813,234.84 460.484,234.557 461.156,234.266 461.828,233.965 462.5,233.655 463.172,233.337 463.844,233.009 464.516,232.673 465.188,232.328 465.859,231.975 466.531,231.613 467.203,231.243 467.875,230.865 468.547,230.478 469.219,230.084 469.891,229.681 470.563,229.271 471.234,228.853 471.906,228.427 472.578,227.994 473.25,227.553 473.922,227.105 474.594,226.65 475.266,226.188 475.938,225.719 476.609,225.243 477.281,224.761 477.953,224.272 478.625,223.776 479.297,223.275 479.969,222.767 480.641,222.253 481.313,221.734 481.984,221.209 482.656,220.678 483.328,220.142 484,219.6 484.672,219.053 485.344,218.502 486.016,217.945 486.688,217.384 487.359,216.818 488.031,216.248 488.703,215.674 489.375,215.095 490.047,214.513 490.719,213.926 491.391,213.337 492.063,212.743 492.734,212.147 493.406,211.547 494.078,210.944 494.75,210.339 495.422,209.73 496.094,209.12 496.766,208.507 497.438,207.891 498.109,207.274 498.781,206.655 499.453,206.034 500.125,205.412 500.797,204.789 501.469,204.164 502.141,203.538 502.813,202.911 503.484,202.284 504.156,201.656 504.828,201.028 505.5,200.4 506.172,199.772 506.844,199.144 507.516,198.516 508.188,197.889 508.859,197.262 509.531,196.636 510.203,196.011 510.875,195.388 511.547,194.766 512.219,194.145 512.891,193.526 513.563,192.909 514.234,192.293 514.906,191.68 515.578,191.07 516.25,190.461 516.922,189.856 517.594,189.253 518.266,188.653 518.938,188.057 519.609,187.463 520.281,186.874 520.953,186.287 521.625,185.705 522.297,185.126 522.969,184.552 523.641,183.982 524.313,183.416 524.984,182.855 525.656,182.298 526.328,181.747 527,181.2 527.672,180.658 528.344,180.122 529.016,179.591 529.688,179.066 530.359,178.547 531.031,178.033 531.703,177.525 532.375,177.024 533.047,176.528 533.719,176.039 534.391,175.557 535.063,175.081 535.734,174.612 536.406,174.15 537.078,173.695 537.75,173.247 538.422,172.806 539.094,172.373 539.766,171.947 540.438,171.529 541.109,171.119 541.781,170.716 542.453,170.322 543.125,169.935 543.797,169.557 544.469,169.187 545.141,168.825 545.813,168.472 546.484,168.127 547.156,167.791 547.828,167.463 548.5,167.145 549.172,166.835 549.844,166.534 550.516,166.243 551.188,165.96 551.859,165.687 552.531,165.423 553.203,165.168 553.875,164.923 554.547,164.687 555.219,164.461 555.891,164.245 556.563,164.038 557.234,163.841 557.906,163.653 558.578,163.476 559.25,163.308 559.922,163.151 560.594,163.003 561.266,162.865 561.938,162.738 562.609,162.62 563.281,162.513 563.953,162.416 564.625,162.329 565.297,162.252 565.969,162.185 566.641,162.128 567.313,162.082 567.984,162.046 568.656,162.021 569.328,162.005 570,162" fill="none" stroke="#2bb3a3" stroke-width="2" opacity="0.9"/>
<rect x="582" y="53" width="10" height="10" fill="#2bb3a3"/>
<text x="596" y="62" fill="#c9bfa9" font-size="10">PercBus DJ</text>
<polyline points="54,162 54.672,162.005 55.344,162.021 56.016,162.046 56.688,162.082 57.359,162.128 58.031,162.185 58.703,162.252 59.375,162.329 60.047,162.416 60.719,162.513 61.391,162.62 62.063,162.738 62.734,162.865 63.406,163.003 64.078,163.151 64.75,163.308 65.422,163.476 66.094,163.653 66.766,163.841 67.438,164.038 68.109,164.245 68.781,164.461 69.453,164.687 70.125,164.923 70.797,165.168 71.469,165.423 72.141,165.687 72.813,165.96 73.484,166.243 74.156,166.534 74.828,166.835 75.5,167.145 76.172,167.463 76.844,167.791 77.516,168.127 78.188,168.472 78.859,168.825 79.531,169.187 80.203,169.557 80.875,169.935 81.547,170.322 82.219,170.716 82.891,171.119 83.563,171.529 84.234,171.947 84.906,172.373 85.578,172.806 86.25,173.247 86.922,173.695 87.594,174.15 88.266,174.612 88.938,175.081 89.609,175.557 90.281,176.039 90.953,176.528 91.625,177.024 92.297,177.525 92.969,178.033 93.641,178.547 94.313,179.066 94.984,179.591 95.656,180.122 96.328,180.658 97,181.2 97.672,181.747 98.344,182.298 99.016,182.855 99.688,183.416 100.359,183.982 101.031,184.552 101.703,185.126 102.375,185.705 103.047,186.287 103.719,186.874 104.391,187.463 105.063,188.057 105.734,188.653 106.406,189.253 107.078,189.856 107.75,190.461 108.422,191.07 109.094,191.68 109.766,192.293 110.438,192.909 111.109,193.526 111.781,194.145 112.453,194.766 113.125,195.388 113.797,196.011 114.469,196.636 115.141,197.262 115.813,197.889 116.484,198.516 117.156,199.144 117.828,199.772 118.5,200.4 119.172,201.028 119.844,201.656 120.516,202.284 121.188,202.911 121.859,203.538 122.531,204.164 123.203,204.789 123.875,205.412 124.547,206.034 125.219,206.655 125.891,207.274 126.563,207.891 127.234,208.507 127.906,209.12 128.578,209.73 129.25,210.339 129.922,210.944 130.594,211.547 131.266,212.147 131.938,212.743 132.609,213.337 133.281,213.926 133.953,214.513 134.625,215.095 135.297,215.674 135.969,216.248 136.641,216.818 137.313,217.384 137.984,217.945 138.656,218.502 139.328,219.053 140,219.6 140.672,220.142 141.344,220.678 142.016,221.209 142.688,221.734 143.359,222.253 144.031,222.767 144.703,223.275 145.375,223.776 146.047,224.272 146.719,224.761 147.391,225.243 148.063,225.719 148.734,226.188 149.406,226.65 150.078,227.105 150.75,227.553 151.422,227.994 152.094,228.427 152.766,228.853 153.438,229.271 154.109,229.681 154.781,230.084 155.453,230.478 156.125,230.865 156.797,231.243 157.469,231.613 158.141,231.975 158.813,232.328 159.484,232.673 160.156,233.009 160.828,233.337 161.5,233.655 162.172,233.965 162.844,234.266 163.516,234.557 164.188,234.84 164.859,235.113 165.531,235.377 166.203,235.632 166.875,235.877 167.547,236.113 168.219,236.339 168.891,236.555 169.563,236.762 170.234,236.959 170.906,237.147 171.578,237.324 172.25,237.492 172.922,237.649 173.594,237.797 174.266,237.935 174.938,238.062 175.609,238.18 176.281,238.287 176.953,238.384 177.625,238.471 178.297,238.548 178.969,238.615 179.641,238.672 180.313,238.718 180.984,238.754 181.656,238.779 182.328,238.795 183,238.8 183.672,238.8 184.344,238.8 185.016,238.8 185.688,238.8 186.359,238.8 187.031,238.8 187.703,238.8 188.375,238.8 189.047,238.8 189.719,238.8 190.391,238.8 191.063,238.8 191.734,238.8 192.406,238.8 193.078,238.8 193.75,238.8 194.422,238.8 195.094,238.8 195.766,238.8 196.438,238.8 197.109,238.8 197.781,238.8 198.453,238.8 199.125,238.8 199.797,238.8 200.469,238.8 201.141,238.8 201.813,238.8 202.484,238.8 203.156,238.8 203.828,238.8 204.5,238.8 205.172,238.8 205.844,238.8 206.516,238.8 207.188,238.8 207.859,238.8 208.531,238.8 209.203,238.8 209.875,238.8 210.547,238.8 211.219,238.8 211.891,238.8 212.563,238.8 213.234,238.8 213.906,238.8 214.578,238.8 215.25,238.8 215.922,238.8 216.594,238.8 217.266,238.8 217.938,238.8 218.609,238.8 219.281,238.8 219.953,238.8 220.625,238.8 221.297,238.8 221.969,238.8 222.641,238.8 223.313,238.8 223.984,238.8 224.656,238.8 225.328,238.8 226,238.8 226.672,238.8 227.344,238.8 228.016,238.8 228.688,238.8 229.359,238.8 230.031,238.8 230.703,238.8 231.375,238.8 232.047,238.8 232.719,238.8 233.391,238.8 234.063,238.8 234.734,238.8 235.406,238.8 236.078,238.8 236.75,238.8 237.422,238.8 238.094,238.8 238.766,238.8 239.438,238.8 240.109,238.8 240.781,238.8 241.453,238.8 242.125,238.8 242.797,238.8 243.469,238.8 244.141,238.8 244.813,238.8 245.484,238.8 246.156,238.8 246.828,238.8 247.5,238.8 248.172,238.8 248.844,238.8 249.516,238.8 250.188,238.8 250.859,238.8 251.531,238.8 252.203,238.8 252.875,238.8 253.547,238.8 254.219,238.8 254.891,238.8 255.563,238.8 256.234,238.8 256.906,238.8 257.578,238.8 258.25,238.8 258.922,238.8 259.594,238.8 260.266,238.8 260.938,238.8 261.609,238.8 262.281,238.8 262.953,238.8 263.625,238.8 264.297,238.8 264.969,238.8 265.641,238.8 266.313,238.8 266.984,238.8 267.656,238.8 268.328,238.8 269,238.8 269.672,238.8 270.344,238.8 271.016,238.8 271.688,238.8 272.359,238.8 273.031,238.8 273.703,238.8 274.375,238.8 275.047,238.8 275.719,238.8 276.391,238.8 277.063,238.8 277.734,238.8 278.406,238.8 279.078,238.8 279.75,238.8 280.422,238.8 281.094,238.8 281.766,238.8 282.438,238.8 283.109,238.8 283.781,238.8 284.453,238.8 285.125,238.8 285.797,238.8 286.469,238.8 287.141,238.8 287.813,238.8 288.484,238.8 289.156,238.8 289.828,238.8 290.5,238.8 291.172,238.8 291.844,238.8 292.516,238.8 293.188,238.8 293.859,238.8 294.531,238.8 295.203,238.8 295.875,238.8 296.547,238.8 297.219,238.8 297.891,238.8 298.563,238.8 299.234,238.8 299.906,238.8 300.578,238.8 301.25,238.8 301.922,238.8 302.594,238.8 303.266,238.8 303.938,238.8 304.609,238.8 305.281,238.8 305.953,238.8 306.625,238.8 307.297,238.8 307.969,238.8 308.641,238.8 309.313,238.8 309.984,238.8 310.656,238.8 311.328,238.8 312,238.8 312.672,238.8 313.344,238.8 314.016,238.8 314.688,238.8 315.359,238.8 316.031,238.8 316.703,238.8 317.375,238.8 318.047,238.8 318.719,238.8 319.391,238.8 320.063,238.8 320.734,238.8 321.406,238.8 322.078,238.8 322.75,238.8 323.422,238.8 324.094,238.8 324.766,238.8 325.438,238.8 326.109,238.8 326.781,238.8 327.453,238.8 328.125,238.8 328.797,238.8 329.469,238.8 330.141,238.8 330.813,238.8 331.484,238.8 332.156,238.8 332.828,238.8 333.5,238.8 334.172,238.8 334.844,238.8 335.516,238.8 336.188,238.8 336.859,238.8 337.531,238.8 338.203,238.8 338.875,238.8 339.547,238.8 340.219,238.8 340.891,238.8 341.563,238.8 342.234,238.8 342.906,238.8 343.578,238.8 344.25,238.8 344.922,238.8 345.594,238.8 346.266,238.8 346.938,238.8 347.609,238.8 348.281,238.8 348.953,238.8 349.625,238.8 350.297,238.8 350.969,238.8 351.641,238.8 352.313,238.8 352.984,238.8 353.656,238.8 354.328,238.8 355,238.8 355.672,238.8 356.344,238.8 357.016,238.8 357.688,238.8 358.359,238.8 359.031,238.8 359.703,238.8 360.375,238.8 361.047,238.8 361.719,238.8 362.391,238.8 363.063,238.8 363.734,238.8 364.406,238.8 365.078,238.8 365.75,238.8 366.422,238.8 367.094,238.8 367.766,238.8 368.438,238.8 369.109,238.8 369.781,238.8 370.453,238.8 371.125,238.8 371.797,238.8 372.469,238.8 373.141,238.8 373.813,238.8 374.484,238.8 375.156,238.8 375.828,238.8 376.5,238.8 377.172,238.8 377.844,238.8 378.516,238.8 379.188,238.8 379.859,238.8 380.531,238.8 381.203,238.8 381.875,238.8 382.547,238.8 383.219,238.8 383.891,238.8 384.563,238.8 385.234,238.8 385.906,238.8 386.578,238.8 387.25,238.8 387.922,238.8 388.594,238.8 389.266,238.8 389.938,238.8 390.609,238.8 391.281,238.8 391.953,238.8 392.625,238.8 393.297,238.8 393.969,238.8 394.641,238.8 395.313,238.8 395.984,238.8 396.656,238.8 397.328,238.8 398,238.8 398.672,238.8 399.344,238.8 400.016,238.8 400.688,238.8 401.359,238.8 402.031,238.8 402.703,238.8 403.375,238.8 404.047,238.8 404.719,238.8 405.391,238.8 406.063,238.8 406.734,238.8 407.406,238.8 408.078,238.8 408.75,238.8 409.422,238.8 410.094,238.8 410.766,238.8 411.438,238.8 412.109,238.8 412.781,238.8 413.453,238.8 414.125,238.8 414.797,238.8 415.469,238.8 416.141,238.8 416.813,238.8 417.484,238.8 418.156,238.8 418.828,238.8 419.5,238.8 420.172,238.8 420.844,238.8 421.516,238.8 422.188,238.8 422.859,238.8 423.531,238.8 424.203,238.8 424.875,238.8 425.547,238.8 426.219,238.8 426.891,238.8 427.563,238.8 428.234,238.8 428.906,238.8 429.578,238.8 430.25,238.8 430.922,238.8 431.594,238.8 432.266,238.8 432.938,238.8 433.609,238.8 434.281,238.8 434.953,238.8 435.625,238.8 436.297,238.8 436.969,238.8 437.641,238.8 438.313,238.8 438.984,238.8 439.656,238.8 440.328,238.8 441,238.8 441.672,238.795 442.344,238.779 443.016,238.754 443.688,238.718 444.359,238.672 445.031,238.615 445.703,238.548 446.375,238.471 447.047,238.384 447.719,238.287 448.391,238.18 449.063,238.062 449.734,237.935 450.406,237.797 451.078,237.649 451.75,237.492 452.422,237.324 453.094,237.147 453.766,236.959 454.438,236.762 455.109,236.555 455.781,236.339 456.453,236.113 457.125,235.877 457.797,235.632 458.469,235.377 459.141,235.113 459.813,234.84 460.484,234.557 461.156,234.266 461.828,233.965 462.5,233.655 463.172,233.337 463.844,233.009 464.516,232.673 465.188,232.328 465.859,231.975 466.531,231.613 467.203,231.243 467.875,230.865 468.547,230.478 469.219,230.084 469.891,229.681 470.563,229.271 471.234,228.853 471.906,228.427 472.578,227.994 473.25,227.553 473.922,227.105 474.594,226.65 475.266,226.188 475.938,225.719 476.609,225.243 477.281,224.761 477.953,224.272 478.625,223.776 479.297,223.275 479.969,222.767 480.641,222.253 481.313,221.734 481.984,221.209 482.656,220.678 483.328,220.142 484,219.6 484.672,219.053 485.344,218.502 486.016,217.945 486.688,217.384 487.359,216.818 488.031,216.248 488.703,215.674 489.375,215.095 490.047,214.513 490.719,213.926 491.391,213.337 492.063,212.743 492.734,212.147 493.406,211.547 494.078,210.944 494.75,210.339 495.422,209.73 496.094,209.12 496.766,208.507 497.438,207.891 498.109,207.274 498.781,206.655 499.453,206.034 500.125,205.412 500.797,204.789 501.469,204.164 502.141,203.538 502.813,202.911 503.484,202.284 504.156,201.656 504.828,201.028 505.5,200.4 506.172,199.772 506.844,199.144 507.516,198.516 508.188,197.889 508.859,197.262 509.531,196.636 510.203,196.011 510.875,195.388 511.547,194.766 512.219,194.145 512.891,193.526 513.563,192.909 514.234,192.293 514.906,191.68 515.578,191.07 516.25,190.461 516.922,189.856 517.594,189.253 518.266,188.653 518.938,188.057 519.609,187.463 520.281,186.874 520.953,186.287 521.625,185.705 522.297,185.126 522.969,184.552 523.641,183.982 524.313,183.416 524.984,182.855 525.656,182.298 526.328,181.747 527,181.2 527.672,180.658 528.344,180.122 529.016,179.591 529.688,179.066 530.359,178.547 531.031,178.033 531.703,177.525 532.375,177.024 533.047,176.528 533.719,176.039 534.391,175.557 535.063,175.081 535.734,174.612 536.406,174.15 537.078,173.695 537.75,173.247 538.422,172.806 539.094,172.373 539.766,171.947 540.438,171.529 541.109,171.119 541.781,170.716 542.453,170.322 543.125,169.935 543.797,169.557 544.469,169.187 545.141,168.825 545.813,168.472 546.484,168.127 547.156,167.791 547.828,167.463 548.5,167.145 549.172,166.835 549.844,166.534 550.516,166.243 551.188,165.96 551.859,165.687 552.531,165.423 553.203,165.168 553.875,164.923 554.547,164.687 555.219,164.461 555.891,164.245 556.563,164.038 557.234,163.841 557.906,163.653 558.578,163.476 559.25,163.308 559.922,163.151 560.594,163.003 561.266,162.865 561.938,162.738 562.609,162.62 563.281,162.513 563.953,162.416 564.625,162.329 565.297,162.252 565.969,162.185 566.641,162.128 567.313,162.082 567.984,162.046 568.656,162.021 569.328,162.005 570,162" fill="none" stroke="#8a6bd6" stroke-width="2" opacity="0.9"/>
<rect x="582" y="68" width="10" height="10" fill="#8a6bd6"/>
<text x="596" y="77" fill="#c9bfa9" font-size="10">LeadsBus DJ</text>
<text x="54" y="20" fill="#f3ead9" font-size="14" font-weight="700">FOCUS PADS 16</text>
<text x="570" y="20" fill="#7c756a" font-size="10" text-anchor="end">16 bars @ 94 BPM · y = normalized 0..1</text>
</svg>