<svg xmlns="http://www.w3.org/2000/svg" width="720" height="320" viewBox="0 0 720 320" font-family="JetBrains Mono, ui-monospace, monospace">
<rect width="720" height="320" fill="#15130f"/>
<line x1="54" y1="290" x2="570" y2="290" stroke="#2a261f"/>
<text x="46" y="293" fill="#7c756a" font-size="10" text-anchor="end">0.0</text>
<line x1="54" y1="162" x2="570" y2="162" stroke="#2a261f"/>
<text x="46" y="165" fill="#7c756a" font-size="10" text-anchor="end">0.5</text>
<line x1="54" y1="34" x2="570" y2="34" stroke="#2a261f"/>
<text x="46" y="37" fill="#7c756a" font-size="10" text-anchor="end">1.0</text>
<line x1="54" y1="34" x2="54" y2="290" stroke="#211e18"/>
<text x="54" y="308" fill="#7c756a" font-size="10" text-anchor="middle">0</text>
<line x1="183" y1="34" x2="183" y2="290" stroke="#211e18"/>
<text x="183" y="308" fill="#7c756a" font-size="10" text-anchor="middle">8</text>
<line x1="312" y1="34" x2="312" y2="290" stroke="#211e18"/>
<text x="312" y="308" fill="#7c756a" font-size="10" text-anchor="middle">16</text>
<line x1="441" y1="34" x2="441" y2="290" stroke="#211e18"/>
<text x="441" y="308" fill="#7c756a" font-size="10" text-anchor="middle">24</text>
<line x1="570" y1="34" x2="570" y2="290" stroke="#211e18"/>
<text x="570" y="308" fill="#7c756a" font-size="10" text-anchor="middle">32</text>
<polyline points="54,290 54.336,289.933 54.672,289.867 55.008,289.8 55.344,289.733 55.68,289.667 56.016,289.6 56.352,289.533 56.688,289.467 57.023,289.4 57.359,289.333 57.695,289.267 58.031,289.2 58.367,289.133 58.703,289.067 59.039,289 59.375,288.933 59.711,288.867 60.047,288.8 60.383,288.733 60.719,288.667 61.055,288.6 61.391,288.533 61.727,288.467 62.063,288.4 62.398,288.333 62.734,288.267 63.07,288.2 63.406,288.133 63.742,288.067 64.078,288 64.414,287.933 64.75,287.867 65.086,287.8 65.422,287.733 65.758,287.667 66.094,287.6 66.43,287.533 66.766,287.467 67.102,287.4 67.438,287.333 67.773,287.267 68.109,287.2 68.445,287.133 68.781,287.067 69.117,287 69.453,286.933 69.789,286.867 70.125,286.8 70.461,286.733 70.797,286.667 71.133,286.6 71.469,286.533 71.805,286.467 72.141,286.4 72.477,286.333 72.813,286.267 73.148,286.2 73.484,286.133 73.82,286.067 74.156,286 74.492,285.933 74.828,285.867 75.164,285.8 75.5,285.733 75.836,285.667 76.172,285.6 76.508,285.533 76.844,285.467 77.18,285.4 77.516,285.333 77.852,285.267 78.188,285.2 78.523,285.133 78.859,285.067 79.195,285 79.531,284.933 79.867,284.867 80.203,284.8 80.539,284.733 80.875,284.667 81.211,284.6 81.547,284.533 81.883,284.467 82.219,284.4 82.555,284.333 82.891,284.267 83.227,284.2 83.563,284.133 83.898,284.067 84.234,284 84.57,283.933 84.906,283.867 85.242,283.8 85.578,283.733 85.914,283.667 86.25,283.6 86.586,283.533 86.922,283.467 87.258,283.4 87.594,283.333 87.93,283.267 88.266,283.2 88.602,283.133 88.938,283.067 89.273,283 89.609,282.933 89.945,282.867 90.281,282.8 90.617,282.733 90.953,282.667 91.289,282.6 91.625,282.533 91.961,282.467 92.297,282.4 92.633,282.333 92.969,282.267 93.305,282.2 93.641,282.133 93.977,282.067 94.313,282 94.648,281.933 94.984,281.867 95.32,281.8 95.656,281.733 95.992,281.667 96.328,281.6 96.664,281.533 97,281.467 97.336,281.4 97.672,281.333 98.008,281.267 98.344,281.2 98.68,281.133 99.016,281.067 99.352,281 99.688,280.933 100.023,280.867 100.359,280.8 100.695,280.733 101.031,280.667 101.367,280.6 101.703,280.533 102.039,280.467 102.375,280.4 102.711,280.333 103.047,280.267 103.383,280.2 103.719,280.133 104.055,280.067 104.391,280 104.727,279.933 105.063,279.867 105.398,279.8 105.734,279.733 106.07,279.667 106.406,279.6 106.742,279.533 107.078,279.467 107.414,279.4 107.75,279.333 108.086,279.267 108.422,279.2 108.758,279.133 109.094,279.067 109.43,279 109.766,278.933 110.102,278.867 110.438,278.8 110.773,278.733 111.109,278.667 111.445,278.6 111.781,278.533 112.117,278.467 112.453,278.4 112.789,278.333 113.125,278.267 113.461,278.2 113.797,278.133 114.133,278.067 114.469,278 114.805,277.933 115.141,277.867 115.477,277.8 115.813,277.733 116.148,277.667 116.484,277.6 116.82,277.533 117.156,277.467 117.492,277.4 117.828,277.333 118.164,277.267 118.5,277.2 118.836,277.133 119.172,277.067 119.508,277 119.844,276.933 120.18,276.867 120.516,276.8 120.852,276.733 121.188,276.667 121.523,276.6 121.859,276.533 122.195,276.467 122.531,276.4 122.867,276.333 123.203,276.267 123.539,276.2 123.875,276.133 124.211,276.067 124.547,276 124.883,275.933 125.219,275.867 125.555,275.8 125.891,275.733 126.227,275.667 126.563,275.6 126.898,275.533 127.234,275.467 127.57,275.4 127.906,275.333 128.242,275.267 128.578,275.2 128.914,275.133 129.25,275.067 129.586,275 129.922,274.933 130.258,274.867 130.594,274.8 130.93,274.733 131.266,274.667 131.602,274.6 131.938,274.533 132.273,274.467 132.609,274.4 132.945,274.333 133.281,274.267 133.617,274.2 133.953,274.133 134.289,274.067 134.625,274 134.961,273.933 135.297,273.867 135.633,273.8 135.969,273.733 136.305,273.667 136.641,273.6 136.977,273.533 137.313,273.467 137.648,273.4 137.984,273.333 138.32,273.267 138.656,273.2 138.992,273.133 139.328,273.067 139.664,273 140,272.933 140.336,272.867 140.672,272.8 141.008,272.733 141.344,272.667 141.68,272.6 142.016,272.533 142.352,272.467 142.688,272.4 143.023,272.333 143.359,272.267 143.695,272.2 144.031,272.133 144.367,272.067 144.703,272 145.039,271.933 145.375,271.867 145.711,271.8 146.047,271.733 146.383,271.667 146.719,271.6 147.055,271.533 147.391,271.467 147.727,271.4 148.063,271.333 148.398,271.267 148.734,271.2 149.07,271.133 149.406,271.067 149.742,271 150.078,270.933 150.414,270.867 150.75,270.8 151.086,270.733 151.422,270.667 151.758,270.6 152.094,270.533 152.43,270.467 152.766,270.4 153.102,270.333 153.438,270.267 153.773,270.2 154.109,270.133 154.445,270.067 154.781,270 155.117,269.933 155.453,269.867 155.789,269.8 156.125,269.733 156.461,269.667 156.797,269.6 157.133,269.533 157.469,269.467 157.805,269.4 158.141,269.333 158.477,269.267 158.813,269.2 159.148,269.133 159.484,269.067 159.82,269 160.156,268.933 160.492,268.867 160.828,268.8 161.164,268.733 161.5,268.667 161.836,268.6 162.172,268.533 162.508,268.467 162.844,268.4 163.18,268.333 163.516,268.267 163.852,268.2 164.188,268.133 164.523,268.067 164.859,268 165.195,267.933 165.531,267.867 165.867,267.8 166.203,267.733 166.539,267.667 166.875,267.6 167.211,267.533 167.547,267.467 167.883,267.4 168.219,267.333 168.555,267.267 168.891,267.2 169.227,267.133 169.563,267.067 169.898,267 170.234,266.933 170.57,266.867 170.906,266.8 171.242,266.733 171.578,266.667 171.914,266.6 172.25,266.533 172.586,266.467 172.922,266.4 173.258,266.333 173.594,266.267 173.93,266.2 174.266,266.133 174.602,266.067 174.938,266 175.273,265.933 175.609,265.867 175.945,265.8 176.281,265.733 176.617,265.667 176.953,265.6 177.289,265.533 177.625,265.467 177.961,265.4 178.297,265.333 178.633,265.267 178.969,265.2 179.305,265.133 179.641,265.067 179.977,265 180.313,264.933 180.648,264.867 180.984,264.8 181.32,264.733 181.656,264.667 181.992,264.6 182.328,264.533 182.664,264.467 183,264.4 183.336,264.333 183.672,264.267 184.008,264.2 184.344,264.133 184.68,264.067 185.016,264 185.352,263.933 185.688,263.867 186.023,263.8 186.359,263.733 186.695,263.667 187.031,263.6 187.367,263.533 187.703,263.467 188.039,263.4 188.375,263.333 188.711,263.267 189.047,263.2 189.383,263.133 189.719,263.067 190.055,263 190.391,262.933 190.727,262.867 191.063,262.8 191.398,262.733 191.734,262.667 192.07,262.6 192.406,262.533 192.742,262.467 193.078,262.4 193.414,262.333 193.75,262.267 194.086,262.2 194.422,262.133 194.758,262.067 195.094,262 195.43,261.933 195.766,261.867 196.102,261.8 196.438,261.733 196.773,261.667 197.109,261.6 197.445,261.533 197.781,261.467 198.117,261.4 198.453,261.333 198.789,261.267 199.125,261.2 199.461,261.133 199.797,261.067 200.133,261 200.469,260.933 200.805,260.867 201.141,260.8 201.477,260.733 201.813,260.667 202.148,260.6 202.484,260.533 202.82,260.467 203.156,260.4 203.492,260.333 203.828,260.267 204.164,260.2 204.5,260.133 204.836,260.067 205.172,260 205.508,259.933 205.844,259.867 206.18,259.8 206.516,259.733 206.852,259.667 207.188,259.6 207.523,259.533 207.859,259.467 208.195,259.4 208.531,259.333 208.867,259.267 209.203,259.2 209.539,259.133 209.875,259.067 210.211,259 210.547,258.933 210.883,258.867 211.219,258.8 211.555,258.733 211.891,258.667 212.227,258.6 212.563,258.533 212.898,258.467 213.234,258.4 213.57,258.333 213.906,258.267 214.242,258.2 214.578,258.133 214.914,258.067 215.25,258 215.586,257.933 215.922,257.867 216.258,257.8 216.594,257.733 216.93,257.667 217.266,257.6 217.602,257.533 217.938,257.467 218.273,257.4 218.609,257.333 218.945,257.267 219.281,257.2 219.617,257.133 219.953,257.067 220.289,257 220.625,256.933 220.961,256.867 221.297,256.8 221.633,256.733 221.969,256.667 222.305,256.6 222.641,256.533 222.977,256.467 223.313,256.4 223.648,256.333 223.984,256.267 224.32,256.2 224.656,256.133 224.992,256.067 225.328,256 225.664,255.933 226,255.867 226.336,255.8 226.672,255.733 227.008,255.667 227.344,255.6 227.68,255.533 228.016,255.467 228.352,255.4 228.688,255.333 229.023,255.267 229.359,255.2 229.695,255.133 230.031,255.067 230.367,255 230.703,254.933 231.039,254.867 231.375,254.8 231.711,254.733 232.047,254.667 232.383,254.6 232.719,254.533 233.055,254.467 233.391,254.4 233.727,254.333 234.063,254.267 234.398,254.2 234.734,254.133 235.07,254.067 235.406,254 235.742,253.933 236.078,253.867 236.414,253.8 236.75,253.733 237.086,253.667 237.422,253.6 237.758,253.533 238.094,253.467 238.43,253.4 238.766,253.333 239.102,253.267 239.438,253.2 239.773,253.133 240.109,253.067 240.445,253 240.781,252.933 241.117,252.867 241.453,252.8 241.789,252.733 242.125,252.667 242.461,252.6 242.797,252.533 243.133,252.467 243.469,252.4 243.805,252.333 244.141,252.267 244.477,252.2 244.813,252.133 245.148,252.067 245.484,252 245.82,251.933 246.156,251.867 246.492,251.8 246.828,251.733 247.164,251.667 247.5,251.6 247.836,251.533 248.172,251.467 248.508,251.4 248.844,251.333 249.18,251.267 249.516,251.2 249.852,251.133 250.188,251.067 250.523,251 250.859,250.933 251.195,250.867 251.531,250.8 251.867,250.733 252.203,250.667 252.539,250.6 252.875,250.533 253.211,250.467 253.547,250.4 253.883,250.333 254.219,250.267 254.555,250.2 254.891,250.133 255.227,250.067 255.563,250 255.898,249.933 256.234,249.867 256.57,249.8 256.906,249.733 257.242,249.667 257.578,249.6 257.914,249.533 258.25,249.467 258.586,249.4 258.922,249.333 259.258,249.267 259.594,249.2 259.93,249.133 260.266,249.067 260.602,249 260.938,248.933 261.273,248.867 261.609,248.8 261.945,248.733 262.281,248.667 262.617,248.6 262.953,248.533 263.289,248.467 263.625,248.4 263.961,248.333 264.297,248.267 264.633,248.2 264.969,248.133 265.305,248.067 265.641,248 265.977,247.933 266.313,247.867 266.648,247.8 266.984,247.733 267.32,247.667 267.656,247.6 267.992,247.533 268.328,247.467 268.664,247.4 269,247.333 269.336,247.267 269.672,247.2 270.008,247.133 270.344,247.067 270.68,247 271.016,246.933 271.352,246.867 271.688,246.8 272.023,246.733 272.359,246.667 272.695,246.6 273.031,246.533 273.367,246.467 273.703,246.4 274.039,246.333 274.375,246.267 274.711,246.2 275.047,246.133 275.383,246.067 275.719,246 276.055,245.933 276.391,245.867 276.727,245.8 277.063,245.733 277.398,245.667 277.734,245.6 278.07,245.533 278.406,245.467 278.742,245.4 279.078,245.333 279.414,245.267 279.75,245.2 280.086,245.133 280.422,245.067 280.758,245 281.094,244.933 281.43,244.867 281.766,244.8 282.102,244.733 282.438,244.667 282.773,244.6 283.109,244.533 283.445,244.467 283.781,244.4 284.117,244.333 284.453,244.267 284.789,244.2 285.125,244.133 285.461,244.067 285.797,244 286.133,243.933 286.469,243.867 286.805,243.8 287.141,243.733 287.477,243.667 287.813,243.6 288.148,243.533 288.484,243.467 288.82,243.4 289.156,243.333 289.492,243.267 289.828,243.2 290.164,243.133 290.5,243.067 290.836,243 291.172,242.933 291.508,242.867 291.844,242.8 292.18,242.733 292.516,242.667 292.852,242.6 293.188,242.533 293.523,242.467 293.859,242.4 294.195,242.333 294.531,242.267 294.867,242.2 295.203,242.133 295.539,242.067 295.875,242 296.211,241.933 296.547,241.867 296.883,241.8 297.219,241.733 297.555,241.667 297.891,241.6 298.227,241.533 298.563,241.467 298.898,241.4 299.234,241.333 299.57,241.267 299.906,241.2 300.242,241.133 300.578,241.067 300.914,241 301.25,240.933 301.586,240.867 301.922,240.8 302.258,240.733 302.594,240.667 302.93,240.6 303.266,240.533 303.602,240.467 303.938,240.4 304.273,240.333 304.609,240.267 304.945,240.2 305.281,240.133 305.617,240.067 305.953,240 306.289,239.933 306.625,239.867 306.961,239.8 307.297,239.733 307.633,239.667 307.969,239.6 308.305,239.533 308.641,239.467 308.977,239.4 309.313,239.333 309.648,239.267 309.984,239.2 310.32,239.133 310.656,239.067 310.992,239 311.328,238.933 311.664,238.867 312,238.8 312.336,238.733 312.672,238.667 313.008,238.6 313.344,238.533 313.68,238.467 314.016,238.4 314.352,238.333 314.688,238.267 315.023,238.2 315.359,238.133 315.695,238.067 316.031,238 316.367,237.933 316.703,237.867 317.039,237.8 317.375,237.733 317.711,237.667 318.047,237.6 318.383,237.533 318.719,237.467 319.055,237.4 319.391,237.333 319.727,237.267 320.063,237.2 320.398,237.133 320.734,237.067 321.07,237 321.406,236.933 321.742,236.867 322.078,236.8 322.414,236.733 322.75,236.667 323.086,236.6 323.422,236.533 323.758,236.467 324.094,236.4 324.43,236.333 324.766,236.267 325.102,236.2 325.438,236.133 325.773,236.067 326.109,236 326.445,235.933 326.781,235.867 327.117,235.8 327.453,235.733 327.789,235.667 328.125,235.6 328.461,235.533 328.797,235.467 329.133,235.4 329.469,235.333 329.805,235.267 330.141,235.2 330.477,235.133 330.813,235.067 331.148,235 331.484,234.933 331.82,234.867 332.156,234.8 332.492,234.733 332.828,234.667 333.164,234.6 333.5,234.533 333.836,234.467 334.172,234.4 334.508,234.333 334.844,234.267 335.18,234.2 335.516,234.133 335.852,234.067 336.188,234 336.523,233.933 336.859,233.867 337.195,233.8 337.531,233.733 337.867,233.667 338.203,233.6 338.539,233.533 338.875,233.467 339.211,233.4 339.547,233.333 339.883,233.267 340.219,233.2 340.555,233.133 340.891,233.067 341.227,233 341.563,232.933 341.898,232.867 342.234,232.8 342.57,232.733 342.906,232.667 343.242,232.6 343.578,232.533 343.914,232.467 344.25,232.4 344.586,232.333 344.922,232.267 345.258,232.2 345.594,232.133 345.93,232.067 346.266,232 346.602,231.933 346.938,231.867 347.273,231.8 347.609,231.733 347.945,231.667 348.281,231.6 348.617,231.533 348.953,231.467 349.289,231.4 349.625,231.333 349.961,231.267 350.297,231.2 350.633,231.133 350.969,231.067 351.305,231 351.641,230.933 351.977,230.867 352.313,230.8 352.648,230.733 352.984,230.667 353.32,230.6 353.656,230.533 353.992,230.467 354.328,230.4 354.664,230.333 355,230.267 355.336,230.2 355.672,230.133 356.008,230.067 356.344,230 356.68,229.933 357.016,229.867 357.352,229.8 357.688,229.733 358.023,229.667 358.359,229.6 358.695,229.533 359.031,229.467 359.367,229.4 359.703,229.333 360.039,229.267 360.375,229.2 360.711,229.133 361.047,229.067 361.383,229 361.719,228.933 362.055,228.867 362.391,228.8 362.727,228.733 363.063,228.667 363.398,228.6 363.734,228.533 364.07,228.467 364.406,228.4 364.742,228.333 365.078,228.267 365.414,228.2 365.75,228.133 366.086,228.067 366.422,228 366.758,227.933 367.094,227.867 367.43,227.8 367.766,227.733 368.102,227.667 368.438,227.6 368.773,227.533 369.109,227.467 369.445,227.4 369.781,227.333 370.117,227.267 370.453,227.2 370.789,227.133 371.125,227.067 371.461,227 371.797,226.933 372.133,226.867 372.469,226.8 372.805,226.733 373.141,226.667 373.477,226.6 373.813,226.533 374.148,226.467 374.484,226.4 374.82,226.333 375.156,226.267 375.492,226.2 375.828,226.133 376.164,226.067 376.5,226 376.836,225.933 377.172,225.867 377.508,225.8 377.844,225.733 378.18,225.667 378.516,225.6 378.852,225.533 379.188,225.467 379.523,225.4 379.859,225.333 380.195,225.267 380.531,225.2 380.867,225.133 381.203,225.067 381.539,225 381.875,224.933 382.211,224.867 382.547,224.8 382.883,224.733 383.219,224.667 383.555,224.6 383.891,224.533 384.227,224.467 384.563,224.4 384.898,224.333 385.234,224.267 385.57,224.2 385.906,224.133 386.242,224.067 386.578,224 386.914,223.933 387.25,223.867 387.586,223.8 387.922,223.733 388.258,223.667 388.594,223.6 388.93,223.533 389.266,223.467 389.602,223.4 389.938,223.333 390.273,223.267 390.609,223.2 390.945,223.133 391.281,223.067 391.617,223 391.953,222.933 392.289,222.867 392.625,222.8 392.961,222.733 393.297,222.667 393.633,222.6 393.969,222.533 394.305,222.467 394.641,222.4 394.977,222.333 395.313,222.267 395.648,222.2 395.984,222.133 396.32,222.067 396.656,222 396.992,221.933 397.328,221.867 397.664,221.8 398,221.733 398.336,221.667 398.672,221.6 399.008,221.533 399.344,221.467 399.68,221.4 400.016,221.333 400.352,221.267 400.688,221.2 401.023,221.133 401.359,221.067 401.695,221 402.031,220.933 402.367,220.867 402.703,220.8 403.039,220.733 403.375,220.667 403.711,220.6 404.047,220.533 404.383,220.467 404.719,220.4 405.055,220.333 405.391,220.267 405.727,220.2 406.063,220.133 406.398,220.067 406.734,220 407.07,219.933 407.406,219.867 407.742,219.8 408.078,219.733 408.414,219.667 408.75,219.6 409.086,219.533 409.422,219.467 409.758,219.4 410.094,219.333 410.43,219.267 410.766,219.2 411.102,219.133 411.438,219.067 411.773,219 412.109,218.933 412.445,218.867 412.781,218.8 413.117,218.733 413.453,218.667 413.789,218.6 414.125,218.533 414.461,218.467 414.797,218.4 415.133,218.333 415.469,218.267 415.805,218.2 416.141,218.133 416.477,218.067 416.813,218 417.148,217.933 417.484,217.867 417.82,217.8 418.156,217.733 418.492,217.667 418.828,217.6 419.164,217.533 419.5,217.467 419.836,217.4 420.172,217.333 420.508,217.267 420.844,217.2 421.18,217.133 421.516,217.067 421.852,217 422.188,216.933 422.523,216.867 422.859,216.8 423.195,216.733 423.531,216.667 423.867,216.6 424.203,216.533 424.539,216.467 424.875,216.4 425.211,216.333 425.547,216.267 425.883,216.2 426.219,216.133 426.555,216.067 426.891,216 427.227,215.933 427.563,215.867 427.898,215.8 428.234,215.733 428.57,215.667 428.906,215.6 429.242,215.533 429.578,215.467 429.914,215.4 430.25,215.333 430.586,215.267 430.922,215.2 431.258,215.133 431.594,215.067 431.93,215 432.266,214.933 432.602,214.867 432.938,214.8 433.273,214.733 433.609,214.667 433.945,214.6 434.281,214.533 434.617,214.467 434.953,214.4 435.289,214.333 435.625,214.267 435.961,214.2 436.297,214.133 436.633,214.067 436.969,214 437.305,213.933 437.641,213.867 437.977,213.8 438.313,213.733 438.648,213.667 438.984,213.6 439.32,213.533 439.656,213.467 439.992,213.4 440.328,213.333 440.664,213.267 441,213.2 441.336,213.133 441.672,213.067 442.008,213 442.344,212.933 442.68,212.867 443.016,212.8 443.352,212.733 443.688,212.667 444.023,212.6 444.359,212.533 444.695,212.467 445.031,212.4 445.367,212.333 445.703,212.267 446.039,212.2 446.375,212.133 446.711,212.067 447.047,212 447.383,211.933 447.719,211.867 448.055,211.8 448.391,211.733 448.727,211.667 449.063,211.6 449.398,211.533 449.734,211.467 450.07,211.4 450.406,211.333 450.742,211.267 451.078,211.2 451.414,211.133 451.75,211.067 452.086,211 452.422,210.933 452.758,210.867 453.094,210.8 453.43,210.733 453.766,210.667 454.102,210.6 454.438,210.533 454.773,210.467 455.109,210.4 455.445,210.333 455.781,210.267 456.117,210.2 456.453,210.133 456.789,210.067 457.125,210 457.461,209.933 457.797,209.867 458.133,209.8 458.469,209.733 458.805,209.667 459.141,209.6 459.477,209.533 459.813,209.467 460.148,209.4 460.484,209.333 460.82,209.267 461.156,209.2 461.492,209.133 461.828,209.067 462.164,209 462.5,208.933 462.836,208.867 463.172,208.8 463.508,208.733 463.844,208.667 464.18,208.6 464.516,208.533 464.852,208.467 465.188,208.4 465.523,208.333 465.859,208.267 466.195,208.2 466.531,208.133 466.867,208.067 467.203,208 467.539,207.933 467.875,207.867 468.211,207.8 468.547,207.733 468.883,207.667 469.219,207.6 469.555,207.533 469.891,207.467 470.227,207.4 470.563,207.333 470.898,207.267 471.234,207.2 471.57,207.133 471.906,207.067 472.242,207 472.578,206.933 472.914,206.867 473.25,206.8 473.586,206.733 473.922,206.667 474.258,206.6 474.594,206.533 474.93,206.467 475.266,206.4 475.602,206.333 475.938,206.267 476.273,206.2 476.609,206.133 476.945,206.067 477.281,206 477.617,205.933 477.953,205.867 478.289,205.8 478.625,205.733 478.961,205.667 479.297,205.6 479.633,205.533 479.969,205.467 480.305,205.4 480.641,205.333 480.977,205.267 481.313,205.2 481.648,205.133 481.984,205.067 482.32,205 482.656,204.933 482.992,204.867 483.328,204.8 483.664,204.733 484,204.667 484.336,204.6 484.672,204.533 485.008,204.467 485.344,204.4 485.68,204.333 486.016,204.267 486.352,204.2 486.688,204.133 487.023,204.067 487.359,204 487.695,203.933 488.031,203.867 488.367,203.8 488.703,203.733 489.039,203.667 489.375,203.6 489.711,203.533 490.047,203.467 490.383,203.4 490.719,203.333 491.055,203.267 491.391,203.2 491.727,203.133 492.063,203.067 492.398,203 492.734,202.933 493.07,202.867 493.406,202.8 493.742,202.733 494.078,202.667 494.414,202.6 494.75,202.533 495.086,202.467 495.422,202.4 495.758,202.333 496.094,202.267 496.43,202.2 496.766,202.133 497.102,202.067 497.438,202 497.773,201.933 498.109,201.867 498.445,201.8 498.781,201.733 499.117,201.667 499.453,201.6 499.789,201.533 500.125,201.467 500.461,201.4 500.797,201.333 501.133,201.267 501.469,201.2 501.805,201.133 502.141,201.067 502.477,201 502.813,200.933 503.148,200.867 503.484,200.8 503.82,200.733 504.156,200.667 504.492,200.6 504.828,200.533 505.164,200.467 505.5,200.4 505.836,200.333 506.172,200.267 506.508,200.2 506.844,200.133 507.18,200.067 507.516,200 507.852,199.933 508.188,199.867 508.523,199.8 508.859,199.733 509.195,199.667 509.531,199.6 509.867,199.533 510.203,199.467 510.539,199.4 510.875,199.333 511.211,199.267 511.547,199.2 511.883,199.133 512.219,199.067 512.555,199 512.891,198.933 513.227,198.867 513.563,198.8 513.898,198.733 514.234,198.667 514.57,198.6 514.906,198.533 515.242,198.467 515.578,198.4 515.914,198.333 516.25,198.267 516.586,198.2 516.922,198.133 517.258,198.067 517.594,198 517.93,197.933 518.266,197.867 518.602,197.8 518.938,197.733 519.273,197.667 519.609,197.6 519.945,197.533 520.281,197.467 520.617,197.4 520.953,197.333 521.289,197.267 521.625,197.2 521.961,197.133 522.297,197.067 522.633,197 522.969,196.933 523.305,196.867 523.641,196.8 523.977,196.733 524.313,196.667 524.648,196.6 524.984,196.533 525.32,196.467 525.656,196.4 525.992,196.333 526.328,196.267 526.664,196.2 527,196.133 527.336,196.067 527.672,196 528.008,195.933 528.344,195.867 528.68,195.8 529.016,195.733 529.352,195.667 529.688,195.6 530.023,195.533 530.359,195.467 530.695,195.4 531.031,195.333 531.367,195.267 531.703,195.2 532.039,195.133 532.375,195.067 532.711,195 533.047,194.933 533.383,194.867 533.719,194.8 534.055,194.733 534.391,194.667 534.727,194.6 535.063,194.533 535.398,194.467 535.734,194.4 536.07,194.333 536.406,194.267 536.742,194.2 537.078,194.133 537.414,194.067 537.75,194 538.086,193.933 538.422,193.867 538.758,193.8 539.094,193.733 539.43,193.667 539.766,193.6 540.102,193.533 540.438,193.467 540.773,193.4 541.109,193.333 541.445,193.267 541.781,193.2 542.117,193.133 542.453,193.067 542.789,193 543.125,192.933 543.461,192.867 543.797,192.8 544.133,192.733 544.469,192.667 544.805,192.6 545.141,192.533 545.477,192.467 545.813,192.4 546.148,192.333 546.484,192.267 546.82,192.2 547.156,192.133 547.492,192.067 547.828,192 548.164,191.933 548.5,191.867 548.836,191.8 549.172,191.733 549.508,191.667 549.844,191.6 550.18,191.533 550.516,191.467 550.852,191.4 551.188,191.333 551.523,191.267 551.859,191.2 552.195,191.133 552.531,191.067 552.867,191 553.203,190.933 553.539,190.867 553.875,190.8 554.211,190.733 554.547,190.667 554.883,190.6 555.219,190.533 555.555,190.467 555.891,190.4 556.227,190.333 556.563,190.267 556.898,190.2 557.234,190.133 557.57,190.067 557.906,190 558.242,189.933 558.578,189.867 558.914,189.8 559.25,189.733 559.586,189.667 559.922,189.6 560.258,189.533 560.594,189.467 560.93,189.4 561.266,189.333 561.602,189.267 561.938,189.2 562.273,189.133 562.609,189.067 562.945,189 563.281,188.933 563.617,188.867 563.953,188.8 564.289,188.733 564.625,188.667 564.961,188.6 565.297,188.533 565.633,188.467 565.969,188.4 566.305,188.333 566.641,188.267 566.977,188.2 567.313,188.133 567.648,188.067 567.984,188 568.32,187.933 568.656,187.867 568.992,187.8 569.328,187.733 569.664,187.667 570,187.6" fill="none" stroke="#c2622a" stroke-width="2" opacity="0.9"/>
<rect x="582" y="38" width="10" height="10" fill="#c2622a"/>
<text x="596" y="47" fill="#c9bfa9" font-size="10">macro HPF</text>
<polyline points="54,290 54.336,289.908 54.672,289.817 55.008,289.725 55.344,289.633 55.68,289.542 56.016,289.45 56.352,289.358 56.688,289.267 57.023,289.175 57.359,289.083 57.695,288.992 58.031,288.9 58.367,288.808 58.703,288.717 59.039,288.625 59.375,288.533 59.711,288.442 60.047,288.35 60.383,288.258 60.719,288.167 61.055,288.075 61.391,287.983 61.727,287.892 62.063,287.8 62.398,287.708 62.734,287.617 63.07,287.525 63.406,287.433 63.742,287.342 64.078,287.25 64.414,287.158 64.75,287.067 65.086,286.975 65.422,286.883 65.758,286.792 66.094,286.7 66.43,286.608 66.766,286.517 67.102,286.425 67.438,286.333 67.773,286.242 68.109,286.15 68.445,286.058 68.781,285.967 69.117,285.875 69.453,285.783 69.789,285.692 70.125,285.6 70.461,285.508 70.797,285.417 71.133,285.325 71.469,285.233 71.805,285.142 72.141,285.05 72.477,284.958 72.813,284.867 73.148,284.775 73.484,284.683 73.82,284.592 74.156,284.5 74.492,284.408 74.828,284.317 75.164,284.225 75.5,284.133 75.836,284.042 76.172,283.95 76.508,283.858 76.844,283.767 77.18,283.675 77.516,283.583 77.852,283.492 78.188,283.4 78.523,283.308 78.859,283.217 79.195,283.125 79.531,283.033 79.867,282.942 80.203,282.85 80.539,282.758 80.875,282.667 81.211,282.575 81.547,282.483 81.883,282.392 82.219,282.3 82.555,282.208 82.891,282.117 83.227,282.025 83.563,281.933 83.898,281.842 84.234,281.75 84.57,281.658 84.906,281.567 85.242,281.475 85.578,281.383 85.914,281.292 86.25,281.2 86.586,281.108 86.922,281.017 87.258,280.925 87.594,280.833 87.93,280.742 88.266,280.65 88.602,280.558 88.938,280.467 89.273,280.375 89.609,280.283 89.945,280.192 90.281,280.1 90.617,280.008 90.953,279.917 91.289,279.825 91.625,279.733 91.961,279.642 92.297,279.55 92.633,279.458 92.969,279.367 93.305,279.275 93.641,279.183 93.977,279.092 94.313,279 94.648,278.908 94.984,278.817 95.32,278.725 95.656,278.633 95.992,278.542 96.328,278.45 96.664,278.358 97,278.267 97.336,278.175 97.672,278.083 98.008,277.992 98.344,277.9 98.68,277.808 99.016,277.717 99.352,277.625 99.688,277.533 100.023,277.442 100.359,277.35 100.695,277.258 101.031,277.167 101.367,277.075 101.703,276.983 102.039,276.892 102.375,276.8 102.711,276.708 103.047,276.617 103.383,276.525 103.719,276.433 104.055,276.342 104.391,276.25 104.727,276.158 105.063,276.067 105.398,275.975 105.734,275.883 106.07,275.792 106.406,275.7 106.742,275.608 107.078,275.517 107.414,275.425 107.75,275.333 108.086,275.242 108.422,275.15 108.758,275.058 109.094,274.967 109.43,274.875 109.766,274.783 110.102,274.692 110.438,274.6 110.773,274.508 111.109,274.417 111.445,274.325 111.781,274.233 112.117,274.142 112.453,274.05 112.789,273.958 113.125,273.867 113.461,273.775 113.797,273.683 114.133,273.592 114.469,273.5 114.805,273.408 115.141,273.317 115.477,273.225 115.813,273.133 116.148,273.042 116.484,272.95 116.82,272.858 117.156,272.767 117.492,272.675 117.828,272.583 118.164,272.492 118.5,272.4 118.836,272.308 119.172,272.217 119.508,272.125 119.844,272.033 120.18,271.942 120.516,271.85 120.852,271.758 121.188,271.667 121.523,271.575 121.859,271.483 122.195,271.392 122.531,271.3 122.867,271.208 123.203,271.117 123.539,271.025 123.875,270.933 124.211,270.842 124.547,270.75 124.883,270.658 125.219,270.567 125.555,270.475 125.891,270.383 126.227,270.292 126.563,270.2 126.898,270.108 127.234,270.017 127.57,269.925 127.906,269.833 128.242,269.742 128.578,269.65 128.914,269.558 129.25,269.467 129.586,269.375 129.922,269.283 130.258,269.192 130.594,269.1 130.93,269.008 131.266,268.917 131.602,268.825 131.938,268.733 132.273,268.642 132.609,268.55 132.945,268.458 133.281,268.367 133.617,268.275 133.953,268.183 134.289,268.092 134.625,268 134.961,267.908 135.297,267.817 135.633,267.725 135.969,267.633 136.305,267.542 136.641,267.45 136.977,267.358 137.313,267.267 137.648,267.175 137.984,267.083 138.32,266.992 138.656,266.9 138.992,266.808 139.328,266.717 139.664,266.625 140,266.533 140.336,266.442 140.672,266.35 141.008,266.258 141.344,266.167 141.68,266.075 142.016,265.983 142.352,265.892 142.688,265.8 143.023,265.708 143.359,265.617 143.695,265.525 144.031,265.433 144.367,265.342 144.703,265.25 145.039,265.158 145.375,265.067 145.711,264.975 146.047,264.883 146.383,264.792 146.719,264.7 147.055,264.608 147.391,264.517 147.727,264.425 148.063,264.333 148.398,264.242 148.734,264.15 149.07,264.058 149.406,263.967 149.742,263.875 150.078,263.783 150.414,263.692 150.75,263.6 151.086,263.508 151.422,263.417 151.758,263.325 152.094,263.233 152.43,263.142 152.766,263.05 153.102,262.958 153.438,262.867 153.773,262.775 154.109,262.683 154.445,262.592 154.781,262.5 155.117,262.408 155.453,262.317 155.789,262.225 156.125,262.133 156.461,262.042 156.797,261.95 157.133,261.858 157.469,261.767 157.805,261.675 158.141,261.583 158.477,261.492 158.813,261.4 159.148,261.308 159.484,261.217 159.82,261.125 160.156,261.033 160.492,260.942 160.828,260.85 161.164,260.758 161.5,260.667 161.836,260.575 162.172,260.483 162.508,260.392 162.844,260.3 163.18,260.208 163.516,260.117 163.852,260.025 164.188,259.933 164.523,259.842 164.859,259.75 165.195,259.658 165.531,259.567 165.867,259.475 166.203,259.383 166.539,259.292 166.875,259.2 167.211,259.108 167.547,259.017 167.883,258.925 168.219,258.833 168.555,258.742 168.891,258.65 169.227,258.558 169.563,258.467 169.898,258.375 170.234,258.283 170.57,258.192 170.906,258.1 171.242,258.008 171.578,257.917 171.914,257.825 172.25,257.733 172.586,257.642 172.922,257.55 173.258,257.458 173.594,257.367 173.93,257.275 174.266,257.183 174.602,257.092 174.938,257 175.273,256.908 175.609,256.817 175.945,256.725 176.281,256.633 176.617,256.542 176.953,256.45 177.289,256.358 177.625,256.267 177.961,256.175 178.297,256.083 178.633,255.992 178.969,255.9 179.305,255.808 179.641,255.717 179.977,255.625 180.313,255.533 180.648,255.442 180.984,255.35 181.32,255.258 181.656,255.167 181.992,255.075 182.328,254.983 182.664,254.892 183,254.8 183.336,254.708 183.672,254.617 184.008,254.525 184.344,254.433 184.68,254.342 185.016,254.25 185.352,254.158 185.688,254.067 186.023,253.975 186.359,253.883 186.695,253.792 187.031,253.7 187.367,253.608 187.703,253.517 188.039,253.425 188.375,253.333 188.711,253.242 189.047,253.15 189.383,253.058 189.719,252.967 190.055,252.875 190.391,252.783 190.727,252.692 191.063,252.6 191.398,252.508 191.734,252.417 192.07,252.325 192.406,252.233 192.742,252.142 193.078,252.05 193.414,251.958 193.75,251.867 194.086,251.775 194.422,251.683 194.758,251.592 195.094,251.5 195.43,251.408 195.766,251.317 196.102,251.225 196.438,251.133 196.773,251.042 197.109,250.95 197.445,250.858 197.781,250.767 198.117,250.675 198.453,250.583 198.789,250.492 199.125,250.4 199.461,250.308 199.797,250.217 200.133,250.125 200.469,250.033 200.805,249.942 201.141,249.85 201.477,249.758 201.813,249.667 202.148,249.575 202.484,249.483 202.82,249.392 203.156,249.3 203.492,249.208 203.828,249.117 204.164,249.025 204.5,248.933 204.836,248.842 205.172,248.75 205.508,248.658 205.844,248.567 206.18,248.475 206.516,248.383 206.852,248.292 207.188,248.2 207.523,248.108 207.859,248.017 208.195,247.925 208.531,247.833 208.867,247.742 209.203,247.65 209.539,247.558 209.875,247.467 210.211,247.375 210.547,247.283 210.883,247.192 211.219,247.1 211.555,247.008 211.891,246.917 212.227,246.825 212.563,246.733 212.898,246.642 213.234,246.55 213.57,246.458 213.906,246.367 214.242,246.275 214.578,246.183 214.914,246.092 215.25,246 215.586,245.908 215.922,245.817 216.258,245.725 216.594,245.633 216.93,245.542 217.266,245.45 217.602,245.358 217.938,245.267 218.273,245.175 218.609,245.083 218.945,244.992 219.281,244.9 219.617,244.808 219.953,244.717 220.289,244.625 220.625,244.533 220.961,244.442 221.297,244.35 221.633,244.258 221.969,244.167 222.305,244.075 222.641,243.983 222.977,243.892 223.313,243.8 223.648,243.708 223.984,243.617 224.32,243.525 224.656,243.433 224.992,243.342 225.328,243.25 225.664,243.158 226,243.067 226.336,242.975 226.672,242.883 227.008,242.792 227.344,242.7 227.68,242.608 228.016,242.517 228.352,242.425 228.688,242.333 229.023,242.242 229.359,242.15 229.695,242.058 230.031,241.967 230.367,241.875 230.703,241.783 231.039,241.692 231.375,241.6 231.711,241.508 232.047,241.417 232.383,241.325 232.719,241.233 233.055,241.142 233.391,241.05 233.727,240.958 234.063,240.867 234.398,240.775 234.734,240.683 235.07,240.592 235.406,240.5 235.742,240.408 236.078,240.317 236.414,240.225 236.75,240.133 237.086,240.042 237.422,239.95 237.758,239.858 238.094,239.767 238.43,239.675 238.766,239.583 239.102,239.492 239.438,239.4 239.773,239.308 240.109,239.217 240.445,239.125 240.781,239.033 241.117,238.942 241.453,238.85 241.789,238.758 242.125,238.667 242.461,238.575 242.797,238.483 243.133,238.392 243.469,238.3 243.805,238.208 244.141,238.117 244.477,238.025 244.813,237.933 245.148,237.842 245.484,237.75 245.82,237.658 246.156,237.567 246.492,237.475 246.828,237.383 247.164,237.292 247.5,237.2 247.836,237.108 248.172,237.017 248.508,236.925 248.844,236.833 249.18,236.742 249.516,236.65 249.852,236.558 250.188,236.467 250.523,236.375 250.859,236.283 251.195,236.192 251.531,236.1 251.867,236.008 252.203,235.917 252.539,235.825 252.875,235.733 253.211,235.642 253.547,235.55 253.883,235.458 254.219,235.367 254.555,235.275 254.891,235.183 255.227,235.092 255.563,235 255.898,234.908 256.234,234.817 256.57,234.725 256.906,234.633 257.242,234.542 257.578,234.45 257.914,234.358 258.25,234.267 258.586,234.175 258.922,234.083 259.258,233.992 259.594,233.9 259.93,233.808 260.266,233.717 260.602,233.625 260.938,233.533 261.273,233.442 261.609,233.35 261.945,233.258 262.281,233.167 262.617,233.075 262.953,232.983 263.289,232.892 263.625,232.8 263.961,232.708 264.297,232.617 264.633,232.525 264.969,232.433 265.305,232.342 265.641,232.25 265.977,232.158 266.313,232.067 266.648,231.975 266.984,231.883 267.32,231.792 267.656,231.7 267.992,231.608 268.328,231.517 268.664,231.425 269,231.333 269.336,231.242 269.672,231.15 270.008,231.058 270.344,230.967 270.68,230.875 271.016,230.783 271.352,230.692 271.688,230.6 272.023,230.508 272.359,230.417 272.695,230.325 273.031,230.233 273.367,230.142 273.703,230.05 274.039,229.958 274.375,229.867 274.711,229.775 275.047,229.683 275.383,229.592 275.719,229.5 276.055,229.408 276.391,229.317 276.727,229.225 277.063,229.133 277.398,229.042 277.734,228.95 278.07,228.858 278.406,228.767 278.742,228.675 279.078,228.583 279.414,228.492 279.75,228.4 280.086,228.308 280.422,228.217 280.758,228.125 281.094,228.033 281.43,227.942 281.766,227.85 282.102,227.758 282.438,227.667 282.773,227.575 283.109,227.483 283.445,227.392 283.781,227.3 284.117,227.208 284.453,227.117 284.789,227.025 285.125,226.933 285.461,226.842 285.797,226.75 286.133,226.658 286.469,226.567 286.805,226.475 287.141,226.383 287.477,226.292 287.813,226.2 288.148,226.108 288.484,226.017 288.82,225.925 289.156,225.833 289.492,225.742 289.828,225.65 290.164,225.558 290.5,225.467 290.836,225.375 291.172,225.283 291.508,225.192 291.844,225.1 292.18,225.008 292.516,224.917 292.852,224.825 293.188,224.733 293.523,224.642 293.859,224.55 294.195,224.458 294.531,224.367 294.867,224.275 295.203,224.183 295.539,224.092 295.875,224 296.211,223.908 296.547,223.817 296.883,223.725 297.219,223.633 297.555,223.542 297.891,223.45 298.227,223.358 298.563,223.267 298.898,223.175 299.234,223.083 299.57,222.992 299.906,222.9 300.242,222.808 300.578,222.717 300.914,222.625 301.25,222.533 301.586,222.442 301.922,222.35 302.258,222.258 302.594,222.167 302.93,222.075 303.266,221.983 303.602,221.892 303.938,221.8 304.273,221.708 304.609,221.617 304.945,221.525 305.281,221.433 305.617,221.342 305.953,221.25 306.289,221.158 306.625,221.067 306.961,220.975 307.297,220.883 307.633,220.792 307.969,220.7 308.305,220.608 308.641,220.517 308.977,220.425 309.313,220.333 309.648,220.242 309.984,220.15 310.32,220.058 310.656,219.967 310.992,219.875 311.328,219.783 311.664,219.692 312,219.6 312.336,219.508 312.672,219.417 313.008,219.325 313.344,219.233 313.68,219.142 314.016,219.05 314.352,218.958 314.688,218.867 315.023,218.775 315.359,218.683 315.695,218.592 316.031,218.5 316.367,218.408 316.703,218.317 317.039,218.225 317.375,218.133 317.711,218.042 318.047,217.95 318.383,217.858 318.719,217.767 319.055,217.675 319.391,217.583 319.727,217.492 320.063,217.4 320.398,217.308 320.734,217.217 321.07,217.125 321.406,217.033 321.742,216.942 322.078,216.85 322.414,216.758 322.75,216.667 323.086,216.575 323.422,216.483 323.758,216.392 324.094,216.3 324.43,216.208 324.766,216.117 325.102,216.025 325.438,215.933 325.773,215.842 326.109,215.75 326.445,215.658 326.781,215.567 327.117,215.475 327.453,215.383 327.789,215.292 328.125,215.2 328.461,215.108 328.797,215.017 329.133,214.925 329.469,214.833 329.805,214.742 330.141,214.65 330.477,214.558 330.813,214.467 331.148,214.375 331.484,214.283 331.82,214.192 332.156,214.1 332.492,214.008 332.828,213.917 333.164,213.825 333.5,213.733 333.836,213.642 334.172,213.55 334.508,213.458 334.844,213.367 335.18,213.275 335.516,213.183 335.852,213.092 336.188,213 336.523,212.908 336.859,212.817 337.195,212.725 337.531,212.633 337.867,212.542 338.203,212.45 338.539,212.358 338.875,212.267 339.211,212.175 339.547,212.083 339.883,211.992 340.219,211.9 340.555,211.808 340.891,211.717 341.227,211.625 341.563,211.533 341.898,211.442 342.234,211.35 342.57,211.258 342.906,211.167 343.242,211.075 343.578,210.983 343.914,210.892 344.25,210.8 344.586,210.708 344.922,210.617 345.258,210.525 345.594,210.433 345.93,210.342 346.266,210.25 346.602,210.158 346.938,210.067 347.273,209.975 347.609,209.883 347.945,209.792 348.281,209.7 348.617,209.608 348.953,209.517 349.289,209.425 349.625,209.333 349.961,209.242 350.297,209.15 350.633,209.058 350.969,208.967 351.305,208.875 351.641,208.783 351.977,208.692 352.313,208.6 352.648,208.508 352.984,208.417 353.32,208.325 353.656,208.233 353.992,208.142 354.328,208.05 354.664,207.958 355,207.867 355.336,207.775 355.672,207.683 356.008,207.592 356.344,207.5 356.68,207.408 357.016,207.317 357.352,207.225 357.688,207.133 358.023,207.042 358.359,206.95 358.695,206.858 359.031,206.767 359.367,206.675 359.703,206.583 360.039,206.492 360.375,206.4 360.711,206.308 361.047,206.217 361.383,206.125 361.719,206.033 362.055,205.942 362.391,205.85 362.727,205.758 363.063,205.667 363.398,205.575 363.734,205.483 364.07,205.392 364.406,205.3 364.742,205.208 365.078,205.117 365.414,205.025 365.75,204.933 366.086,204.842 366.422,204.75 366.758,204.658 367.094,204.567 367.43,204.475 367.766,204.383 368.102,204.292 368.438,204.2 368.773,204.108 369.109,204.017 369.445,203.925 369.781,203.833 370.117,203.742 370.453,203.65 370.789,203.558 371.125,203.467 371.461,203.375 371.797,203.283 372.133,203.192 372.469,203.1 372.805,203.008 373.141,202.917 373.477,202.825 373.813,202.733 374.148,202.642 374.484,202.55 374.82,202.458 375.156,202.367 375.492,202.275 375.828,202.183 376.164,202.092 376.5,202 376.836,201.908 377.172,201.817 377.508,201.725 377.844,201.633 378.18,201.542 378.516,201.45 378.852,201.358 379.188,201.267 379.523,201.175 379.859,201.083 380.195,200.992 380.531,200.9 380.867,200.808 381.203,200.717 381.539,200.625 381.875,200.533 382.211,200.442 382.547,200.35 382.883,200.258 383.219,200.167 383.555,200.075 383.891,199.983 384.227,199.892 384.563,199.8 384.898,199.708 385.234,199.617 385.57,199.525 385.906,199.433 386.242,199.342 386.578,199.25 386.914,199.158 387.25,199.067 387.586,198.975 387.922,198.883 388.258,198.792 388.594,198.7 388.93,198.608 389.266,198.517 389.602,198.425 389.938,198.333 390.273,198.242 390.609,198.15 390.945,198.058 391.281,197.967 391.617,197.875 391.953,197.783 392.289,197.692 392.625,197.6 392.961,197.508 393.297,197.417 393.633,197.325 393.969,197.233 394.305,197.142 394.641,197.05 394.977,196.958 395.313,196.867 395.648,196.775 395.984,196.683 396.32,196.592 396.656,196.5 396.992,196.408 397.328,196.317 397.664,196.225 398,196.133 398.336,196.042 398.672,195.95 399.008,195.858 399.344,195.767 399.68,195.675 400.016,195.583 400.352,195.492 400.688,195.4 401.023,195.308 401.359,195.217 401.695,195.125 402.031,195.033 402.367,194.942 402.703,194.85 403.039,194.758 403.375,194.667 403.711,194.575 404.047,194.483 404.383,194.392 404.719,194.3 405.055,194.208 405.391,194.117 405.727,194.025 406.063,193.933 406.398,193.842 406.734,193.75 407.07,193.658 407.406,193.567 407.742,193.475 408.078,193.383 408.414,193.292 408.75,193.2 409.086,193.108 409.422,193.017 409.758,192.925 410.094,192.833 410.43,192.742 410.766,192.65 411.102,192.558 411.438,192.467 411.773,192.375 412.109,192.283 412.445,192.192 412.781,192.1 413.117,192.008 413.453,191.917 413.789,191.825 414.125,191.733 414.461,191.642 414.797,191.55 415.133,191.458 415.469,191.367 415.805,191.275 416.141,191.183 416.477,191.092 416.813,191 417.148,190.908 417.484,190.817 417.82,190.725 418.156,190.633 418.492,190.542 418.828,190.45 419.164,190.358 419.5,190.267 419.836,190.175 420.172,190.083 420.508,189.992 420.844,189.9 421.18,189.808 421.516,189.717 421.852,189.625 422.188,189.533 422.523,189.442 422.859,189.35 423.195,189.258 423.531,189.167 423.867,189.075 424.203,188.983 424.539,188.892 424.875,188.8 425.211,188.708 425.547,188.617 425.883,188.525 426.219,188.433 426.555,188.342 426.891,188.25 427.227,188.158 427.563,188.067 427.898,187.975 428.234,187.883 428.57,187.792 428.906,187.7 429.242,187.608 429.578,187.517 429.914,187.425 430.25,187.333 430.586,187.242 430.922,187.15 431.258,187.058 431.594,186.967 431.93,186.875 432.266,186.783 432.602,186.692 432.938,186.6 433.273,186.508 433.609,186.417 433.945,186.325 434.281,186.233 434.617,186.142 434.953,186.05 435.289,185.958 435.625,185.867 435.961,185.775 436.297,185.683 436.633,185.592 436.969,185.5 437.305,185.408 437.641,185.317 437.977,185.225 438.313,185.133 438.648,185.042 438.984,184.95 439.32,184.858 439.656,184.767 439.992,184.675 440.328,184.583 440.664,184.492 441,184.4 441.336,184.308 441.672,184.217 442.008,184.125 442.344,184.033 442.68,183.942 443.016,183.85 443.352,183.758 443.688,183.667 444.023,183.575 444.359,183.483 444.695,183.392 445.031,183.3 445.367,183.208 445.703,183.117 446.039,183.025 446.375,182.933 446.711,182.842 447.047,182.75 447.383,182.658 447.719,182.567 448.055,182.475 448.391,182.383 448.727,182.292 449.063,182.2 449.398,182.108 449.734,182.017 450.07,181.925 450.406,181.833 450.742,181.742 451.078,181.65 451.414,181.558 451.75,181.467 452.086,181.375 452.422,181.283 452.758,181.192 453.094,181.1 453.43,181.008 453.766,180.917 454.102,180.825 454.438,180.733 454.773,180.642 455.109,180.55 455.445,180.458 455.781,180.367 456.117,180.275 456.453,180.183 456.789,180.092 457.125,180 457.461,179.908 457.797,179.817 458.133,179.725 458.469,179.633 458.805,179.542 459.141,179.45 459.477,179.358 459.813,179.267 460.148,179.175 460.484,179.083 460.82,178.992 461.156,178.9 461.492,178.808 461.828,178.717 462.164,178.625 462.5,178.533 462.836,178.442 463.172,178.35 463.508,178.258 463.844,178.167 464.18,178.075 464.516,177.983 464.852,177.892 465.188,177.8 465.523,177.708 465.859,177.617 466.195,177.525 466.531,177.433 466.867,177.342 467.203,177.25 467.539,177.158 467.875,177.067 468.211,176.975 468.547,176.883 468.883,176.792 469.219,176.7 469.555,176.608 469.891,176.517 470.227,176.425 470.563,176.333 470.898,176.242 471.234,176.15 471.57,176.058 471.906,175.967 472.242,175.875 472.578,175.783 472.914,175.692 473.25,175.6 473.586,175.508 473.922,175.417 474.258,175.325 474.594,175.233 474.93,175.142 475.266,175.05 475.602,174.958 475.938,174.867 476.273,174.775 476.609,174.683 476.945,174.592 477.281,174.5 477.617,174.408 477.953,174.317 478.289,174.225 478.625,174.133 478.961,174.042 479.297,173.95 479.633,173.858 479.969,173.767 480.305,173.675 480.641,173.583 480.977,173.492 481.313,173.4 481.648,173.308 481.984,173.217 482.32,173.125 482.656,173.033 482.992,172.942 483.328,172.85 483.664,172.758 484,172.667 484.336,172.575 484.672,172.483 485.008,172.392 485.344,172.3 485.68,172.208 486.016,172.117 486.352,172.025 486.688,171.933 487.023,171.842 487.359,171.75 487.695,171.658 488.031,171.567 488.367,171.475 488.703,171.383 489.039,171.292 489.375,171.2 489.711,171.108 490.047,171.017 490.383,170.925 490.719,170.833 491.055,170.742 491.391,170.65 491.727,170.558 492.063,170.467 492.398,170.375 492.734,170.283 493.07,170.192 493.406,170.1 493.742,170.008 494.078,169.917 494.414,169.825 494.75,169.733 495.086,169.642 495.422,169.55 495.758,169.458 496.094,169.367 496.43,169.275 496.766,169.183 497.102,169.092 497.438,169 497.773,168.908 498.109,168.817 498.445,168.725 498.781,168.633 499.117,168.542 499.453,168.45 499.789,168.358 500.125,168.267 500.461,168.175 500.797,168.083 501.133,167.992 501.469,167.9 501.805,167.808 502.141,167.717 502.477,167.625 502.813,167.533 503.148,167.442 503.484,167.35 503.82,167.258 504.156,167.167 504.492,167.075 504.828,166.983 505.164,166.892 505.5,166.8 505.836,166.708 506.172,166.617 506.508,166.525 506.844,166.433 507.18,166.342 507.516,166.25 507.852,166.158 508.188,166.067 508.523,165.975 508.859,165.883 509.195,165.792 509.531,165.7 509.867,165.608 510.203,165.517 510.539,165.425 510.875,165.333 511.211,165.242 511.547,165.15 511.883,165.058 512.219,164.967 512.555,164.875 512.891,164.783 513.227,164.692 513.563,164.6 513.898,164.508 514.234,164.417 514.57,164.325 514.906,164.233 515.242,164.142 515.578,164.05 515.914,163.958 516.25,163.867 516.586,163.775 516.922,163.683 517.258,163.592 517.594,163.5 517.93,163.408 518.266,163.317 518.602,163.225 518.938,163.133 519.273,163.042 519.609,162.95 519.945,162.858 520.281,162.767 520.617,162.675 520.953,162.583 521.289,162.492 521.625,162.4 521.961,162.308 522.297,162.217 522.633,162.125 522.969,162.033 523.305,161.942 523.641,161.85 523.977,161.758 524.313,161.667 524.648,161.575 524.984,161.483 525.32,161.392 525.656,161.3 525.992,161.208 526.328,161.117 526.664,161.025 527,160.933 527.336,160.842 527.672,160.75 528.008,160.658 528.344,160.567 528.68,160.475 529.016,160.383 529.352,160.292 529.688,160.2 530.023,160.108 530.359,160.017 530.695,159.925 531.031,159.833 531.367,159.742 531.703,159.65 532.039,159.558 532.375,159.467 532.711,159.375 533.047,159.283 533.383,159.192 533.719,159.1 534.055,159.008 534.391,158.917 534.727,158.825 535.063,158.733 535.398,158.642 535.734,158.55 536.07,158.458 536.406,158.367 536.742,158.275 537.078,158.183 537.414,158.092 537.75,158 538.086,157.908 538.422,157.817 538.758,157.725 539.094,157.633 539.43,157.542 539.766,157.45 540.102,157.358 540.438,157.267 540.773,157.175 541.109,157.083 541.445,156.992 541.781,156.9 542.117,156.808 542.453,156.717 542.789,156.625 543.125,156.533 543.461,156.442 543.797,156.35 544.133,156.258 544.469,156.167 544.805,156.075 545.141,155.983 545.477,155.892 545.813,155.8 546.148,155.708 546.484,155.617 546.82,155.525 547.156,155.433 547.492,155.342 547.828,155.25 548.164,155.158 548.5,155.067 548.836,154.975 549.172,154.883 549.508,154.792 549.844,154.7 550.18,154.608 550.516,154.517 550.852,154.425 551.188,154.333 551.523,154.242 551.859,154.15 552.195,154.058 552.531,153.967 552.867,153.875 553.203,153.783 553.539,153.692 553.875,153.6 554.211,153.508 554.547,153.417 554.883,153.325 555.219,153.233 555.555,153.142 555.891,153.05 556.227,152.958 556.563,152.867 556.898,152.775 557.234,152.683 557.57,152.592 557.906,152.5 558.242,152.408 558.578,152.317 558.914,152.225 559.25,152.133 559.586,152.042 559.922,151.95 560.258,151.858 560.594,151.767 560.93,151.675 561.266,151.583 561.602,151.492 561.938,151.4 562.273,151.308 562.609,151.217 562.945,151.125 563.281,151.033 563.617,150.942 563.953,150.85 564.289,150.758 564.625,150.667 564.961,150.575 565.297,150.483 565.633,150.392 565.969,150.3 566.305,150.208 566.641,150.117 566.977,150.025 567.313,149.933 567.648,149.842 567.984,149.75 568.32,149.658 568.656,149.567 568.992,149.475 569.328,149.383 569.664,149.292 570,149.2" fill="none" stroke="#2bb3a3" stroke-width="2" opacity="0.9"/>
<rect x="582" y="53" width="10" height="10" fill="#2bb3a3"/>
<text x="596" y="62" fill="#c9bfa9" font-size="10">macro LPF</text>
<text x="54" y="20" fill="#f3ead9" font-size="14" font-weight="700">NIGHTFALL 32</text>
<text x="570" y="20" fill="#7c756a" font-size="10" text-anchor="end">32 bars @ 94 BPM · y = normalized 0..1</text>
</svg>