<svg xmlns="http://www.w3.org/2000/svg" width="720" height="320" viewBox="0 0 720 320" font-family="JetBrains Mono, ui-monospace, monospace">
<rect width="720" height="320" fill="#15130f"/>
<line x1="54" y1="290" x2="570" y2="290" stroke="#2a261f"/>
<text x="46" y="293" fill="#7c756a" font-size="10" text-anchor="end">0.0</text>
<line x1="54" y1="162" x2="570" y2="162" stroke="#2a261f"/>
<text x="46" y="165" fill="#7c756a" font-size="10" text-anchor="end">0.5</text>
<line x1="54" y1="34" x2="570" y2="34" stroke="#2a261f"/>
<text x="46" y="37" fill="#7c756a" font-size="10" text-anchor="end">1.0</text>
<line x1="54" y1="34" x2="54" y2="290" stroke="#211e18"/>
<text x="54" y="308" fill="#7c756a" font-size="10" text-anchor="middle">0</text>
<line x1="183" y1="34" x2="183" y2="290" stroke="#211e18"/>
<text x="183" y="308" fill="#7c756a" font-size="10" text-anchor="middle">4</text>
<line x1="312" y1="34" x2="312" y2="290" stroke="#211e18"/>
<text x="312" y="308" fill="#7c756a" font-size="10" text-anchor="middle">8</text>
<line x1="441" y1="34" x2="441" y2="290" stroke="#211e18"/>
<text x="441" y="308" fill="#7c756a" font-size="10" text-anchor="middle">12</text>
<line x1="570" y1="34" x2="570" y2="290" stroke="#211e18"/>
<text x="570" y="308" fill="#7c756a" font-size="10" text-anchor="middle">16</text>
<polyline points="54,264.4 54.672,263.063 55.344,261.75 56.016,260.481 56.688,259.28 57.359,258.166 58.031,257.159 58.703,256.276 59.375,255.532 60.047,254.939 60.719,254.509 61.391,254.248 62.063,254.16 62.734,254.248 63.406,254.509 64.078,254.939 64.75,255.532 65.422,256.276 66.094,257.159 66.766,258.166 67.438,259.28 68.109,260.481 68.781,261.75 69.453,263.063 70.125,264.4 70.797,265.737 71.469,267.05 72.141,268.319 72.813,269.52 73.484,270.634 74.156,271.641 74.828,272.524 75.5,273.268 76.172,273.861 76.844,274.291 77.516,274.552 78.188,274.64 78.859,274.552 79.531,274.291 80.203,273.861 80.875,273.268 81.547,272.524 82.219,271.641 82.891,270.634 83.563,269.52 84.234,268.319 84.906,267.05 85.578,265.737 86.25,264.4 86.922,263.063 87.594,261.75 88.266,260.481 88.938,259.28 89.609,258.166 90.281,257.159 90.953,256.276 91.625,255.532 92.297,254.939 92.969,254.509 93.641,254.248 94.313,254.16 94.984,254.248 95.656,254.509 96.328,254.939 97,255.532 97.672,256.276 98.344,257.159 99.016,258.166 99.688,259.28 100.359,260.481 101.031,261.75 101.703,263.063 102.375,264.4 103.047,265.737 103.719,267.05 104.391,268.319 105.063,269.52 105.734,270.634 106.406,271.641 107.078,272.524 107.75,273.268 108.422,273.861 109.094,274.291 109.766,274.552 110.438,274.64 111.109,274.552 111.781,274.291 112.453,273.861 113.125,273.268 113.797,272.524 114.469,271.641 115.141,270.634 115.813,269.52 116.484,268.319 117.156,267.05 117.828,265.737 118.5,264.4 119.172,263.063 119.844,261.75 120.516,260.481 121.188,259.28 121.859,258.166 122.531,257.159 123.203,256.276 123.875,255.532 124.547,254.939 125.219,254.509 125.891,254.248 126.563,254.16 127.234,254.248 127.906,254.509 128.578,254.939 129.25,255.532 129.922,256.276 130.594,257.159 131.266,258.166 131.938,259.28 132.609,260.481 133.281,261.75 133.953,263.063 134.625,264.4 135.297,265.737 135.969,267.05 136.641,268.319 137.313,269.52 137.984,270.634 138.656,271.641 139.328,272.524 140,273.268 140.672,273.861 141.344,274.291 142.016,274.552 142.688,274.64 143.359,274.552 144.031,274.291 144.703,273.861 145.375,273.268 146.047,272.524 146.719,271.641 147.391,270.634 148.063,269.52 148.734,268.319 149.406,267.05 150.078,265.737 150.75,264.4 151.422,263.063 152.094,261.75 152.766,260.481 153.438,259.28 154.109,258.166 154.781,257.159 155.453,256.276 156.125,255.532 156.797,254.939 157.469,254.509 158.141,254.248 158.813,254.16 159.484,254.248 160.156,254.509 160.828,254.939 161.5,255.532 162.172,256.276 162.844,257.159 163.516,258.166 164.188,259.28 164.859,260.481 165.531,261.75 166.203,263.063 166.875,264.4 167.547,265.737 168.219,267.05 168.891,268.319 169.563,269.52 170.234,270.634 170.906,271.641 171.578,272.524 172.25,273.268 172.922,273.861 173.594,274.291 174.266,274.552 174.938,274.64 175.609,274.552 176.281,274.291 176.953,273.861 177.625,273.268 178.297,272.524 178.969,271.641 179.641,270.634 180.313,269.52 180.984,268.319 181.656,267.05 182.328,265.737 183,264.4 183.672,263.063 184.344,261.75 185.016,260.481 185.688,259.28 186.359,258.166 187.031,257.159 187.703,256.276 188.375,255.532 189.047,254.939 189.719,254.509 190.391,254.248 191.063,254.16 191.734,254.248 192.406,254.509 193.078,254.939 193.75,255.532 194.422,256.276 195.094,257.159 195.766,258.166 196.438,259.28 197.109,260.481 197.781,261.75 198.453,263.063 199.125,264.4 199.797,265.737 200.469,267.05 201.141,268.319 201.813,269.52 202.484,270.634 203.156,271.641 203.828,272.524 204.5,273.268 205.172,273.861 205.844,274.291 206.516,274.552 207.188,274.64 207.859,274.552 208.531,274.291 209.203,273.861 209.875,273.268 210.547,272.524 211.219,271.641 211.891,270.634 212.563,269.52 213.234,268.319 213.906,267.05 214.578,265.737 215.25,264.4 215.922,263.063 216.594,261.75 217.266,260.481 217.938,259.28 218.609,258.166 219.281,257.159 219.953,256.276 220.625,255.532 221.297,254.939 221.969,254.509 222.641,254.248 223.313,254.16 223.984,254.248 224.656,254.509 225.328,254.939 226,255.532 226.672,256.276 227.344,257.159 228.016,258.166 228.688,259.28 229.359,260.481 230.031,261.75 230.703,263.063 231.375,264.4 232.047,265.737 232.719,267.05 233.391,268.319 234.063,269.52 234.734,270.634 235.406,271.641 236.078,272.524 236.75,273.268 237.422,273.861 238.094,274.291 238.766,274.552 239.438,274.64 240.109,274.552 240.781,274.291 241.453,273.861 242.125,273.268 242.797,272.524 243.469,271.641 244.141,270.634 244.813,269.52 245.484,268.319 246.156,267.05 246.828,265.737 247.5,264.4 248.172,263.063 248.844,261.75 249.516,260.481 250.188,259.28 250.859,258.166 251.531,257.159 252.203,256.276 252.875,255.532 253.547,254.939 254.219,254.509 254.891,254.248 255.563,254.16 256.234,254.248 256.906,254.509 257.578,254.939 258.25,255.532 258.922,256.276 259.594,257.159 260.266,258.166 260.938,259.28 261.609,260.481 262.281,261.75 262.953,263.063 263.625,264.4 264.297,265.737 264.969,267.05 265.641,268.319 266.313,269.52 266.984,270.634 267.656,271.641 268.328,272.524 269,273.268 269.672,273.861 270.344,274.291 271.016,274.552 271.688,274.64 272.359,274.552 273.031,274.291 273.703,273.861 274.375,273.268 275.047,272.524 275.719,271.641 276.391,270.634 277.063,269.52 277.734,268.319 278.406,267.05 279.078,265.737 279.75,264.4 280.422,263.063 281.094,261.75 281.766,260.481 282.438,259.28 283.109,258.166 283.781,257.159 284.453,256.276 285.125,255.532 285.797,254.939 286.469,254.509 287.141,254.248 287.813,254.16 288.484,254.248 289.156,254.509 289.828,254.939 290.5,255.532 291.172,256.276 291.844,257.159 292.516,258.166 293.188,259.28 293.859,260.481 294.531,261.75 295.203,263.063 295.875,264.4 296.547,265.737 297.219,267.05 297.891,268.319 298.563,269.52 299.234,270.634 299.906,271.641 300.578,272.524 301.25,273.268 301.922,273.861 302.594,274.291 303.266,274.552 303.938,274.64 304.609,274.552 305.281,274.291 305.953,273.861 306.625,273.268 307.297,272.524 307.969,271.641 308.641,270.634 309.313,269.52 309.984,268.319 310.656,267.05 311.328,265.737 312,264.4 312.672,263.063 313.344,261.75 314.016,260.481 314.688,259.28 315.359,258.166 316.031,257.159 316.703,256.276 317.375,255.532 318.047,254.939 318.719,254.509 319.391,254.248 320.063,254.16 320.734,254.248 321.406,254.509 322.078,254.939 322.75,255.532 323.422,256.276 324.094,257.159 324.766,258.166 325.438,259.28 326.109,260.481 326.781,261.75 327.453,263.063 328.125,264.4 328.797,265.737 329.469,267.05 330.141,268.319 330.813,269.52 331.484,270.634 332.156,271.641 332.828,272.524 333.5,273.268 334.172,273.861 334.844,274.291 335.516,274.552 336.188,274.64 336.859,274.552 337.531,274.291 338.203,273.861 338.875,273.268 339.547,272.524 340.219,271.641 340.891,270.634 341.563,269.52 342.234,268.319 342.906,267.05 343.578,265.737 344.25,264.4 344.922,263.063 345.594,261.75 346.266,260.481 346.938,259.28 347.609,258.166 348.281,257.159 348.953,256.276 349.625,255.532 350.297,254.939 350.969,254.509 351.641,254.248 352.313,254.16 352.984,254.248 353.656,254.509 354.328,254.939 355,255.532 355.672,256.276 356.344,257.159 357.016,258.166 357.688,259.28 358.359,260.481 359.031,261.75 359.703,263.063 360.375,264.4 361.047,265.737 361.719,267.05 362.391,268.319 363.063,269.52 363.734,270.634 364.406,271.641 365.078,272.524 365.75,273.268 366.422,273.861 367.094,274.291 367.766,274.552 368.438,274.64 369.109,274.552 369.781,274.291 370.453,273.861 371.125,273.268 371.797,272.524 372.469,271.641 373.141,270.634 373.813,269.52 374.484,268.319 375.156,267.05 375.828,265.737 376.5,264.4 377.172,263.063 377.844,261.75 378.516,260.481 379.188,259.28 379.859,258.166 380.531,257.159 381.203,256.276 381.875,255.532 382.547,254.939 383.219,254.509 383.891,254.248 384.563,254.16 385.234,254.248 385.906,254.509 386.578,254.939 387.25,255.532 387.922,256.276 388.594,257.159 389.266,258.166 389.938,259.28 390.609,260.481 391.281,261.75 391.953,263.063 392.625,264.4 393.297,265.737 393.969,267.05 394.641,268.319 395.313,269.52 395.984,270.634 396.656,271.641 397.328,272.524 398,273.268 398.672,273.861 399.344,274.291 400.016,274.552 400.688,274.64 401.359,274.552 402.031,274.291 402.703,273.861 403.375,273.268 404.047,272.524 404.719,271.641 405.391,270.634 406.063,269.52 406.734,268.319 407.406,267.05 408.078,265.737 408.75,264.4 409.422,263.063 410.094,261.75 410.766,260.481 411.438,259.28 412.109,258.166 412.781,257.159 413.453,256.276 414.125,255.532 414.797,254.939 415.469,254.509 416.141,254.248 416.813,254.16 417.484,254.248 418.156,254.509 418.828,254.939 419.5,255.532 420.172,256.276 420.844,257.159 421.516,258.166 422.188,259.28 422.859,260.481 423.531,261.75 424.203,263.063 424.875,264.4 425.547,265.737 426.219,267.05 426.891,268.319 427.563,269.52 428.234,270.634 428.906,271.641 429.578,272.524 430.25,273.268 430.922,273.861 431.594,274.291 432.266,274.552 432.938,274.64 433.609,274.552 434.281,274.291 434.953,273.861 435.625,273.268 436.297,272.524 436.969,271.641 437.641,270.634 438.313,269.52 438.984,268.319 439.656,267.05 440.328,265.737 441,264.4 441.672,263.063 442.344,261.75 443.016,260.481 443.688,259.28 444.359,258.166 445.031,257.159 445.703,256.276 446.375,255.532 447.047,254.939 447.719,254.509 448.391,254.248 449.063,254.16 449.734,254.248 450.406,254.509 451.078,254.939 451.75,255.532 452.422,256.276 453.094,257.159 453.766,258.166 454.438,259.28 455.109,260.481 455.781,261.75 456.453,263.063 457.125,264.4 457.797,265.737 458.469,267.05 459.141,268.319 459.813,269.52 460.484,270.634 461.156,271.641 461.828,272.524 462.5,273.268 463.172,273.861 463.844,274.291 464.516,274.552 465.188,274.64 465.859,274.552 466.531,274.291 467.203,273.861 467.875,273.268 468.547,272.524 469.219,271.641 469.891,270.634 470.563,269.52 471.234,268.319 471.906,267.05 472.578,265.737 473.25,264.4 473.922,263.063 474.594,261.75 475.266,260.481 475.938,259.28 476.609,258.166 477.281,257.159 477.953,256.276 478.625,255.532 479.297,254.939 479.969,254.509 480.641,254.248 481.313,254.16 481.984,254.248 482.656,254.509 483.328,254.939 484,255.532 484.672,256.276 485.344,257.159 486.016,258.166 486.688,259.28 487.359,260.481 488.031,261.75 488.703,263.063 489.375,264.4 490.047,265.737 490.719,267.05 491.391,268.319 492.063,269.52 492.734,270.634 493.406,271.641 494.078,272.524 494.75,273.268 495.422,273.861 496.094,274.291 496.766,274.552 497.438,274.64 498.109,274.552 498.781,274.291 499.453,273.861 500.125,273.268 500.797,272.524 501.469,271.641 502.141,270.634 502.813,269.52 503.484,268.319 504.156,267.05 504.828,265.737 505.5,264.4 506.172,263.063 506.844,261.75 507.516,260.481 508.188,259.28 508.859,258.166 509.531,257.159 510.203,256.276 510.875,255.532 511.547,254.939 512.219,254.509 512.891,254.248 513.563,254.16 514.234,254.248 514.906,254.509 515.578,254.939 516.25,255.532 516.922,256.276 517.594,257.159 518.266,258.166 518.938,259.28 519.609,260.481 520.281,261.75 520.953,263.063 521.625,264.4 522.297,265.737 522.969,267.05 523.641,268.319 524.313,269.52 524.984,270.634 525.656,271.641 526.328,272.524 527,273.268 527.672,273.861 528.344,274.291 529.016,274.552 529.688,274.64 530.359,274.552 531.031,274.291 531.703,273.861 532.375,273.268 533.047,272.524 533.719,271.641 534.391,270.634 535.063,269.52 535.734,268.319 536.406,267.05 537.078,265.737 537.75,264.4 538.422,263.063 539.094,261.75 539.766,260.481 540.438,259.28 541.109,258.166 541.781,257.159 542.453,256.276 543.125,255.532 543.797,254.939 544.469,254.509 545.141,254.248 545.813,254.16 546.484,254.248 547.156,254.509 547.828,254.939 548.5,255.532 549.172,256.276 549.844,257.159 550.516,258.166 551.188,259.28 551.859,260.481 552.531,261.75 553.203,263.063 553.875,264.4 554.547,265.737 555.219,267.05 555.891,268.319 556.563,269.52 557.234,270.634 557.906,271.641 558.578,272.524 559.25,273.268 559.922,273.861 560.594,274.291 561.266,274.552 561.938,274.64 562.609,274.552 563.281,274.291 563.953,273.861 564.625,273.268 565.297,272.524 565.969,271.641 566.641,270.634 567.313,269.52 567.984,268.319 568.656,267.05 569.328,265.737 570,264.4" fill="none" stroke="#c2622a" stroke-width="2" opacity="0.9"/>
<rect x="582" y="38" width="10" height="10" fill="#c2622a"/>
<text x="596" y="47" fill="#c9bfa9" font-size="10">PercBus send D</text>
<polyline points="54,264.4 54.672,263.063 55.344,261.75 56.016,260.481 56.688,259.28 57.359,258.166 58.031,257.159 58.703,256.276 59.375,255.532 60.047,254.939 60.719,254.509 61.391,254.248 62.063,254.16 62.734,254.248 63.406,254.509 64.078,254.939 64.75,255.532 65.422,256.276 66.094,257.159 66.766,258.166 67.438,259.28 68.109,260.481 68.781,261.75 69.453,263.063 70.125,264.4 70.797,265.737 71.469,267.05 72.141,268.319 72.813,269.52 73.484,270.634 74.156,271.641 74.828,272.524 75.5,273.268 76.172,273.861 76.844,274.291 77.516,274.552 78.188,274.64 78.859,274.552 79.531,274.291 80.203,273.861 80.875,273.268 81.547,272.524 82.219,271.641 82.891,270.634 83.563,269.52 84.234,268.319 84.906,267.05 85.578,265.737 86.25,264.4 86.922,263.063 87.594,261.75 88.266,260.481 88.938,259.28 89.609,258.166 90.281,257.159 90.953,256.276 91.625,255.532 92.297,254.939 92.969,254.509 93.641,254.248 94.313,254.16 94.984,254.248 95.656,254.509 96.328,254.939 97,255.532 97.672,256.276 98.344,257.159 99.016,258.166 99.688,259.28 100.359,260.481 101.031,261.75 101.703,263.063 102.375,264.4 103.047,265.737 103.719,267.05 104.391,268.319 105.063,269.52 105.734,270.634 106.406,271.641 107.078,272.524 107.75,273.268 108.422,273.861 109.094,274.291 109.766,274.552 110.438,274.64 111.109,274.552 111.781,274.291 112.453,273.861 113.125,273.268 113.797,272.524 114.469,271.641 115.141,270.634 115.813,269.52 116.484,268.319 117.156,267.05 117.828,265.737 118.5,264.4 119.172,263.063 119.844,261.75 120.516,260.481 121.188,259.28 121.859,258.166 122.531,257.159 123.203,256.276 123.875,255.532 124.547,254.939 125.219,254.509 125.891,254.248 126.563,254.16 127.234,254.248 127.906,254.509 128.578,254.939 129.25,255.532 129.922,256.276 130.594,257.159 131.266,258.166 131.938,259.28 132.609,260.481 133.281,261.75 133.953,263.063 134.625,264.4 135.297,265.737 135.969,267.05 136.641,268.319 137.313,269.52 137.984,270.634 138.656,271.641 139.328,272.524 140,273.268 140.672,273.861 141.344,274.291 142.016,274.552 142.688,274.64 143.359,274.552 144.031,274.291 144.703,273.861 145.375,273.268 146.047,272.524 146.719,271.641 147.391,270.634 148.063,269.52 148.734,268.319 149.406,267.05 150.078,265.737 150.75,264.4 151.422,263.063 152.094,261.75 152.766,260.481 153.438,259.28 154.109,258.166 154.781,257.159 155.453,256.276 156.125,255.532 156.797,254.939 157.469,254.509 158.141,254.248 158.813,254.16 159.484,254.248 160.156,254.509 160.828,254.939 161.5,255.532 162.172,256.276 162.844,257.159 163.516,258.166 164.188,259.28 164.859,260.481 165.531,261.75 166.203,263.063 166.875,264.4 167.547,265.737 168.219,267.05 168.891,268.319 169.563,269.52 170.234,270.634 170.906,271.641 171.578,272.524 172.25,273.268 172.922,273.861 173.594,274.291 174.266,274.552 174.938,274.64 175.609,274.552 176.281,274.291 176.953,273.861 177.625,273.268 178.297,272.524 178.969,271.641 179.641,270.634 180.313,269.52 180.984,268.319 181.656,267.05 182.328,265.737 183,264.4 183.672,263.063 184.344,261.75 185.016,260.481 185.688,259.28 186.359,258.166 187.031,257.159 187.703,256.276 188.375,255.532 189.047,254.939 189.719,254.509 190.391,254.248 191.063,254.16 191.734,254.248 192.406,254.509 193.078,254.939 193.75,255.532 194.422,256.276 195.094,257.159 195.766,258.166 196.438,259.28 197.109,260.481 197.781,261.75 198.453,263.063 199.125,264.4 199.797,265.737 200.469,267.05 201.141,268.319 201.813,269.52 202.484,270.634 203.156,271.641 203.828,272.524 204.5,273.268 205.172,273.861 205.844,274.291 206.516,274.552 207.188,274.64 207.859,274.552 208.531,274.291 209.203,273.861 209.875,273.268 210.547,272.524 211.219,271.641 211.891,270.634 212.563,269.52 213.234,268.319 213.906,267.05 214.578,265.737 215.25,264.4 215.922,263.063 216.594,261.75 217.266,260.481 217.938,259.28 218.609,258.166 219.281,257.159 219.953,256.276 220.625,255.532 221.297,254.939 221.969,254.509 222.641,254.248 223.313,254.16 223.984,254.248 224.656,254.509 225.328,254.939 226,255.532 226.672,256.276 227.344,257.159 228.016,258.166 228.688,259.28 229.359,260.481 230.031,261.75 230.703,263.063 231.375,264.4 232.047,265.737 232.719,267.05 233.391,268.319 234.063,269.52 234.734,270.634 235.406,271.641 236.078,272.524 236.75,273.268 237.422,273.861 238.094,274.291 238.766,274.552 239.438,274.64 240.109,274.552 240.781,274.291 241.453,273.861 242.125,273.268 242.797,272.524 243.469,271.641 244.141,270.634 244.813,269.52 245.484,268.319 246.156,267.05 246.828,265.737 247.5,264.4 248.172,263.063 248.844,261.75 249.516,260.481 250.188,259.28 250.859,258.166 251.531,257.159 252.203,256.276 252.875,255.532 253.547,254.939 254.219,254.509 254.891,254.248 255.563,254.16 256.234,254.248 256.906,254.509 257.578,254.939 258.25,255.532 258.922,256.276 259.594,257.159 260.266,258.166 260.938,259.28 261.609,260.481 262.281,261.75 262.953,263.063 263.625,264.4 264.297,265.737 264.969,267.05 265.641,268.319 266.313,269.52 266.984,270.634 267.656,271.641 268.328,272.524 269,273.268 269.672,273.861 270.344,274.291 271.016,274.552 271.688,274.64 272.359,274.552 273.031,274.291 273.703,273.861 274.375,273.268 275.047,272.524 275.719,271.641 276.391,270.634 277.063,269.52 277.734,268.319 278.406,267.05 279.078,265.737 279.75,264.4 280.422,263.063 281.094,261.75 281.766,260.481 282.438,259.28 283.109,258.166 283.781,257.159 284.453,256.276 285.125,255.532 285.797,254.939 286.469,254.509 287.141,254.248 287.813,254.16 288.484,254.248 289.156,254.509 289.828,254.939 290.5,255.532 291.172,256.276 291.844,257.159 292.516,258.166 293.188,259.28 293.859,260.481 294.531,261.75 295.203,263.063 295.875,264.4 296.547,265.737 297.219,267.05 297.891,268.319 298.563,269.52 299.234,270.634 299.906,271.641 300.578,272.524 301.25,273.268 301.922,273.861 302.594,274.291 303.266,274.552 303.938,274.64 304.609,274.552 305.281,274.291 305.953,273.861 306.625,273.268 307.297,272.524 307.969,271.641 308.641,270.634 309.313,269.52 309.984,268.319 310.656,267.05 311.328,265.737 312,264.4 312.672,263.063 313.344,261.75 314.016,260.481 314.688,259.28 315.359,258.166 316.031,257.159 316.703,256.276 317.375,255.532 318.047,254.939 318.719,254.509 319.391,254.248 320.063,254.16 320.734,254.248 321.406,254.509 322.078,254.939 322.75,255.532 323.422,256.276 324.094,257.159 324.766,258.166 325.438,259.28 326.109,260.481 326.781,261.75 327.453,263.063 328.125,264.4 328.797,265.737 329.469,267.05 330.141,268.319 330.813,269.52 331.484,270.634 332.156,271.641 332.828,272.524 333.5,273.268 334.172,273.861 334.844,274.291 335.516,274.552 336.188,274.64 336.859,274.552 337.531,274.291 338.203,273.861 338.875,273.268 339.547,272.524 340.219,271.641 340.891,270.634 341.563,269.52 342.234,268.319 342.906,267.05 343.578,265.737 344.25,264.4 344.922,263.063 345.594,261.75 346.266,260.481 346.938,259.28 347.609,258.166 348.281,257.159 348.953,256.276 349.625,255.532 350.297,254.939 350.969,254.509 351.641,254.248 352.313,254.16 352.984,254.248 353.656,254.509 354.328,254.939 355,255.532 355.672,256.276 356.344,257.159 357.016,258.166 357.688,259.28 358.359,260.481 359.031,261.75 359.703,263.063 360.375,264.4 361.047,265.737 361.719,267.05 362.391,268.319 363.063,269.52 363.734,270.634 364.406,271.641 365.078,272.524 365.75,273.268 366.422,273.861 367.094,274.291 367.766,274.552 368.438,274.64 369.109,274.552 369.781,274.291 370.453,273.861 371.125,273.268 371.797,272.524 372.469,271.641 373.141,270.634 373.813,269.52 374.484,268.319 375.156,267.05 375.828,265.737 376.5,264.4 377.172,263.063 377.844,261.75 378.516,260.481 379.188,259.28 379.859,258.166 380.531,257.159 381.203,256.276 381.875,255.532 382.547,254.939 383.219,254.509 383.891,254.248 384.563,254.16 385.234,254.248 385.906,254.509 386.578,254.939 387.25,255.532 387.922,256.276 388.594,257.159 389.266,258.166 389.938,259.28 390.609,260.481 391.281,261.75 391.953,263.063 392.625,264.4 393.297,265.737 393.969,267.05 394.641,268.319 395.313,269.52 395.984,270.634 396.656,271.641 397.328,272.524 398,273.268 398.672,273.861 399.344,274.291 400.016,274.552 400.688,274.64 401.359,274.552 402.031,274.291 402.703,273.861 403.375,273.268 404.047,272.524 404.719,271.641 405.391,270.634 406.063,269.52 406.734,268.319 407.406,267.05 408.078,265.737 408.75,264.4 409.422,263.063 410.094,261.75 410.766,260.481 411.438,259.28 412.109,258.166 412.781,257.159 413.453,256.276 414.125,255.532 414.797,254.939 415.469,254.509 416.141,254.248 416.813,254.16 417.484,254.248 418.156,254.509 418.828,254.939 419.5,255.532 420.172,256.276 420.844,257.159 421.516,258.166 422.188,259.28 422.859,260.481 423.531,261.75 424.203,263.063 424.875,264.4 425.547,265.737 426.219,267.05 426.891,268.319 427.563,269.52 428.234,270.634 428.906,271.641 429.578,272.524 430.25,273.268 430.922,273.861 431.594,274.291 432.266,274.552 432.938,274.64 433.609,274.552 434.281,274.291 434.953,273.861 435.625,273.268 436.297,272.524 436.969,271.641 437.641,270.634 438.313,269.52 438.984,268.319 439.656,267.05 440.328,265.737 441,264.4 441.672,263.063 442.344,261.75 443.016,260.481 443.688,259.28 444.359,258.166 445.031,257.159 445.703,256.276 446.375,255.532 447.047,254.939 447.719,254.509 448.391,254.248 449.063,254.16 449.734,254.248 450.406,254.509 451.078,254.939 451.75,255.532 452.422,256.276 453.094,257.159 453.766,258.166 454.438,259.28 455.109,260.481 455.781,261.75 456.453,263.063 457.125,264.4 457.797,265.737 458.469,267.05 459.141,268.319 459.813,269.52 460.484,270.634 461.156,271.641 461.828,272.524 462.5,273.268 463.172,273.861 463.844,274.291 464.516,274.552 465.188,274.64 465.859,274.552 466.531,274.291 467.203,273.861 467.875,273.268 468.547,272.524 469.219,271.641 469.891,270.634 470.563,269.52 471.234,268.319 471.906,267.05 472.578,265.737 473.25,264.4 473.922,263.063 474.594,261.75 475.266,260.481 475.938,259.28 476.609,258.166 477.281,257.159 477.953,256.276 478.625,255.532 479.297,254.939 479.969,254.509 480.641,254.248 481.313,254.16 481.984,254.248 482.656,254.509 483.328,254.939 484,255.532 484.672,256.276 485.344,257.159 486.016,258.166 486.688,259.28 487.359,260.481 488.031,261.75 488.703,263.063 489.375,264.4 490.047,265.737 490.719,267.05 491.391,268.319 492.063,269.52 492.734,270.634 493.406,271.641 494.078,272.524 494.75,273.268 495.422,273.861 496.094,274.291 496.766,274.552 497.438,274.64 498.109,274.552 498.781,274.291 499.453,273.861 500.125,273.268 500.797,272.524 501.469,271.641 502.141,270.634 502.813,269.52 503.484,268.319 504.156,267.05 504.828,265.737 505.5,264.4 506.172,263.063 506.844,261.75 507.516,260.481 508.188,259.28 508.859,258.166 509.531,257.159 510.203,256.276 510.875,255.532 511.547,254.939 512.219,254.509 512.891,254.248 513.563,254.16 514.234,254.248 514.906,254.509 515.578,254.939 516.25,255.532 516.922,256.276 517.594,257.159 518.266,258.166 518.938,259.28 519.609,260.481 520.281,261.75 520.953,263.063 521.625,264.4 522.297,265.737 522.969,267.05 523.641,268.319 524.313,269.52 524.984,270.634 525.656,271.641 526.328,272.524 527,273.268 527.672,273.861 528.344,274.291 529.016,274.552 529.688,274.64 530.359,274.552 531.031,274.291 531.703,273.861 532.375,273.268 533.047,272.524 533.719,271.641 534.391,270.634 535.063,269.52 535.734,268.319 536.406,267.05 537.078,265.737 537.75,264.4 538.422,263.063 539.094,261.75 539.766,260.481 540.438,259.28 541.109,258.166 541.781,257.159 542.453,256.276 543.125,255.532 543.797,254.939 544.469,254.509 545.141,254.248 545.813,254.16 546.484,254.248 547.156,254.509 547.828,254.939 548.5,255.532 549.172,256.276 549.844,257.159 550.516,258.166 551.188,259.28 551.859,260.481 552.531,261.75 553.203,263.063 553.875,264.4 554.547,265.737 555.219,267.05 555.891,268.319 556.563,269.52 557.234,270.634 557.906,271.641 558.578,272.524 559.25,273.268 559.922,273.861 560.594,274.291 561.266,274.552 561.938,274.64 562.609,274.552 563.281,274.291 563.953,273.861 564.625,273.268 565.297,272.524 565.969,271.641 566.641,270.634 567.313,269.52 567.984,268.319 568.656,267.05 569.328,265.737 570,264.4" fill="none" stroke="#2bb3a3" stroke-width="2" opacity="0.9"/>
<rect x="582" y="53" width="10" height="10" fill="#2bb3a3"/>
<text x="596" y="62" fill="#c9bfa9" font-size="10">LeadsBus send D</text>
<text x="54" y="20" fill="#f3ead9" font-size="14" font-weight="700">PULSE 16</text>
<text x="570" y="20" fill="#7c756a" font-size="10" text-anchor="end">16 bars @ 94 BPM · y = normalized 0..1</text>
</svg>