<svg xmlns="http://www.w3.org/2000/svg" width="720" height="320" viewBox="0 0 720 320" font-family="JetBrains Mono, ui-monospace, monospace">
<rect width="720" height="320" fill="#15130f"/>
<line x1="54" y1="290" x2="570" y2="290" stroke="#2a261f"/>
<text x="46" y="293" fill="#7c756a" font-size="10" text-anchor="end">0.0</text>
<line x1="54" y1="162" x2="570" y2="162" stroke="#2a261f"/>
<text x="46" y="165" fill="#7c756a" font-size="10" text-anchor="end">0.5</text>
<line x1="54" y1="34" x2="570" y2="34" stroke="#2a261f"/>
<text x="46" y="37" fill="#7c756a" font-size="10" text-anchor="end">1.0</text>
<line x1="54" y1="34" x2="54" y2="290" stroke="#211e18"/>
<text x="54" y="308" fill="#7c756a" font-size="10" text-anchor="middle">0</text>
<line x1="283.3333333333333" y1="34" x2="283.3333333333333" y2="290" stroke="#211e18"/>
<text x="283.3333333333333" y="308" fill="#7c756a" font-size="10" text-anchor="middle">8</text>
<line x1="512.6666666666666" y1="34" x2="512.6666666666666" y2="290" stroke="#211e18"/>
<text x="512.6666666666666" y="308" fill="#7c756a" font-size="10" text-anchor="middle">16</text>
<line x1="54" y1="34" x2="54" y2="290" stroke="#5a544a" stroke-dasharray="3 3" opacity="0.8"/>
<text x="57" y="44" fill="#5a544a" font-size="9">fireRiser</text>
<line x1="54" y1="34" x2="54" y2="290" stroke="#5a544a" stroke-dasharray="3 3" opacity="0.8"/>
<text x="57" y="44" fill="#5a544a" font-size="9">fireShep</text>
<line x1="512.6666666666666" y1="34" x2="512.6666666666666" y2="290" stroke="#5a544a" stroke-dasharray="3 3" opacity="0.8"/>
<text x="515.6666666666666" y="44" fill="#5a544a" font-size="9">killRiser</text>
<line x1="570" y1="34" x2="570" y2="290" stroke="#5a544a" stroke-dasharray="3 3" opacity="0.8"/>
<text x="573" y="44" fill="#5a544a" font-size="9">killShep</text>
<polyline points="54,290 54.597,289.999 55.194,289.996 55.792,289.99 56.389,289.983 56.986,289.973 57.583,289.961 58.181,289.948 58.778,289.931 59.375,289.913 59.972,289.893 60.569,289.87 61.167,289.846 61.764,289.819 62.361,289.79 62.958,289.759 63.556,289.726 64.153,289.691 64.75,289.653 65.347,289.614 65.944,289.572 66.542,289.528 67.139,289.482 67.736,289.434 68.333,289.384 68.931,289.331 69.528,289.277 70.125,289.22 70.722,289.161 71.319,289.1 71.917,289.037 72.514,288.972 73.111,288.905 73.708,288.836 74.306,288.764 74.903,288.69 75.5,288.615 76.097,288.537 76.694,288.457 77.292,288.375 77.889,288.29 78.486,288.204 79.083,288.116 79.681,288.025 80.278,287.932 80.875,287.838 81.472,287.741 82.069,287.642 82.667,287.541 83.264,287.437 83.861,287.332 84.458,287.225 85.056,287.115 85.653,287.004 86.25,286.89 86.847,286.774 87.444,286.656 88.042,286.536 88.639,286.414 89.236,286.29 89.833,286.164 90.431,286.036 91.028,285.905 91.625,285.773 92.222,285.639 92.819,285.502 93.417,285.363 94.014,285.223 94.611,285.08 95.208,284.935 95.806,284.788 96.403,284.639 97,284.488 97.597,284.335 98.194,284.18 98.792,284.023 99.389,283.864 99.986,283.703 100.583,283.54 101.181,283.374 101.778,283.207 102.375,283.038 102.972,282.866 103.569,282.693 104.167,282.518 104.764,282.34 105.361,282.161 105.958,281.979 106.556,281.796 107.153,281.611 107.75,281.423 108.347,281.234 108.944,281.042 109.542,280.849 110.139,280.653 110.736,280.456 111.333,280.257 111.931,280.055 112.528,279.852 113.125,279.647 113.722,279.439 114.319,279.23 114.917,279.019 115.514,278.806 116.111,278.591 116.708,278.374 117.306,278.154 117.903,277.934 118.5,277.711 119.097,277.486 119.694,277.259 120.292,277.03 120.889,276.8 121.486,276.567 122.083,276.333 122.681,276.096 123.278,275.858 123.875,275.618 124.472,275.376 125.069,275.132 125.667,274.886 126.264,274.638 126.861,274.389 127.458,274.137 128.056,273.884 128.653,273.628 129.25,273.371 129.847,273.112 130.444,272.851 131.042,272.589 131.639,272.324 132.236,272.058 132.833,271.789 133.431,271.519 134.028,271.247 134.625,270.973 135.222,270.698 135.819,270.42 136.417,270.141 137.014,269.86 137.611,269.577 138.208,269.293 138.806,269.006 139.403,268.718 140,268.428 140.597,268.136 141.194,267.843 141.792,267.547 142.389,267.25 142.986,266.951 143.583,266.651 144.181,266.348 144.778,266.044 145.375,265.739 145.972,265.431 146.569,265.122 147.167,264.811 147.764,264.498 148.361,264.183 148.958,263.867 149.556,263.549 150.153,263.23 150.75,262.908 151.347,262.585 151.944,262.261 152.542,261.934 153.139,261.606 153.736,261.277 154.333,260.945 154.931,260.612 155.528,260.278 156.125,259.941 156.722,259.603 157.319,259.264 157.917,258.923 158.514,258.58 159.111,258.235 159.708,257.889 160.306,257.542 160.903,257.193 161.5,256.842 162.097,256.489 162.694,256.135 163.292,255.78 163.889,255.423 164.486,255.064 165.083,254.704 165.681,254.342 166.278,253.978 166.875,253.614 167.472,253.247 168.069,252.879 168.667,252.51 169.264,252.139 169.861,251.766 170.458,251.392 171.056,251.017 171.653,250.64 172.25,250.261 172.847,249.881 173.444,249.5 174.042,249.117 174.639,248.733 175.236,248.347 175.833,247.96 176.431,247.571 177.028,247.181 177.625,246.789 178.222,246.396 178.819,246.002 179.417,245.606 180.014,245.209 180.611,244.81 181.208,244.41 181.806,244.009 182.403,243.606 183,243.202 183.597,242.797 184.194,242.39 184.792,241.982 185.389,241.573 185.986,241.162 186.583,240.75 187.181,240.336 187.778,239.921 188.375,239.505 188.972,239.088 189.569,238.669 190.167,238.25 190.764,237.828 191.361,237.406 191.958,236.982 192.556,236.557 193.153,236.131 193.75,235.703 194.347,235.275 194.944,234.845 195.542,234.414 196.139,233.981 196.736,233.548 197.333,233.113 197.931,232.677 198.528,232.24 199.125,231.802 199.722,231.362 200.319,230.921 200.917,230.48 201.514,230.037 202.111,229.593 202.708,229.147 203.306,228.701 203.903,228.254 204.5,227.805 205.097,227.355 205.694,226.905 206.292,226.453 206.889,226 207.486,225.546 208.083,225.091 208.681,224.635 209.278,224.178 209.875,223.72 210.472,223.26 211.069,222.8 211.667,222.339 212.264,221.877 212.861,221.413 213.458,220.949 214.056,220.484 214.653,220.017 215.25,219.55 215.847,219.082 216.444,218.613 217.042,218.143 217.639,217.672 218.236,217.2 218.833,216.727 219.431,216.253 220.028,215.779 220.625,215.303 221.222,214.826 221.819,214.349 222.417,213.871 223.014,213.392 223.611,212.912 224.208,212.431 224.806,211.949 225.403,211.467 226,210.983 226.597,210.499 227.194,210.014 227.792,209.529 228.389,209.042 228.986,208.555 229.583,208.067 230.181,207.578 230.778,207.088 231.375,206.598 231.972,206.106 232.569,205.615 233.167,205.122 233.764,204.629 234.361,204.134 234.958,203.64 235.556,203.144 236.153,202.648 236.75,202.151 237.347,201.654 237.944,201.156 238.542,200.657 239.139,200.157 239.736,199.657 240.333,199.156 240.931,198.655 241.528,198.153 242.125,197.651 242.722,197.147 243.319,196.644 243.917,196.139 244.514,195.634 245.111,195.129 245.708,194.623 246.306,194.116 246.903,193.609 247.5,193.101 248.097,192.593 248.694,192.085 249.292,191.575 249.889,191.066 250.486,190.556 251.083,190.045 251.681,189.534 252.278,189.022 252.875,188.51 253.472,187.998 254.069,187.485 254.667,186.972 255.264,186.458 255.861,185.944 256.458,185.429 257.056,184.914 257.653,184.399 258.25,183.883 258.847,183.367 259.444,182.851 260.042,182.334 260.639,181.817 261.236,181.299 261.833,180.782 262.431,180.263 263.028,179.745 263.625,179.226 264.222,178.707 264.819,178.188 265.417,177.669 266.014,177.149 266.611,176.629 267.208,176.108 267.806,175.588 268.403,175.067 269,174.546 269.597,174.025 270.194,173.504 270.792,172.982 271.389,172.46 271.986,171.938 272.583,171.416 273.181,170.894 273.778,170.372 274.375,169.849 274.972,169.326 275.569,168.804 276.167,168.281 276.764,167.758 277.361,167.235 277.958,166.711 278.556,166.188 279.153,165.665 279.75,165.141 280.347,164.618 280.944,164.094 281.542,163.571 282.139,163.047 282.736,162.524 283.333,162 283.931,161.476 284.528,160.953 285.125,160.429 285.722,159.906 286.319,159.382 286.917,158.859 287.514,158.335 288.111,157.812 288.708,157.289 289.306,156.765 289.903,156.242 290.5,155.719 291.097,155.196 291.694,154.674 292.292,154.151 292.889,153.628 293.486,153.106 294.083,152.584 294.681,152.062 295.278,151.54 295.875,151.018 296.472,150.496 297.069,149.975 297.667,149.454 298.264,148.933 298.861,148.412 299.458,147.892 300.056,147.371 300.653,146.851 301.25,146.331 301.847,145.812 302.444,145.293 303.042,144.774 303.639,144.255 304.236,143.737 304.833,143.218 305.431,142.701 306.028,142.183 306.625,141.666 307.222,141.149 307.819,140.633 308.417,140.117 309.014,139.601 309.611,139.086 310.208,138.571 310.806,138.056 311.403,137.542 312,137.028 312.597,136.515 313.194,136.002 313.792,135.49 314.389,134.978 314.986,134.466 315.583,133.955 316.181,133.444 316.778,132.934 317.375,132.425 317.972,131.915 318.569,131.407 319.167,130.899 319.764,130.391 320.361,129.884 320.958,129.377 321.556,128.871 322.153,128.366 322.75,127.861 323.347,127.356 323.944,126.853 324.542,126.349 325.139,125.847 325.736,125.345 326.333,124.844 326.931,124.343 327.528,123.843 328.125,123.343 328.722,122.844 329.319,122.346 329.917,121.849 330.514,121.352 331.111,120.856 331.708,120.36 332.306,119.866 332.903,119.371 333.5,118.878 334.097,118.385 334.694,117.894 335.292,117.402 335.889,116.912 336.486,116.422 337.083,115.933 337.681,115.445 338.278,114.958 338.875,114.471 339.472,113.986 340.069,113.501 340.667,113.017 341.264,112.533 341.861,112.051 342.458,111.569 343.056,111.088 343.653,110.608 344.25,110.129 344.847,109.651 345.444,109.174 346.042,108.697 346.639,108.221 347.236,107.747 347.833,107.273 348.431,106.8 349.028,106.328 349.625,105.857 350.222,105.387 350.819,104.918 351.417,104.45 352.014,103.983 352.611,103.516 353.208,103.051 353.806,102.587 354.403,102.123 355,101.661 355.597,101.2 356.194,100.74 356.792,100.28 357.389,99.822 357.986,99.365 358.583,98.909 359.181,98.454 359.778,98 360.375,97.547 360.972,97.095 361.569,96.645 362.167,96.195 362.764,95.746 363.361,95.299 363.958,94.853 364.556,94.407 365.153,93.963 365.75,93.52 366.347,93.079 366.944,92.638 367.542,92.198 368.139,91.76 368.736,91.323 369.333,90.887 369.931,90.452 370.528,90.019 371.125,89.586 371.722,89.155 372.319,88.725 372.917,88.297 373.514,87.869 374.111,87.443 374.708,87.018 375.306,86.594 375.903,86.172 376.5,85.75 377.097,85.331 377.694,84.912 378.292,84.495 378.889,84.079 379.486,83.664 380.083,83.25 380.681,82.838 381.278,82.427 381.875,82.018 382.472,81.61 383.069,81.203 383.667,80.798 384.264,80.394 384.861,79.991 385.458,79.59 386.056,79.19 386.653,78.791 387.25,78.394 387.847,77.998 388.444,77.604 389.042,77.211 389.639,76.819 390.236,76.429 390.833,76.04 391.431,75.653 392.028,75.267 392.625,74.883 393.222,74.5 393.819,74.119 394.417,73.739 395.014,73.36 395.611,72.983 396.208,72.608 396.806,72.234 397.403,71.861 398,71.49 398.597,71.121 399.194,70.753 399.792,70.386 400.389,70.022 400.986,69.658 401.583,69.296 402.181,68.936 402.778,68.577 403.375,68.22 403.972,67.865 404.569,67.511 405.167,67.158 405.764,66.807 406.361,66.458 406.958,66.111 407.556,65.765 408.153,65.42 408.75,65.077 409.347,64.736 409.944,64.397 410.542,64.059 411.139,63.722 411.736,63.388 412.333,63.055 412.931,62.723 413.528,62.394 414.125,62.066 414.722,61.739 415.319,61.415 415.917,61.092 416.514,60.77 417.111,60.451 417.708,60.133 418.306,59.817 418.903,59.502 419.5,59.189 420.097,58.878 420.694,58.569 421.292,58.261 421.889,57.956 422.486,57.652 423.083,57.349 423.681,57.049 424.278,56.75 424.875,56.453 425.472,56.157 426.069,55.864 426.667,55.572 427.264,55.282 427.861,54.994 428.458,54.707 429.056,54.423 429.653,54.14 430.25,53.859 430.847,53.58 431.444,53.302 432.042,53.027 432.639,52.753 433.236,52.481 433.833,52.211 434.431,51.942 435.028,51.676 435.625,51.411 436.222,51.149 436.819,50.888 437.417,50.629 438.014,50.372 438.611,50.116 439.208,49.863 439.806,49.611 440.403,49.362 441,49.114 441.597,48.868 442.194,48.624 442.792,48.382 443.389,48.142 443.986,47.904 444.583,47.667 445.181,47.433 445.778,47.2 446.375,46.97 446.972,46.741 447.569,46.514 448.167,46.289 448.764,46.066 449.361,45.846 449.958,45.626 450.556,45.409 451.153,45.194 451.75,44.981 452.347,44.77 452.944,44.561 453.542,44.353 454.139,44.148 454.736,43.945 455.333,43.743 455.931,43.544 456.528,43.347 457.125,43.151 457.722,42.958 458.319,42.766 458.917,42.577 459.514,42.389 460.111,42.204 460.708,42.021 461.306,41.839 461.903,41.66 462.5,41.482 463.097,41.307 463.694,41.134 464.292,40.962 464.889,40.793 465.486,40.626 466.083,40.46 466.681,40.297 467.278,40.136 467.875,39.977 468.472,39.82 469.069,39.665 469.667,39.512 470.264,39.361 470.861,39.212 471.458,39.065 472.056,38.92 472.653,38.777 473.25,38.637 473.847,38.498 474.444,38.361 475.042,38.227 475.639,38.095 476.236,37.964 476.833,37.836 477.431,37.71 478.028,37.586 478.625,37.464 479.222,37.344 479.819,37.226 480.417,37.11 481.014,36.996 481.611,36.885 482.208,36.775 482.806,36.668 483.403,36.563 484,36.459 484.597,36.358 485.194,36.259 485.792,36.162 486.389,36.068 486.986,35.975 487.583,35.884 488.181,35.796 488.778,35.71 489.375,35.625 489.972,35.543 490.569,35.463 491.167,35.385 491.764,35.31 492.361,35.236 492.958,35.164 493.556,35.095 494.153,35.028 494.75,34.963 495.347,34.9 495.944,34.839 496.542,34.78 497.139,34.723 497.736,34.669 498.333,34.616 498.931,34.566 499.528,34.518 500.125,34.472 500.722,34.428 501.319,34.386 501.917,34.347 502.514,34.309 503.111,34.274 503.708,34.241 504.306,34.21 504.903,34.181 505.5,34.154 506.097,34.13 506.694,34.107 507.292,34.087 507.889,34.069 508.486,34.052 509.083,34.039 509.681,34.027 510.278,34.017 510.875,34.01 511.472,34.004 512.069,34.001 512.667,34 513.264,290 513.861,290 514.458,290 515.056,290 515.653,290 516.25,290 516.847,290 517.444,290 518.042,290 518.639,290 519.236,290 519.833,290 520.431,290 521.028,290 521.625,290 522.222,290 522.819,290 523.417,290 524.014,290 524.611,290 525.208,290 525.806,290 526.403,290 527,290 527.597,290 528.194,290 528.792,290 529.389,290 529.986,290 530.583,290 531.181,290 531.778,290 532.375,290 532.972,290 533.569,290 534.167,290 534.764,290 535.361,290 535.958,290 536.556,290 537.153,290 537.75,290 538.347,290 538.944,290 539.542,290 540.139,290 540.736,290 541.333,290 541.931,290 542.528,290 543.125,290 543.722,290 544.319,290 544.917,290 545.514,290 546.111,290 546.708,290 547.306,290 547.903,290 548.5,290 549.097,290 549.694,290 550.292,290 550.889,290 551.486,290 552.083,290 552.681,290 553.278,290 553.875,290 554.472,290 555.069,290 555.667,290 556.264,290 556.861,290 557.458,290 558.056,290 558.653,290 559.25,290 559.847,290 560.444,290 561.042,290 561.639,290 562.236,290 562.833,290 563.431,290 564.028,290 564.625,290 565.222,290 565.819,290 566.417,290 567.014,290 567.611,290 568.208,290 568.806,290 569.403,290 570,290" fill="none" stroke="#c2622a" stroke-width="2" opacity="0.9"/>
<circle cx="512.6666666666666" cy="290" r="3" fill="#fff"/>
<rect x="582" y="38" width="10" height="10" fill="#c2622a"/>
<text x="596" y="47" fill="#c9bfa9" font-size="10">KnobRiser</text>
<polyline points="54,290 54.597,289.999 55.194,289.996 55.792,289.99 56.389,289.983 56.986,289.973 57.583,289.961 58.181,289.948 58.778,289.931 59.375,289.913 59.972,289.893 60.569,289.87 61.167,289.846 61.764,289.819 62.361,289.79 62.958,289.759 63.556,289.726 64.153,289.691 64.75,289.653 65.347,289.614 65.944,289.572 66.542,289.528 67.139,289.482 67.736,289.434 68.333,289.384 68.931,289.331 69.528,289.277 70.125,289.22 70.722,289.161 71.319,289.1 71.917,289.037 72.514,288.972 73.111,288.905 73.708,288.836 74.306,288.764 74.903,288.69 75.5,288.615 76.097,288.537 76.694,288.457 77.292,288.375 77.889,288.29 78.486,288.204 79.083,288.116 79.681,288.025 80.278,287.932 80.875,287.838 81.472,287.741 82.069,287.642 82.667,287.541 83.264,287.437 83.861,287.332 84.458,287.225 85.056,287.115 85.653,287.004 86.25,286.89 86.847,286.774 87.444,286.656 88.042,286.536 88.639,286.414 89.236,286.29 89.833,286.164 90.431,286.036 91.028,285.905 91.625,285.773 92.222,285.639 92.819,285.502 93.417,285.363 94.014,285.223 94.611,285.08 95.208,284.935 95.806,284.788 96.403,284.639 97,284.488 97.597,284.335 98.194,284.18 98.792,284.023 99.389,283.864 99.986,283.703 100.583,283.54 101.181,283.374 101.778,283.207 102.375,283.038 102.972,282.866 103.569,282.693 104.167,282.518 104.764,282.34 105.361,282.161 105.958,281.979 106.556,281.796 107.153,281.611 107.75,281.423 108.347,281.234 108.944,281.042 109.542,280.849 110.139,280.653 110.736,280.456 111.333,280.257 111.931,280.055 112.528,279.852 113.125,279.647 113.722,279.439 114.319,279.23 114.917,279.019 115.514,278.806 116.111,278.591 116.708,278.374 117.306,278.154 117.903,277.934 118.5,277.711 119.097,277.486 119.694,277.259 120.292,277.03 120.889,276.8 121.486,276.567 122.083,276.333 122.681,276.096 123.278,275.858 123.875,275.618 124.472,275.376 125.069,275.132 125.667,274.886 126.264,274.638 126.861,274.389 127.458,274.137 128.056,273.884 128.653,273.628 129.25,273.371 129.847,273.112 130.444,272.851 131.042,272.589 131.639,272.324 132.236,272.058 132.833,271.789 133.431,271.519 134.028,271.247 134.625,270.973 135.222,270.698 135.819,270.42 136.417,270.141 137.014,269.86 137.611,269.577 138.208,269.293 138.806,269.006 139.403,268.718 140,268.428 140.597,268.136 141.194,267.843 141.792,267.547 142.389,267.25 142.986,266.951 143.583,266.651 144.181,266.348 144.778,266.044 145.375,265.739 145.972,265.431 146.569,265.122 147.167,264.811 147.764,264.498 148.361,264.183 148.958,263.867 149.556,263.549 150.153,263.23 150.75,262.908 151.347,262.585 151.944,262.261 152.542,261.934 153.139,261.606 153.736,261.277 154.333,260.945 154.931,260.612 155.528,260.278 156.125,259.941 156.722,259.603 157.319,259.264 157.917,258.923 158.514,258.58 159.111,258.235 159.708,257.889 160.306,257.542 160.903,257.193 161.5,256.842 162.097,256.489 162.694,256.135 163.292,255.78 163.889,255.423 164.486,255.064 165.083,254.704 165.681,254.342 166.278,253.978 166.875,253.614 167.472,253.247 168.069,252.879 168.667,252.51 169.264,252.139 169.861,251.766 170.458,251.392 171.056,251.017 171.653,250.64 172.25,250.261 172.847,249.881 173.444,249.5 174.042,249.117 174.639,248.733 175.236,248.347 175.833,247.96 176.431,247.571 177.028,247.181 177.625,246.789 178.222,246.396 178.819,246.002 179.417,245.606 180.014,245.209 180.611,244.81 181.208,244.41 181.806,244.009 182.403,243.606 183,243.202 183.597,242.797 184.194,242.39 184.792,241.982 185.389,241.573 185.986,241.162 186.583,240.75 187.181,240.336 187.778,239.921 188.375,239.505 188.972,239.088 189.569,238.669 190.167,238.25 190.764,237.828 191.361,237.406 191.958,236.982 192.556,236.557 193.153,236.131 193.75,235.703 194.347,235.275 194.944,234.845 195.542,234.414 196.139,233.981 196.736,233.548 197.333,233.113 197.931,232.677 198.528,232.24 199.125,231.802 199.722,231.362 200.319,230.921 200.917,230.48 201.514,230.037 202.111,229.593 202.708,229.147 203.306,228.701 203.903,228.254 204.5,227.805 205.097,227.355 205.694,226.905 206.292,226.453 206.889,226 207.486,225.546 208.083,225.091 208.681,224.635 209.278,224.178 209.875,223.72 210.472,223.26 211.069,222.8 211.667,222.339 212.264,221.877 212.861,221.413 213.458,220.949 214.056,220.484 214.653,220.017 215.25,219.55 215.847,219.082 216.444,218.613 217.042,218.143 217.639,217.672 218.236,217.2 218.833,216.727 219.431,216.253 220.028,215.779 220.625,215.303 221.222,214.826 221.819,214.349 222.417,213.871 223.014,213.392 223.611,212.912 224.208,212.431 224.806,211.949 225.403,211.467 226,210.983 226.597,210.499 227.194,210.014 227.792,209.529 228.389,209.042 228.986,208.555 229.583,208.067 230.181,207.578 230.778,207.088 231.375,206.598 231.972,206.106 232.569,205.615 233.167,205.122 233.764,204.629 234.361,204.134 234.958,203.64 235.556,203.144 236.153,202.648 236.75,202.151 237.347,201.654 237.944,201.156 238.542,200.657 239.139,200.157 239.736,199.657 240.333,199.156 240.931,198.655 241.528,198.153 242.125,197.651 242.722,197.147 243.319,196.644 243.917,196.139 244.514,195.634 245.111,195.129 245.708,194.623 246.306,194.116 246.903,193.609 247.5,193.101 248.097,192.593 248.694,192.085 249.292,191.575 249.889,191.066 250.486,190.556 251.083,190.045 251.681,189.534 252.278,189.022 252.875,188.51 253.472,187.998 254.069,187.485 254.667,186.972 255.264,186.458 255.861,185.944 256.458,185.429 257.056,184.914 257.653,184.399 258.25,183.883 258.847,183.367 259.444,182.851 260.042,182.334 260.639,181.817 261.236,181.299 261.833,180.782 262.431,180.263 263.028,179.745 263.625,179.226 264.222,178.707 264.819,178.188 265.417,177.669 266.014,177.149 266.611,176.629 267.208,176.108 267.806,175.588 268.403,175.067 269,174.546 269.597,174.025 270.194,173.504 270.792,172.982 271.389,172.46 271.986,171.938 272.583,171.416 273.181,170.894 273.778,170.372 274.375,169.849 274.972,169.326 275.569,168.804 276.167,168.281 276.764,167.758 277.361,167.235 277.958,166.711 278.556,166.188 279.153,165.665 279.75,165.141 280.347,164.618 280.944,164.094 281.542,163.571 282.139,163.047 282.736,162.524 283.333,162 283.931,161.476 284.528,160.953 285.125,160.429 285.722,159.906 286.319,159.382 286.917,158.859 287.514,158.335 288.111,157.812 288.708,157.289 289.306,156.765 289.903,156.242 290.5,155.719 291.097,155.196 291.694,154.674 292.292,154.151 292.889,153.628 293.486,153.106 294.083,152.584 294.681,152.062 295.278,151.54 295.875,151.018 296.472,150.496 297.069,149.975 297.667,149.454 298.264,148.933 298.861,148.412 299.458,147.892 300.056,147.371 300.653,146.851 301.25,146.331 301.847,145.812 302.444,145.293 303.042,144.774 303.639,144.255 304.236,143.737 304.833,143.218 305.431,142.701 306.028,142.183 306.625,141.666 307.222,141.149 307.819,140.633 308.417,140.117 309.014,139.601 309.611,139.086 310.208,138.571 310.806,138.056 311.403,137.542 312,137.028 312.597,136.515 313.194,136.002 313.792,135.49 314.389,134.978 314.986,134.466 315.583,133.955 316.181,133.444 316.778,132.934 317.375,132.425 317.972,131.915 318.569,131.407 319.167,130.899 319.764,130.391 320.361,129.884 320.958,129.377 321.556,128.871 322.153,128.366 322.75,127.861 323.347,127.356 323.944,126.853 324.542,126.349 325.139,125.847 325.736,125.345 326.333,124.844 326.931,124.343 327.528,123.843 328.125,123.343 328.722,122.844 329.319,122.346 329.917,121.849 330.514,121.352 331.111,120.856 331.708,120.36 332.306,119.866 332.903,119.371 333.5,118.878 334.097,118.385 334.694,117.894 335.292,117.402 335.889,116.912 336.486,116.422 337.083,115.933 337.681,115.445 338.278,114.958 338.875,114.471 339.472,113.986 340.069,113.501 340.667,113.017 341.264,112.533 341.861,112.051 342.458,111.569 343.056,111.088 343.653,110.608 344.25,110.129 344.847,109.651 345.444,109.174 346.042,108.697 346.639,108.221 347.236,107.747 347.833,107.273 348.431,106.8 349.028,106.328 349.625,105.857 350.222,105.387 350.819,104.918 351.417,104.45 352.014,103.983 352.611,103.516 353.208,103.051 353.806,102.587 354.403,102.123 355,101.661 355.597,101.2 356.194,100.74 356.792,100.28 357.389,99.822 357.986,99.365 358.583,98.909 359.181,98.454 359.778,98 360.375,97.547 360.972,97.095 361.569,96.645 362.167,96.195 362.764,95.746 363.361,95.299 363.958,94.853 364.556,94.407 365.153,93.963 365.75,93.52 366.347,93.079 366.944,92.638 367.542,92.198 368.139,91.76 368.736,91.323 369.333,90.887 369.931,90.452 370.528,90.019 371.125,89.586 371.722,89.155 372.319,88.725 372.917,88.297 373.514,87.869 374.111,87.443 374.708,87.018 375.306,86.594 375.903,86.172 376.5,85.75 377.097,85.331 377.694,84.912 378.292,84.495 378.889,84.079 379.486,83.664 380.083,83.25 380.681,82.838 381.278,82.427 381.875,82.018 382.472,81.61 383.069,81.203 383.667,80.798 384.264,80.394 384.861,79.991 385.458,79.59 386.056,79.19 386.653,78.791 387.25,78.394 387.847,77.998 388.444,77.604 389.042,77.211 389.639,76.819 390.236,76.429 390.833,76.04 391.431,75.653 392.028,75.267 392.625,74.883 393.222,74.5 393.819,74.119 394.417,73.739 395.014,73.36 395.611,72.983 396.208,72.608 396.806,72.234 397.403,71.861 398,71.49 398.597,71.121 399.194,70.753 399.792,70.386 400.389,70.022 400.986,69.658 401.583,69.296 402.181,68.936 402.778,68.577 403.375,68.22 403.972,67.865 404.569,67.511 405.167,67.158 405.764,66.807 406.361,66.458 406.958,66.111 407.556,65.765 408.153,65.42 408.75,65.077 409.347,64.736 409.944,64.397 410.542,64.059 411.139,63.722 411.736,63.388 412.333,63.055 412.931,62.723 413.528,62.394 414.125,62.066 414.722,61.739 415.319,61.415 415.917,61.092 416.514,60.77 417.111,60.451 417.708,60.133 418.306,59.817 418.903,59.502 419.5,59.189 420.097,58.878 420.694,58.569 421.292,58.261 421.889,57.956 422.486,57.652 423.083,57.349 423.681,57.049 424.278,56.75 424.875,56.453 425.472,56.157 426.069,55.864 426.667,55.572 427.264,55.282 427.861,54.994 428.458,54.707 429.056,54.423 429.653,54.14 430.25,53.859 430.847,53.58 431.444,53.302 432.042,53.027 432.639,52.753 433.236,52.481 433.833,52.211 434.431,51.942 435.028,51.676 435.625,51.411 436.222,51.149 436.819,50.888 437.417,50.629 438.014,50.372 438.611,50.116 439.208,49.863 439.806,49.611 440.403,49.362 441,49.114 441.597,48.868 442.194,48.624 442.792,48.382 443.389,48.142 443.986,47.904 444.583,47.667 445.181,47.433 445.778,47.2 446.375,46.97 446.972,46.741 447.569,46.514 448.167,46.289 448.764,46.066 449.361,45.846 449.958,45.626 450.556,45.409 451.153,45.194 451.75,44.981 452.347,44.77 452.944,44.561 453.542,44.353 454.139,44.148 454.736,43.945 455.333,43.743 455.931,43.544 456.528,43.347 457.125,43.151 457.722,42.958 458.319,42.766 458.917,42.577 459.514,42.389 460.111,42.204 460.708,42.021 461.306,41.839 461.903,41.66 462.5,41.482 463.097,41.307 463.694,41.134 464.292,40.962 464.889,40.793 465.486,40.626 466.083,40.46 466.681,40.297 467.278,40.136 467.875,39.977 468.472,39.82 469.069,39.665 469.667,39.512 470.264,39.361 470.861,39.212 471.458,39.065 472.056,38.92 472.653,38.777 473.25,38.637 473.847,38.498 474.444,38.361 475.042,38.227 475.639,38.095 476.236,37.964 476.833,37.836 477.431,37.71 478.028,37.586 478.625,37.464 479.222,37.344 479.819,37.226 480.417,37.11 481.014,36.996 481.611,36.885 482.208,36.775 482.806,36.668 483.403,36.563 484,36.459 484.597,36.358 485.194,36.259 485.792,36.162 486.389,36.068 486.986,35.975 487.583,35.884 488.181,35.796 488.778,35.71 489.375,35.625 489.972,35.543 490.569,35.463 491.167,35.385 491.764,35.31 492.361,35.236 492.958,35.164 493.556,35.095 494.153,35.028 494.75,34.963 495.347,34.9 495.944,34.839 496.542,34.78 497.139,34.723 497.736,34.669 498.333,34.616 498.931,34.566 499.528,34.518 500.125,34.472 500.722,34.428 501.319,34.386 501.917,34.347 502.514,34.309 503.111,34.274 503.708,34.241 504.306,34.21 504.903,34.181 505.5,34.154 506.097,34.13 506.694,34.107 507.292,34.087 507.889,34.069 508.486,34.052 509.083,34.039 509.681,34.027 510.278,34.017 510.875,34.01 511.472,34.004 512.069,34.001 512.667,34 513.264,34.069 513.861,34.274 514.458,34.616 515.056,35.095 515.653,35.71 516.25,36.459 516.847,37.344 517.444,38.361 518.042,39.512 518.639,40.793 519.236,42.204 519.833,43.743 520.431,45.409 521.028,47.2 521.625,49.114 522.222,51.149 522.819,53.302 523.417,55.572 524.014,57.956 524.611,60.451 525.208,63.055 525.806,65.765 526.403,68.577 527,71.49 527.597,74.5 528.194,77.604 528.792,80.798 529.389,84.079 529.986,87.443 530.583,90.887 531.181,94.407 531.778,98 532.375,101.661 532.972,105.387 533.569,109.174 534.167,113.017 534.764,116.912 535.361,120.856 535.958,124.844 536.556,128.871 537.153,132.934 537.75,137.028 538.347,141.149 538.944,145.293 539.542,149.454 540.139,153.628 540.736,157.812 541.333,162 541.931,166.188 542.528,170.372 543.125,174.546 543.722,178.707 544.319,182.851 544.917,186.972 545.514,191.066 546.111,195.129 546.708,199.156 547.306,203.144 547.903,207.088 548.5,210.983 549.097,214.826 549.694,218.613 550.292,222.339 550.889,226 551.486,229.593 552.083,233.113 552.681,236.557 553.278,239.921 553.875,243.202 554.472,246.396 555.069,249.5 555.667,252.51 556.264,255.423 556.861,258.235 557.458,260.945 558.056,263.549 558.653,266.044 559.25,268.428 559.847,270.698 560.444,272.851 561.042,274.886 561.639,276.8 562.236,278.591 562.833,280.257 563.431,281.796 564.028,283.207 564.625,284.488 565.222,285.639 565.819,286.656 566.417,287.541 567.014,288.29 567.611,288.905 568.208,289.384 568.806,289.726 569.403,289.931 570,290" fill="none" stroke="#2bb3a3" stroke-width="2" opacity="0.9"/>
<rect x="582" y="53" width="10" height="10" fill="#2bb3a3"/>
<text x="596" y="62" fill="#c9bfa9" font-size="10">Shep Output</text>
<text x="54" y="20" fill="#f3ead9" font-size="14" font-weight="700">RISE 16</text>
<text x="570" y="20" fill="#7c756a" font-size="10" text-anchor="end">18 bars @ 94 BPM · y = normalized 0..1</text>
</svg>