<svg xmlns="http://www.w3.org/2000/svg" width="720" height="320" viewBox="0 0 720 320" font-family="JetBrains Mono, ui-monospace, monospace">
<rect width="720" height="320" fill="#15130f"/>
<line x1="54" y1="290" x2="570" y2="290" stroke="#2a261f"/>
<text x="46" y="293" fill="#7c756a" font-size="10" text-anchor="end">0.0</text>
<line x1="54" y1="162" x2="570" y2="162" stroke="#2a261f"/>
<text x="46" y="165" fill="#7c756a" font-size="10" text-anchor="end">0.5</text>
<line x1="54" y1="34" x2="570" y2="34" stroke="#2a261f"/>
<text x="46" y="37" fill="#7c756a" font-size="10" text-anchor="end">1.0</text>
<line x1="54" y1="34" x2="54" y2="290" stroke="#211e18"/>
<text x="54" y="308" fill="#7c756a" font-size="10" text-anchor="middle">0</text>
<line x1="175.411407613507" y1="34" x2="175.411407613507" y2="290" stroke="#211e18"/>
<text x="175.411407613507" y="308" fill="#7c756a" font-size="10" text-anchor="middle">8</text>
<line x1="296.822815227014" y1="34" x2="296.822815227014" y2="290" stroke="#211e18"/>
<text x="296.822815227014" y="308" fill="#7c756a" font-size="10" text-anchor="middle">16</text>
<line x1="418.234222840521" y1="34" x2="418.234222840521" y2="290" stroke="#211e18"/>
<text x="418.234222840521" y="308" fill="#7c756a" font-size="10" text-anchor="middle">24</text>
<line x1="539.645630454028" y1="34" x2="539.645630454028" y2="290" stroke="#211e18"/>
<text x="539.645630454028" y="308" fill="#7c756a" font-size="10" text-anchor="middle">32</text>
<line x1="54" y1="34" x2="54" y2="290" stroke="#5a544a" stroke-dasharray="3 3" opacity="0.8"/>
<text x="57" y="44" fill="#5a544a" font-size="9">fireRiser</text>
<line x1="54" y1="34" x2="54" y2="290" stroke="#5a544a" stroke-dasharray="3 3" opacity="0.8"/>
<text x="57" y="44" fill="#5a544a" font-size="9">fireShep</text>
<line x1="296.822815227014" y1="34" x2="296.822815227014" y2="290" stroke="#5a544a" stroke-dasharray="3 3" opacity="0.8"/>
<text x="299.822815227014" y="44" fill="#5a544a" font-size="9">killRiser</text>
<line x1="327.17566713039076" y1="34" x2="327.17566713039076" y2="290" stroke="#5a544a" stroke-dasharray="3 3" opacity="0.8"/>
<text x="330.17566713039076" y="44" fill="#5a544a" font-size="9">killShep</text>
<line x1="327.17566713039076" y1="34" x2="327.17566713039076" y2="290" stroke="#e3974a" stroke-dasharray="3 3" opacity="0.8"/>
<text x="330.17566713039076" y="44" fill="#e3974a" font-size="9">|step</text>
<line x1="327.1771847729859" y1="34" x2="327.1771847729859" y2="290" stroke="#e3974a" stroke-dasharray="3 3" opacity="0.8"/>
<text x="330.1771847729859" y="44" fill="#e3974a" font-size="9">|step</text>
<polyline points="54,290 54.316,289.999 54.632,289.996 54.949,289.99 55.265,289.983 55.581,289.973 55.897,289.961 56.213,289.948 56.529,289.931 56.846,289.913 57.162,289.893 57.478,289.87 57.794,289.846 58.11,289.819 58.426,289.79 58.743,289.759 59.059,289.726 59.375,289.691 59.691,289.653 60.007,289.614 60.324,289.572 60.64,289.528 60.956,289.482 61.272,289.434 61.588,289.384 61.904,289.331 62.221,289.277 62.537,289.22 62.853,289.161 63.169,289.1 63.485,289.037 63.801,288.972 64.118,288.905 64.434,288.836 64.75,288.764 65.066,288.69 65.382,288.615 65.698,288.537 66.015,288.457 66.331,288.375 66.647,288.29 66.963,288.204 67.279,288.116 67.596,288.025 67.912,287.932 68.228,287.838 68.544,287.741 68.86,287.642 69.176,287.541 69.493,287.437 69.809,287.332 70.125,287.225 70.441,287.115 70.757,287.004 71.073,286.89 71.39,286.774 71.706,286.656 72.022,286.536 72.338,286.414 72.654,286.29 72.971,286.164 73.287,286.036 73.603,285.905 73.919,285.773 74.235,285.639 74.551,285.502 74.868,285.363 75.184,285.223 75.5,285.08 75.816,284.935 76.132,284.788 76.448,284.639 76.765,284.488 77.081,284.335 77.397,284.18 77.713,284.023 78.029,283.864 78.346,283.703 78.662,283.54 78.978,283.374 79.294,283.207 79.61,283.038 79.926,282.866 80.243,282.693 80.559,282.518 80.875,282.34 81.191,282.161 81.507,281.979 81.823,281.796 82.14,281.611 82.456,281.423 82.772,281.234 83.088,281.042 83.404,280.849 83.721,280.653 84.037,280.456 84.353,280.257 84.669,280.055 84.985,279.852 85.301,279.647 85.618,279.439 85.934,279.23 86.25,279.019 86.566,278.806 86.882,278.591 87.198,278.374 87.515,278.154 87.831,277.934 88.147,277.711 88.463,277.486 88.779,277.259 89.095,277.03 89.412,276.8 89.728,276.567 90.044,276.333 90.36,276.096 90.676,275.858 90.993,275.618 91.309,275.376 91.625,275.132 91.941,274.886 92.257,274.638 92.573,274.389 92.89,274.137 93.206,273.884 93.522,273.628 93.838,273.371 94.154,273.112 94.47,272.851 94.787,272.589 95.103,272.324 95.419,272.058 95.735,271.789 96.051,271.519 96.368,271.247 96.684,270.973 97,270.698 97.316,270.42 97.632,270.141 97.948,269.86 98.265,269.577 98.581,269.293 98.897,269.006 99.213,268.718 99.529,268.428 99.845,268.136 100.162,267.843 100.478,267.547 100.794,267.25 101.11,266.951 101.426,266.651 101.743,266.348 102.059,266.044 102.375,265.739 102.691,265.431 103.007,265.122 103.323,264.811 103.64,264.498 103.956,264.183 104.272,263.867 104.588,263.549 104.904,263.23 105.22,262.908 105.537,262.585 105.853,262.261 106.169,261.934 106.485,261.606 106.801,261.277 107.117,260.945 107.434,260.612 107.75,260.278 108.066,259.941 108.382,259.603 108.698,259.264 109.015,258.923 109.331,258.58 109.647,258.235 109.963,257.889 110.279,257.542 110.595,257.193 110.912,256.842 111.228,256.489 111.544,256.135 111.86,255.78 112.176,255.423 112.492,255.064 112.809,254.704 113.125,254.342 113.441,253.978 113.757,253.614 114.073,253.247 114.39,252.879 114.706,252.51 115.022,252.139 115.338,251.766 115.654,251.392 115.97,251.017 116.287,250.64 116.603,250.261 116.919,249.881 117.235,249.5 117.551,249.117 117.867,248.733 118.184,248.347 118.5,247.96 118.816,247.571 119.132,247.181 119.448,246.789 119.765,246.396 120.081,246.002 120.397,245.606 120.713,245.209 121.029,244.81 121.345,244.41 121.662,244.009 121.978,243.606 122.294,243.202 122.61,242.797 122.926,242.39 123.242,241.982 123.559,241.573 123.875,241.162 124.191,240.75 124.507,240.336 124.823,239.921 125.139,239.505 125.456,239.088 125.772,238.669 126.088,238.25 126.404,237.828 126.72,237.406 127.037,236.982 127.353,236.557 127.669,236.131 127.985,235.703 128.301,235.275 128.617,234.845 128.934,234.414 129.25,233.981 129.566,233.548 129.882,233.113 130.198,232.677 130.514,232.24 130.831,231.802 131.147,231.362 131.463,230.921 131.779,230.48 132.095,230.037 132.412,229.593 132.728,229.147 133.044,228.701 133.36,228.254 133.676,227.805 133.992,227.355 134.309,226.905 134.625,226.453 134.941,226 135.257,225.546 135.573,225.091 135.889,224.635 136.206,224.178 136.522,223.72 136.838,223.26 137.154,222.8 137.47,222.339 137.787,221.877 138.103,221.413 138.419,220.949 138.735,220.484 139.051,220.017 139.367,219.55 139.684,219.082 140,218.613 140.316,218.143 140.632,217.672 140.948,217.2 141.264,216.727 141.581,216.253 141.897,215.779 142.213,215.303 142.529,214.826 142.845,214.349 143.162,213.871 143.478,213.392 143.794,212.912 144.11,212.431 144.426,211.949 144.742,211.467 145.059,210.983 145.375,210.499 145.691,210.014 146.007,209.529 146.323,209.042 146.639,208.555 146.956,208.067 147.272,207.578 147.588,207.088 147.904,206.598 148.22,206.106 148.536,205.615 148.853,205.122 149.169,204.629 149.485,204.134 149.801,203.64 150.117,203.144 150.434,202.648 150.75,202.151 151.066,201.654 151.382,201.156 151.698,200.657 152.014,200.157 152.331,199.657 152.647,199.156 152.963,198.655 153.279,198.153 153.595,197.651 153.911,197.147 154.228,196.644 154.544,196.139 154.86,195.634 155.176,195.129 155.492,194.623 155.809,194.116 156.125,193.609 156.441,193.101 156.757,192.593 157.073,192.085 157.389,191.575 157.706,191.066 158.022,190.556 158.338,190.045 158.654,189.534 158.97,189.022 159.286,188.51 159.603,187.998 159.919,187.485 160.235,186.972 160.551,186.458 160.867,185.944 161.184,185.429 161.5,184.914 161.816,184.399 162.132,183.883 162.448,183.367 162.764,182.851 163.081,182.334 163.397,181.817 163.713,181.299 164.029,180.782 164.345,180.263 164.661,179.745 164.978,179.226 165.294,178.707 165.61,178.188 165.926,177.669 166.242,177.149 166.558,176.629 166.875,176.108 167.191,175.588 167.507,175.067 167.823,174.546 168.139,174.025 168.456,173.504 168.772,172.982 169.088,172.46 169.404,171.938 169.72,171.416 170.036,170.894 170.353,170.372 170.669,169.849 170.985,169.326 171.301,168.804 171.617,168.281 171.933,167.758 172.25,167.235 172.566,166.711 172.882,166.188 173.198,165.665 173.514,165.141 173.831,164.618 174.147,164.094 174.463,163.571 174.779,163.047 175.095,162.524 175.411,162 175.728,161.476 176.044,160.953 176.36,160.429 176.676,159.906 176.992,159.382 177.308,158.859 177.625,158.335 177.941,157.812 178.257,157.289 178.573,156.765 178.889,156.242 179.206,155.719 179.522,155.196 179.838,154.674 180.154,154.151 180.47,153.628 180.786,153.106 181.103,152.584 181.419,152.062 181.735,151.54 182.051,151.018 182.367,150.496 182.683,149.975 183,149.454 183.316,148.933 183.632,148.412 183.948,147.892 184.264,147.371 184.58,146.851 184.897,146.331 185.213,145.812 185.529,145.293 185.845,144.774 186.161,144.255 186.478,143.737 186.794,143.218 187.11,142.701 187.426,142.183 187.742,141.666 188.058,141.149 188.375,140.633 188.691,140.117 189.007,139.601 189.323,139.086 189.639,138.571 189.955,138.056 190.272,137.542 190.588,137.028 190.904,136.515 191.22,136.002 191.536,135.49 191.853,134.978 192.169,134.466 192.485,133.955 192.801,133.444 193.117,132.934 193.433,132.425 193.75,131.915 194.066,131.407 194.382,130.899 194.698,130.391 195.014,129.884 195.33,129.377 195.647,128.871 195.963,128.366 196.279,127.861 196.595,127.356 196.911,126.853 197.228,126.349 197.544,125.847 197.86,125.345 198.176,124.844 198.492,124.343 198.808,123.843 199.125,123.343 199.441,122.844 199.757,122.346 200.073,121.849 200.389,121.352 200.705,120.856 201.022,120.36 201.338,119.866 201.654,119.371 201.97,118.878 202.286,118.385 202.603,117.894 202.919,117.402 203.235,116.912 203.551,116.422 203.867,115.933 204.183,115.445 204.5,114.958 204.816,114.471 205.132,113.986 205.448,113.501 205.764,113.017 206.08,112.533 206.397,112.051 206.713,111.569 207.029,111.088 207.345,110.608 207.661,110.129 207.977,109.651 208.294,109.174 208.61,108.697 208.926,108.221 209.242,107.747 209.558,107.273 209.875,106.8 210.191,106.328 210.507,105.857 210.823,105.387 211.139,104.918 211.455,104.45 211.772,103.983 212.088,103.516 212.404,103.051 212.72,102.587 213.036,102.123 213.352,101.661 213.669,101.2 213.985,100.74 214.301,100.28 214.617,99.822 214.933,99.365 215.25,98.909 215.566,98.454 215.882,98 216.198,97.547 216.514,97.095 216.83,96.645 217.147,96.195 217.463,95.746 217.779,95.299 218.095,94.853 218.411,94.407 218.727,93.963 219.044,93.52 219.36,93.079 219.676,92.638 219.992,92.198 220.308,91.76 220.625,91.323 220.941,90.887 221.257,90.452 221.573,90.019 221.889,89.586 222.205,89.155 222.522,88.725 222.838,88.297 223.154,87.869 223.47,87.443 223.786,87.018 224.102,86.594 224.419,86.172 224.735,85.75 225.051,85.331 225.367,84.912 225.683,84.495 225.999,84.079 226.316,83.664 226.632,83.25 226.948,82.838 227.264,82.427 227.58,82.018 227.897,81.61 228.213,81.203 228.529,80.798 228.845,80.394 229.161,79.991 229.477,79.59 229.794,79.19 230.11,78.791 230.426,78.394 230.742,77.998 231.058,77.604 231.374,77.211 231.691,76.819 232.007,76.429 232.323,76.04 232.639,75.653 232.955,75.267 233.272,74.883 233.588,74.5 233.904,74.119 234.22,73.739 234.536,73.36 234.852,72.983 235.169,72.608 235.485,72.234 235.801,71.861 236.117,71.49 236.433,71.121 236.749,70.753 237.066,70.386 237.382,70.022 237.698,69.658 238.014,69.296 238.33,68.936 238.647,68.577 238.963,68.22 239.279,67.865 239.595,67.511 239.911,67.158 240.227,66.807 240.544,66.458 240.86,66.111 241.176,65.765 241.492,65.42 241.808,65.077 242.124,64.736 242.441,64.397 242.757,64.059 243.073,63.722 243.389,63.388 243.705,63.055 244.021,62.723 244.338,62.394 244.654,62.066 244.97,61.739 245.286,61.415 245.602,61.092 245.919,60.77 246.235,60.451 246.551,60.133 246.867,59.817 247.183,59.502 247.499,59.189 247.816,58.878 248.132,58.569 248.448,58.261 248.764,57.956 249.08,57.652 249.396,57.349 249.713,57.049 250.029,56.75 250.345,56.453 250.661,56.157 250.977,55.864 251.294,55.572 251.61,55.282 251.926,54.994 252.242,54.707 252.558,54.423 252.874,54.14 253.191,53.859 253.507,53.58 253.823,53.302 254.139,53.027 254.455,52.753 254.771,52.481 255.088,52.211 255.404,51.942 255.72,51.676 256.036,51.411 256.352,51.149 256.669,50.888 256.985,50.629 257.301,50.372 257.617,50.116 257.933,49.863 258.249,49.611 258.566,49.362 258.882,49.114 259.198,48.868 259.514,48.624 259.83,48.382 260.146,48.142 260.463,47.904 260.779,47.667 261.095,47.433 261.411,47.2 261.727,46.97 262.044,46.741 262.36,46.514 262.676,46.289 262.992,46.066 263.308,45.846 263.624,45.626 263.941,45.409 264.257,45.194 264.573,44.981 264.889,44.77 265.205,44.561 265.521,44.353 265.838,44.148 266.154,43.945 266.47,43.743 266.786,43.544 267.102,43.347 267.418,43.151 267.735,42.958 268.051,42.766 268.367,42.577 268.683,42.389 268.999,42.204 269.316,42.021 269.632,41.839 269.948,41.66 270.264,41.482 270.58,41.307 270.896,41.134 271.213,40.962 271.529,40.793 271.845,40.626 272.161,40.46 272.477,40.297 272.793,40.136 273.11,39.977 273.426,39.82 273.742,39.665 274.058,39.512 274.374,39.361 274.691,39.212 275.007,39.065 275.323,38.92 275.639,38.777 275.955,38.637 276.271,38.498 276.588,38.361 276.904,38.227 277.22,38.095 277.536,37.964 277.852,37.836 278.168,37.71 278.485,37.586 278.801,37.464 279.117,37.344 279.433,37.226 279.749,37.11 280.066,36.996 280.382,36.885 280.698,36.775 281.014,36.668 281.33,36.563 281.646,36.459 281.963,36.358 282.279,36.259 282.595,36.162 282.911,36.068 283.227,35.975 283.543,35.884 283.86,35.796 284.176,35.71 284.492,35.625 284.808,35.543 285.124,35.463 285.44,35.385 285.757,35.31 286.073,35.236 286.389,35.164 286.705,35.095 287.021,35.028 287.338,34.963 287.654,34.9 287.97,34.839 288.286,34.78 288.602,34.723 288.918,34.669 289.235,34.616 289.551,34.566 289.867,34.518 290.183,34.472 290.499,34.428 290.815,34.386 291.132,34.347 291.448,34.309 291.764,34.274 292.08,34.241 292.396,34.21 292.713,34.181 293.029,34.154 293.345,34.13 293.661,34.107 293.977,34.087 294.293,34.069 294.61,34.052 294.926,34.039 295.242,34.027 295.558,34.017 295.874,34.01 296.19,34.004 296.507,34.001 296.823,34 297.139,290 297.455,290 297.771,290 298.088,290 298.404,290 298.72,290 299.036,290 299.352,290 299.668,290 299.985,290 300.301,290 300.617,290 300.933,290 301.249,290 301.565,290 301.882,290 302.198,290 302.514,290 302.83,290 303.146,290 303.463,290 303.779,290 304.095,290 304.411,290 304.727,290 305.043,290 305.36,290 305.676,290 305.992,290 306.308,290 306.624,290 306.94,290 307.257,290 307.573,290 307.889,290 308.205,290 308.521,290 308.837,290 309.154,290 309.47,290 309.786,290 310.102,290 310.418,290 310.735,290 311.051,290 311.367,290 311.683,290 311.999,290 312.315,290 312.632,290 312.948,290 313.264,290 313.58,290 313.896,290 314.212,290 314.529,290 314.845,290 315.161,290 315.477,290 315.793,290 316.11,290 316.426,290 316.742,290 317.058,290 317.374,290 317.69,290 318.007,290 318.323,290 318.639,290 318.955,290 319.271,290 319.587,290 319.904,290 320.22,290 320.536,290 320.852,290 321.168,290 321.485,290 321.801,290 322.117,290 322.433,290 322.749,290 323.065,290 323.382,290 323.698,290 324.014,290 324.33,290 324.646,290 324.962,290 325.279,290 325.595,290 325.911,290 326.227,290 326.543,290 326.859,290 327.176,290" fill="none" stroke="#c2622a" stroke-width="2" opacity="0.9"/>
<circle cx="296.822815227014" cy="290" r="3" fill="#fff"/>
<rect x="582" y="38" width="10" height="10" fill="#c2622a"/>
<text x="596" y="47" fill="#c9bfa9" font-size="10">KnobRiser</text>
<polyline points="54,290 54.316,289.999 54.632,289.996 54.949,289.99 55.265,289.983 55.581,289.973 55.897,289.961 56.213,289.948 56.529,289.931 56.846,289.913 57.162,289.893 57.478,289.87 57.794,289.846 58.11,289.819 58.426,289.79 58.743,289.759 59.059,289.726 59.375,289.691 59.691,289.653 60.007,289.614 60.324,289.572 60.64,289.528 60.956,289.482 61.272,289.434 61.588,289.384 61.904,289.331 62.221,289.277 62.537,289.22 62.853,289.161 63.169,289.1 63.485,289.037 63.801,288.972 64.118,288.905 64.434,288.836 64.75,288.764 65.066,288.69 65.382,288.615 65.698,288.537 66.015,288.457 66.331,288.375 66.647,288.29 66.963,288.204 67.279,288.116 67.596,288.025 67.912,287.932 68.228,287.838 68.544,287.741 68.86,287.642 69.176,287.541 69.493,287.437 69.809,287.332 70.125,287.225 70.441,287.115 70.757,287.004 71.073,286.89 71.39,286.774 71.706,286.656 72.022,286.536 72.338,286.414 72.654,286.29 72.971,286.164 73.287,286.036 73.603,285.905 73.919,285.773 74.235,285.639 74.551,285.502 74.868,285.363 75.184,285.223 75.5,285.08 75.816,284.935 76.132,284.788 76.448,284.639 76.765,284.488 77.081,284.335 77.397,284.18 77.713,284.023 78.029,283.864 78.346,283.703 78.662,283.54 78.978,283.374 79.294,283.207 79.61,283.038 79.926,282.866 80.243,282.693 80.559,282.518 80.875,282.34 81.191,282.161 81.507,281.979 81.823,281.796 82.14,281.611 82.456,281.423 82.772,281.234 83.088,281.042 83.404,280.849 83.721,280.653 84.037,280.456 84.353,280.257 84.669,280.055 84.985,279.852 85.301,279.647 85.618,279.439 85.934,279.23 86.25,279.019 86.566,278.806 86.882,278.591 87.198,278.374 87.515,278.154 87.831,277.934 88.147,277.711 88.463,277.486 88.779,277.259 89.095,277.03 89.412,276.8 89.728,276.567 90.044,276.333 90.36,276.096 90.676,275.858 90.993,275.618 91.309,275.376 91.625,275.132 91.941,274.886 92.257,274.638 92.573,274.389 92.89,274.137 93.206,273.884 93.522,273.628 93.838,273.371 94.154,273.112 94.47,272.851 94.787,272.589 95.103,272.324 95.419,272.058 95.735,271.789 96.051,271.519 96.368,271.247 96.684,270.973 97,270.698 97.316,270.42 97.632,270.141 97.948,269.86 98.265,269.577 98.581,269.293 98.897,269.006 99.213,268.718 99.529,268.428 99.845,268.136 100.162,267.843 100.478,267.547 100.794,267.25 101.11,266.951 101.426,266.651 101.743,266.348 102.059,266.044 102.375,265.739 102.691,265.431 103.007,265.122 103.323,264.811 103.64,264.498 103.956,264.183 104.272,263.867 104.588,263.549 104.904,263.23 105.22,262.908 105.537,262.585 105.853,262.261 106.169,261.934 106.485,261.606 106.801,261.277 107.117,260.945 107.434,260.612 107.75,260.278 108.066,259.941 108.382,259.603 108.698,259.264 109.015,258.923 109.331,258.58 109.647,258.235 109.963,257.889 110.279,257.542 110.595,257.193 110.912,256.842 111.228,256.489 111.544,256.135 111.86,255.78 112.176,255.423 112.492,255.064 112.809,254.704 113.125,254.342 113.441,253.978 113.757,253.614 114.073,253.247 114.39,252.879 114.706,252.51 115.022,252.139 115.338,251.766 115.654,251.392 115.97,251.017 116.287,250.64 116.603,250.261 116.919,249.881 117.235,249.5 117.551,249.117 117.867,248.733 118.184,248.347 118.5,247.96 118.816,247.571 119.132,247.181 119.448,246.789 119.765,246.396 120.081,246.002 120.397,245.606 120.713,245.209 121.029,244.81 121.345,244.41 121.662,244.009 121.978,243.606 122.294,243.202 122.61,242.797 122.926,242.39 123.242,241.982 123.559,241.573 123.875,241.162 124.191,240.75 124.507,240.336 124.823,239.921 125.139,239.505 125.456,239.088 125.772,238.669 126.088,238.25 126.404,237.828 126.72,237.406 127.037,236.982 127.353,236.557 127.669,236.131 127.985,235.703 128.301,235.275 128.617,234.845 128.934,234.414 129.25,233.981 129.566,233.548 129.882,233.113 130.198,232.677 130.514,232.24 130.831,231.802 131.147,231.362 131.463,230.921 131.779,230.48 132.095,230.037 132.412,229.593 132.728,229.147 133.044,228.701 133.36,228.254 133.676,227.805 133.992,227.355 134.309,226.905 134.625,226.453 134.941,226 135.257,225.546 135.573,225.091 135.889,224.635 136.206,224.178 136.522,223.72 136.838,223.26 137.154,222.8 137.47,222.339 137.787,221.877 138.103,221.413 138.419,220.949 138.735,220.484 139.051,220.017 139.367,219.55 139.684,219.082 140,218.613 140.316,218.143 140.632,217.672 140.948,217.2 141.264,216.727 141.581,216.253 141.897,215.779 142.213,215.303 142.529,214.826 142.845,214.349 143.162,213.871 143.478,213.392 143.794,212.912 144.11,212.431 144.426,211.949 144.742,211.467 145.059,210.983 145.375,210.499 145.691,210.014 146.007,209.529 146.323,209.042 146.639,208.555 146.956,208.067 147.272,207.578 147.588,207.088 147.904,206.598 148.22,206.106 148.536,205.615 148.853,205.122 149.169,204.629 149.485,204.134 149.801,203.64 150.117,203.144 150.434,202.648 150.75,202.151 151.066,201.654 151.382,201.156 151.698,200.657 152.014,200.157 152.331,199.657 152.647,199.156 152.963,198.655 153.279,198.153 153.595,197.651 153.911,197.147 154.228,196.644 154.544,196.139 154.86,195.634 155.176,195.129 155.492,194.623 155.809,194.116 156.125,193.609 156.441,193.101 156.757,192.593 157.073,192.085 157.389,191.575 157.706,191.066 158.022,190.556 158.338,190.045 158.654,189.534 158.97,189.022 159.286,188.51 159.603,187.998 159.919,187.485 160.235,186.972 160.551,186.458 160.867,185.944 161.184,185.429 161.5,184.914 161.816,184.399 162.132,183.883 162.448,183.367 162.764,182.851 163.081,182.334 163.397,181.817 163.713,181.299 164.029,180.782 164.345,180.263 164.661,179.745 164.978,179.226 165.294,178.707 165.61,178.188 165.926,177.669 166.242,177.149 166.558,176.629 166.875,176.108 167.191,175.588 167.507,175.067 167.823,174.546 168.139,174.025 168.456,173.504 168.772,172.982 169.088,172.46 169.404,171.938 169.72,171.416 170.036,170.894 170.353,170.372 170.669,169.849 170.985,169.326 171.301,168.804 171.617,168.281 171.933,167.758 172.25,167.235 172.566,166.711 172.882,166.188 173.198,165.665 173.514,165.141 173.831,164.618 174.147,164.094 174.463,163.571 174.779,163.047 175.095,162.524 175.411,162 175.728,161.476 176.044,160.953 176.36,160.429 176.676,159.906 176.992,159.382 177.308,158.859 177.625,158.335 177.941,157.812 178.257,157.289 178.573,156.765 178.889,156.242 179.206,155.719 179.522,155.196 179.838,154.674 180.154,154.151 180.47,153.628 180.786,153.106 181.103,152.584 181.419,152.062 181.735,151.54 182.051,151.018 182.367,150.496 182.683,149.975 183,149.454 183.316,148.933 183.632,148.412 183.948,147.892 184.264,147.371 184.58,146.851 184.897,146.331 185.213,145.812 185.529,145.293 185.845,144.774 186.161,144.255 186.478,143.737 186.794,143.218 187.11,142.701 187.426,142.183 187.742,141.666 188.058,141.149 188.375,140.633 188.691,140.117 189.007,139.601 189.323,139.086 189.639,138.571 189.955,138.056 190.272,137.542 190.588,137.028 190.904,136.515 191.22,136.002 191.536,135.49 191.853,134.978 192.169,134.466 192.485,133.955 192.801,133.444 193.117,132.934 193.433,132.425 193.75,131.915 194.066,131.407 194.382,130.899 194.698,130.391 195.014,129.884 195.33,129.377 195.647,128.871 195.963,128.366 196.279,127.861 196.595,127.356 196.911,126.853 197.228,126.349 197.544,125.847 197.86,125.345 198.176,124.844 198.492,124.343 198.808,123.843 199.125,123.343 199.441,122.844 199.757,122.346 200.073,121.849 200.389,121.352 200.705,120.856 201.022,120.36 201.338,119.866 201.654,119.371 201.97,118.878 202.286,118.385 202.603,117.894 202.919,117.402 203.235,116.912 203.551,116.422 203.867,115.933 204.183,115.445 204.5,114.958 204.816,114.471 205.132,113.986 205.448,113.501 205.764,113.017 206.08,112.533 206.397,112.051 206.713,111.569 207.029,111.088 207.345,110.608 207.661,110.129 207.977,109.651 208.294,109.174 208.61,108.697 208.926,108.221 209.242,107.747 209.558,107.273 209.875,106.8 210.191,106.328 210.507,105.857 210.823,105.387 211.139,104.918 211.455,104.45 211.772,103.983 212.088,103.516 212.404,103.051 212.72,102.587 213.036,102.123 213.352,101.661 213.669,101.2 213.985,100.74 214.301,100.28 214.617,99.822 214.933,99.365 215.25,98.909 215.566,98.454 215.882,98 216.198,97.547 216.514,97.095 216.83,96.645 217.147,96.195 217.463,95.746 217.779,95.299 218.095,94.853 218.411,94.407 218.727,93.963 219.044,93.52 219.36,93.079 219.676,92.638 219.992,92.198 220.308,91.76 220.625,91.323 220.941,90.887 221.257,90.452 221.573,90.019 221.889,89.586 222.205,89.155 222.522,88.725 222.838,88.297 223.154,87.869 223.47,87.443 223.786,87.018 224.102,86.594 224.419,86.172 224.735,85.75 225.051,85.331 225.367,84.912 225.683,84.495 225.999,84.079 226.316,83.664 226.632,83.25 226.948,82.838 227.264,82.427 227.58,82.018 227.897,81.61 228.213,81.203 228.529,80.798 228.845,80.394 229.161,79.991 229.477,79.59 229.794,79.19 230.11,78.791 230.426,78.394 230.742,77.998 231.058,77.604 231.374,77.211 231.691,76.819 232.007,76.429 232.323,76.04 232.639,75.653 232.955,75.267 233.272,74.883 233.588,74.5 233.904,74.119 234.22,73.739 234.536,73.36 234.852,72.983 235.169,72.608 235.485,72.234 235.801,71.861 236.117,71.49 236.433,71.121 236.749,70.753 237.066,70.386 237.382,70.022 237.698,69.658 238.014,69.296 238.33,68.936 238.647,68.577 238.963,68.22 239.279,67.865 239.595,67.511 239.911,67.158 240.227,66.807 240.544,66.458 240.86,66.111 241.176,65.765 241.492,65.42 241.808,65.077 242.124,64.736 242.441,64.397 242.757,64.059 243.073,63.722 243.389,63.388 243.705,63.055 244.021,62.723 244.338,62.394 244.654,62.066 244.97,61.739 245.286,61.415 245.602,61.092 245.919,60.77 246.235,60.451 246.551,60.133 246.867,59.817 247.183,59.502 247.499,59.189 247.816,58.878 248.132,58.569 248.448,58.261 248.764,57.956 249.08,57.652 249.396,57.349 249.713,57.049 250.029,56.75 250.345,56.453 250.661,56.157 250.977,55.864 251.294,55.572 251.61,55.282 251.926,54.994 252.242,54.707 252.558,54.423 252.874,54.14 253.191,53.859 253.507,53.58 253.823,53.302 254.139,53.027 254.455,52.753 254.771,52.481 255.088,52.211 255.404,51.942 255.72,51.676 256.036,51.411 256.352,51.149 256.669,50.888 256.985,50.629 257.301,50.372 257.617,50.116 257.933,49.863 258.249,49.611 258.566,49.362 258.882,49.114 259.198,48.868 259.514,48.624 259.83,48.382 260.146,48.142 260.463,47.904 260.779,47.667 261.095,47.433 261.411,47.2 261.727,46.97 262.044,46.741 262.36,46.514 262.676,46.289 262.992,46.066 263.308,45.846 263.624,45.626 263.941,45.409 264.257,45.194 264.573,44.981 264.889,44.77 265.205,44.561 265.521,44.353 265.838,44.148 266.154,43.945 266.47,43.743 266.786,43.544 267.102,43.347 267.418,43.151 267.735,42.958 268.051,42.766 268.367,42.577 268.683,42.389 268.999,42.204 269.316,42.021 269.632,41.839 269.948,41.66 270.264,41.482 270.58,41.307 270.896,41.134 271.213,40.962 271.529,40.793 271.845,40.626 272.161,40.46 272.477,40.297 272.793,40.136 273.11,39.977 273.426,39.82 273.742,39.665 274.058,39.512 274.374,39.361 274.691,39.212 275.007,39.065 275.323,38.92 275.639,38.777 275.955,38.637 276.271,38.498 276.588,38.361 276.904,38.227 277.22,38.095 277.536,37.964 277.852,37.836 278.168,37.71 278.485,37.586 278.801,37.464 279.117,37.344 279.433,37.226 279.749,37.11 280.066,36.996 280.382,36.885 280.698,36.775 281.014,36.668 281.33,36.563 281.646,36.459 281.963,36.358 282.279,36.259 282.595,36.162 282.911,36.068 283.227,35.975 283.543,35.884 283.86,35.796 284.176,35.71 284.492,35.625 284.808,35.543 285.124,35.463 285.44,35.385 285.757,35.31 286.073,35.236 286.389,35.164 286.705,35.095 287.021,35.028 287.338,34.963 287.654,34.9 287.97,34.839 288.286,34.78 288.602,34.723 288.918,34.669 289.235,34.616 289.551,34.566 289.867,34.518 290.183,34.472 290.499,34.428 290.815,34.386 291.132,34.347 291.448,34.309 291.764,34.274 292.08,34.241 292.396,34.21 292.713,34.181 293.029,34.154 293.345,34.13 293.661,34.107 293.977,34.087 294.293,34.069 294.61,34.052 294.926,34.039 295.242,34.027 295.558,34.017 295.874,34.01 296.19,34.004 296.507,34.001 296.823,34 297.139,34.069 297.455,34.274 297.771,34.616 298.088,35.095 298.404,35.71 298.72,36.459 299.036,37.344 299.352,38.361 299.668,39.512 299.985,40.793 300.301,42.204 300.617,43.743 300.933,45.409 301.249,47.2 301.565,49.114 301.882,51.149 302.198,53.302 302.514,55.572 302.83,57.956 303.146,60.451 303.463,63.055 303.779,65.765 304.095,68.577 304.411,71.49 304.727,74.5 305.043,77.604 305.36,80.798 305.676,84.079 305.992,87.443 306.308,90.887 306.624,94.407 306.94,98 307.257,101.661 307.573,105.387 307.889,109.174 308.205,113.017 308.521,116.912 308.837,120.856 309.154,124.844 309.47,128.871 309.786,132.934 310.102,137.028 310.418,141.149 310.735,145.293 311.051,149.454 311.367,153.628 311.683,157.812 311.999,162 312.315,166.188 312.632,170.372 312.948,174.546 313.264,178.707 313.58,182.851 313.896,186.972 314.212,191.066 314.529,195.129 314.845,199.156 315.161,203.144 315.477,207.088 315.793,210.983 316.11,214.826 316.426,218.613 316.742,222.339 317.058,226 317.374,229.593 317.69,233.113 318.007,236.557 318.323,239.921 318.639,243.202 318.955,246.396 319.271,249.5 319.587,252.51 319.904,255.423 320.22,258.235 320.536,260.945 320.852,263.549 321.168,266.044 321.485,268.428 321.801,270.698 322.117,272.851 322.433,274.886 322.749,276.8 323.065,278.591 323.382,280.257 323.698,281.796 324.014,283.207 324.33,284.488 324.646,285.639 324.962,286.656 325.279,287.541 325.595,288.29 325.911,288.905 326.227,289.384 326.543,289.726 326.859,289.931 327.176,290" fill="none" stroke="#2bb3a3" stroke-width="2" opacity="0.9"/>
<rect x="582" y="53" width="10" height="10" fill="#2bb3a3"/>
<text x="596" y="62" fill="#c9bfa9" font-size="10">Shep Output</text>
<polyline points="327.177,72.4 327.493,72.401 327.81,72.404 328.126,72.408 328.442,72.415 328.758,72.423 329.074,72.433 329.39,72.445 329.707,72.458 330.023,72.474 330.339,72.491 330.655,72.51 330.971,72.531 331.287,72.554 331.604,72.578 331.92,72.605 332.236,72.633 332.552,72.663 332.868,72.695 333.185,72.728 333.501,72.764 333.817,72.801 334.133,72.84 334.449,72.881 334.765,72.924 335.082,72.968 335.398,73.015 335.714,73.063 336.03,73.113 336.346,73.165 336.662,73.218 336.979,73.274 337.295,73.331 337.611,73.39 337.927,73.451 338.243,73.513 338.56,73.578 338.876,73.644 339.192,73.712 339.508,73.782 339.824,73.853 340.14,73.927 340.457,74.002 340.773,74.079 341.089,74.158 341.405,74.238 341.721,74.32 342.037,74.405 342.354,74.491 342.67,74.578 342.986,74.668 343.302,74.759 343.618,74.852 343.934,74.947 344.251,75.044 344.567,75.142 344.883,75.242 345.199,75.344 345.515,75.448 345.832,75.553 346.148,75.661 346.464,75.77 346.78,75.88 347.096,75.993 347.412,76.107 347.729,76.223 348.045,76.341 348.361,76.461 348.677,76.582 348.993,76.705 349.309,76.83 349.626,76.957 349.942,77.085 350.258,77.215 350.574,77.347 350.89,77.48 351.207,77.616 351.523,77.753 351.839,77.891 352.155,78.032 352.471,78.174 352.787,78.318 353.104,78.464 353.42,78.611 353.736,78.76 354.052,78.911 354.368,79.063 354.684,79.218 355.001,79.373 355.317,79.531 355.633,79.69 355.949,79.851 356.265,80.014 356.582,80.179 356.898,80.345 357.214,80.512 357.53,80.682 357.846,80.853 358.162,81.026 358.479,81.2 358.795,81.377 359.111,81.554 359.427,81.734 359.743,81.915 360.059,82.098 360.376,82.283 360.692,82.469 361.008,82.657 361.324,82.846 361.64,83.037 361.956,83.23 362.273,83.424 362.589,83.62 362.905,83.818 363.221,84.017 363.537,84.218 363.854,84.421 364.17,84.625 364.486,84.831 364.802,85.038 365.118,85.247 365.434,85.458 365.751,85.67 366.067,85.884 366.383,86.099 366.699,86.316 367.015,86.535 367.331,86.755 367.648,86.976 367.964,87.2 368.28,87.425 368.596,87.651 368.912,87.879 369.229,88.109 369.545,88.34 369.861,88.573 370.177,88.807 370.493,89.043 370.809,89.28 371.126,89.519 371.442,89.759 371.758,90.001 372.074,90.245 372.39,90.49 372.706,90.736 373.023,90.984 373.339,91.234 373.655,91.485 373.971,91.737 374.287,91.991 374.604,92.247 374.92,92.504 375.236,92.762 375.552,93.022 375.868,93.284 376.184,93.547 376.501,93.811 376.817,94.077 377.133,94.344 377.449,94.613 377.765,94.883 378.081,95.155 378.398,95.428 378.714,95.702 379.03,95.978 379.346,96.256 379.662,96.535 379.979,96.815 380.295,97.096 380.611,97.38 380.927,97.664 381.243,97.95 381.559,98.237 381.876,98.526 382.192,98.816 382.508,99.107 382.824,99.4 383.14,99.694 383.456,99.989 383.773,100.286 384.089,100.585 384.405,100.884 384.721,101.185 385.037,101.487 385.353,101.791 385.67,102.096 385.986,102.402 386.302,102.709 386.618,103.018 386.934,103.328 387.251,103.64 387.567,103.953 387.883,104.267 388.199,104.582 388.515,104.899 388.831,105.217 389.148,105.536 389.464,105.856 389.78,106.178 390.096,106.501 390.412,106.825 390.728,107.151 391.045,107.477 391.361,107.805 391.677,108.134 391.993,108.465 392.309,108.796 392.626,109.129 392.942,109.463 393.258,109.798 393.574,110.135 393.89,110.472 394.206,110.811 394.523,111.151 394.839,111.492 395.155,111.835 395.471,112.178 395.787,112.523 396.103,112.868 396.42,113.215 396.736,113.563 397.052,113.913 397.368,114.263 397.684,114.614 398.001,114.967 398.317,115.32 398.633,115.675 398.949,116.031 399.265,116.388 399.581,116.746 399.898,117.105 400.214,117.465 400.53,117.826 400.846,118.189 401.162,118.552 401.478,118.916 401.795,119.282 402.111,119.648 402.427,120.016 402.743,120.384 403.059,120.754 403.375,121.125 403.692,121.496 404.008,121.869 404.324,122.242 404.64,122.617 404.956,122.992 405.273,123.369 405.589,123.746 405.905,124.125 406.221,124.504 406.537,124.884 406.853,125.266 407.17,125.648 407.486,126.031 407.802,126.415 408.118,126.8 408.434,127.186 408.75,127.573 409.067,127.96 409.383,128.349 409.699,128.738 410.015,129.129 410.331,129.52 410.648,129.912 410.964,130.305 411.28,130.699 411.596,131.093 411.912,131.489 412.228,131.885 412.545,132.282 412.861,132.68 413.177,133.079 413.493,133.479 413.809,133.879 414.125,134.28 414.442,134.682 414.758,135.085 415.074,135.488 415.39,135.892 415.706,136.297 416.023,136.703 416.339,137.11 416.655,137.517 416.971,137.925 417.287,138.334 417.603,138.743 417.92,139.153 418.236,139.564 418.552,139.976 418.868,140.388 419.184,140.801 419.5,141.214 419.817,141.629 420.133,142.043 420.449,142.459 420.765,142.875 421.081,143.292 421.397,143.71 421.714,144.128 422.03,144.546 422.346,144.966 422.662,145.386 422.978,145.806 423.295,146.227 423.611,146.649 423.927,147.071 424.243,147.494 424.559,147.918 424.875,148.342 425.192,148.766 425.508,149.191 425.824,149.617 426.14,150.043 426.456,150.47 426.772,150.897 427.089,151.325 427.405,151.753 427.721,152.182 428.037,152.611 428.353,153.04 428.67,153.471 428.986,153.901 429.302,154.332 429.618,154.764 429.934,155.196 430.25,155.628 430.567,156.061 430.883,156.494 431.199,156.928 431.515,157.362 431.831,157.796 432.147,158.231 432.464,158.666 432.78,159.102 433.096,159.538 433.412,159.974 433.728,160.411 434.045,160.848 434.361,161.285 434.677,161.723 434.993,162.161 435.309,162.599 435.625,163.038 435.942,163.477 436.258,163.916 436.574,164.356 436.89,164.796 437.206,165.236 437.522,165.676 437.839,166.117 438.155,166.558 438.471,166.999 438.787,167.44 439.103,167.882 439.42,168.324 439.736,168.766 440.052,169.208 440.368,169.65 440.684,170.093 441,170.536 441.317,170.979 441.633,171.422 441.949,171.865 442.265,172.309 442.581,172.752 442.897,173.196 443.214,173.64 443.53,174.084 443.846,174.528 444.162,174.973 444.478,175.417 444.794,175.861 445.111,176.306 445.427,176.751 445.743,177.195 446.059,177.64 446.375,178.085 446.692,178.53 447.008,178.975 447.324,179.42 447.64,179.865 447.956,180.31 448.272,180.755 448.589,181.2 448.905,181.645 449.221,182.09 449.537,182.535 449.853,182.98 450.169,183.425 450.486,183.87 450.802,184.315 451.118,184.76 451.434,185.205 451.75,185.649 452.067,186.094 452.383,186.539 452.699,186.983 453.015,187.427 453.331,187.872 453.647,188.316 453.964,188.76 454.28,189.204 454.596,189.648 454.912,190.091 455.228,190.535 455.544,190.978 455.861,191.421 456.177,191.864 456.493,192.307 456.809,192.75 457.125,193.192 457.442,193.634 457.758,194.076 458.074,194.518 458.39,194.96 458.706,195.401 459.022,195.842 459.339,196.283 459.655,196.724 459.971,197.164 460.287,197.604 460.603,198.044 460.919,198.484 461.236,198.923 461.552,199.362 461.868,199.801 462.184,200.239 462.5,200.677 462.816,201.115 463.133,201.552 463.449,201.989 463.765,202.426 464.081,202.862 464.397,203.298 464.714,203.734 465.03,204.169 465.346,204.604 465.662,205.038 465.978,205.472 466.294,205.906 466.611,206.339 466.927,206.772 467.243,207.204 467.559,207.636 467.875,208.068 468.191,208.499 468.508,208.929 468.824,209.36 469.14,209.789 469.456,210.218 469.772,210.647 470.089,211.075 470.405,211.503 470.721,211.93 471.037,212.357 471.353,212.783 471.669,213.209 471.986,213.634 472.302,214.058 472.618,214.482 472.934,214.906 473.25,215.329 473.566,215.751 473.883,216.173 474.199,216.594 474.515,217.014 474.831,217.434 475.147,217.854 475.464,218.272 475.78,218.69 476.096,219.108 476.412,219.525 476.728,219.941 477.044,220.357 477.361,220.771 477.677,221.186 477.993,221.599 478.309,222.012 478.625,222.424 478.941,222.836 479.258,223.247 479.574,223.657 479.89,224.066 480.206,224.475 480.522,224.883 480.838,225.29 481.155,225.697 481.471,226.103 481.787,226.508 482.103,226.912 482.419,227.315 482.736,227.718 483.052,228.12 483.368,228.521 483.684,228.921 484,229.321 484.316,229.72 484.633,230.118 484.949,230.515 485.265,230.911 485.581,231.307 485.897,231.701 486.213,232.095 486.53,232.488 486.846,232.88 487.162,233.271 487.478,233.662 487.794,234.051 488.111,234.44 488.427,234.827 488.743,235.214 489.059,235.6 489.375,235.985 489.691,236.369 490.008,236.752 490.324,237.134 490.64,237.516 490.956,237.896 491.272,238.275 491.588,238.654 491.905,239.031 492.221,239.408 492.537,239.783 492.853,240.158 493.169,240.531 493.486,240.904 493.802,241.275 494.118,241.646 494.434,242.016 494.75,242.384 495.066,242.752 495.383,243.118 495.699,243.484 496.015,243.848 496.331,244.211 496.647,244.574 496.963,244.935 497.28,245.295 497.596,245.654 497.912,246.012 498.228,246.369 498.544,246.725 498.861,247.08 499.177,247.433 499.493,247.786 499.809,248.137 500.125,248.487 500.441,248.837 500.758,249.185 501.074,249.532 501.39,249.877 501.706,250.222 502.022,250.565 502.338,250.908 502.655,251.249 502.971,251.589 503.287,251.928 503.603,252.265 503.919,252.602 504.235,252.937 504.552,253.271 504.868,253.604 505.184,253.935 505.5,254.266 505.816,254.595 506.133,254.923 506.449,255.249 506.765,255.575 507.081,255.899 507.397,256.222 507.713,256.544 508.03,256.864 508.346,257.183 508.662,257.501 508.978,257.818 509.294,258.133 509.61,258.447 509.927,258.76 510.243,259.072 510.559,259.382 510.875,259.691 511.191,259.998 511.508,260.304 511.824,260.609 512.14,260.913 512.456,261.215 512.772,261.516 513.088,261.815 513.405,262.114 513.721,262.411 514.037,262.706 514.353,263 514.669,263.293 514.985,263.584 515.302,263.874 515.618,264.163 515.934,264.45 516.25,264.736 516.566,265.02 516.883,265.304 517.199,265.585 517.515,265.865 517.831,266.144 518.147,266.422 518.463,266.698 518.78,266.972 519.096,267.245 519.412,267.517 519.728,267.787 520.044,268.056 520.36,268.323 520.677,268.589 520.993,268.853 521.309,269.116 521.625,269.378 521.941,269.638 522.257,269.896 522.574,270.153 522.89,270.409 523.206,270.663 523.522,270.915 523.838,271.166 524.155,271.416 524.471,271.664 524.787,271.91 525.103,272.155 525.419,272.399 525.735,272.641 526.052,272.881 526.368,273.12 526.684,273.357 527,273.593 527.316,273.827 527.632,274.06 527.949,274.291 528.265,274.521 528.581,274.749 528.897,274.975 529.213,275.2 529.53,275.424 529.846,275.645 530.162,275.865 530.478,276.084 530.794,276.301 531.11,276.516 531.427,276.73 531.743,276.942 532.059,277.153 532.375,277.362 532.691,277.569 533.007,277.775 533.324,277.979 533.64,278.182 533.956,278.383 534.272,278.582 534.588,278.78 534.905,278.976 535.221,279.17 535.537,279.363 535.853,279.554 536.169,279.743 536.485,279.931 536.802,280.117 537.118,280.302 537.434,280.485 537.75,280.666 538.066,280.846 538.382,281.023 538.699,281.2 539.015,281.374 539.331,281.547 539.647,281.718 539.963,281.888 540.279,282.055 540.596,282.221 540.912,282.386 541.228,282.549 541.544,282.71 541.86,282.869 542.177,283.027 542.493,283.182 542.809,283.337 543.125,283.489 543.441,283.64 543.757,283.789 544.074,283.936 544.39,284.082 544.706,284.226 545.022,284.368 545.338,284.509 545.654,284.647 545.971,284.784 546.287,284.92 546.603,285.053 546.919,285.185 547.235,285.315 547.552,285.443 547.868,285.57 548.184,285.695 548.5,285.818 548.816,285.939 549.132,286.059 549.449,286.177 549.765,286.293 550.081,286.407 550.397,286.52 550.713,286.63 551.029,286.739 551.346,286.847 551.662,286.952 551.978,287.056 552.294,287.158 552.61,287.258 552.927,287.356 553.243,287.453 553.559,287.548 553.875,287.641 554.191,287.732 554.507,287.822 554.824,287.909 555.14,287.995 555.456,288.08 555.772,288.162 556.088,288.242 556.404,288.321 556.721,288.398 557.037,288.473 557.353,288.547 557.669,288.618 557.985,288.688 558.302,288.756 558.618,288.822 558.934,288.887 559.25,288.949 559.566,289.01 559.882,289.069 560.199,289.126 560.515,289.182 560.831,289.235 561.147,289.287 561.463,289.337 561.779,289.385 562.096,289.432 562.412,289.476 562.728,289.519 563.044,289.56 563.36,289.599 563.676,289.636 563.993,289.672 564.309,289.705 564.625,289.737 564.941,289.767 565.257,289.795 565.574,289.822 565.89,289.846 566.206,289.869 566.522,289.89 566.838,289.909 567.154,289.926 567.471,289.942 567.787,289.955 568.103,289.967 568.419,289.977 568.735,289.985 569.051,289.992 569.368,289.996 569.684,289.999 570,290" fill="none" stroke="#8a6bd6" stroke-width="2" opacity="0.9"/>
<circle cx="327.1771847729859" cy="72.40000209729092" r="3" fill="#fff"/>
<rect x="582" y="68" width="10" height="10" fill="#8a6bd6"/>
<text x="596" y="77" fill="#c9bfa9" font-size="10">macro LPF</text>
<polyline points="327.177,264.4 327.493,264.4 327.81,264.399 328.126,264.398 328.442,264.397 328.758,264.395 329.074,264.393 329.39,264.391 329.707,264.388 330.023,264.385 330.339,264.381 330.655,264.377 330.971,264.373 331.287,264.368 331.604,264.363 331.92,264.357 332.236,264.351 332.552,264.345 332.868,264.338 333.185,264.331 333.501,264.324 333.817,264.316 334.133,264.308 334.449,264.299 334.765,264.29 335.082,264.281 335.398,264.272 335.714,264.261 336.03,264.251 336.346,264.24 336.662,264.229 336.979,264.217 337.295,264.206 337.611,264.193 337.927,264.181 338.243,264.167 338.56,264.154 338.876,264.14 339.192,264.126 339.508,264.112 339.824,264.097 340.14,264.081 340.457,264.066 340.773,264.05 341.089,264.033 341.405,264.016 341.721,263.999 342.037,263.982 342.354,263.964 342.67,263.946 342.986,263.927 343.302,263.908 343.618,263.889 343.934,263.869 344.251,263.849 344.567,263.828 344.883,263.808 345.199,263.786 345.515,263.765 345.832,263.743 346.148,263.721 346.464,263.698 346.78,263.675 347.096,263.652 347.412,263.628 347.729,263.604 348.045,263.58 348.361,263.555 348.677,263.53 348.993,263.504 349.309,263.478 349.626,263.452 349.942,263.426 350.258,263.399 350.574,263.372 350.89,263.344 351.207,263.316 351.523,263.288 351.839,263.259 352.155,263.23 352.471,263.201 352.787,263.171 353.104,263.141 353.42,263.111 353.736,263.08 354.052,263.049 354.368,263.018 354.684,262.986 355.001,262.954 355.317,262.921 355.633,262.889 355.949,262.856 356.265,262.822 356.582,262.788 356.898,262.754 357.214,262.72 357.53,262.685 357.846,262.65 358.162,262.615 358.479,262.579 358.795,262.543 359.111,262.506 359.427,262.47 359.743,262.433 360.059,262.395 360.376,262.358 360.692,262.32 361.008,262.281 361.324,262.243 361.64,262.204 361.956,262.165 362.273,262.125 362.589,262.085 362.905,262.045 363.221,262.004 363.537,261.964 363.854,261.922 364.17,261.881 364.486,261.839 364.802,261.797 365.118,261.755 365.434,261.712 365.751,261.669 366.067,261.626 366.383,261.583 366.699,261.539 367.015,261.495 367.331,261.45 367.648,261.405 367.964,261.36 368.28,261.315 368.596,261.269 368.912,261.224 369.229,261.177 369.545,261.131 369.861,261.084 370.177,261.037 370.493,260.99 370.809,260.942 371.126,260.894 371.442,260.846 371.758,260.798 372.074,260.749 372.39,260.7 372.706,260.651 373.023,260.601 373.339,260.552 373.655,260.502 373.971,260.451 374.287,260.401 374.604,260.35 374.92,260.299 375.236,260.248 375.552,260.196 375.868,260.144 376.184,260.092 376.501,260.04 376.817,259.987 377.133,259.934 377.449,259.881 377.765,259.828 378.081,259.774 378.398,259.72 378.714,259.666 379.03,259.612 379.346,259.557 379.662,259.502 379.979,259.447 380.295,259.392 380.611,259.337 380.927,259.281 381.243,259.225 381.559,259.169 381.876,259.112 382.192,259.056 382.508,258.999 382.824,258.942 383.14,258.884 383.456,258.827 383.773,258.769 384.089,258.711 384.405,258.653 384.721,258.595 385.037,258.536 385.353,258.477 385.67,258.418 385.986,258.359 386.302,258.3 386.618,258.24 386.934,258.181 387.251,258.121 387.567,258.06 387.883,258 388.199,257.939 388.515,257.879 388.831,257.818 389.148,257.757 389.464,257.695 389.78,257.634 390.096,257.572 390.412,257.51 390.728,257.448 391.045,257.386 391.361,257.324 391.677,257.261 391.993,257.199 392.309,257.136 392.626,257.073 392.942,257.01 393.258,256.946 393.574,256.883 393.89,256.819 394.206,256.755 394.523,256.691 394.839,256.627 395.155,256.563 395.471,256.498 395.787,256.434 396.103,256.369 396.42,256.304 396.736,256.239 397.052,256.174 397.368,256.109 397.684,256.043 398.001,255.978 398.317,255.912 398.633,255.846 398.949,255.78 399.265,255.714 399.581,255.648 399.898,255.582 400.214,255.516 400.53,255.449 400.846,255.382 401.162,255.316 401.478,255.249 401.795,255.182 402.111,255.115 402.427,255.048 402.743,254.98 403.059,254.913 403.375,254.845 403.692,254.778 404.008,254.71 404.324,254.642 404.64,254.575 404.956,254.507 405.273,254.439 405.589,254.37 405.905,254.302 406.221,254.234 406.537,254.166 406.853,254.097 407.17,254.029 407.486,253.96 407.802,253.891 408.118,253.823 408.434,253.754 408.75,253.685 409.067,253.616 409.383,253.547 409.699,253.478 410.015,253.409 410.331,253.34 410.648,253.271 410.964,253.201 411.28,253.132 411.596,253.063 411.912,252.993 412.228,252.924 412.545,252.855 412.861,252.785 413.177,252.716 413.493,252.646 413.809,252.576 414.125,252.507 414.442,252.437 414.758,252.367 415.074,252.298 415.39,252.228 415.706,252.158 416.023,252.089 416.339,252.019 416.655,251.949 416.971,251.879 417.287,251.809 417.603,251.74 417.92,251.67 418.236,251.6 418.552,251.53 418.868,251.46 419.184,251.391 419.5,251.321 419.817,251.251 420.133,251.181 420.449,251.111 420.765,251.042 421.081,250.972 421.397,250.902 421.714,250.833 422.03,250.763 422.346,250.693 422.662,250.624 422.978,250.554 423.295,250.484 423.611,250.415 423.927,250.345 424.243,250.276 424.559,250.207 424.875,250.137 425.192,250.068 425.508,249.999 425.824,249.929 426.14,249.86 426.456,249.791 426.772,249.722 427.089,249.653 427.405,249.584 427.721,249.515 428.037,249.446 428.353,249.377 428.67,249.309 428.986,249.24 429.302,249.171 429.618,249.103 429.934,249.034 430.25,248.966 430.567,248.898 430.883,248.83 431.199,248.761 431.515,248.693 431.831,248.625 432.147,248.558 432.464,248.49 432.78,248.422 433.096,248.355 433.412,248.287 433.728,248.22 434.045,248.152 434.361,248.085 434.677,248.018 434.993,247.951 435.309,247.884 435.625,247.818 435.942,247.751 436.258,247.684 436.574,247.618 436.89,247.552 437.206,247.486 437.522,247.42 437.839,247.354 438.155,247.288 438.471,247.222 438.787,247.157 439.103,247.091 439.42,247.026 439.736,246.961 440.052,246.896 440.368,246.831 440.684,246.766 441,246.702 441.317,246.637 441.633,246.573 441.949,246.509 442.265,246.445 442.581,246.381 442.897,246.317 443.214,246.254 443.53,246.19 443.846,246.127 444.162,246.064 444.478,246.001 444.794,245.939 445.111,245.876 445.427,245.814 445.743,245.752 446.059,245.69 446.375,245.628 446.692,245.566 447.008,245.505 447.324,245.443 447.64,245.382 447.956,245.321 448.272,245.261 448.589,245.2 448.905,245.14 449.221,245.079 449.537,245.019 449.853,244.96 450.169,244.9 450.486,244.841 450.802,244.782 451.118,244.723 451.434,244.664 451.75,244.605 452.067,244.547 452.383,244.489 452.699,244.431 453.015,244.373 453.331,244.316 453.647,244.258 453.964,244.201 454.28,244.144 454.596,244.088 454.912,244.031 455.228,243.975 455.544,243.919 455.861,243.863 456.177,243.808 456.493,243.753 456.809,243.698 457.125,243.643 457.442,243.588 457.758,243.534 458.074,243.48 458.39,243.426 458.706,243.372 459.022,243.319 459.339,243.266 459.655,243.213 459.971,243.16 460.287,243.108 460.603,243.056 460.919,243.004 461.236,242.952 461.552,242.901 461.868,242.85 462.184,242.799 462.5,242.749 462.816,242.698 463.133,242.648 463.449,242.599 463.765,242.549 464.081,242.5 464.397,242.451 464.714,242.402 465.03,242.354 465.346,242.306 465.662,242.258 465.978,242.21 466.294,242.163 466.611,242.116 466.927,242.069 467.243,242.023 467.559,241.976 467.875,241.931 468.191,241.885 468.508,241.84 468.824,241.795 469.14,241.75 469.456,241.705 469.772,241.661 470.089,241.617 470.405,241.574 470.721,241.531 471.037,241.488 471.353,241.445 471.669,241.403 471.986,241.361 472.302,241.319 472.618,241.278 472.934,241.236 473.25,241.196 473.566,241.155 473.883,241.115 474.199,241.075 474.515,241.035 474.831,240.996 475.147,240.957 475.464,240.919 475.78,240.88 476.096,240.842 476.412,240.805 476.728,240.767 477.044,240.73 477.361,240.694 477.677,240.657 477.993,240.621 478.309,240.585 478.625,240.55 478.941,240.515 479.258,240.48 479.574,240.446 479.89,240.412 480.206,240.378 480.522,240.344 480.838,240.311 481.155,240.279 481.471,240.246 481.787,240.214 482.103,240.182 482.419,240.151 482.736,240.12 483.052,240.089 483.368,240.059 483.684,240.029 484,239.999 484.316,239.97 484.633,239.941 484.949,239.912 485.265,239.884 485.581,239.856 485.897,239.828 486.213,239.801 486.53,239.774 486.846,239.748 487.162,239.722 487.478,239.696 487.794,239.67 488.111,239.645 488.427,239.62 488.743,239.596 489.059,239.572 489.375,239.548 489.691,239.525 490.008,239.502 490.324,239.479 490.64,239.457 490.956,239.435 491.272,239.414 491.588,239.392 491.905,239.372 492.221,239.351 492.537,239.331 492.853,239.311 493.169,239.292 493.486,239.273 493.802,239.254 494.118,239.236 494.434,239.218 494.75,239.201 495.066,239.184 495.383,239.167 495.699,239.15 496.015,239.134 496.331,239.119 496.647,239.103 496.963,239.088 497.28,239.074 497.596,239.06 497.912,239.046 498.228,239.033 498.544,239.019 498.861,239.007 499.177,238.994 499.493,238.983 499.809,238.971 500.125,238.96 500.441,238.949 500.758,238.939 501.074,238.928 501.39,238.919 501.706,238.91 502.022,238.901 502.338,238.892 502.655,238.884 502.971,238.876 503.287,238.869 503.603,238.862 503.919,238.855 504.235,238.849 504.552,238.843 504.868,238.837 505.184,238.832 505.5,238.827 505.816,238.823 506.133,238.819 506.449,238.815 506.765,238.812 507.081,238.809 507.397,238.807 507.713,238.805 508.03,238.803 508.346,238.802 508.662,238.801 508.978,238.8 509.294,238.8 509.61,238.802 509.927,238.807 510.243,238.815 510.559,238.827 510.875,238.843 511.191,238.862 511.508,238.884 511.824,238.91 512.14,238.939 512.456,238.971 512.772,239.007 513.088,239.046 513.405,239.088 513.721,239.134 514.037,239.184 514.353,239.236 514.669,239.292 514.985,239.351 515.302,239.414 515.618,239.479 515.934,239.548 516.25,239.62 516.566,239.696 516.883,239.774 517.199,239.856 517.515,239.941 517.831,240.029 518.147,240.12 518.463,240.214 518.78,240.311 519.096,240.412 519.412,240.515 519.728,240.621 520.044,240.73 520.36,240.842 520.677,240.957 520.993,241.075 521.309,241.196 521.625,241.319 521.941,241.445 522.257,241.574 522.574,241.705 522.89,241.84 523.206,241.976 523.522,242.116 523.838,242.258 524.155,242.402 524.471,242.549 524.787,242.698 525.103,242.85 525.419,243.004 525.735,243.16 526.052,243.319 526.368,243.48 526.684,243.643 527,243.808 527.316,243.975 527.632,244.144 527.949,244.316 528.265,244.489 528.581,244.664 528.897,244.841 529.213,245.019 529.53,245.2 529.846,245.382 530.162,245.566 530.478,245.752 530.794,245.939 531.11,246.127 531.427,246.317 531.743,246.509 532.059,246.702 532.375,246.896 532.691,247.091 533.007,247.288 533.324,247.486 533.64,247.684 533.956,247.884 534.272,248.085 534.588,248.287 534.905,248.49 535.221,248.693 535.537,248.898 535.853,249.103 536.169,249.309 536.485,249.515 536.802,249.722 537.118,249.929 537.434,250.137 537.75,250.345 538.066,250.554 538.382,250.763 538.699,250.972 539.015,251.181 539.331,251.391 539.647,251.6 539.963,251.809 540.279,252.019 540.596,252.228 540.912,252.437 541.228,252.646 541.544,252.855 541.86,253.063 542.177,253.271 542.493,253.478 542.809,253.685 543.125,253.891 543.441,254.097 543.757,254.302 544.074,254.507 544.39,254.71 544.706,254.913 545.022,255.115 545.338,255.316 545.654,255.516 545.971,255.714 546.287,255.912 546.603,256.109 546.919,256.304 547.235,256.498 547.552,256.691 547.868,256.883 548.184,257.073 548.5,257.261 548.816,257.448 549.132,257.634 549.449,257.818 549.765,258 550.081,258.181 550.397,258.359 550.713,258.536 551.029,258.711 551.346,258.884 551.662,259.056 551.978,259.225 552.294,259.392 552.61,259.557 552.927,259.72 553.243,259.881 553.559,260.04 553.875,260.196 554.191,260.35 554.507,260.502 554.824,260.651 555.14,260.798 555.456,260.942 555.772,261.084 556.088,261.224 556.404,261.36 556.721,261.495 557.037,261.626 557.353,261.755 557.669,261.881 557.985,262.004 558.302,262.125 558.618,262.243 558.934,262.358 559.25,262.47 559.566,262.579 559.882,262.685 560.199,262.788 560.515,262.889 560.831,262.986 561.147,263.08 561.463,263.171 561.779,263.259 562.096,263.344 562.412,263.426 562.728,263.504 563.044,263.58 563.36,263.652 563.676,263.721 563.993,263.786 564.309,263.849 564.625,263.908 564.941,263.964 565.257,264.016 565.574,264.066 565.89,264.112 566.206,264.154 566.522,264.193 566.838,264.229 567.154,264.261 567.471,264.29 567.787,264.316 568.103,264.338 568.419,264.357 568.735,264.373 569.051,264.385 569.368,264.393 569.684,264.398 570,264.4" fill="none" stroke="#4caf6e" stroke-width="2" opacity="0.9"/>
<rect x="582" y="83" width="10" height="10" fill="#4caf6e"/>
<text x="596" y="92" fill="#c9bfa9" font-size="10">PadsBus send B</text>
<polyline points="327.177,264.4 327.493,264.4 327.81,264.399 328.126,264.398 328.442,264.397 328.758,264.395 329.074,264.393 329.39,264.391 329.707,264.388 330.023,264.385 330.339,264.381 330.655,264.377 330.971,264.373 331.287,264.368 331.604,264.363 331.92,264.357 332.236,264.351 332.552,264.345 332.868,264.338 333.185,264.331 333.501,264.324 333.817,264.316 334.133,264.308 334.449,264.299 334.765,264.29 335.082,264.281 335.398,264.272 335.714,264.261 336.03,264.251 336.346,264.24 336.662,264.229 336.979,264.217 337.295,264.206 337.611,264.193 337.927,264.181 338.243,264.167 338.56,264.154 338.876,264.14 339.192,264.126 339.508,264.112 339.824,264.097 340.14,264.081 340.457,264.066 340.773,264.05 341.089,264.033 341.405,264.016 341.721,263.999 342.037,263.982 342.354,263.964 342.67,263.946 342.986,263.927 343.302,263.908 343.618,263.889 343.934,263.869 344.251,263.849 344.567,263.828 344.883,263.808 345.199,263.786 345.515,263.765 345.832,263.743 346.148,263.721 346.464,263.698 346.78,263.675 347.096,263.652 347.412,263.628 347.729,263.604 348.045,263.58 348.361,263.555 348.677,263.53 348.993,263.504 349.309,263.478 349.626,263.452 349.942,263.426 350.258,263.399 350.574,263.372 350.89,263.344 351.207,263.316 351.523,263.288 351.839,263.259 352.155,263.23 352.471,263.201 352.787,263.171 353.104,263.141 353.42,263.111 353.736,263.08 354.052,263.049 354.368,263.018 354.684,262.986 355.001,262.954 355.317,262.921 355.633,262.889 355.949,262.856 356.265,262.822 356.582,262.788 356.898,262.754 357.214,262.72 357.53,262.685 357.846,262.65 358.162,262.615 358.479,262.579 358.795,262.543 359.111,262.506 359.427,262.47 359.743,262.433 360.059,262.395 360.376,262.358 360.692,262.32 361.008,262.281 361.324,262.243 361.64,262.204 361.956,262.165 362.273,262.125 362.589,262.085 362.905,262.045 363.221,262.004 363.537,261.964 363.854,261.922 364.17,261.881 364.486,261.839 364.802,261.797 365.118,261.755 365.434,261.712 365.751,261.669 366.067,261.626 366.383,261.583 366.699,261.539 367.015,261.495 367.331,261.45 367.648,261.405 367.964,261.36 368.28,261.315 368.596,261.269 368.912,261.224 369.229,261.177 369.545,261.131 369.861,261.084 370.177,261.037 370.493,260.99 370.809,260.942 371.126,260.894 371.442,260.846 371.758,260.798 372.074,260.749 372.39,260.7 372.706,260.651 373.023,260.601 373.339,260.552 373.655,260.502 373.971,260.451 374.287,260.401 374.604,260.35 374.92,260.299 375.236,260.248 375.552,260.196 375.868,260.144 376.184,260.092 376.501,260.04 376.817,259.987 377.133,259.934 377.449,259.881 377.765,259.828 378.081,259.774 378.398,259.72 378.714,259.666 379.03,259.612 379.346,259.557 379.662,259.502 379.979,259.447 380.295,259.392 380.611,259.337 380.927,259.281 381.243,259.225 381.559,259.169 381.876,259.112 382.192,259.056 382.508,258.999 382.824,258.942 383.14,258.884 383.456,258.827 383.773,258.769 384.089,258.711 384.405,258.653 384.721,258.595 385.037,258.536 385.353,258.477 385.67,258.418 385.986,258.359 386.302,258.3 386.618,258.24 386.934,258.181 387.251,258.121 387.567,258.06 387.883,258 388.199,257.939 388.515,257.879 388.831,257.818 389.148,257.757 389.464,257.695 389.78,257.634 390.096,257.572 390.412,257.51 390.728,257.448 391.045,257.386 391.361,257.324 391.677,257.261 391.993,257.199 392.309,257.136 392.626,257.073 392.942,257.01 393.258,256.946 393.574,256.883 393.89,256.819 394.206,256.755 394.523,256.691 394.839,256.627 395.155,256.563 395.471,256.498 395.787,256.434 396.103,256.369 396.42,256.304 396.736,256.239 397.052,256.174 397.368,256.109 397.684,256.043 398.001,255.978 398.317,255.912 398.633,255.846 398.949,255.78 399.265,255.714 399.581,255.648 399.898,255.582 400.214,255.516 400.53,255.449 400.846,255.382 401.162,255.316 401.478,255.249 401.795,255.182 402.111,255.115 402.427,255.048 402.743,254.98 403.059,254.913 403.375,254.845 403.692,254.778 404.008,254.71 404.324,254.642 404.64,254.575 404.956,254.507 405.273,254.439 405.589,254.37 405.905,254.302 406.221,254.234 406.537,254.166 406.853,254.097 407.17,254.029 407.486,253.96 407.802,253.891 408.118,253.823 408.434,253.754 408.75,253.685 409.067,253.616 409.383,253.547 409.699,253.478 410.015,253.409 410.331,253.34 410.648,253.271 410.964,253.201 411.28,253.132 411.596,253.063 411.912,252.993 412.228,252.924 412.545,252.855 412.861,252.785 413.177,252.716 413.493,252.646 413.809,252.576 414.125,252.507 414.442,252.437 414.758,252.367 415.074,252.298 415.39,252.228 415.706,252.158 416.023,252.089 416.339,252.019 416.655,251.949 416.971,251.879 417.287,251.809 417.603,251.74 417.92,251.67 418.236,251.6 418.552,251.53 418.868,251.46 419.184,251.391 419.5,251.321 419.817,251.251 420.133,251.181 420.449,251.111 420.765,251.042 421.081,250.972 421.397,250.902 421.714,250.833 422.03,250.763 422.346,250.693 422.662,250.624 422.978,250.554 423.295,250.484 423.611,250.415 423.927,250.345 424.243,250.276 424.559,250.207 424.875,250.137 425.192,250.068 425.508,249.999 425.824,249.929 426.14,249.86 426.456,249.791 426.772,249.722 427.089,249.653 427.405,249.584 427.721,249.515 428.037,249.446 428.353,249.377 428.67,249.309 428.986,249.24 429.302,249.171 429.618,249.103 429.934,249.034 430.25,248.966 430.567,248.898 430.883,248.83 431.199,248.761 431.515,248.693 431.831,248.625 432.147,248.558 432.464,248.49 432.78,248.422 433.096,248.355 433.412,248.287 433.728,248.22 434.045,248.152 434.361,248.085 434.677,248.018 434.993,247.951 435.309,247.884 435.625,247.818 435.942,247.751 436.258,247.684 436.574,247.618 436.89,247.552 437.206,247.486 437.522,247.42 437.839,247.354 438.155,247.288 438.471,247.222 438.787,247.157 439.103,247.091 439.42,247.026 439.736,246.961 440.052,246.896 440.368,246.831 440.684,246.766 441,246.702 441.317,246.637 441.633,246.573 441.949,246.509 442.265,246.445 442.581,246.381 442.897,246.317 443.214,246.254 443.53,246.19 443.846,246.127 444.162,246.064 444.478,246.001 444.794,245.939 445.111,245.876 445.427,245.814 445.743,245.752 446.059,245.69 446.375,245.628 446.692,245.566 447.008,245.505 447.324,245.443 447.64,245.382 447.956,245.321 448.272,245.261 448.589,245.2 448.905,245.14 449.221,245.079 449.537,245.019 449.853,244.96 450.169,244.9 450.486,244.841 450.802,244.782 451.118,244.723 451.434,244.664 451.75,244.605 452.067,244.547 452.383,244.489 452.699,244.431 453.015,244.373 453.331,244.316 453.647,244.258 453.964,244.201 454.28,244.144 454.596,244.088 454.912,244.031 455.228,243.975 455.544,243.919 455.861,243.863 456.177,243.808 456.493,243.753 456.809,243.698 457.125,243.643 457.442,243.588 457.758,243.534 458.074,243.48 458.39,243.426 458.706,243.372 459.022,243.319 459.339,243.266 459.655,243.213 459.971,243.16 460.287,243.108 460.603,243.056 460.919,243.004 461.236,242.952 461.552,242.901 461.868,242.85 462.184,242.799 462.5,242.749 462.816,242.698 463.133,242.648 463.449,242.599 463.765,242.549 464.081,242.5 464.397,242.451 464.714,242.402 465.03,242.354 465.346,242.306 465.662,242.258 465.978,242.21 466.294,242.163 466.611,242.116 466.927,242.069 467.243,242.023 467.559,241.976 467.875,241.931 468.191,241.885 468.508,241.84 468.824,241.795 469.14,241.75 469.456,241.705 469.772,241.661 470.089,241.617 470.405,241.574 470.721,241.531 471.037,241.488 471.353,241.445 471.669,241.403 471.986,241.361 472.302,241.319 472.618,241.278 472.934,241.236 473.25,241.196 473.566,241.155 473.883,241.115 474.199,241.075 474.515,241.035 474.831,240.996 475.147,240.957 475.464,240.919 475.78,240.88 476.096,240.842 476.412,240.805 476.728,240.767 477.044,240.73 477.361,240.694 477.677,240.657 477.993,240.621 478.309,240.585 478.625,240.55 478.941,240.515 479.258,240.48 479.574,240.446 479.89,240.412 480.206,240.378 480.522,240.344 480.838,240.311 481.155,240.279 481.471,240.246 481.787,240.214 482.103,240.182 482.419,240.151 482.736,240.12 483.052,240.089 483.368,240.059 483.684,240.029 484,239.999 484.316,239.97 484.633,239.941 484.949,239.912 485.265,239.884 485.581,239.856 485.897,239.828 486.213,239.801 486.53,239.774 486.846,239.748 487.162,239.722 487.478,239.696 487.794,239.67 488.111,239.645 488.427,239.62 488.743,239.596 489.059,239.572 489.375,239.548 489.691,239.525 490.008,239.502 490.324,239.479 490.64,239.457 490.956,239.435 491.272,239.414 491.588,239.392 491.905,239.372 492.221,239.351 492.537,239.331 492.853,239.311 493.169,239.292 493.486,239.273 493.802,239.254 494.118,239.236 494.434,239.218 494.75,239.201 495.066,239.184 495.383,239.167 495.699,239.15 496.015,239.134 496.331,239.119 496.647,239.103 496.963,239.088 497.28,239.074 497.596,239.06 497.912,239.046 498.228,239.033 498.544,239.019 498.861,239.007 499.177,238.994 499.493,238.983 499.809,238.971 500.125,238.96 500.441,238.949 500.758,238.939 501.074,238.928 501.39,238.919 501.706,238.91 502.022,238.901 502.338,238.892 502.655,238.884 502.971,238.876 503.287,238.869 503.603,238.862 503.919,238.855 504.235,238.849 504.552,238.843 504.868,238.837 505.184,238.832 505.5,238.827 505.816,238.823 506.133,238.819 506.449,238.815 506.765,238.812 507.081,238.809 507.397,238.807 507.713,238.805 508.03,238.803 508.346,238.802 508.662,238.801 508.978,238.8 509.294,238.8 509.61,238.802 509.927,238.807 510.243,238.815 510.559,238.827 510.875,238.843 511.191,238.862 511.508,238.884 511.824,238.91 512.14,238.939 512.456,238.971 512.772,239.007 513.088,239.046 513.405,239.088 513.721,239.134 514.037,239.184 514.353,239.236 514.669,239.292 514.985,239.351 515.302,239.414 515.618,239.479 515.934,239.548 516.25,239.62 516.566,239.696 516.883,239.774 517.199,239.856 517.515,239.941 517.831,240.029 518.147,240.12 518.463,240.214 518.78,240.311 519.096,240.412 519.412,240.515 519.728,240.621 520.044,240.73 520.36,240.842 520.677,240.957 520.993,241.075 521.309,241.196 521.625,241.319 521.941,241.445 522.257,241.574 522.574,241.705 522.89,241.84 523.206,241.976 523.522,242.116 523.838,242.258 524.155,242.402 524.471,242.549 524.787,242.698 525.103,242.85 525.419,243.004 525.735,243.16 526.052,243.319 526.368,243.48 526.684,243.643 527,243.808 527.316,243.975 527.632,244.144 527.949,244.316 528.265,244.489 528.581,244.664 528.897,244.841 529.213,245.019 529.53,245.2 529.846,245.382 530.162,245.566 530.478,245.752 530.794,245.939 531.11,246.127 531.427,246.317 531.743,246.509 532.059,246.702 532.375,246.896 532.691,247.091 533.007,247.288 533.324,247.486 533.64,247.684 533.956,247.884 534.272,248.085 534.588,248.287 534.905,248.49 535.221,248.693 535.537,248.898 535.853,249.103 536.169,249.309 536.485,249.515 536.802,249.722 537.118,249.929 537.434,250.137 537.75,250.345 538.066,250.554 538.382,250.763 538.699,250.972 539.015,251.181 539.331,251.391 539.647,251.6 539.963,251.809 540.279,252.019 540.596,252.228 540.912,252.437 541.228,252.646 541.544,252.855 541.86,253.063 542.177,253.271 542.493,253.478 542.809,253.685 543.125,253.891 543.441,254.097 543.757,254.302 544.074,254.507 544.39,254.71 544.706,254.913 545.022,255.115 545.338,255.316 545.654,255.516 545.971,255.714 546.287,255.912 546.603,256.109 546.919,256.304 547.235,256.498 547.552,256.691 547.868,256.883 548.184,257.073 548.5,257.261 548.816,257.448 549.132,257.634 549.449,257.818 549.765,258 550.081,258.181 550.397,258.359 550.713,258.536 551.029,258.711 551.346,258.884 551.662,259.056 551.978,259.225 552.294,259.392 552.61,259.557 552.927,259.72 553.243,259.881 553.559,260.04 553.875,260.196 554.191,260.35 554.507,260.502 554.824,260.651 555.14,260.798 555.456,260.942 555.772,261.084 556.088,261.224 556.404,261.36 556.721,261.495 557.037,261.626 557.353,261.755 557.669,261.881 557.985,262.004 558.302,262.125 558.618,262.243 558.934,262.358 559.25,262.47 559.566,262.579 559.882,262.685 560.199,262.788 560.515,262.889 560.831,262.986 561.147,263.08 561.463,263.171 561.779,263.259 562.096,263.344 562.412,263.426 562.728,263.504 563.044,263.58 563.36,263.652 563.676,263.721 563.993,263.786 564.309,263.849 564.625,263.908 564.941,263.964 565.257,264.016 565.574,264.066 565.89,264.112 566.206,264.154 566.522,264.193 566.838,264.229 567.154,264.261 567.471,264.29 567.787,264.316 568.103,264.338 568.419,264.357 568.735,264.373 569.051,264.385 569.368,264.393 569.684,264.398 570,264.4" fill="none" stroke="#d65a9a" stroke-width="2" opacity="0.9"/>
<rect x="582" y="98" width="10" height="10" fill="#d65a9a"/>
<text x="596" y="107" fill="#c9bfa9" font-size="10">LeadsBus send B</text>
<polyline points="327.177,264.4 327.493,264.4 327.81,264.399 328.126,264.398 328.442,264.397 328.758,264.395 329.074,264.393 329.39,264.391 329.707,264.388 330.023,264.385 330.339,264.381 330.655,264.377 330.971,264.373 331.287,264.368 331.604,264.363 331.92,264.357 332.236,264.351 332.552,264.345 332.868,264.338 333.185,264.331 333.501,264.324 333.817,264.316 334.133,264.308 334.449,264.299 334.765,264.29 335.082,264.281 335.398,264.272 335.714,264.261 336.03,264.251 336.346,264.24 336.662,264.229 336.979,264.217 337.295,264.206 337.611,264.193 337.927,264.181 338.243,264.167 338.56,264.154 338.876,264.14 339.192,264.126 339.508,264.112 339.824,264.097 340.14,264.081 340.457,264.066 340.773,264.05 341.089,264.033 341.405,264.016 341.721,263.999 342.037,263.982 342.354,263.964 342.67,263.946 342.986,263.927 343.302,263.908 343.618,263.889 343.934,263.869 344.251,263.849 344.567,263.828 344.883,263.808 345.199,263.786 345.515,263.765 345.832,263.743 346.148,263.721 346.464,263.698 346.78,263.675 347.096,263.652 347.412,263.628 347.729,263.604 348.045,263.58 348.361,263.555 348.677,263.53 348.993,263.504 349.309,263.478 349.626,263.452 349.942,263.426 350.258,263.399 350.574,263.372 350.89,263.344 351.207,263.316 351.523,263.288 351.839,263.259 352.155,263.23 352.471,263.201 352.787,263.171 353.104,263.141 353.42,263.111 353.736,263.08 354.052,263.049 354.368,263.018 354.684,262.986 355.001,262.954 355.317,262.921 355.633,262.889 355.949,262.856 356.265,262.822 356.582,262.788 356.898,262.754 357.214,262.72 357.53,262.685 357.846,262.65 358.162,262.615 358.479,262.579 358.795,262.543 359.111,262.506 359.427,262.47 359.743,262.433 360.059,262.395 360.376,262.358 360.692,262.32 361.008,262.281 361.324,262.243 361.64,262.204 361.956,262.165 362.273,262.125 362.589,262.085 362.905,262.045 363.221,262.004 363.537,261.964 363.854,261.922 364.17,261.881 364.486,261.839 364.802,261.797 365.118,261.755 365.434,261.712 365.751,261.669 366.067,261.626 366.383,261.583 366.699,261.539 367.015,261.495 367.331,261.45 367.648,261.405 367.964,261.36 368.28,261.315 368.596,261.269 368.912,261.224 369.229,261.177 369.545,261.131 369.861,261.084 370.177,261.037 370.493,260.99 370.809,260.942 371.126,260.894 371.442,260.846 371.758,260.798 372.074,260.749 372.39,260.7 372.706,260.651 373.023,260.601 373.339,260.552 373.655,260.502 373.971,260.451 374.287,260.401 374.604,260.35 374.92,260.299 375.236,260.248 375.552,260.196 375.868,260.144 376.184,260.092 376.501,260.04 376.817,259.987 377.133,259.934 377.449,259.881 377.765,259.828 378.081,259.774 378.398,259.72 378.714,259.666 379.03,259.612 379.346,259.557 379.662,259.502 379.979,259.447 380.295,259.392 380.611,259.337 380.927,259.281 381.243,259.225 381.559,259.169 381.876,259.112 382.192,259.056 382.508,258.999 382.824,258.942 383.14,258.884 383.456,258.827 383.773,258.769 384.089,258.711 384.405,258.653 384.721,258.595 385.037,258.536 385.353,258.477 385.67,258.418 385.986,258.359 386.302,258.3 386.618,258.24 386.934,258.181 387.251,258.121 387.567,258.06 387.883,258 388.199,257.939 388.515,257.879 388.831,257.818 389.148,257.757 389.464,257.695 389.78,257.634 390.096,257.572 390.412,257.51 390.728,257.448 391.045,257.386 391.361,257.324 391.677,257.261 391.993,257.199 392.309,257.136 392.626,257.073 392.942,257.01 393.258,256.946 393.574,256.883 393.89,256.819 394.206,256.755 394.523,256.691 394.839,256.627 395.155,256.563 395.471,256.498 395.787,256.434 396.103,256.369 396.42,256.304 396.736,256.239 397.052,256.174 397.368,256.109 397.684,256.043 398.001,255.978 398.317,255.912 398.633,255.846 398.949,255.78 399.265,255.714 399.581,255.648 399.898,255.582 400.214,255.516 400.53,255.449 400.846,255.382 401.162,255.316 401.478,255.249 401.795,255.182 402.111,255.115 402.427,255.048 402.743,254.98 403.059,254.913 403.375,254.845 403.692,254.778 404.008,254.71 404.324,254.642 404.64,254.575 404.956,254.507 405.273,254.439 405.589,254.37 405.905,254.302 406.221,254.234 406.537,254.166 406.853,254.097 407.17,254.029 407.486,253.96 407.802,253.891 408.118,253.823 408.434,253.754 408.75,253.685 409.067,253.616 409.383,253.547 409.699,253.478 410.015,253.409 410.331,253.34 410.648,253.271 410.964,253.201 411.28,253.132 411.596,253.063 411.912,252.993 412.228,252.924 412.545,252.855 412.861,252.785 413.177,252.716 413.493,252.646 413.809,252.576 414.125,252.507 414.442,252.437 414.758,252.367 415.074,252.298 415.39,252.228 415.706,252.158 416.023,252.089 416.339,252.019 416.655,251.949 416.971,251.879 417.287,251.809 417.603,251.74 417.92,251.67 418.236,251.6 418.552,251.53 418.868,251.46 419.184,251.391 419.5,251.321 419.817,251.251 420.133,251.181 420.449,251.111 420.765,251.042 421.081,250.972 421.397,250.902 421.714,250.833 422.03,250.763 422.346,250.693 422.662,250.624 422.978,250.554 423.295,250.484 423.611,250.415 423.927,250.345 424.243,250.276 424.559,250.207 424.875,250.137 425.192,250.068 425.508,249.999 425.824,249.929 426.14,249.86 426.456,249.791 426.772,249.722 427.089,249.653 427.405,249.584 427.721,249.515 428.037,249.446 428.353,249.377 428.67,249.309 428.986,249.24 429.302,249.171 429.618,249.103 429.934,249.034 430.25,248.966 430.567,248.898 430.883,248.83 431.199,248.761 431.515,248.693 431.831,248.625 432.147,248.558 432.464,248.49 432.78,248.422 433.096,248.355 433.412,248.287 433.728,248.22 434.045,248.152 434.361,248.085 434.677,248.018 434.993,247.951 435.309,247.884 435.625,247.818 435.942,247.751 436.258,247.684 436.574,247.618 436.89,247.552 437.206,247.486 437.522,247.42 437.839,247.354 438.155,247.288 438.471,247.222 438.787,247.157 439.103,247.091 439.42,247.026 439.736,246.961 440.052,246.896 440.368,246.831 440.684,246.766 441,246.702 441.317,246.637 441.633,246.573 441.949,246.509 442.265,246.445 442.581,246.381 442.897,246.317 443.214,246.254 443.53,246.19 443.846,246.127 444.162,246.064 444.478,246.001 444.794,245.939 445.111,245.876 445.427,245.814 445.743,245.752 446.059,245.69 446.375,245.628 446.692,245.566 447.008,245.505 447.324,245.443 447.64,245.382 447.956,245.321 448.272,245.261 448.589,245.2 448.905,245.14 449.221,245.079 449.537,245.019 449.853,244.96 450.169,244.9 450.486,244.841 450.802,244.782 451.118,244.723 451.434,244.664 451.75,244.605 452.067,244.547 452.383,244.489 452.699,244.431 453.015,244.373 453.331,244.316 453.647,244.258 453.964,244.201 454.28,244.144 454.596,244.088 454.912,244.031 455.228,243.975 455.544,243.919 455.861,243.863 456.177,243.808 456.493,243.753 456.809,243.698 457.125,243.643 457.442,243.588 457.758,243.534 458.074,243.48 458.39,243.426 458.706,243.372 459.022,243.319 459.339,243.266 459.655,243.213 459.971,243.16 460.287,243.108 460.603,243.056 460.919,243.004 461.236,242.952 461.552,242.901 461.868,242.85 462.184,242.799 462.5,242.749 462.816,242.698 463.133,242.648 463.449,242.599 463.765,242.549 464.081,242.5 464.397,242.451 464.714,242.402 465.03,242.354 465.346,242.306 465.662,242.258 465.978,242.21 466.294,242.163 466.611,242.116 466.927,242.069 467.243,242.023 467.559,241.976 467.875,241.931 468.191,241.885 468.508,241.84 468.824,241.795 469.14,241.75 469.456,241.705 469.772,241.661 470.089,241.617 470.405,241.574 470.721,241.531 471.037,241.488 471.353,241.445 471.669,241.403 471.986,241.361 472.302,241.319 472.618,241.278 472.934,241.236 473.25,241.196 473.566,241.155 473.883,241.115 474.199,241.075 474.515,241.035 474.831,240.996 475.147,240.957 475.464,240.919 475.78,240.88 476.096,240.842 476.412,240.805 476.728,240.767 477.044,240.73 477.361,240.694 477.677,240.657 477.993,240.621 478.309,240.585 478.625,240.55 478.941,240.515 479.258,240.48 479.574,240.446 479.89,240.412 480.206,240.378 480.522,240.344 480.838,240.311 481.155,240.279 481.471,240.246 481.787,240.214 482.103,240.182 482.419,240.151 482.736,240.12 483.052,240.089 483.368,240.059 483.684,240.029 484,239.999 484.316,239.97 484.633,239.941 484.949,239.912 485.265,239.884 485.581,239.856 485.897,239.828 486.213,239.801 486.53,239.774 486.846,239.748 487.162,239.722 487.478,239.696 487.794,239.67 488.111,239.645 488.427,239.62 488.743,239.596 489.059,239.572 489.375,239.548 489.691,239.525 490.008,239.502 490.324,239.479 490.64,239.457 490.956,239.435 491.272,239.414 491.588,239.392 491.905,239.372 492.221,239.351 492.537,239.331 492.853,239.311 493.169,239.292 493.486,239.273 493.802,239.254 494.118,239.236 494.434,239.218 494.75,239.201 495.066,239.184 495.383,239.167 495.699,239.15 496.015,239.134 496.331,239.119 496.647,239.103 496.963,239.088 497.28,239.074 497.596,239.06 497.912,239.046 498.228,239.033 498.544,239.019 498.861,239.007 499.177,238.994 499.493,238.983 499.809,238.971 500.125,238.96 500.441,238.949 500.758,238.939 501.074,238.928 501.39,238.919 501.706,238.91 502.022,238.901 502.338,238.892 502.655,238.884 502.971,238.876 503.287,238.869 503.603,238.862 503.919,238.855 504.235,238.849 504.552,238.843 504.868,238.837 505.184,238.832 505.5,238.827 505.816,238.823 506.133,238.819 506.449,238.815 506.765,238.812 507.081,238.809 507.397,238.807 507.713,238.805 508.03,238.803 508.346,238.802 508.662,238.801 508.978,238.8 509.294,238.8 509.61,238.802 509.927,238.807 510.243,238.815 510.559,238.827 510.875,238.843 511.191,238.862 511.508,238.884 511.824,238.91 512.14,238.939 512.456,238.971 512.772,239.007 513.088,239.046 513.405,239.088 513.721,239.134 514.037,239.184 514.353,239.236 514.669,239.292 514.985,239.351 515.302,239.414 515.618,239.479 515.934,239.548 516.25,239.62 516.566,239.696 516.883,239.774 517.199,239.856 517.515,239.941 517.831,240.029 518.147,240.12 518.463,240.214 518.78,240.311 519.096,240.412 519.412,240.515 519.728,240.621 520.044,240.73 520.36,240.842 520.677,240.957 520.993,241.075 521.309,241.196 521.625,241.319 521.941,241.445 522.257,241.574 522.574,241.705 522.89,241.84 523.206,241.976 523.522,242.116 523.838,242.258 524.155,242.402 524.471,242.549 524.787,242.698 525.103,242.85 525.419,243.004 525.735,243.16 526.052,243.319 526.368,243.48 526.684,243.643 527,243.808 527.316,243.975 527.632,244.144 527.949,244.316 528.265,244.489 528.581,244.664 528.897,244.841 529.213,245.019 529.53,245.2 529.846,245.382 530.162,245.566 530.478,245.752 530.794,245.939 531.11,246.127 531.427,246.317 531.743,246.509 532.059,246.702 532.375,246.896 532.691,247.091 533.007,247.288 533.324,247.486 533.64,247.684 533.956,247.884 534.272,248.085 534.588,248.287 534.905,248.49 535.221,248.693 535.537,248.898 535.853,249.103 536.169,249.309 536.485,249.515 536.802,249.722 537.118,249.929 537.434,250.137 537.75,250.345 538.066,250.554 538.382,250.763 538.699,250.972 539.015,251.181 539.331,251.391 539.647,251.6 539.963,251.809 540.279,252.019 540.596,252.228 540.912,252.437 541.228,252.646 541.544,252.855 541.86,253.063 542.177,253.271 542.493,253.478 542.809,253.685 543.125,253.891 543.441,254.097 543.757,254.302 544.074,254.507 544.39,254.71 544.706,254.913 545.022,255.115 545.338,255.316 545.654,255.516 545.971,255.714 546.287,255.912 546.603,256.109 546.919,256.304 547.235,256.498 547.552,256.691 547.868,256.883 548.184,257.073 548.5,257.261 548.816,257.448 549.132,257.634 549.449,257.818 549.765,258 550.081,258.181 550.397,258.359 550.713,258.536 551.029,258.711 551.346,258.884 551.662,259.056 551.978,259.225 552.294,259.392 552.61,259.557 552.927,259.72 553.243,259.881 553.559,260.04 553.875,260.196 554.191,260.35 554.507,260.502 554.824,260.651 555.14,260.798 555.456,260.942 555.772,261.084 556.088,261.224 556.404,261.36 556.721,261.495 557.037,261.626 557.353,261.755 557.669,261.881 557.985,262.004 558.302,262.125 558.618,262.243 558.934,262.358 559.25,262.47 559.566,262.579 559.882,262.685 560.199,262.788 560.515,262.889 560.831,262.986 561.147,263.08 561.463,263.171 561.779,263.259 562.096,263.344 562.412,263.426 562.728,263.504 563.044,263.58 563.36,263.652 563.676,263.721 563.993,263.786 564.309,263.849 564.625,263.908 564.941,263.964 565.257,264.016 565.574,264.066 565.89,264.112 566.206,264.154 566.522,264.193 566.838,264.229 567.154,264.261 567.471,264.29 567.787,264.316 568.103,264.338 568.419,264.357 568.735,264.373 569.051,264.385 569.368,264.393 569.684,264.398 570,264.4" fill="none" stroke="#3b7dd8" stroke-width="2" opacity="0.9"/>
<rect x="582" y="113" width="10" height="10" fill="#3b7dd8"/>
<text x="596" y="122" fill="#c9bfa9" font-size="10">PercBus send B</text>
<text x="54" y="20" fill="#f3ead9" font-size="14" font-weight="700">SEQ RISE 16 &gt; CLEAN SLATE &gt; BLOOM 16</text>
<text x="570" y="20" fill="#7c756a" font-size="10" text-anchor="end">34 bars @ 94 BPM · y = normalized 0..1</text>
<text x="54" y="318" fill="#c2622a" font-size="10">immediate: stopAllClLanes, clFadersToZeroDb, centerDjFilters, macrosToRest, killRiser, shepToRest, releaseAllGrabs</text>
</svg>