<svg xmlns="http://www.w3.org/2000/svg" width="720" height="320" viewBox="0 0 720 320" font-family="JetBrains Mono, ui-monospace, monospace">
<rect width="720" height="320" fill="#15130f"/>
<line x1="54" y1="290" x2="570" y2="290" stroke="#2a261f"/>
<text x="46" y="293" fill="#7c756a" font-size="10" text-anchor="end">0.0</text>
<line x1="54" y1="162" x2="570" y2="162" stroke="#2a261f"/>
<text x="46" y="165" fill="#7c756a" font-size="10" text-anchor="end">0.5</text>
<line x1="54" y1="34" x2="570" y2="34" stroke="#2a261f"/>
<text x="46" y="37" fill="#7c756a" font-size="10" text-anchor="end">1.0</text>
<line x1="54" y1="34" x2="54" y2="290" stroke="#211e18"/>
<text x="54" y="308" fill="#7c756a" font-size="10" text-anchor="middle">0</text>
<line x1="183" y1="34" x2="183" y2="290" stroke="#211e18"/>
<text x="183" y="308" fill="#7c756a" font-size="10" text-anchor="middle">4</text>
<line x1="312" y1="34" x2="312" y2="290" stroke="#211e18"/>
<text x="312" y="308" fill="#7c756a" font-size="10" text-anchor="middle">8</text>
<line x1="441" y1="34" x2="441" y2="290" stroke="#211e18"/>
<text x="441" y="308" fill="#7c756a" font-size="10" text-anchor="middle">12</text>
<line x1="570" y1="34" x2="570" y2="290" stroke="#211e18"/>
<text x="570" y="308" fill="#7c756a" font-size="10" text-anchor="middle">16</text>
<polyline points="54,264.4 54.672,264.398 55.344,264.393 56.016,264.385 56.688,264.373 57.359,264.357 58.031,264.338 58.703,264.316 59.375,264.29 60.047,264.261 60.719,264.229 61.391,264.193 62.063,264.153 62.734,264.111 63.406,264.065 64.078,264.015 64.75,263.962 65.422,263.906 66.094,263.846 66.766,263.783 67.438,263.716 68.109,263.646 68.781,263.573 69.453,263.496 70.125,263.416 70.797,263.333 71.469,263.246 72.141,263.156 72.813,263.063 73.484,262.966 74.156,262.866 74.828,262.762 75.5,262.655 76.172,262.545 76.844,262.432 77.516,262.315 78.188,262.195 78.859,262.072 79.531,261.946 80.203,261.816 80.875,261.683 81.547,261.547 82.219,261.407 82.891,261.264 83.563,261.118 84.234,260.969 84.906,260.817 85.578,260.661 86.25,260.503 86.922,260.341 87.594,260.176 88.266,260.008 88.938,259.836 89.609,259.662 90.281,259.484 90.953,259.304 91.625,259.12 92.297,258.933 92.969,258.743 93.641,258.55 94.313,258.354 94.984,258.155 95.656,257.953 96.328,257.748 97,257.541 97.672,257.33 98.344,257.116 99.016,256.899 99.688,256.679 100.359,256.457 101.031,256.231 101.703,256.003 102.375,255.771 103.047,255.537 103.719,255.3 104.391,255.06 105.063,254.818 105.734,254.572 106.406,254.324 107.078,254.073 107.75,253.82 108.422,253.563 109.094,253.304 109.766,253.043 110.438,252.778 111.109,252.511 111.781,252.241 112.453,251.969 113.125,251.694 113.797,251.417 114.469,251.137 115.141,250.854 115.813,250.569 116.484,250.281 117.156,249.991 117.828,249.699 118.5,249.404 119.172,249.106 119.844,248.807 120.516,248.504 121.188,248.2 121.859,247.893 122.531,247.584 123.203,247.272 123.875,246.959 124.547,246.642 125.219,246.324 125.891,246.004 126.563,245.681 127.234,245.356 127.906,245.029 128.578,244.7 129.25,244.369 129.922,244.035 130.594,243.7 131.266,243.362 131.938,243.023 132.609,242.681 133.281,242.338 133.953,241.993 134.625,241.645 135.297,241.296 135.969,240.945 136.641,240.592 137.313,240.237 137.984,239.88 138.656,239.522 139.328,239.162 140,238.8 140.672,238.436 141.344,238.071 142.016,237.704 142.688,237.336 143.359,236.965 144.031,236.593 144.703,236.22 145.375,235.845 146.047,235.469 146.719,235.091 147.391,234.711 148.063,234.331 148.734,233.948 149.406,233.565 150.078,233.18 150.75,232.793 151.422,232.406 152.094,232.017 152.766,231.627 153.438,231.235 154.109,230.843 154.781,230.449 155.453,230.054 156.125,229.658 156.797,229.261 157.469,228.862 158.141,228.463 158.813,228.063 159.484,227.661 160.156,227.259 160.828,226.856 161.5,226.452 162.172,226.046 162.844,225.641 163.516,225.234 164.188,224.826 164.859,224.418 165.531,224.009 166.203,223.599 166.875,223.189 167.547,222.777 168.219,222.366 168.891,221.953 169.563,221.54 170.234,221.127 170.906,220.713 171.578,220.298 172.25,219.883 172.922,219.467 173.594,219.051 174.266,218.635 174.938,218.218 175.609,217.801 176.281,217.384 176.953,216.967 177.625,216.549 178.297,216.131 178.969,215.712 179.641,215.294 180.313,214.875 180.984,214.457 181.656,214.038 182.328,213.619 183,213.2 183.672,212.781 184.344,212.362 185.016,211.943 185.688,211.525 186.359,211.106 187.031,210.688 187.703,210.269 188.375,209.851 189.047,209.433 189.719,209.016 190.391,208.599 191.063,208.182 191.734,207.765 192.406,207.349 193.078,206.933 193.75,206.517 194.422,206.102 195.094,205.687 195.766,205.273 196.438,204.86 197.109,204.447 197.781,204.034 198.453,203.623 199.125,203.211 199.797,202.801 200.469,202.391 201.141,201.982 201.813,201.574 202.484,201.166 203.156,200.759 203.828,200.354 204.5,199.948 205.172,199.544 205.844,199.141 206.516,198.739 207.188,198.337 207.859,197.937 208.531,197.538 209.203,197.139 209.875,196.742 210.547,196.346 211.219,195.951 211.891,195.557 212.563,195.165 213.234,194.773 213.906,194.383 214.578,193.994 215.25,193.607 215.922,193.22 216.594,192.835 217.266,192.452 217.938,192.069 218.609,191.689 219.281,191.309 219.953,190.931 220.625,190.555 221.297,190.18 221.969,189.807 222.641,189.435 223.313,189.064 223.984,188.696 224.656,188.329 225.328,187.964 226,187.6 226.672,187.238 227.344,186.878 228.016,186.52 228.688,186.163 229.359,185.808 230.031,185.455 230.703,185.104 231.375,184.755 232.047,184.407 232.719,184.062 233.391,183.719 234.063,183.377 234.734,183.038 235.406,182.7 236.078,182.365 236.75,182.031 237.422,181.7 238.094,181.371 238.766,181.044 239.438,180.719 240.109,180.396 240.781,180.076 241.453,179.758 242.125,179.441 242.797,179.128 243.469,178.816 244.141,178.507 244.813,178.2 245.484,177.896 246.156,177.593 246.828,177.294 247.5,176.996 248.172,176.701 248.844,176.409 249.516,176.119 250.188,175.831 250.859,175.546 251.531,175.263 252.203,174.983 252.875,174.706 253.547,174.431 254.219,174.159 254.891,173.889 255.563,173.622 256.234,173.357 256.906,173.096 257.578,172.837 258.25,172.58 258.922,172.327 259.594,172.076 260.266,171.828 260.938,171.582 261.609,171.34 262.281,171.1 262.953,170.863 263.625,170.629 264.297,170.397 264.969,170.169 265.641,169.943 266.313,169.721 266.984,169.501 267.656,169.284 268.328,169.07 269,168.859 269.672,168.652 270.344,168.447 271.016,168.245 271.688,168.046 272.359,167.85 273.031,167.657 273.703,167.467 274.375,167.28 275.047,167.096 275.719,166.916 276.391,166.738 277.063,166.564 277.734,166.392 278.406,166.224 279.078,166.059 279.75,165.897 280.422,165.739 281.094,165.583 281.766,165.431 282.438,165.282 283.109,165.136 283.781,164.993 284.453,164.853 285.125,164.717 285.797,164.584 286.469,164.454 287.141,164.328 287.813,164.205 288.484,164.085 289.156,163.968 289.828,163.855 290.5,163.745 291.172,163.638 291.844,163.534 292.516,163.434 293.188,163.337 293.859,163.244 294.531,163.154 295.203,163.067 295.875,162.984 296.547,162.904 297.219,162.827 297.891,162.754 298.563,162.684 299.234,162.617 299.906,162.554 300.578,162.494 301.25,162.438 301.922,162.385 302.594,162.335 303.266,162.289 303.938,162.247 304.609,162.207 305.281,162.171 305.953,162.139 306.625,162.11 307.297,162.084 307.969,162.062 308.641,162.043 309.313,162.027 309.984,162.015 310.656,162.007 311.328,162.002 312,162 312.672,162.002 313.344,162.007 314.016,162.015 314.688,162.027 315.359,162.043 316.031,162.062 316.703,162.084 317.375,162.11 318.047,162.139 318.719,162.171 319.391,162.207 320.063,162.247 320.734,162.289 321.406,162.335 322.078,162.385 322.75,162.438 323.422,162.494 324.094,162.554 324.766,162.617 325.438,162.684 326.109,162.754 326.781,162.827 327.453,162.904 328.125,162.984 328.797,163.067 329.469,163.154 330.141,163.244 330.813,163.337 331.484,163.434 332.156,163.534 332.828,163.638 333.5,163.745 334.172,163.855 334.844,163.968 335.516,164.085 336.188,164.205 336.859,164.328 337.531,164.454 338.203,164.584 338.875,164.717 339.547,164.853 340.219,164.993 340.891,165.136 341.563,165.282 342.234,165.431 342.906,165.583 343.578,165.739 344.25,165.897 344.922,166.059 345.594,166.224 346.266,166.392 346.938,166.564 347.609,166.738 348.281,166.916 348.953,167.096 349.625,167.28 350.297,167.467 350.969,167.657 351.641,167.85 352.313,168.046 352.984,168.245 353.656,168.447 354.328,168.652 355,168.859 355.672,169.07 356.344,169.284 357.016,169.501 357.688,169.721 358.359,169.943 359.031,170.169 359.703,170.397 360.375,170.629 361.047,170.863 361.719,171.1 362.391,171.34 363.063,171.582 363.734,171.828 364.406,172.076 365.078,172.327 365.75,172.58 366.422,172.837 367.094,173.096 367.766,173.357 368.438,173.622 369.109,173.889 369.781,174.159 370.453,174.431 371.125,174.706 371.797,174.983 372.469,175.263 373.141,175.546 373.813,175.831 374.484,176.119 375.156,176.409 375.828,176.701 376.5,176.996 377.172,177.294 377.844,177.593 378.516,177.896 379.188,178.2 379.859,178.507 380.531,178.816 381.203,179.128 381.875,179.441 382.547,179.758 383.219,180.076 383.891,180.396 384.563,180.719 385.234,181.044 385.906,181.371 386.578,181.7 387.25,182.031 387.922,182.365 388.594,182.7 389.266,183.038 389.938,183.377 390.609,183.719 391.281,184.062 391.953,184.407 392.625,184.755 393.297,185.104 393.969,185.455 394.641,185.808 395.313,186.163 395.984,186.52 396.656,186.878 397.328,187.238 398,187.6 398.672,187.964 399.344,188.329 400.016,188.696 400.688,189.064 401.359,189.435 402.031,189.807 402.703,190.18 403.375,190.555 404.047,190.931 404.719,191.309 405.391,191.689 406.063,192.069 406.734,192.452 407.406,192.835 408.078,193.22 408.75,193.607 409.422,193.994 410.094,194.383 410.766,194.773 411.438,195.165 412.109,195.557 412.781,195.951 413.453,196.346 414.125,196.742 414.797,197.139 415.469,197.538 416.141,197.937 416.813,198.337 417.484,198.739 418.156,199.141 418.828,199.544 419.5,199.948 420.172,200.354 420.844,200.759 421.516,201.166 422.188,201.574 422.859,201.982 423.531,202.391 424.203,202.801 424.875,203.211 425.547,203.623 426.219,204.034 426.891,204.447 427.563,204.86 428.234,205.273 428.906,205.687 429.578,206.102 430.25,206.517 430.922,206.933 431.594,207.349 432.266,207.765 432.938,208.182 433.609,208.599 434.281,209.016 434.953,209.433 435.625,209.851 436.297,210.269 436.969,210.688 437.641,211.106 438.313,211.525 438.984,211.943 439.656,212.362 440.328,212.781 441,213.2 441.672,213.619 442.344,214.038 443.016,214.457 443.688,214.875 444.359,215.294 445.031,215.712 445.703,216.131 446.375,216.549 447.047,216.967 447.719,217.384 448.391,217.801 449.063,218.218 449.734,218.635 450.406,219.051 451.078,219.467 451.75,219.883 452.422,220.298 453.094,220.713 453.766,221.127 454.438,221.54 455.109,221.953 455.781,222.366 456.453,222.777 457.125,223.189 457.797,223.599 458.469,224.009 459.141,224.418 459.813,224.826 460.484,225.234 461.156,225.641 461.828,226.046 462.5,226.452 463.172,226.856 463.844,227.259 464.516,227.661 465.188,228.063 465.859,228.463 466.531,228.862 467.203,229.261 467.875,229.658 468.547,230.054 469.219,230.449 469.891,230.843 470.563,231.235 471.234,231.627 471.906,232.017 472.578,232.406 473.25,232.793 473.922,233.18 474.594,233.565 475.266,233.948 475.938,234.331 476.609,234.711 477.281,235.091 477.953,235.469 478.625,235.845 479.297,236.22 479.969,236.593 480.641,236.965 481.313,237.336 481.984,237.704 482.656,238.071 483.328,238.436 484,238.8 484.672,239.162 485.344,239.522 486.016,239.88 486.688,240.237 487.359,240.592 488.031,240.945 488.703,241.296 489.375,241.645 490.047,241.993 490.719,242.338 491.391,242.681 492.063,243.023 492.734,243.362 493.406,243.7 494.078,244.035 494.75,244.369 495.422,244.7 496.094,245.029 496.766,245.356 497.438,245.681 498.109,246.004 498.781,246.324 499.453,246.642 500.125,246.959 500.797,247.272 501.469,247.584 502.141,247.893 502.813,248.2 503.484,248.504 504.156,248.807 504.828,249.106 505.5,249.404 506.172,249.699 506.844,249.991 507.516,250.281 508.188,250.569 508.859,250.854 509.531,251.137 510.203,251.417 510.875,251.694 511.547,251.969 512.219,252.241 512.891,252.511 513.563,252.778 514.234,253.043 514.906,253.304 515.578,253.563 516.25,253.82 516.922,254.073 517.594,254.324 518.266,254.572 518.938,254.818 519.609,255.06 520.281,255.3 520.953,255.537 521.625,255.771 522.297,256.003 522.969,256.231 523.641,256.457 524.313,256.679 524.984,256.899 525.656,257.116 526.328,257.33 527,257.541 527.672,257.748 528.344,257.953 529.016,258.155 529.688,258.354 530.359,258.55 531.031,258.743 531.703,258.933 532.375,259.12 533.047,259.304 533.719,259.484 534.391,259.662 535.063,259.836 535.734,260.008 536.406,260.176 537.078,260.341 537.75,260.503 538.422,260.661 539.094,260.817 539.766,260.969 540.438,261.118 541.109,261.264 541.781,261.407 542.453,261.547 543.125,261.683 543.797,261.816 544.469,261.946 545.141,262.072 545.813,262.195 546.484,262.315 547.156,262.432 547.828,262.545 548.5,262.655 549.172,262.762 549.844,262.866 550.516,262.966 551.188,263.063 551.859,263.156 552.531,263.246 553.203,263.333 553.875,263.416 554.547,263.496 555.219,263.573 555.891,263.646 556.563,263.716 557.234,263.783 557.906,263.846 558.578,263.906 559.25,263.962 559.922,264.015 560.594,264.065 561.266,264.111 561.938,264.153 562.609,264.193 563.281,264.229 563.953,264.261 564.625,264.29 565.297,264.316 565.969,264.338 566.641,264.357 567.313,264.373 567.984,264.385 568.656,264.393 569.328,264.398 570,264.4" fill="none" stroke="#c2622a" stroke-width="2" opacity="0.9"/>
<rect x="582" y="38" width="10" height="10" fill="#c2622a"/>
<text x="596" y="47" fill="#c9bfa9" font-size="10">PadsBus send B</text>
<polyline points="54,264.4 54.672,264.398 55.344,264.393 56.016,264.385 56.688,264.373 57.359,264.357 58.031,264.338 58.703,264.316 59.375,264.29 60.047,264.261 60.719,264.229 61.391,264.193 62.063,264.153 62.734,264.111 63.406,264.065 64.078,264.015 64.75,263.962 65.422,263.906 66.094,263.846 66.766,263.783 67.438,263.716 68.109,263.646 68.781,263.573 69.453,263.496 70.125,263.416 70.797,263.333 71.469,263.246 72.141,263.156 72.813,263.063 73.484,262.966 74.156,262.866 74.828,262.762 75.5,262.655 76.172,262.545 76.844,262.432 77.516,262.315 78.188,262.195 78.859,262.072 79.531,261.946 80.203,261.816 80.875,261.683 81.547,261.547 82.219,261.407 82.891,261.264 83.563,261.118 84.234,260.969 84.906,260.817 85.578,260.661 86.25,260.503 86.922,260.341 87.594,260.176 88.266,260.008 88.938,259.836 89.609,259.662 90.281,259.484 90.953,259.304 91.625,259.12 92.297,258.933 92.969,258.743 93.641,258.55 94.313,258.354 94.984,258.155 95.656,257.953 96.328,257.748 97,257.541 97.672,257.33 98.344,257.116 99.016,256.899 99.688,256.679 100.359,256.457 101.031,256.231 101.703,256.003 102.375,255.771 103.047,255.537 103.719,255.3 104.391,255.06 105.063,254.818 105.734,254.572 106.406,254.324 107.078,254.073 107.75,253.82 108.422,253.563 109.094,253.304 109.766,253.043 110.438,252.778 111.109,252.511 111.781,252.241 112.453,251.969 113.125,251.694 113.797,251.417 114.469,251.137 115.141,250.854 115.813,250.569 116.484,250.281 117.156,249.991 117.828,249.699 118.5,249.404 119.172,249.106 119.844,248.807 120.516,248.504 121.188,248.2 121.859,247.893 122.531,247.584 123.203,247.272 123.875,246.959 124.547,246.642 125.219,246.324 125.891,246.004 126.563,245.681 127.234,245.356 127.906,245.029 128.578,244.7 129.25,244.369 129.922,244.035 130.594,243.7 131.266,243.362 131.938,243.023 132.609,242.681 133.281,242.338 133.953,241.993 134.625,241.645 135.297,241.296 135.969,240.945 136.641,240.592 137.313,240.237 137.984,239.88 138.656,239.522 139.328,239.162 140,238.8 140.672,238.436 141.344,238.071 142.016,237.704 142.688,237.336 143.359,236.965 144.031,236.593 144.703,236.22 145.375,235.845 146.047,235.469 146.719,235.091 147.391,234.711 148.063,234.331 148.734,233.948 149.406,233.565 150.078,233.18 150.75,232.793 151.422,232.406 152.094,232.017 152.766,231.627 153.438,231.235 154.109,230.843 154.781,230.449 155.453,230.054 156.125,229.658 156.797,229.261 157.469,228.862 158.141,228.463 158.813,228.063 159.484,227.661 160.156,227.259 160.828,226.856 161.5,226.452 162.172,226.046 162.844,225.641 163.516,225.234 164.188,224.826 164.859,224.418 165.531,224.009 166.203,223.599 166.875,223.189 167.547,222.777 168.219,222.366 168.891,221.953 169.563,221.54 170.234,221.127 170.906,220.713 171.578,220.298 172.25,219.883 172.922,219.467 173.594,219.051 174.266,218.635 174.938,218.218 175.609,217.801 176.281,217.384 176.953,216.967 177.625,216.549 178.297,216.131 178.969,215.712 179.641,215.294 180.313,214.875 180.984,214.457 181.656,214.038 182.328,213.619 183,213.2 183.672,212.781 184.344,212.362 185.016,211.943 185.688,211.525 186.359,211.106 187.031,210.688 187.703,210.269 188.375,209.851 189.047,209.433 189.719,209.016 190.391,208.599 191.063,208.182 191.734,207.765 192.406,207.349 193.078,206.933 193.75,206.517 194.422,206.102 195.094,205.687 195.766,205.273 196.438,204.86 197.109,204.447 197.781,204.034 198.453,203.623 199.125,203.211 199.797,202.801 200.469,202.391 201.141,201.982 201.813,201.574 202.484,201.166 203.156,200.759 203.828,200.354 204.5,199.948 205.172,199.544 205.844,199.141 206.516,198.739 207.188,198.337 207.859,197.937 208.531,197.538 209.203,197.139 209.875,196.742 210.547,196.346 211.219,195.951 211.891,195.557 212.563,195.165 213.234,194.773 213.906,194.383 214.578,193.994 215.25,193.607 215.922,193.22 216.594,192.835 217.266,192.452 217.938,192.069 218.609,191.689 219.281,191.309 219.953,190.931 220.625,190.555 221.297,190.18 221.969,189.807 222.641,189.435 223.313,189.064 223.984,188.696 224.656,188.329 225.328,187.964 226,187.6 226.672,187.238 227.344,186.878 228.016,186.52 228.688,186.163 229.359,185.808 230.031,185.455 230.703,185.104 231.375,184.755 232.047,184.407 232.719,184.062 233.391,183.719 234.063,183.377 234.734,183.038 235.406,182.7 236.078,182.365 236.75,182.031 237.422,181.7 238.094,181.371 238.766,181.044 239.438,180.719 240.109,180.396 240.781,180.076 241.453,179.758 242.125,179.441 242.797,179.128 243.469,178.816 244.141,178.507 244.813,178.2 245.484,177.896 246.156,177.593 246.828,177.294 247.5,176.996 248.172,176.701 248.844,176.409 249.516,176.119 250.188,175.831 250.859,175.546 251.531,175.263 252.203,174.983 252.875,174.706 253.547,174.431 254.219,174.159 254.891,173.889 255.563,173.622 256.234,173.357 256.906,173.096 257.578,172.837 258.25,172.58 258.922,172.327 259.594,172.076 260.266,171.828 260.938,171.582 261.609,171.34 262.281,171.1 262.953,170.863 263.625,170.629 264.297,170.397 264.969,170.169 265.641,169.943 266.313,169.721 266.984,169.501 267.656,169.284 268.328,169.07 269,168.859 269.672,168.652 270.344,168.447 271.016,168.245 271.688,168.046 272.359,167.85 273.031,167.657 273.703,167.467 274.375,167.28 275.047,167.096 275.719,166.916 276.391,166.738 277.063,166.564 277.734,166.392 278.406,166.224 279.078,166.059 279.75,165.897 280.422,165.739 281.094,165.583 281.766,165.431 282.438,165.282 283.109,165.136 283.781,164.993 284.453,164.853 285.125,164.717 285.797,164.584 286.469,164.454 287.141,164.328 287.813,164.205 288.484,164.085 289.156,163.968 289.828,163.855 290.5,163.745 291.172,163.638 291.844,163.534 292.516,163.434 293.188,163.337 293.859,163.244 294.531,163.154 295.203,163.067 295.875,162.984 296.547,162.904 297.219,162.827 297.891,162.754 298.563,162.684 299.234,162.617 299.906,162.554 300.578,162.494 301.25,162.438 301.922,162.385 302.594,162.335 303.266,162.289 303.938,162.247 304.609,162.207 305.281,162.171 305.953,162.139 306.625,162.11 307.297,162.084 307.969,162.062 308.641,162.043 309.313,162.027 309.984,162.015 310.656,162.007 311.328,162.002 312,162 312.672,162.002 313.344,162.007 314.016,162.015 314.688,162.027 315.359,162.043 316.031,162.062 316.703,162.084 317.375,162.11 318.047,162.139 318.719,162.171 319.391,162.207 320.063,162.247 320.734,162.289 321.406,162.335 322.078,162.385 322.75,162.438 323.422,162.494 324.094,162.554 324.766,162.617 325.438,162.684 326.109,162.754 326.781,162.827 327.453,162.904 328.125,162.984 328.797,163.067 329.469,163.154 330.141,163.244 330.813,163.337 331.484,163.434 332.156,163.534 332.828,163.638 333.5,163.745 334.172,163.855 334.844,163.968 335.516,164.085 336.188,164.205 336.859,164.328 337.531,164.454 338.203,164.584 338.875,164.717 339.547,164.853 340.219,164.993 340.891,165.136 341.563,165.282 342.234,165.431 342.906,165.583 343.578,165.739 344.25,165.897 344.922,166.059 345.594,166.224 346.266,166.392 346.938,166.564 347.609,166.738 348.281,166.916 348.953,167.096 349.625,167.28 350.297,167.467 350.969,167.657 351.641,167.85 352.313,168.046 352.984,168.245 353.656,168.447 354.328,168.652 355,168.859 355.672,169.07 356.344,169.284 357.016,169.501 357.688,169.721 358.359,169.943 359.031,170.169 359.703,170.397 360.375,170.629 361.047,170.863 361.719,171.1 362.391,171.34 363.063,171.582 363.734,171.828 364.406,172.076 365.078,172.327 365.75,172.58 366.422,172.837 367.094,173.096 367.766,173.357 368.438,173.622 369.109,173.889 369.781,174.159 370.453,174.431 371.125,174.706 371.797,174.983 372.469,175.263 373.141,175.546 373.813,175.831 374.484,176.119 375.156,176.409 375.828,176.701 376.5,176.996 377.172,177.294 377.844,177.593 378.516,177.896 379.188,178.2 379.859,178.507 380.531,178.816 381.203,179.128 381.875,179.441 382.547,179.758 383.219,180.076 383.891,180.396 384.563,180.719 385.234,181.044 385.906,181.371 386.578,181.7 387.25,182.031 387.922,182.365 388.594,182.7 389.266,183.038 389.938,183.377 390.609,183.719 391.281,184.062 391.953,184.407 392.625,184.755 393.297,185.104 393.969,185.455 394.641,185.808 395.313,186.163 395.984,186.52 396.656,186.878 397.328,187.238 398,187.6 398.672,187.964 399.344,188.329 400.016,188.696 400.688,189.064 401.359,189.435 402.031,189.807 402.703,190.18 403.375,190.555 404.047,190.931 404.719,191.309 405.391,191.689 406.063,192.069 406.734,192.452 407.406,192.835 408.078,193.22 408.75,193.607 409.422,193.994 410.094,194.383 410.766,194.773 411.438,195.165 412.109,195.557 412.781,195.951 413.453,196.346 414.125,196.742 414.797,197.139 415.469,197.538 416.141,197.937 416.813,198.337 417.484,198.739 418.156,199.141 418.828,199.544 419.5,199.948 420.172,200.354 420.844,200.759 421.516,201.166 422.188,201.574 422.859,201.982 423.531,202.391 424.203,202.801 424.875,203.211 425.547,203.623 426.219,204.034 426.891,204.447 427.563,204.86 428.234,205.273 428.906,205.687 429.578,206.102 430.25,206.517 430.922,206.933 431.594,207.349 432.266,207.765 432.938,208.182 433.609,208.599 434.281,209.016 434.953,209.433 435.625,209.851 436.297,210.269 436.969,210.688 437.641,211.106 438.313,211.525 438.984,211.943 439.656,212.362 440.328,212.781 441,213.2 441.672,213.619 442.344,214.038 443.016,214.457 443.688,214.875 444.359,215.294 445.031,215.712 445.703,216.131 446.375,216.549 447.047,216.967 447.719,217.384 448.391,217.801 449.063,218.218 449.734,218.635 450.406,219.051 451.078,219.467 451.75,219.883 452.422,220.298 453.094,220.713 453.766,221.127 454.438,221.54 455.109,221.953 455.781,222.366 456.453,222.777 457.125,223.189 457.797,223.599 458.469,224.009 459.141,224.418 459.813,224.826 460.484,225.234 461.156,225.641 461.828,226.046 462.5,226.452 463.172,226.856 463.844,227.259 464.516,227.661 465.188,228.063 465.859,228.463 466.531,228.862 467.203,229.261 467.875,229.658 468.547,230.054 469.219,230.449 469.891,230.843 470.563,231.235 471.234,231.627 471.906,232.017 472.578,232.406 473.25,232.793 473.922,233.18 474.594,233.565 475.266,233.948 475.938,234.331 476.609,234.711 477.281,235.091 477.953,235.469 478.625,235.845 479.297,236.22 479.969,236.593 480.641,236.965 481.313,237.336 481.984,237.704 482.656,238.071 483.328,238.436 484,238.8 484.672,239.162 485.344,239.522 486.016,239.88 486.688,240.237 487.359,240.592 488.031,240.945 488.703,241.296 489.375,241.645 490.047,241.993 490.719,242.338 491.391,242.681 492.063,243.023 492.734,243.362 493.406,243.7 494.078,244.035 494.75,244.369 495.422,244.7 496.094,245.029 496.766,245.356 497.438,245.681 498.109,246.004 498.781,246.324 499.453,246.642 500.125,246.959 500.797,247.272 501.469,247.584 502.141,247.893 502.813,248.2 503.484,248.504 504.156,248.807 504.828,249.106 505.5,249.404 506.172,249.699 506.844,249.991 507.516,250.281 508.188,250.569 508.859,250.854 509.531,251.137 510.203,251.417 510.875,251.694 511.547,251.969 512.219,252.241 512.891,252.511 513.563,252.778 514.234,253.043 514.906,253.304 515.578,253.563 516.25,253.82 516.922,254.073 517.594,254.324 518.266,254.572 518.938,254.818 519.609,255.06 520.281,255.3 520.953,255.537 521.625,255.771 522.297,256.003 522.969,256.231 523.641,256.457 524.313,256.679 524.984,256.899 525.656,257.116 526.328,257.33 527,257.541 527.672,257.748 528.344,257.953 529.016,258.155 529.688,258.354 530.359,258.55 531.031,258.743 531.703,258.933 532.375,259.12 533.047,259.304 533.719,259.484 534.391,259.662 535.063,259.836 535.734,260.008 536.406,260.176 537.078,260.341 537.75,260.503 538.422,260.661 539.094,260.817 539.766,260.969 540.438,261.118 541.109,261.264 541.781,261.407 542.453,261.547 543.125,261.683 543.797,261.816 544.469,261.946 545.141,262.072 545.813,262.195 546.484,262.315 547.156,262.432 547.828,262.545 548.5,262.655 549.172,262.762 549.844,262.866 550.516,262.966 551.188,263.063 551.859,263.156 552.531,263.246 553.203,263.333 553.875,263.416 554.547,263.496 555.219,263.573 555.891,263.646 556.563,263.716 557.234,263.783 557.906,263.846 558.578,263.906 559.25,263.962 559.922,264.015 560.594,264.065 561.266,264.111 561.938,264.153 562.609,264.193 563.281,264.229 563.953,264.261 564.625,264.29 565.297,264.316 565.969,264.338 566.641,264.357 567.313,264.373 567.984,264.385 568.656,264.393 569.328,264.398 570,264.4" fill="none" stroke="#2bb3a3" stroke-width="2" opacity="0.9"/>
<rect x="582" y="53" width="10" height="10" fill="#2bb3a3"/>
<text x="596" y="62" fill="#c9bfa9" font-size="10">LeadsBus send B</text>
<polyline points="54,264.4 54.672,264.398 55.344,264.393 56.016,264.385 56.688,264.373 57.359,264.357 58.031,264.338 58.703,264.316 59.375,264.29 60.047,264.261 60.719,264.229 61.391,264.193 62.063,264.153 62.734,264.111 63.406,264.065 64.078,264.015 64.75,263.962 65.422,263.906 66.094,263.846 66.766,263.783 67.438,263.716 68.109,263.646 68.781,263.573 69.453,263.496 70.125,263.416 70.797,263.333 71.469,263.246 72.141,263.156 72.813,263.063 73.484,262.966 74.156,262.866 74.828,262.762 75.5,262.655 76.172,262.545 76.844,262.432 77.516,262.315 78.188,262.195 78.859,262.072 79.531,261.946 80.203,261.816 80.875,261.683 81.547,261.547 82.219,261.407 82.891,261.264 83.563,261.118 84.234,260.969 84.906,260.817 85.578,260.661 86.25,260.503 86.922,260.341 87.594,260.176 88.266,260.008 88.938,259.836 89.609,259.662 90.281,259.484 90.953,259.304 91.625,259.12 92.297,258.933 92.969,258.743 93.641,258.55 94.313,258.354 94.984,258.155 95.656,257.953 96.328,257.748 97,257.541 97.672,257.33 98.344,257.116 99.016,256.899 99.688,256.679 100.359,256.457 101.031,256.231 101.703,256.003 102.375,255.771 103.047,255.537 103.719,255.3 104.391,255.06 105.063,254.818 105.734,254.572 106.406,254.324 107.078,254.073 107.75,253.82 108.422,253.563 109.094,253.304 109.766,253.043 110.438,252.778 111.109,252.511 111.781,252.241 112.453,251.969 113.125,251.694 113.797,251.417 114.469,251.137 115.141,250.854 115.813,250.569 116.484,250.281 117.156,249.991 117.828,249.699 118.5,249.404 119.172,249.106 119.844,248.807 120.516,248.504 121.188,248.2 121.859,247.893 122.531,247.584 123.203,247.272 123.875,246.959 124.547,246.642 125.219,246.324 125.891,246.004 126.563,245.681 127.234,245.356 127.906,245.029 128.578,244.7 129.25,244.369 129.922,244.035 130.594,243.7 131.266,243.362 131.938,243.023 132.609,242.681 133.281,242.338 133.953,241.993 134.625,241.645 135.297,241.296 135.969,240.945 136.641,240.592 137.313,240.237 137.984,239.88 138.656,239.522 139.328,239.162 140,238.8 140.672,238.436 141.344,238.071 142.016,237.704 142.688,237.336 143.359,236.965 144.031,236.593 144.703,236.22 145.375,235.845 146.047,235.469 146.719,235.091 147.391,234.711 148.063,234.331 148.734,233.948 149.406,233.565 150.078,233.18 150.75,232.793 151.422,232.406 152.094,232.017 152.766,231.627 153.438,231.235 154.109,230.843 154.781,230.449 155.453,230.054 156.125,229.658 156.797,229.261 157.469,228.862 158.141,228.463 158.813,228.063 159.484,227.661 160.156,227.259 160.828,226.856 161.5,226.452 162.172,226.046 162.844,225.641 163.516,225.234 164.188,224.826 164.859,224.418 165.531,224.009 166.203,223.599 166.875,223.189 167.547,222.777 168.219,222.366 168.891,221.953 169.563,221.54 170.234,221.127 170.906,220.713 171.578,220.298 172.25,219.883 172.922,219.467 173.594,219.051 174.266,218.635 174.938,218.218 175.609,217.801 176.281,217.384 176.953,216.967 177.625,216.549 178.297,216.131 178.969,215.712 179.641,215.294 180.313,214.875 180.984,214.457 181.656,214.038 182.328,213.619 183,213.2 183.672,212.781 184.344,212.362 185.016,211.943 185.688,211.525 186.359,211.106 187.031,210.688 187.703,210.269 188.375,209.851 189.047,209.433 189.719,209.016 190.391,208.599 191.063,208.182 191.734,207.765 192.406,207.349 193.078,206.933 193.75,206.517 194.422,206.102 195.094,205.687 195.766,205.273 196.438,204.86 197.109,204.447 197.781,204.034 198.453,203.623 199.125,203.211 199.797,202.801 200.469,202.391 201.141,201.982 201.813,201.574 202.484,201.166 203.156,200.759 203.828,200.354 204.5,199.948 205.172,199.544 205.844,199.141 206.516,198.739 207.188,198.337 207.859,197.937 208.531,197.538 209.203,197.139 209.875,196.742 210.547,196.346 211.219,195.951 211.891,195.557 212.563,195.165 213.234,194.773 213.906,194.383 214.578,193.994 215.25,193.607 215.922,193.22 216.594,192.835 217.266,192.452 217.938,192.069 218.609,191.689 219.281,191.309 219.953,190.931 220.625,190.555 221.297,190.18 221.969,189.807 222.641,189.435 223.313,189.064 223.984,188.696 224.656,188.329 225.328,187.964 226,187.6 226.672,187.238 227.344,186.878 228.016,186.52 228.688,186.163 229.359,185.808 230.031,185.455 230.703,185.104 231.375,184.755 232.047,184.407 232.719,184.062 233.391,183.719 234.063,183.377 234.734,183.038 235.406,182.7 236.078,182.365 236.75,182.031 237.422,181.7 238.094,181.371 238.766,181.044 239.438,180.719 240.109,180.396 240.781,180.076 241.453,179.758 242.125,179.441 242.797,179.128 243.469,178.816 244.141,178.507 244.813,178.2 245.484,177.896 246.156,177.593 246.828,177.294 247.5,176.996 248.172,176.701 248.844,176.409 249.516,176.119 250.188,175.831 250.859,175.546 251.531,175.263 252.203,174.983 252.875,174.706 253.547,174.431 254.219,174.159 254.891,173.889 255.563,173.622 256.234,173.357 256.906,173.096 257.578,172.837 258.25,172.58 258.922,172.327 259.594,172.076 260.266,171.828 260.938,171.582 261.609,171.34 262.281,171.1 262.953,170.863 263.625,170.629 264.297,170.397 264.969,170.169 265.641,169.943 266.313,169.721 266.984,169.501 267.656,169.284 268.328,169.07 269,168.859 269.672,168.652 270.344,168.447 271.016,168.245 271.688,168.046 272.359,167.85 273.031,167.657 273.703,167.467 274.375,167.28 275.047,167.096 275.719,166.916 276.391,166.738 277.063,166.564 277.734,166.392 278.406,166.224 279.078,166.059 279.75,165.897 280.422,165.739 281.094,165.583 281.766,165.431 282.438,165.282 283.109,165.136 283.781,164.993 284.453,164.853 285.125,164.717 285.797,164.584 286.469,164.454 287.141,164.328 287.813,164.205 288.484,164.085 289.156,163.968 289.828,163.855 290.5,163.745 291.172,163.638 291.844,163.534 292.516,163.434 293.188,163.337 293.859,163.244 294.531,163.154 295.203,163.067 295.875,162.984 296.547,162.904 297.219,162.827 297.891,162.754 298.563,162.684 299.234,162.617 299.906,162.554 300.578,162.494 301.25,162.438 301.922,162.385 302.594,162.335 303.266,162.289 303.938,162.247 304.609,162.207 305.281,162.171 305.953,162.139 306.625,162.11 307.297,162.084 307.969,162.062 308.641,162.043 309.313,162.027 309.984,162.015 310.656,162.007 311.328,162.002 312,162 312.672,162.002 313.344,162.007 314.016,162.015 314.688,162.027 315.359,162.043 316.031,162.062 316.703,162.084 317.375,162.11 318.047,162.139 318.719,162.171 319.391,162.207 320.063,162.247 320.734,162.289 321.406,162.335 322.078,162.385 322.75,162.438 323.422,162.494 324.094,162.554 324.766,162.617 325.438,162.684 326.109,162.754 326.781,162.827 327.453,162.904 328.125,162.984 328.797,163.067 329.469,163.154 330.141,163.244 330.813,163.337 331.484,163.434 332.156,163.534 332.828,163.638 333.5,163.745 334.172,163.855 334.844,163.968 335.516,164.085 336.188,164.205 336.859,164.328 337.531,164.454 338.203,164.584 338.875,164.717 339.547,164.853 340.219,164.993 340.891,165.136 341.563,165.282 342.234,165.431 342.906,165.583 343.578,165.739 344.25,165.897 344.922,166.059 345.594,166.224 346.266,166.392 346.938,166.564 347.609,166.738 348.281,166.916 348.953,167.096 349.625,167.28 350.297,167.467 350.969,167.657 351.641,167.85 352.313,168.046 352.984,168.245 353.656,168.447 354.328,168.652 355,168.859 355.672,169.07 356.344,169.284 357.016,169.501 357.688,169.721 358.359,169.943 359.031,170.169 359.703,170.397 360.375,170.629 361.047,170.863 361.719,171.1 362.391,171.34 363.063,171.582 363.734,171.828 364.406,172.076 365.078,172.327 365.75,172.58 366.422,172.837 367.094,173.096 367.766,173.357 368.438,173.622 369.109,173.889 369.781,174.159 370.453,174.431 371.125,174.706 371.797,174.983 372.469,175.263 373.141,175.546 373.813,175.831 374.484,176.119 375.156,176.409 375.828,176.701 376.5,176.996 377.172,177.294 377.844,177.593 378.516,177.896 379.188,178.2 379.859,178.507 380.531,178.816 381.203,179.128 381.875,179.441 382.547,179.758 383.219,180.076 383.891,180.396 384.563,180.719 385.234,181.044 385.906,181.371 386.578,181.7 387.25,182.031 387.922,182.365 388.594,182.7 389.266,183.038 389.938,183.377 390.609,183.719 391.281,184.062 391.953,184.407 392.625,184.755 393.297,185.104 393.969,185.455 394.641,185.808 395.313,186.163 395.984,186.52 396.656,186.878 397.328,187.238 398,187.6 398.672,187.964 399.344,188.329 400.016,188.696 400.688,189.064 401.359,189.435 402.031,189.807 402.703,190.18 403.375,190.555 404.047,190.931 404.719,191.309 405.391,191.689 406.063,192.069 406.734,192.452 407.406,192.835 408.078,193.22 408.75,193.607 409.422,193.994 410.094,194.383 410.766,194.773 411.438,195.165 412.109,195.557 412.781,195.951 413.453,196.346 414.125,196.742 414.797,197.139 415.469,197.538 416.141,197.937 416.813,198.337 417.484,198.739 418.156,199.141 418.828,199.544 419.5,199.948 420.172,200.354 420.844,200.759 421.516,201.166 422.188,201.574 422.859,201.982 423.531,202.391 424.203,202.801 424.875,203.211 425.547,203.623 426.219,204.034 426.891,204.447 427.563,204.86 428.234,205.273 428.906,205.687 429.578,206.102 430.25,206.517 430.922,206.933 431.594,207.349 432.266,207.765 432.938,208.182 433.609,208.599 434.281,209.016 434.953,209.433 435.625,209.851 436.297,210.269 436.969,210.688 437.641,211.106 438.313,211.525 438.984,211.943 439.656,212.362 440.328,212.781 441,213.2 441.672,213.619 442.344,214.038 443.016,214.457 443.688,214.875 444.359,215.294 445.031,215.712 445.703,216.131 446.375,216.549 447.047,216.967 447.719,217.384 448.391,217.801 449.063,218.218 449.734,218.635 450.406,219.051 451.078,219.467 451.75,219.883 452.422,220.298 453.094,220.713 453.766,221.127 454.438,221.54 455.109,221.953 455.781,222.366 456.453,222.777 457.125,223.189 457.797,223.599 458.469,224.009 459.141,224.418 459.813,224.826 460.484,225.234 461.156,225.641 461.828,226.046 462.5,226.452 463.172,226.856 463.844,227.259 464.516,227.661 465.188,228.063 465.859,228.463 466.531,228.862 467.203,229.261 467.875,229.658 468.547,230.054 469.219,230.449 469.891,230.843 470.563,231.235 471.234,231.627 471.906,232.017 472.578,232.406 473.25,232.793 473.922,233.18 474.594,233.565 475.266,233.948 475.938,234.331 476.609,234.711 477.281,235.091 477.953,235.469 478.625,235.845 479.297,236.22 479.969,236.593 480.641,236.965 481.313,237.336 481.984,237.704 482.656,238.071 483.328,238.436 484,238.8 484.672,239.162 485.344,239.522 486.016,239.88 486.688,240.237 487.359,240.592 488.031,240.945 488.703,241.296 489.375,241.645 490.047,241.993 490.719,242.338 491.391,242.681 492.063,243.023 492.734,243.362 493.406,243.7 494.078,244.035 494.75,244.369 495.422,244.7 496.094,245.029 496.766,245.356 497.438,245.681 498.109,246.004 498.781,246.324 499.453,246.642 500.125,246.959 500.797,247.272 501.469,247.584 502.141,247.893 502.813,248.2 503.484,248.504 504.156,248.807 504.828,249.106 505.5,249.404 506.172,249.699 506.844,249.991 507.516,250.281 508.188,250.569 508.859,250.854 509.531,251.137 510.203,251.417 510.875,251.694 511.547,251.969 512.219,252.241 512.891,252.511 513.563,252.778 514.234,253.043 514.906,253.304 515.578,253.563 516.25,253.82 516.922,254.073 517.594,254.324 518.266,254.572 518.938,254.818 519.609,255.06 520.281,255.3 520.953,255.537 521.625,255.771 522.297,256.003 522.969,256.231 523.641,256.457 524.313,256.679 524.984,256.899 525.656,257.116 526.328,257.33 527,257.541 527.672,257.748 528.344,257.953 529.016,258.155 529.688,258.354 530.359,258.55 531.031,258.743 531.703,258.933 532.375,259.12 533.047,259.304 533.719,259.484 534.391,259.662 535.063,259.836 535.734,260.008 536.406,260.176 537.078,260.341 537.75,260.503 538.422,260.661 539.094,260.817 539.766,260.969 540.438,261.118 541.109,261.264 541.781,261.407 542.453,261.547 543.125,261.683 543.797,261.816 544.469,261.946 545.141,262.072 545.813,262.195 546.484,262.315 547.156,262.432 547.828,262.545 548.5,262.655 549.172,262.762 549.844,262.866 550.516,262.966 551.188,263.063 551.859,263.156 552.531,263.246 553.203,263.333 553.875,263.416 554.547,263.496 555.219,263.573 555.891,263.646 556.563,263.716 557.234,263.783 557.906,263.846 558.578,263.906 559.25,263.962 559.922,264.015 560.594,264.065 561.266,264.111 561.938,264.153 562.609,264.193 563.281,264.229 563.953,264.261 564.625,264.29 565.297,264.316 565.969,264.338 566.641,264.357 567.313,264.373 567.984,264.385 568.656,264.393 569.328,264.398 570,264.4" fill="none" stroke="#8a6bd6" stroke-width="2" opacity="0.9"/>
<rect x="582" y="68" width="10" height="10" fill="#8a6bd6"/>
<text x="596" y="77" fill="#c9bfa9" font-size="10">PercBus send B</text>
<text x="54" y="20" fill="#f3ead9" font-size="14" font-weight="700">SWELL B 16</text>
<text x="570" y="20" fill="#7c756a" font-size="10" text-anchor="end">16 bars @ 94 BPM · y = normalized 0..1</text>
</svg>