<svg xmlns="http://www.w3.org/2000/svg" width="720" height="320" viewBox="0 0 720 320" font-family="JetBrains Mono, ui-monospace, monospace">
<rect width="720" height="320" fill="#15130f"/>
<line x1="54" y1="290" x2="570" y2="290" stroke="#2a261f"/>
<text x="46" y="293" fill="#7c756a" font-size="10" text-anchor="end">0.0</text>
<line x1="54" y1="162" x2="570" y2="162" stroke="#2a261f"/>
<text x="46" y="165" fill="#7c756a" font-size="10" text-anchor="end">0.5</text>
<line x1="54" y1="34" x2="570" y2="34" stroke="#2a261f"/>
<text x="46" y="37" fill="#7c756a" font-size="10" text-anchor="end">1.0</text>
<line x1="54" y1="34" x2="54" y2="290" stroke="#211e18"/>
<text x="54" y="308" fill="#7c756a" font-size="10" text-anchor="middle">0</text>
<line x1="219.12" y1="34" x2="219.12" y2="290" stroke="#211e18"/>
<text x="219.12" y="308" fill="#7c756a" font-size="10" text-anchor="middle">16</text>
<line x1="384.24" y1="34" x2="384.24" y2="290" stroke="#211e18"/>
<text x="384.24" y="308" fill="#7c756a" font-size="10" text-anchor="middle">32</text>
<line x1="549.3599999999999" y1="34" x2="549.3599999999999" y2="290" stroke="#211e18"/>
<text x="549.3599999999999" y="308" fill="#7c756a" font-size="10" text-anchor="middle">48</text>
<polyline points="54,290 54.215,290 54.43,289.999 54.645,289.998 54.86,289.996 55.075,289.994 55.29,289.991 55.505,289.988 55.72,289.984 55.935,289.98 56.15,289.975 56.365,289.97 56.58,289.965 56.795,289.958 57.01,289.952 57.225,289.945 57.44,289.937 57.655,289.929 57.87,289.92 58.085,289.911 58.3,289.901 58.515,289.891 58.73,289.881 58.945,289.87 59.16,289.858 59.375,289.846 59.59,289.834 59.805,289.82 60.02,289.807 60.235,289.793 60.45,289.778 60.665,289.763 60.88,289.748 61.095,289.732 61.31,289.715 61.525,289.698 61.74,289.681 61.955,289.663 62.17,289.645 62.385,289.626 62.6,289.606 62.815,289.586 63.03,289.566 63.245,289.545 63.46,289.523 63.675,289.502 63.89,289.479 64.105,289.456 64.32,289.433 64.535,289.409 64.75,289.385 64.965,289.36 65.18,289.335 65.395,289.309 65.61,289.282 65.825,289.256 66.04,289.228 66.255,289.201 66.47,289.172 66.685,289.144 66.9,289.114 67.115,289.085 67.33,289.054 67.545,289.024 67.76,288.993 67.975,288.961 68.19,288.929 68.405,288.896 68.62,288.863 68.835,288.829 69.05,288.795 69.265,288.761 69.48,288.725 69.695,288.69 69.91,288.654 70.125,288.617 70.34,288.58 70.555,288.543 70.77,288.505 70.985,288.466 71.2,288.427 71.415,288.388 71.63,288.348 71.845,288.307 72.06,288.266 72.275,288.225 72.49,288.183 72.705,288.141 72.92,288.098 73.135,288.054 73.35,288.011 73.565,287.966 73.78,287.921 73.995,287.876 74.21,287.83 74.425,287.784 74.64,287.737 74.855,287.69 75.07,287.642 75.285,287.594 75.5,287.545 75.715,287.496 75.93,287.447 76.145,287.397 76.36,287.346 76.575,287.295 76.79,287.243 77.005,287.191 77.22,287.139 77.435,287.086 77.65,287.032 77.865,286.978 78.08,286.924 78.295,286.869 78.51,286.813 78.725,286.758 78.94,286.701 79.155,286.644 79.37,286.587 79.585,286.529 79.8,286.471 80.015,286.412 80.23,286.353 80.445,286.293 80.66,286.233 80.875,286.172 81.09,286.111 81.305,286.05 81.52,285.987 81.735,285.925 81.95,285.862 82.165,285.798 82.38,285.734 82.595,285.67 82.81,285.605 83.025,285.539 83.24,285.474 83.455,285.407 83.67,285.34 83.885,285.273 84.1,285.205 84.315,285.137 84.53,285.068 84.745,284.999 84.96,284.929 85.175,284.859 85.39,284.789 85.605,284.717 85.82,284.646 86.035,284.574 86.25,284.501 86.465,284.428 86.68,284.355 86.895,284.281 87.11,284.207 87.325,284.132 87.54,284.056 87.755,283.981 87.97,283.904 88.185,283.828 88.4,283.75 88.615,283.673 88.83,283.595 89.045,283.516 89.26,283.437 89.475,283.358 89.69,283.278 89.905,283.197 90.12,283.116 90.335,283.035 90.55,282.953 90.765,282.871 90.98,282.788 91.195,282.705 91.41,282.621 91.625,282.537 91.84,282.452 92.055,282.367 92.27,282.282 92.485,282.196 92.7,282.109 92.915,282.022 93.13,281.935 93.345,281.847 93.56,281.759 93.775,281.67 93.99,281.581 94.205,281.491 94.42,281.401 94.635,281.311 94.85,281.219 95.065,281.128 95.28,281.036 95.495,280.944 95.71,280.851 95.925,280.757 96.14,280.664 96.355,280.57 96.57,280.475 96.785,280.38 97,280.284 97.215,280.188 97.43,280.092 97.645,279.995 97.86,279.897 98.075,279.8 98.29,279.701 98.505,279.603 98.72,279.503 98.935,279.404 99.15,279.304 99.365,279.203 99.58,279.102 99.795,279.001 100.01,278.899 100.225,278.797 100.44,278.694 100.655,278.591 100.87,278.487 101.085,278.383 101.3,278.278 101.515,278.173 101.73,278.068 101.945,277.962 102.16,277.856 102.375,277.749 102.59,277.642 102.805,277.534 103.02,277.426 103.235,277.318 103.45,277.209 103.665,277.099 103.88,276.989 104.095,276.879 104.31,276.768 104.525,276.657 104.74,276.546 104.955,276.434 105.17,276.321 105.385,276.208 105.6,276.095 105.815,275.981 106.03,275.867 106.245,275.752 106.46,275.637 106.675,275.522 106.89,275.406 107.105,275.29 107.32,275.173 107.535,275.056 107.75,274.938 107.965,274.82 108.18,274.701 108.395,274.583 108.61,274.463 108.825,274.343 109.04,274.223 109.255,274.103 109.47,273.981 109.685,273.86 109.9,273.738 110.115,273.616 110.33,273.493 110.545,273.37 110.76,273.246 110.975,273.122 111.19,272.998 111.405,272.873 111.62,272.747 111.835,272.622 112.05,272.496 112.265,272.369 112.48,272.242 112.695,272.115 112.91,271.987 113.125,271.859 113.34,271.73 113.555,271.601 113.77,271.471 113.985,271.342 114.2,271.211 114.415,271.08 114.63,270.949 114.845,270.818 115.06,270.686 115.275,270.553 115.49,270.421 115.705,270.287 115.92,270.154 116.135,270.02 116.35,269.885 116.565,269.751 116.78,269.615 116.995,269.48 117.21,269.344 117.425,269.207 117.64,269.07 117.855,268.933 118.07,268.795 118.285,268.657 118.5,268.519 118.715,268.38 118.93,268.241 119.145,268.101 119.36,267.961 119.575,267.82 119.79,267.679 120.005,267.538 120.22,267.396 120.435,267.254 120.65,267.112 120.865,266.969 121.08,266.826 121.295,266.682 121.51,266.538 121.725,266.394 121.94,266.249 122.155,266.103 122.37,265.958 122.585,265.812 122.8,265.665 123.015,265.518 123.23,265.371 123.445,265.224 123.66,265.076 123.875,264.927 124.09,264.779 124.305,264.629 124.52,264.48 124.735,264.33 124.95,264.18 125.165,264.029 125.38,263.878 125.595,263.726 125.81,263.575 126.025,263.422 126.24,263.27 126.455,263.117 126.67,262.963 126.885,262.81 127.1,262.655 127.315,262.501 127.53,262.346 127.745,262.191 127.96,262.035 128.175,261.879 128.39,261.723 128.605,261.566 128.82,261.409 129.035,261.251 129.25,261.094 129.465,260.935 129.68,260.777 129.895,260.618 130.11,260.458 130.325,260.299 130.54,260.138 130.755,259.978 130.97,259.817 131.185,259.656 131.4,259.494 131.615,259.332 131.83,259.17 132.045,259.008 132.26,258.844 132.475,258.681 132.69,258.517 132.905,258.353 133.12,258.189 133.335,258.024 133.55,257.859 133.765,257.693 133.98,257.527 134.195,257.361 134.41,257.194 134.625,257.027 134.84,256.86 135.055,256.692 135.27,256.524 135.485,256.356 135.7,256.187 135.915,256.018 136.13,255.849 136.345,255.679 136.56,255.509 136.775,255.338 136.99,255.168 137.205,254.996 137.42,254.825 137.635,254.653 137.85,254.481 138.065,254.308 138.28,254.135 138.495,253.962 138.71,253.788 138.925,253.615 139.14,253.44 139.355,253.266 139.57,253.091 139.785,252.915 140,252.74 140.215,252.564 140.43,252.388 140.645,252.211 140.86,252.034 141.075,251.857 141.29,251.679 141.505,251.501 141.72,251.323 141.935,251.144 142.15,250.965 142.365,250.786 142.58,250.606 142.795,250.426 143.01,250.246 143.225,250.065 143.44,249.885 143.655,249.703 143.87,249.522 144.085,249.34 144.3,249.158 144.515,248.975 144.73,248.792 144.945,248.609 145.16,248.426 145.375,248.242 145.59,248.058 145.805,247.873 146.02,247.688 146.235,247.503 146.45,247.318 146.665,247.132 146.88,246.946 147.095,246.76 147.31,246.573 147.525,246.386 147.74,246.199 147.955,246.011 148.17,245.823 148.385,245.635 148.6,245.447 148.815,245.258 149.03,245.069 149.245,244.879 149.46,244.69 149.675,244.5 149.89,244.309 150.105,244.119 150.32,243.928 150.535,243.737 150.75,243.545 150.965,243.353 151.18,243.161 151.395,242.969 151.61,242.776 151.825,242.583 152.04,242.39 152.255,242.196 152.47,242.002 152.685,241.808 152.9,241.613 153.115,241.419 153.33,241.224 153.545,241.028 153.76,240.833 153.975,240.637 154.19,240.44 154.405,240.244 154.62,240.047 154.835,239.85 155.05,239.653 155.265,239.455 155.48,239.257 155.695,239.059 155.91,238.861 156.125,238.662 156.34,238.463 156.555,238.264 156.77,238.064 156.985,237.864 157.2,237.664 157.415,237.464 157.63,237.263 157.845,237.062 158.06,236.861 158.275,236.659 158.49,236.457 158.705,236.255 158.92,236.053 159.135,235.851 159.35,235.648 159.565,235.445 159.78,235.241 159.995,235.038 160.21,234.834 160.425,234.63 160.64,234.425 160.855,234.221 161.07,234.016 161.285,233.81 161.5,233.605 161.715,233.399 161.93,233.193 162.145,232.987 162.36,232.781 162.575,232.574 162.79,232.367 163.005,232.16 163.22,231.952 163.435,231.745 163.65,231.537 163.865,231.328 164.08,231.12 164.295,230.911 164.51,230.702 164.725,230.493 164.94,230.284 165.155,230.074 165.37,229.864 165.585,229.654 165.8,229.443 166.015,229.233 166.23,229.022 166.445,228.811 166.66,228.599 166.875,228.388 167.09,228.176 167.305,227.964 167.52,227.752 167.735,227.539 167.95,227.326 168.165,227.113 168.38,226.9 168.595,226.687 168.81,226.473 169.025,226.259 169.24,226.045 169.455,225.831 169.67,225.616 169.885,225.401 170.1,225.186 170.315,224.971 170.53,224.756 170.745,224.54 170.96,224.324 171.175,224.108 171.39,223.891 171.605,223.675 171.82,223.458 172.035,223.241 172.25,223.024 172.465,222.807 172.68,222.589 172.895,222.371 173.11,222.153 173.325,221.935 173.54,221.716 173.755,221.498 173.97,221.279 174.185,221.06 174.4,220.84 174.615,220.621 174.83,220.401 175.045,220.181 175.26,219.961 175.475,219.741 175.69,219.52 175.905,219.3 176.12,219.079 176.335,218.858 176.55,218.637 176.765,218.415 176.98,218.193 177.195,217.972 177.41,217.749 177.625,217.527 177.84,217.305 178.055,217.082 178.27,216.859 178.485,216.636 178.7,216.413 178.915,216.19 179.13,215.966 179.345,215.743 179.56,215.519 179.775,215.295 179.99,215.07 180.205,214.846 180.42,214.621 180.635,214.396 180.85,214.171 181.065,213.946 181.28,213.721 181.495,213.495 181.71,213.27 181.925,213.044 182.14,212.818 182.355,212.592 182.57,212.365 182.785,212.139 183,211.912 183.215,211.685 183.43,211.458 183.645,211.231 183.86,211.004 184.075,210.776 184.29,210.549 184.505,210.321 184.72,210.093 184.935,209.865 185.15,209.636 185.365,209.408 185.58,209.179 185.795,208.95 186.01,208.721 186.225,208.492 186.44,208.263 186.655,208.034 186.87,207.804 187.085,207.575 187.3,207.345 187.515,207.115 187.73,206.885 187.945,206.654 188.16,206.424 188.375,206.193 188.59,205.963 188.805,205.732 189.02,205.501 189.235,205.27 189.45,205.038 189.665,204.807 189.88,204.576 190.095,204.344 190.31,204.112 190.525,203.88 190.74,203.648 190.955,203.416 191.17,203.184 191.385,202.951 191.6,202.719 191.815,202.486 192.03,202.253 192.245,202.02 192.46,201.787 192.675,201.554 192.89,201.32 193.105,201.087 193.32,200.853 193.535,200.62 193.75,200.386 193.965,200.152 194.18,199.918 194.395,199.684 194.61,199.449 194.825,199.215 195.04,198.981 195.255,198.746 195.47,198.511 195.685,198.276 195.9,198.041 196.115,197.806 196.33,197.571 196.545,197.336 196.76,197.1 196.975,196.865 197.19,196.629 197.405,196.394 197.62,196.158 197.835,195.922 198.05,195.686 198.265,195.45 198.48,195.214 198.695,194.978 198.91,194.741 199.125,194.505 199.34,194.268 199.555,194.032 199.77,193.795 199.985,193.558 200.2,193.321 200.415,193.084 200.63,192.847 200.845,192.61 201.06,192.372 201.275,192.135 201.49,191.898 201.705,191.66 201.92,191.423 202.135,191.185 202.35,190.947 202.565,190.709 202.78,190.471 202.995,190.233 203.21,189.995 203.425,189.757 203.64,189.519 203.855,189.281 204.07,189.042 204.285,188.804 204.5,188.565 204.715,188.327 204.93,188.088 205.145,187.85 205.36,187.611 205.575,187.372 205.79,187.133 206.005,186.894 206.22,186.655 206.435,186.416 206.65,186.177 206.865,185.938 207.08,185.698 207.295,185.459 207.51,185.22 207.725,184.98 207.94,184.741 208.155,184.501 208.37,184.262 208.585,184.022 208.8,183.782 209.015,183.543 209.23,183.303 209.445,183.063 209.66,182.823 209.875,182.583 210.09,182.343 210.305,182.104 210.52,181.863 210.735,181.623 210.95,181.383 211.165,181.143 211.38,180.903 211.595,180.663 211.81,180.422 212.025,180.182 212.24,179.942 212.455,179.702 212.67,179.461 212.885,179.221 213.1,178.98 213.315,178.74 213.53,178.499 213.745,178.259 213.96,178.018 214.175,177.778 214.39,177.537 214.605,177.296 214.82,177.056 215.035,176.815 215.25,176.574 215.465,176.334 215.68,176.093 215.895,175.852 216.11,175.612 216.325,175.371 216.54,175.13 216.755,174.889 216.97,174.648 217.185,174.408 217.4,174.167 217.615,173.926 217.83,173.685 218.045,173.444 218.26,173.203 218.475,172.963 218.69,172.722 218.905,172.481 219.12,172.24 219.335,171.999 219.55,171.758 219.765,171.517 219.98,171.277 220.195,171.036 220.41,170.795 220.625,170.554 220.84,170.313 221.055,170.072 221.27,169.832 221.485,169.591 221.7,169.35 221.915,169.109 222.13,168.868 222.345,168.628 222.56,168.387 222.775,168.146 222.99,167.906 223.205,167.665 223.42,167.424 223.635,167.184 223.85,166.943 224.065,166.702 224.28,166.462 224.495,166.221 224.71,165.981 224.925,165.74 225.14,165.5 225.355,165.259 225.57,165.019 225.785,164.778 226,164.538 226.215,164.298 226.43,164.058 226.645,163.817 226.86,163.577 227.075,163.337 227.29,163.097 227.505,162.857 227.72,162.617 227.935,162.376 228.15,162.137 228.365,161.897 228.58,161.657 228.795,161.417 229.01,161.177 229.225,160.937 229.44,160.698 229.655,160.458 229.87,160.218 230.085,159.979 230.3,159.739 230.515,159.5 230.73,159.26 230.945,159.021 231.16,158.782 231.375,158.542 231.59,158.303 231.805,158.064 232.02,157.825 232.235,157.586 232.45,157.347 232.665,157.108 232.88,156.869 233.095,156.63 233.31,156.392 233.525,156.153 233.74,155.915 233.955,155.676 234.17,155.438 234.385,155.199 234.6,154.961 234.815,154.723 235.03,154.485 235.245,154.247 235.46,154.009 235.675,153.771 235.89,153.533 236.105,153.295 236.32,153.057 236.535,152.82 236.75,152.582 236.965,152.345 237.18,152.108 237.395,151.87 237.61,151.633 237.825,151.396 238.04,151.159 238.255,150.922 238.47,150.685 238.685,150.448 238.9,150.212 239.115,149.975 239.33,149.739 239.545,149.502 239.76,149.266 239.975,149.03 240.19,148.794 240.405,148.558 240.62,148.322 240.835,148.086 241.05,147.851 241.265,147.615 241.48,147.38 241.695,147.144 241.91,146.909 242.125,146.674 242.34,146.439 242.555,146.204 242.77,145.969 242.985,145.734 243.2,145.499 243.415,145.265 243.63,145.031 243.845,144.796 244.06,144.562 244.275,144.328 244.49,144.094 244.705,143.86 244.92,143.627 245.135,143.393 245.35,143.16 245.565,142.926 245.78,142.693 245.995,142.46 246.21,142.227 246.425,141.994 246.64,141.761 246.855,141.529 247.07,141.296 247.285,141.064 247.5,140.832 247.715,140.6 247.93,140.368 248.145,140.136 248.36,139.904 248.575,139.673 248.79,139.442 249.005,139.21 249.22,138.979 249.435,138.748 249.65,138.517 249.865,138.287 250.08,138.056 250.295,137.826 250.51,137.595 250.725,137.365 250.94,137.135 251.155,136.905 251.37,136.676 251.585,136.446 251.8,136.217 252.015,135.988 252.23,135.759 252.445,135.53 252.66,135.301 252.875,135.072 253.09,134.844 253.305,134.615 253.52,134.387 253.735,134.159 253.95,133.931 254.165,133.704 254.38,133.476 254.595,133.249 254.81,133.022 255.025,132.795 255.24,132.568 255.455,132.341 255.67,132.115 255.885,131.888 256.1,131.662 256.315,131.436 256.53,131.21 256.745,130.985 256.96,130.759 257.175,130.534 257.39,130.309 257.605,130.084 257.82,129.859 258.035,129.634 258.25,129.41 258.465,129.185 258.68,128.961 258.895,128.737 259.11,128.514 259.325,128.29 259.54,128.067 259.755,127.844 259.97,127.621 260.185,127.398 260.4,127.175 260.615,126.953 260.83,126.731 261.045,126.508 261.26,126.287 261.475,126.065 261.69,125.843 261.905,125.622 262.12,125.401 262.335,125.18 262.55,124.96 262.765,124.739 262.98,124.519 263.195,124.299 263.41,124.079 263.625,123.859 263.84,123.64 264.055,123.42 264.27,123.201 264.485,122.982 264.7,122.764 264.915,122.545 265.13,122.327 265.345,122.109 265.56,121.891 265.775,121.673 265.99,121.456 266.205,121.239 266.42,121.022 266.635,120.805 266.85,120.589 267.065,120.372 267.28,120.156 267.495,119.94 267.71,119.724 267.925,119.509 268.14,119.294 268.355,119.079 268.57,118.864 268.785,118.649 269,118.435 269.215,118.221 269.43,118.007 269.645,117.793 269.86,117.58 270.075,117.367 270.29,117.154 270.505,116.941 270.72,116.728 270.935,116.516 271.15,116.304 271.365,116.092 271.58,115.881 271.795,115.669 272.01,115.458 272.225,115.247 272.44,115.037 272.655,114.826 272.87,114.616 273.085,114.406 273.3,114.196 273.515,113.987 273.73,113.778 273.945,113.569 274.16,113.36 274.375,113.152 274.59,112.943 274.805,112.735 275.02,112.528 275.235,112.32 275.45,112.113 275.665,111.906 275.88,111.699 276.095,111.493 276.31,111.287 276.525,111.081 276.74,110.875 276.955,110.67 277.17,110.464 277.385,110.259 277.6,110.055 277.815,109.85 278.03,109.646 278.245,109.442 278.46,109.239 278.675,109.035 278.89,108.832 279.105,108.629 279.32,108.427 279.535,108.225 279.75,108.023 279.965,107.821 280.18,107.619 280.395,107.418 280.61,107.217 280.825,107.016 281.04,106.816 281.255,106.616 281.47,106.416 281.685,106.216 281.9,106.017 282.115,105.818 282.33,105.619 282.545,105.421 282.76,105.223 282.975,105.025 283.19,104.827 283.405,104.63 283.62,104.433 283.835,104.236 284.05,104.04 284.265,103.843 284.48,103.647 284.695,103.452 284.91,103.256 285.125,103.061 285.34,102.867 285.555,102.672 285.77,102.478 285.985,102.284 286.2,102.09 286.415,101.897 286.63,101.704 286.845,101.511 287.06,101.319 287.275,101.127 287.49,100.935 287.705,100.743 287.92,100.552 288.135,100.361 288.35,100.171 288.565,99.98 288.78,99.79 288.995,99.601 289.21,99.411 289.425,99.222 289.64,99.033 289.855,98.845 290.07,98.657 290.285,98.469 290.5,98.281 290.715,98.094 290.93,97.907 291.145,97.72 291.36,97.534 291.575,97.348 291.79,97.162 292.005,96.977 292.22,96.792 292.435,96.607 292.65,96.422 292.865,96.238 293.08,96.054 293.295,95.871 293.51,95.688 293.725,95.505 293.94,95.322 294.155,95.14 294.37,94.958 294.585,94.777 294.8,94.595 295.015,94.415 295.23,94.234 295.445,94.054 295.66,93.874 295.875,93.694 296.09,93.515 296.305,93.336 296.52,93.157 296.735,92.979 296.95,92.801 297.165,92.623 297.38,92.446 297.595,92.269 297.81,92.092 298.025,91.916 298.24,91.74 298.455,91.565 298.67,91.389 298.885,91.214 299.1,91.04 299.315,90.865 299.53,90.692 299.745,90.518 299.96,90.345 300.175,90.172 300.39,89.999 300.605,89.827 300.82,89.655 301.035,89.484 301.25,89.312 301.465,89.142 301.68,88.971 301.895,88.801 302.11,88.631 302.325,88.462 302.54,88.293 302.755,88.124 302.97,87.956 303.185,87.788 303.4,87.62 303.615,87.453 303.83,87.286 304.045,87.119 304.26,86.953 304.475,86.787 304.69,86.621 304.905,86.456 305.12,86.291 305.335,86.127 305.55,85.963 305.765,85.799 305.98,85.636 306.195,85.472 306.41,85.31 306.625,85.148 306.84,84.986 307.055,84.824 307.27,84.663 307.485,84.502 307.7,84.342 307.915,84.181 308.13,84.022 308.345,83.862 308.56,83.703 308.775,83.545 308.99,83.386 309.205,83.229 309.42,83.071 309.635,82.914 309.85,82.757 310.065,82.601 310.28,82.445 310.495,82.289 310.71,82.134 310.925,81.979 311.14,81.825 311.355,81.67 311.57,81.517 311.785,81.363 312,81.21 312.215,81.058 312.43,80.905 312.645,80.754 312.86,80.602 313.075,80.451 313.29,80.3 313.505,80.15 313.72,80 313.935,79.851 314.15,79.701 314.365,79.553 314.58,79.404 314.795,79.256 315.01,79.109 315.225,78.962 315.44,78.815 315.655,78.668 315.87,78.522 316.085,78.377 316.3,78.231 316.515,78.086 316.73,77.942 316.945,77.798 317.16,77.654 317.375,77.511 317.59,77.368 317.805,77.226 318.02,77.084 318.235,76.942 318.45,76.801 318.665,76.66 318.88,76.519 319.095,76.379 319.31,76.239 319.525,76.1 319.74,75.961 319.955,75.823 320.17,75.685 320.385,75.547 320.6,75.41 320.815,75.273 321.03,75.136 321.245,75 321.46,74.865 321.675,74.729 321.89,74.595 322.105,74.46 322.32,74.326 322.535,74.193 322.75,74.059 322.965,73.927 323.18,73.794 323.395,73.662 323.61,73.531 323.825,73.4 324.04,73.269 324.255,73.138 324.47,73.009 324.685,72.879 324.9,72.75 325.115,72.621 325.33,72.493 325.545,72.365 325.76,72.238 325.975,72.111 326.19,71.984 326.405,71.858 326.62,71.733 326.835,71.607 327.05,71.482 327.265,71.358 327.48,71.234 327.695,71.11 327.91,70.987 328.125,70.864 328.34,70.742 328.555,70.62 328.77,70.499 328.985,70.377 329.2,70.257 329.415,70.137 329.63,70.017 329.845,69.897 330.06,69.779 330.275,69.66 330.49,69.542 330.705,69.424 330.92,69.307 331.135,69.19 331.35,69.074 331.565,68.958 331.78,68.843 331.995,68.728 332.21,68.613 332.425,68.499 332.64,68.385 332.855,68.272 333.07,68.159 333.285,68.046 333.5,67.934 333.715,67.823 333.93,67.712 334.145,67.601 334.36,67.491 334.575,67.381 334.79,67.271 335.005,67.162 335.22,67.054 335.435,66.946 335.65,66.838 335.865,66.731 336.08,66.624 336.295,66.518 336.51,66.412 336.725,66.307 336.94,66.202 337.155,66.097 337.37,65.993 337.585,65.889 337.8,65.786 338.015,65.683 338.23,65.581 338.445,65.479 338.66,65.378 338.875,65.277 339.09,65.176 339.305,65.076 339.52,64.977 339.735,64.877 339.95,64.779 340.165,64.68 340.38,64.583 340.595,64.485 340.81,64.388 341.025,64.292 341.24,64.196 341.455,64.1 341.67,64.005 341.885,63.91 342.1,63.816 342.315,63.723 342.53,63.629 342.745,63.536 342.96,63.444 343.175,63.352 343.39,63.261 343.605,63.169 343.82,63.079 344.035,62.989 344.25,62.899 344.465,62.81 344.68,62.721 344.895,62.633 345.11,62.545 345.325,62.458 345.54,62.371 345.755,62.284 345.97,62.198 346.185,62.113 346.4,62.028 346.615,61.943 346.83,61.859 347.045,61.775 347.26,61.692 347.475,61.609 347.69,61.527 347.905,61.445 348.12,61.364 348.335,61.283 348.55,61.202 348.765,61.122 348.98,61.043 349.195,60.964 349.41,60.885 349.625,60.807 349.84,60.73 350.055,60.652 350.27,60.576 350.485,60.499 350.7,60.424 350.915,60.348 351.13,60.273 351.345,60.199 351.56,60.125 351.775,60.052 351.99,59.979 352.205,59.906 352.42,59.834 352.635,59.763 352.85,59.691 353.065,59.621 353.28,59.551 353.495,59.481 353.71,59.412 353.925,59.343 354.14,59.275 354.355,59.207 354.57,59.14 354.785,59.073 355,59.006 355.215,58.941 355.43,58.875 355.645,58.81 355.86,58.746 356.075,58.682 356.29,58.618 356.505,58.555 356.72,58.493 356.935,58.43 357.15,58.369 357.365,58.308 357.58,58.247 357.795,58.187 358.01,58.127 358.225,58.068 358.44,58.009 358.655,57.951 358.87,57.893 359.085,57.836 359.3,57.779 359.515,57.722 359.73,57.667 359.945,57.611 360.16,57.556 360.375,57.502 360.59,57.448 360.805,57.394 361.02,57.341 361.235,57.289 361.45,57.237 361.665,57.185 361.88,57.134 362.095,57.083 362.31,57.033 362.525,56.984 362.74,56.935 362.955,56.886 363.17,56.838 363.385,56.79 363.6,56.743 363.815,56.696 364.03,56.65 364.245,56.604 364.46,56.559 364.675,56.514 364.89,56.469 365.105,56.426 365.32,56.382 365.535,56.339 365.75,56.297 365.965,56.255 366.18,56.214 366.395,56.173 366.61,56.132 366.825,56.092 367.04,56.053 367.255,56.014 367.47,55.975 367.685,55.937 367.9,55.9 368.115,55.863 368.33,55.826 368.545,55.79 368.76,55.755 368.975,55.719 369.19,55.685 369.405,55.651 369.62,55.617 369.835,55.584 370.05,55.551 370.265,55.519 370.48,55.487 370.695,55.456 370.91,55.426 371.125,55.395 371.34,55.366 371.555,55.336 371.77,55.308 371.985,55.279 372.2,55.252 372.415,55.224 372.63,55.198 372.845,55.171 373.06,55.145 373.275,55.12 373.49,55.095 373.705,55.071 373.92,55.047 374.135,55.024 374.35,55.001 374.565,54.978 374.78,54.957 374.995,54.935 375.21,54.914 375.425,54.894 375.64,54.874 375.855,54.854 376.07,54.835 376.285,54.817 376.5,54.799 376.715,54.782 376.93,54.765 377.145,54.748 377.36,54.732 377.575,54.717 377.79,54.702 378.005,54.687 378.22,54.673 378.435,54.66 378.65,54.646 378.865,54.634 379.08,54.622 379.295,54.61 379.51,54.599 379.725,54.589 379.94,54.579 380.155,54.569 380.37,54.56 380.585,54.551 380.8,54.543 381.015,54.535 381.23,54.528 381.445,54.522 381.66,54.515 381.875,54.51 382.09,54.505 382.305,54.5 382.52,54.496 382.735,54.492 382.95,54.489 383.165,54.486 383.38,54.484 383.595,54.482 383.81,54.481 384.025,54.48 384.24,54.48 384.455,54.48 384.67,54.48 384.885,54.48 385.1,54.48 385.315,54.48 385.53,54.48 385.745,54.48 385.96,54.48 386.175,54.48 386.39,54.48 386.605,54.48 386.82,54.48 387.035,54.48 387.25,54.48 387.465,54.48 387.68,54.48 387.895,54.48 388.11,54.48 388.325,54.48 388.54,54.48 388.755,54.48 388.97,54.48 389.185,54.48 389.4,54.48 389.615,54.48 389.83,54.48 390.045,54.48 390.26,54.48 390.475,54.48 390.69,54.48 390.905,54.48 391.12,54.48 391.335,54.48 391.55,54.48 391.765,54.48 391.98,54.48 392.195,54.48 392.41,54.48 392.625,54.48 392.84,54.48 393.055,54.48 393.27,54.48 393.485,54.48 393.7,54.48 393.915,54.48 394.13,54.48 394.345,54.48 394.56,54.48 394.775,54.48 394.99,54.48 395.205,54.48 395.42,54.48 395.635,54.48 395.85,54.48 396.065,54.48 396.28,54.48 396.495,54.48 396.71,54.48 396.925,54.48 397.14,54.48 397.355,54.48 397.57,54.48 397.785,54.48 398,54.48 398.215,54.48 398.43,54.48 398.645,54.48 398.86,54.48 399.075,54.48 399.29,54.48 399.505,54.48 399.72,54.48 399.935,54.48 400.15,54.48 400.365,54.48 400.58,54.48 400.795,54.48 401.01,54.48 401.225,54.48 401.44,54.48 401.655,54.48 401.87,54.48 402.085,54.48 402.3,54.48 402.515,54.48 402.73,54.48 402.945,54.48 403.16,54.48 403.375,54.48 403.59,54.48 403.805,54.48 404.02,54.48 404.235,54.48 404.45,54.48 404.665,54.48 404.88,54.48 405.095,54.481 405.31,54.484 405.525,54.489 405.74,54.496 405.955,54.505 406.17,54.515 406.385,54.528 406.6,54.543 406.815,54.56 407.03,54.579 407.245,54.599 407.46,54.622 407.675,54.646 407.89,54.673 408.105,54.702 408.32,54.732 408.535,54.765 408.75,54.799 408.965,54.835 409.18,54.874 409.395,54.914 409.61,54.957 409.825,55.001 410.04,55.047 410.255,55.095 410.47,55.145 410.685,55.198 410.9,55.252 411.115,55.308 411.33,55.366 411.545,55.426 411.76,55.487 411.975,55.551 412.19,55.617 412.405,55.685 412.62,55.755 412.835,55.826 413.05,55.9 413.265,55.975 413.48,56.053 413.695,56.132 413.91,56.214 414.125,56.297 414.34,56.382 414.555,56.469 414.77,56.559 414.985,56.65 415.2,56.743 415.415,56.838 415.63,56.935 415.845,57.033 416.06,57.134 416.275,57.237 416.49,57.341 416.705,57.448 416.92,57.556 417.135,57.667 417.35,57.779 417.565,57.893 417.78,58.009 417.995,58.127 418.21,58.247 418.425,58.369 418.64,58.493 418.855,58.618 419.07,58.746 419.285,58.875 419.5,59.006 419.715,59.14 419.93,59.275 420.145,59.412 420.36,59.551 420.575,59.691 420.79,59.834 421.005,59.979 421.22,60.125 421.435,60.273 421.65,60.424 421.865,60.576 422.08,60.73 422.295,60.885 422.51,61.043 422.725,61.202 422.94,61.364 423.155,61.527 423.37,61.692 423.585,61.859 423.8,62.028 424.015,62.198 424.23,62.371 424.445,62.545 424.66,62.721 424.875,62.899 425.09,63.079 425.305,63.261 425.52,63.444 425.735,63.629 425.95,63.816 426.165,64.005 426.38,64.196 426.595,64.388 426.81,64.583 427.025,64.779 427.24,64.977 427.455,65.176 427.67,65.378 427.885,65.581 428.1,65.786 428.315,65.993 428.53,66.202 428.745,66.412 428.96,66.624 429.175,66.838 429.39,67.054 429.605,67.271 429.82,67.491 430.035,67.712 430.25,67.934 430.465,68.159 430.68,68.385 430.895,68.613 431.11,68.843 431.325,69.074 431.54,69.307 431.755,69.542 431.97,69.779 432.185,70.017 432.4,70.257 432.615,70.499 432.83,70.742 433.045,70.987 433.26,71.234 433.475,71.482 433.69,71.733 433.905,71.984 434.12,72.238 434.335,72.493 434.55,72.75 434.765,73.009 434.98,73.269 435.195,73.531 435.41,73.794 435.625,74.059 435.84,74.326 436.055,74.595 436.27,74.865 436.485,75.136 436.7,75.41 436.915,75.685 437.13,75.961 437.345,76.239 437.56,76.519 437.775,76.801 437.99,77.084 438.205,77.368 438.42,77.654 438.635,77.942 438.85,78.231 439.065,78.522 439.28,78.815 439.495,79.109 439.71,79.404 439.925,79.701 440.14,80 440.355,80.3 440.57,80.602 440.785,80.905 441,81.21 441.215,81.517 441.43,81.825 441.645,82.134 441.86,82.445 442.075,82.757 442.29,83.071 442.505,83.386 442.72,83.703 442.935,84.022 443.15,84.342 443.365,84.663 443.58,84.986 443.795,85.31 444.01,85.636 444.225,85.963 444.44,86.291 444.655,86.621 444.87,86.953 445.085,87.286 445.3,87.62 445.515,87.956 445.73,88.293 445.945,88.631 446.16,88.971 446.375,89.312 446.59,89.655 446.805,89.999 447.02,90.345 447.235,90.692 447.45,91.04 447.665,91.389 447.88,91.74 448.095,92.092 448.31,92.446 448.525,92.801 448.74,93.157 448.955,93.515 449.17,93.874 449.385,94.234 449.6,94.595 449.815,94.958 450.03,95.322 450.245,95.688 450.46,96.054 450.675,96.422 450.89,96.792 451.105,97.162 451.32,97.534 451.535,97.907 451.75,98.281 451.965,98.657 452.18,99.033 452.395,99.411 452.61,99.79 452.825,100.171 453.04,100.552 453.255,100.935 453.47,101.319 453.685,101.704 453.9,102.09 454.115,102.478 454.33,102.867 454.545,103.256 454.76,103.647 454.975,104.04 455.19,104.433 455.405,104.827 455.62,105.223 455.835,105.619 456.05,106.017 456.265,106.416 456.48,106.816 456.695,107.217 456.91,107.619 457.125,108.023 457.34,108.427 457.555,108.832 457.77,109.239 457.985,109.646 458.2,110.055 458.415,110.464 458.63,110.875 458.845,111.287 459.06,111.699 459.275,112.113 459.49,112.528 459.705,112.943 459.92,113.36 460.135,113.778 460.35,114.196 460.565,114.616 460.78,115.037 460.995,115.458 461.21,115.881 461.425,116.304 461.64,116.728 461.855,117.154 462.07,117.58 462.285,118.007 462.5,118.435 462.715,118.864 462.93,119.294 463.145,119.724 463.36,120.156 463.575,120.589 463.79,121.022 464.005,121.456 464.22,121.891 464.435,122.327 464.65,122.764 464.865,123.201 465.08,123.64 465.295,124.079 465.51,124.519 465.725,124.96 465.94,125.401 466.155,125.843 466.37,126.287 466.585,126.731 466.8,127.175 467.015,127.621 467.23,128.067 467.445,128.514 467.66,128.961 467.875,129.41 468.09,129.859 468.305,130.309 468.52,130.759 468.735,131.21 468.95,131.662 469.165,132.115 469.38,132.568 469.595,133.022 469.81,133.476 470.025,133.931 470.24,134.387 470.455,134.844 470.67,135.301 470.885,135.759 471.1,136.217 471.315,136.676 471.53,137.135 471.745,137.595 471.96,138.056 472.175,138.517 472.39,138.979 472.605,139.442 472.82,139.904 473.035,140.368 473.25,140.832 473.465,141.296 473.68,141.761 473.895,142.227 474.11,142.693 474.325,143.16 474.54,143.627 474.755,144.094 474.97,144.562 475.185,145.031 475.4,145.499 475.615,145.969 475.83,146.439 476.045,146.909 476.26,147.38 476.475,147.851 476.69,148.322 476.905,148.794 477.12,149.266 477.335,149.739 477.55,150.212 477.765,150.685 477.98,151.159 478.195,151.633 478.41,152.108 478.625,152.582 478.84,153.057 479.055,153.533 479.27,154.009 479.485,154.485 479.7,154.961 479.915,155.438 480.13,155.915 480.345,156.392 480.56,156.869 480.775,157.347 480.99,157.825 481.205,158.303 481.42,158.782 481.635,159.26 481.85,159.739 482.065,160.218 482.28,160.698 482.495,161.177 482.71,161.657 482.925,162.137 483.14,162.617 483.355,163.097 483.57,163.577 483.785,164.058 484,164.538 484.215,165.019 484.43,165.5 484.645,165.981 484.86,166.462 485.075,166.943 485.29,167.424 485.505,167.906 485.72,168.387 485.935,168.868 486.15,169.35 486.365,169.832 486.58,170.313 486.795,170.795 487.01,171.277 487.225,171.758 487.44,172.24 487.655,172.722 487.87,173.203 488.085,173.685 488.3,174.167 488.515,174.648 488.73,175.13 488.945,175.612 489.16,176.093 489.375,176.574 489.59,177.056 489.805,177.537 490.02,178.018 490.235,178.499 490.45,178.98 490.665,179.461 490.88,179.942 491.095,180.422 491.31,180.903 491.525,181.383 491.74,181.863 491.955,182.343 492.17,182.823 492.385,183.303 492.6,183.782 492.815,184.262 493.03,184.741 493.245,185.22 493.46,185.698 493.675,186.177 493.89,186.655 494.105,187.133 494.32,187.611 494.535,188.088 494.75,188.565 494.965,189.042 495.18,189.519 495.395,189.995 495.61,190.471 495.825,190.947 496.04,191.423 496.255,191.898 496.47,192.372 496.685,192.847 496.9,193.321 497.115,193.795 497.33,194.268 497.545,194.741 497.76,195.214 497.975,195.686 498.19,196.158 498.405,196.629 498.62,197.1 498.835,197.571 499.05,198.041 499.265,198.511 499.48,198.981 499.695,199.449 499.91,199.918 500.125,200.386 500.34,200.853 500.555,201.32 500.77,201.787 500.985,202.253 501.2,202.719 501.415,203.184 501.63,203.648 501.845,204.112 502.06,204.576 502.275,205.038 502.49,205.501 502.705,205.963 502.92,206.424 503.135,206.885 503.35,207.345 503.565,207.804 503.78,208.263 503.995,208.721 504.21,209.179 504.425,209.636 504.64,210.093 504.855,210.549 505.07,211.004 505.285,211.458 505.5,211.912 505.715,212.365 505.93,212.818 506.145,213.27 506.36,213.721 506.575,214.171 506.79,214.621 507.005,215.07 507.22,215.519 507.435,215.966 507.65,216.413 507.865,216.859 508.08,217.305 508.295,217.749 508.51,218.193 508.725,218.637 508.94,219.079 509.155,219.52 509.37,219.961 509.585,220.401 509.8,220.84 510.015,221.279 510.23,221.716 510.445,222.153 510.66,222.589 510.875,223.024 511.09,223.458 511.305,223.891 511.52,224.324 511.735,224.756 511.95,225.186 512.165,225.616 512.38,226.045 512.595,226.473 512.81,226.9 513.025,227.326 513.24,227.752 513.455,228.176 513.67,228.599 513.885,229.022 514.1,229.443 514.315,229.864 514.53,230.284 514.745,230.702 514.96,231.12 515.175,231.537 515.39,231.952 515.605,232.367 515.82,232.781 516.035,233.193 516.25,233.605 516.465,234.016 516.68,234.425 516.895,234.834 517.11,235.241 517.325,235.648 517.54,236.053 517.755,236.457 517.97,236.861 518.185,237.263 518.4,237.664 518.615,238.064 518.83,238.463 519.045,238.861 519.26,239.257 519.475,239.653 519.69,240.047 519.905,240.44 520.12,240.833 520.335,241.224 520.55,241.613 520.765,242.002 520.98,242.39 521.195,242.776 521.41,243.161 521.625,243.545 521.84,243.928 522.055,244.309 522.27,244.69 522.485,245.069 522.7,245.447 522.915,245.823 523.13,246.199 523.345,246.573 523.56,246.946 523.775,247.318 523.99,247.688 524.205,248.058 524.42,248.426 524.635,248.792 524.85,249.158 525.065,249.522 525.28,249.885 525.495,250.246 525.71,250.606 525.925,250.965 526.14,251.323 526.355,251.679 526.57,252.034 526.785,252.388 527,252.74 527.215,253.091 527.43,253.44 527.645,253.788 527.86,254.135 528.075,254.481 528.29,254.825 528.505,255.168 528.72,255.509 528.935,255.849 529.15,256.187 529.365,256.524 529.58,256.86 529.795,257.194 530.01,257.527 530.225,257.859 530.44,258.189 530.655,258.517 530.87,258.844 531.085,259.17 531.3,259.494 531.515,259.817 531.73,260.138 531.945,260.458 532.16,260.777 532.375,261.094 532.59,261.409 532.805,261.723 533.02,262.035 533.235,262.346 533.45,262.655 533.665,262.963 533.88,263.27 534.095,263.575 534.31,263.878 534.525,264.18 534.74,264.48 534.955,264.779 535.17,265.076 535.385,265.371 535.6,265.665 535.815,265.958 536.03,266.249 536.245,266.538 536.46,266.826 536.675,267.112 536.89,267.396 537.105,267.679 537.32,267.961 537.535,268.241 537.75,268.519 537.965,268.795 538.18,269.07 538.395,269.344 538.61,269.615 538.825,269.885 539.04,270.154 539.255,270.421 539.47,270.686 539.685,270.949 539.9,271.211 540.115,271.471 540.33,271.73 540.545,271.987 540.76,272.242 540.975,272.496 541.19,272.747 541.405,272.998 541.62,273.246 541.835,273.493 542.05,273.738 542.265,273.981 542.48,274.223 542.695,274.463 542.91,274.701 543.125,274.938 543.34,275.173 543.555,275.406 543.77,275.637 543.985,275.867 544.2,276.095 544.415,276.321 544.63,276.546 544.845,276.768 545.06,276.989 545.275,277.209 545.49,277.426 545.705,277.642 545.92,277.856 546.135,278.068 546.35,278.278 546.565,278.487 546.78,278.694 546.995,278.899 547.21,279.102 547.425,279.304 547.64,279.503 547.855,279.701 548.07,279.897 548.285,280.092 548.5,280.284 548.715,280.475 548.93,280.664 549.145,280.851 549.36,281.036 549.575,281.219 549.79,281.401 550.005,281.581 550.22,281.759 550.435,281.935 550.65,282.109 550.865,282.282 551.08,282.452 551.295,282.621 551.51,282.788 551.725,282.953 551.94,283.116 552.155,283.278 552.37,283.437 552.585,283.595 552.8,283.75 553.015,283.904 553.23,284.056 553.445,284.207 553.66,284.355 553.875,284.501 554.09,284.646 554.305,284.789 554.52,284.929 554.735,285.068 554.95,285.205 555.165,285.34 555.38,285.474 555.595,285.605 555.81,285.734 556.025,285.862 556.24,285.987 556.455,286.111 556.67,286.233 556.885,286.353 557.1,286.471 557.315,286.587 557.53,286.701 557.745,286.813 557.96,286.924 558.175,287.032 558.39,287.139 558.605,287.243 558.82,287.346 559.035,287.447 559.25,287.545 559.465,287.642 559.68,287.737 559.895,287.83 560.11,287.921 560.325,288.011 560.54,288.098 560.755,288.183 560.97,288.266 561.185,288.348 561.4,288.427 561.615,288.505 561.83,288.58 562.045,288.654 562.26,288.725 562.475,288.795 562.69,288.863 562.905,288.929 563.12,288.993 563.335,289.054 563.55,289.114 563.765,289.172 563.98,289.228 564.195,289.282 564.41,289.335 564.625,289.385 564.84,289.433 565.055,289.479 565.27,289.523 565.485,289.566 565.7,289.606 565.915,289.645 566.13,289.681 566.345,289.715 566.56,289.748 566.775,289.778 566.99,289.807 567.205,289.834 567.42,289.858 567.635,289.881 567.85,289.901 568.065,289.92 568.28,289.937 568.495,289.952 568.71,289.965 568.925,289.975 569.14,289.984 569.355,289.991 569.57,289.996 569.785,289.999 570,290" fill="none" stroke="#c2622a" stroke-width="2" opacity="0.9"/>
<rect x="582" y="38" width="10" height="10" fill="#c2622a"/>
<text x="596" y="47" fill="#c9bfa9" font-size="10">macro Fade</text>
<polyline points="54,290 54.215,290 54.43,290 54.645,289.999 54.86,289.999 55.075,289.998 55.29,289.997 55.505,289.995 55.72,289.994 55.935,289.992 56.15,289.991 56.365,289.989 56.58,289.987 56.795,289.984 57.01,289.982 57.225,289.979 57.44,289.976 57.655,289.973 57.87,289.97 58.085,289.966 58.3,289.963 58.515,289.959 58.73,289.955 58.945,289.95 59.16,289.946 59.375,289.941 59.59,289.937 59.805,289.932 60.02,289.927 60.235,289.921 60.45,289.916 60.665,289.91 60.88,289.904 61.095,289.898 61.31,289.892 61.525,289.885 61.74,289.879 61.955,289.872 62.17,289.865 62.385,289.858 62.6,289.85 62.815,289.843 63.03,289.835 63.245,289.827 63.46,289.819 63.675,289.81 63.89,289.802 64.105,289.793 64.32,289.784 64.535,289.775 64.75,289.766 64.965,289.756 65.18,289.747 65.395,289.737 65.61,289.727 65.825,289.717 66.04,289.706 66.255,289.696 66.47,289.685 66.685,289.674 66.9,289.663 67.115,289.652 67.33,289.64 67.545,289.629 67.76,289.617 67.975,289.605 68.19,289.592 68.405,289.58 68.62,289.567 68.835,289.555 69.05,289.542 69.265,289.528 69.48,289.515 69.695,289.502 69.91,289.488 70.125,289.474 70.34,289.46 70.555,289.446 70.77,289.431 70.985,289.416 71.2,289.402 71.415,289.387 71.63,289.371 71.845,289.356 72.06,289.34 72.275,289.325 72.49,289.309 72.705,289.293 72.92,289.276 73.135,289.26 73.35,289.243 73.565,289.226 73.78,289.209 73.995,289.192 74.21,289.175 74.425,289.157 74.64,289.139 74.855,289.121 75.07,289.103 75.285,289.085 75.5,289.066 75.715,289.048 75.93,289.029 76.145,289.01 76.36,288.99 76.575,288.971 76.79,288.951 77.005,288.931 77.22,288.911 77.435,288.891 77.65,288.871 77.865,288.85 78.08,288.83 78.295,288.809 78.51,288.788 78.725,288.766 78.94,288.745 79.155,288.723 79.37,288.702 79.585,288.68 79.8,288.657 80.015,288.635 80.23,288.613 80.445,288.59 80.66,288.567 80.875,288.544 81.09,288.521 81.305,288.497 81.52,288.473 81.735,288.45 81.95,288.426 82.165,288.402 82.38,288.377 82.595,288.353 82.81,288.328 83.025,288.303 83.24,288.278 83.455,288.253 83.67,288.227 83.885,288.202 84.1,288.176 84.315,288.15 84.53,288.124 84.745,288.097 84.96,288.071 85.175,288.044 85.39,288.017 85.605,287.99 85.82,287.963 86.035,287.936 86.25,287.908 86.465,287.88 86.68,287.852 86.895,287.824 87.11,287.796 87.325,287.768 87.54,287.739 87.755,287.71 87.97,287.681 88.185,287.652 88.4,287.622 88.615,287.593 88.83,287.563 89.045,287.533 89.26,287.503 89.475,287.473 89.69,287.443 89.905,287.412 90.12,287.381 90.335,287.35 90.55,287.319 90.765,287.288 90.98,287.256 91.195,287.225 91.41,287.193 91.625,287.161 91.84,287.129 92.055,287.096 92.27,287.064 92.485,287.031 92.7,286.998 92.915,286.965 93.13,286.932 93.345,286.898 93.56,286.865 93.775,286.831 93.99,286.797 94.205,286.763 94.42,286.729 94.635,286.694 94.85,286.66 95.065,286.625 95.28,286.59 95.495,286.555 95.71,286.519 95.925,286.484 96.14,286.448 96.355,286.412 96.57,286.376 96.785,286.34 97,286.304 97.215,286.267 97.43,286.231 97.645,286.194 97.86,286.157 98.075,286.119 98.29,286.082 98.505,286.044 98.72,286.007 98.935,285.969 99.15,285.931 99.365,285.892 99.58,285.854 99.795,285.815 100.01,285.777 100.225,285.738 100.44,285.699 100.655,285.659 100.87,285.62 101.085,285.58 101.3,285.541 101.515,285.501 101.73,285.461 101.945,285.42 102.16,285.38 102.375,285.339 102.59,285.299 102.805,285.258 103.02,285.216 103.235,285.175 103.45,285.134 103.665,285.092 103.88,285.05 104.095,285.008 104.31,284.966 104.525,284.924 104.74,284.882 104.955,284.839 105.17,284.796 105.385,284.753 105.6,284.71 105.815,284.667 106.03,284.623 106.245,284.58 106.46,284.536 106.675,284.492 106.89,284.448 107.105,284.404 107.32,284.359 107.535,284.315 107.75,284.27 107.965,284.225 108.18,284.18 108.395,284.135 108.61,284.089 108.825,284.044 109.04,283.998 109.255,283.952 109.47,283.906 109.685,283.86 109.9,283.813 110.115,283.767 110.33,283.72 110.545,283.673 110.76,283.626 110.975,283.579 111.19,283.532 111.405,283.484 111.62,283.437 111.835,283.389 112.05,283.341 112.265,283.293 112.48,283.244 112.695,283.196 112.91,283.147 113.125,283.098 113.34,283.049 113.555,283 113.77,282.951 113.985,282.902 114.2,282.852 114.415,282.802 114.63,282.752 114.845,282.702 115.06,282.652 115.275,282.602 115.49,282.551 115.705,282.501 115.92,282.45 116.135,282.399 116.35,282.348 116.565,282.296 116.78,282.245 116.995,282.193 117.21,282.142 117.425,282.09 117.64,282.038 117.855,281.985 118.07,281.933 118.285,281.88 118.5,281.828 118.715,281.775 118.93,281.722 119.145,281.669 119.36,281.616 119.575,281.562 119.79,281.508 120.005,281.455 120.22,281.401 120.435,281.347 120.65,281.293 120.865,281.238 121.08,281.184 121.295,281.129 121.51,281.074 121.725,281.019 121.94,280.964 122.155,280.909 122.37,280.853 122.585,280.798 122.8,280.742 123.015,280.686 123.23,280.63 123.445,280.574 123.66,280.518 123.875,280.461 124.09,280.405 124.305,280.348 124.52,280.291 124.735,280.234 124.95,280.177 125.165,280.12 125.38,280.062 125.595,280.005 125.81,279.947 126.025,279.889 126.24,279.831 126.455,279.773 126.67,279.714 126.885,279.656 127.1,279.597 127.315,279.538 127.53,279.479 127.745,279.42 127.96,279.361 128.175,279.302 128.39,279.242 128.605,279.183 128.82,279.123 129.035,279.063 129.25,279.003 129.465,278.943 129.68,278.882 129.895,278.822 130.11,278.761 130.325,278.701 130.54,278.64 130.755,278.579 130.97,278.517 131.185,278.456 131.4,278.395 131.615,278.333 131.83,278.271 132.045,278.209 132.26,278.147 132.475,278.085 132.69,278.023 132.905,277.96 133.12,277.898 133.335,277.835 133.55,277.772 133.765,277.709 133.98,277.646 134.195,277.583 134.41,277.52 134.625,277.456 134.84,277.392 135.055,277.329 135.27,277.265 135.485,277.201 135.7,277.136 135.915,277.072 136.13,277.008 136.345,276.943 136.56,276.878 136.775,276.814 136.99,276.749 137.205,276.683 137.42,276.618 137.635,276.553 137.85,276.487 138.065,276.422 138.28,276.356 138.495,276.29 138.71,276.224 138.925,276.158 139.14,276.091 139.355,276.025 139.57,275.958 139.785,275.892 140,275.825 140.215,275.758 140.43,275.691 140.645,275.624 140.86,275.556 141.075,275.489 141.29,275.421 141.505,275.354 141.72,275.286 141.935,275.218 142.15,275.15 142.365,275.082 142.58,275.013 142.795,274.945 143.01,274.876 143.225,274.808 143.44,274.739 143.655,274.67 143.87,274.601 144.085,274.531 144.3,274.462 144.515,274.393 144.73,274.323 144.945,274.253 145.16,274.184 145.375,274.114 145.59,274.044 145.805,273.973 146.02,273.903 146.235,273.833 146.45,273.762 146.665,273.692 146.88,273.621 147.095,273.55 147.31,273.479 147.525,273.408 147.74,273.337 147.955,273.265 148.17,273.194 148.385,273.122 148.6,273.05 148.815,272.979 149.03,272.907 149.245,272.835 149.46,272.762 149.675,272.69 149.89,272.618 150.105,272.545 150.32,272.473 150.535,272.4 150.75,272.327 150.965,272.254 151.18,272.181 151.395,272.108 151.61,272.034 151.825,271.961 152.04,271.887 152.255,271.814 152.47,271.74 152.685,271.666 152.9,271.592 153.115,271.518 153.33,271.444 153.545,271.369 153.76,271.295 153.975,271.22 154.19,271.146 154.405,271.071 154.62,270.996 154.835,270.921 155.05,270.846 155.265,270.771 155.48,270.696 155.695,270.62 155.91,270.545 156.125,270.469 156.34,270.393 156.555,270.318 156.77,270.242 156.985,270.166 157.2,270.09 157.415,270.013 157.63,269.937 157.845,269.861 158.06,269.784 158.275,269.707 158.49,269.631 158.705,269.554 158.92,269.477 159.135,269.4 159.35,269.323 159.565,269.245 159.78,269.168 159.995,269.09 160.21,269.013 160.425,268.935 160.64,268.857 160.855,268.78 161.07,268.702 161.285,268.624 161.5,268.545 161.715,268.467 161.93,268.389 162.145,268.31 162.36,268.232 162.575,268.153 162.79,268.074 163.005,267.996 163.22,267.917 163.435,267.838 163.65,267.759 163.865,267.679 164.08,267.6 164.295,267.521 164.51,267.441 164.725,267.362 164.94,267.282 165.155,267.202 165.37,267.122 165.585,267.042 165.8,266.962 166.015,266.882 166.23,266.802 166.445,266.722 166.66,266.641 166.875,266.561 167.09,266.48 167.305,266.399 167.52,266.319 167.735,266.238 167.95,266.157 168.165,266.076 168.38,265.995 168.595,265.913 168.81,265.832 169.025,265.751 169.24,265.669 169.455,265.588 169.67,265.506 169.885,265.424 170.1,265.343 170.315,265.261 170.53,265.179 170.745,265.097 170.96,265.015 171.175,264.932 171.39,264.85 171.605,264.768 171.82,264.685 172.035,264.603 172.25,264.52 172.465,264.437 172.68,264.354 172.895,264.272 173.11,264.189 173.325,264.106 173.54,264.023 173.755,263.939 173.97,263.856 174.185,263.773 174.4,263.689 174.615,263.606 174.83,263.522 175.045,263.439 175.26,263.355 175.475,263.271 175.69,263.187 175.905,263.103 176.12,263.019 176.335,262.935 176.55,262.851 176.765,262.767 176.98,262.682 177.195,262.598 177.41,262.513 177.625,262.429 177.84,262.344 178.055,262.26 178.27,262.175 178.485,262.09 178.7,262.005 178.915,261.92 179.13,261.835 179.345,261.75 179.56,261.665 179.775,261.579 179.99,261.494 180.205,261.409 180.42,261.323 180.635,261.238 180.85,261.152 181.065,261.067 181.28,260.981 181.495,260.895 181.71,260.809 181.925,260.723 182.14,260.637 182.355,260.551 182.57,260.465 182.785,260.379 183,260.293 183.215,260.206 183.43,260.12 183.645,260.034 183.86,259.947 184.075,259.861 184.29,259.774 184.505,259.687 184.72,259.6 184.935,259.514 185.15,259.427 185.365,259.34 185.58,259.253 185.795,259.166 186.01,259.079 186.225,258.992 186.44,258.904 186.655,258.817 186.87,258.73 187.085,258.642 187.3,258.555 187.515,258.468 187.73,258.38 187.945,258.292 188.16,258.205 188.375,258.117 188.59,258.029 188.805,257.941 189.02,257.854 189.235,257.766 189.45,257.678 189.665,257.59 189.88,257.502 190.095,257.413 190.31,257.325 190.525,257.237 190.74,257.149 190.955,257.06 191.17,256.972 191.385,256.884 191.6,256.795 191.815,256.707 192.03,256.618 192.245,256.529 192.46,256.441 192.675,256.352 192.89,256.263 193.105,256.174 193.32,256.086 193.535,255.997 193.75,255.908 193.965,255.819 194.18,255.73 194.395,255.641 194.61,255.551 194.825,255.462 195.04,255.373 195.255,255.284 195.47,255.194 195.685,255.105 195.9,255.016 196.115,254.926 196.33,254.837 196.545,254.747 196.76,254.658 196.975,254.568 197.19,254.479 197.405,254.389 197.62,254.299 197.835,254.209 198.05,254.12 198.265,254.03 198.48,253.94 198.695,253.85 198.91,253.76 199.125,253.67 199.34,253.58 199.555,253.49 199.77,253.4 199.985,253.31 200.2,253.22 200.415,253.13 200.63,253.04 200.845,252.949 201.06,252.859 201.275,252.769 201.49,252.678 201.705,252.588 201.92,252.498 202.135,252.407 202.35,252.317 202.565,252.226 202.78,252.136 202.995,252.045 203.21,251.955 203.425,251.864 203.64,251.774 203.855,251.683 204.07,251.592 204.285,251.501 204.5,251.411 204.715,251.32 204.93,251.229 205.145,251.138 205.36,251.048 205.575,250.957 205.79,250.866 206.005,250.775 206.22,250.684 206.435,250.593 206.65,250.502 206.865,250.411 207.08,250.32 207.295,250.229 207.51,250.138 207.725,250.047 207.94,249.956 208.155,249.865 208.37,249.774 208.585,249.682 208.8,249.591 209.015,249.5 209.23,249.409 209.445,249.318 209.66,249.226 209.875,249.135 210.09,249.044 210.305,248.952 210.52,248.861 210.735,248.77 210.95,248.678 211.165,248.587 211.38,248.496 211.595,248.404 211.81,248.313 212.025,248.221 212.24,248.13 212.455,248.039 212.67,247.947 212.885,247.856 213.1,247.764 213.315,247.673 213.53,247.581 213.745,247.49 213.96,247.398 214.175,247.307 214.39,247.215 214.605,247.124 214.82,247.032 215.035,246.941 215.25,246.849 215.465,246.757 215.68,246.666 215.895,246.574 216.11,246.483 216.325,246.391 216.54,246.299 216.755,246.208 216.97,246.116 217.185,246.025 217.4,245.933 217.615,245.841 217.83,245.75 218.045,245.658 218.26,245.567 218.475,245.475 218.69,245.383 218.905,245.292 219.12,245.2 219.335,245.108 219.55,245.017 219.765,244.925 219.98,244.833 220.195,244.742 220.41,244.65 220.625,244.559 220.84,244.467 221.055,244.375 221.27,244.284 221.485,244.192 221.7,244.101 221.915,244.009 222.13,243.917 222.345,243.826 222.56,243.734 222.775,243.643 222.99,243.551 223.205,243.459 223.42,243.368 223.635,243.276 223.85,243.185 224.065,243.093 224.28,243.002 224.495,242.91 224.71,242.819 224.925,242.727 225.14,242.636 225.355,242.544 225.57,242.453 225.785,242.361 226,242.27 226.215,242.179 226.43,242.087 226.645,241.996 226.86,241.904 227.075,241.813 227.29,241.722 227.505,241.63 227.72,241.539 227.935,241.448 228.15,241.356 228.365,241.265 228.58,241.174 228.795,241.082 229.01,240.991 229.225,240.9 229.44,240.809 229.655,240.718 229.87,240.626 230.085,240.535 230.3,240.444 230.515,240.353 230.73,240.262 230.945,240.171 231.16,240.08 231.375,239.989 231.59,239.898 231.805,239.807 232.02,239.716 232.235,239.625 232.45,239.534 232.665,239.443 232.88,239.352 233.095,239.262 233.31,239.171 233.525,239.08 233.74,238.989 233.955,238.899 234.17,238.808 234.385,238.717 234.6,238.626 234.815,238.536 235.03,238.445 235.245,238.355 235.46,238.264 235.675,238.174 235.89,238.083 236.105,237.993 236.32,237.902 236.535,237.812 236.75,237.722 236.965,237.631 237.18,237.541 237.395,237.451 237.61,237.36 237.825,237.27 238.04,237.18 238.255,237.09 238.47,237 238.685,236.91 238.9,236.82 239.115,236.73 239.33,236.64 239.545,236.55 239.76,236.46 239.975,236.37 240.19,236.28 240.405,236.191 240.62,236.101 240.835,236.011 241.05,235.921 241.265,235.832 241.48,235.742 241.695,235.653 241.91,235.563 242.125,235.474 242.34,235.384 242.555,235.295 242.77,235.206 242.985,235.116 243.2,235.027 243.415,234.938 243.63,234.849 243.845,234.759 244.06,234.67 244.275,234.581 244.49,234.492 244.705,234.403 244.92,234.314 245.135,234.226 245.35,234.137 245.565,234.048 245.78,233.959 245.995,233.871 246.21,233.782 246.425,233.693 246.64,233.605 246.855,233.516 247.07,233.428 247.285,233.34 247.5,233.251 247.715,233.163 247.93,233.075 248.145,232.987 248.36,232.898 248.575,232.81 248.79,232.722 249.005,232.634 249.22,232.546 249.435,232.459 249.65,232.371 249.865,232.283 250.08,232.195 250.295,232.108 250.51,232.02 250.725,231.932 250.94,231.845 251.155,231.758 251.37,231.67 251.585,231.583 251.8,231.496 252.015,231.408 252.23,231.321 252.445,231.234 252.66,231.147 252.875,231.06 253.09,230.973 253.305,230.886 253.52,230.8 253.735,230.713 253.95,230.626 254.165,230.539 254.38,230.453 254.595,230.366 254.81,230.28 255.025,230.194 255.24,230.107 255.455,230.021 255.67,229.935 255.885,229.849 256.1,229.763 256.315,229.677 256.53,229.591 256.745,229.505 256.96,229.419 257.175,229.333 257.39,229.248 257.605,229.162 257.82,229.077 258.035,228.991 258.25,228.906 258.465,228.821 258.68,228.735 258.895,228.65 259.11,228.565 259.325,228.48 259.54,228.395 259.755,228.31 259.97,228.225 260.185,228.14 260.4,228.056 260.615,227.971 260.83,227.887 261.045,227.802 261.26,227.718 261.475,227.633 261.69,227.549 261.905,227.465 262.12,227.381 262.335,227.297 262.55,227.213 262.765,227.129 262.98,227.045 263.195,226.961 263.41,226.878 263.625,226.794 263.84,226.711 264.055,226.627 264.27,226.544 264.485,226.461 264.7,226.377 264.915,226.294 265.13,226.211 265.345,226.128 265.56,226.046 265.775,225.963 265.99,225.88 266.205,225.797 266.42,225.715 266.635,225.632 266.85,225.55 267.065,225.468 267.28,225.385 267.495,225.303 267.71,225.221 267.925,225.139 268.14,225.057 268.355,224.976 268.57,224.894 268.785,224.812 269,224.731 269.215,224.649 269.43,224.568 269.645,224.487 269.86,224.405 270.075,224.324 270.29,224.243 270.505,224.162 270.72,224.081 270.935,224.001 271.15,223.92 271.365,223.839 271.58,223.759 271.795,223.678 272.01,223.598 272.225,223.518 272.44,223.438 272.655,223.358 272.87,223.278 273.085,223.198 273.3,223.118 273.515,223.038 273.73,222.959 273.945,222.879 274.16,222.8 274.375,222.721 274.59,222.641 274.805,222.562 275.02,222.483 275.235,222.404 275.45,222.326 275.665,222.247 275.88,222.168 276.095,222.09 276.31,222.011 276.525,221.933 276.74,221.855 276.955,221.776 277.17,221.698 277.385,221.62 277.6,221.543 277.815,221.465 278.03,221.387 278.245,221.31 278.46,221.232 278.675,221.155 278.89,221.077 279.105,221 279.32,220.923 279.535,220.846 279.75,220.769 279.965,220.693 280.18,220.616 280.395,220.539 280.61,220.463 280.825,220.387 281.04,220.31 281.255,220.234 281.47,220.158 281.685,220.082 281.9,220.007 282.115,219.931 282.33,219.855 282.545,219.78 282.76,219.704 282.975,219.629 283.19,219.554 283.405,219.479 283.62,219.404 283.835,219.329 284.05,219.254 284.265,219.18 284.48,219.105 284.695,219.031 284.91,218.956 285.125,218.882 285.34,218.808 285.555,218.734 285.77,218.66 285.985,218.586 286.2,218.513 286.415,218.439 286.63,218.366 286.845,218.292 287.06,218.219 287.275,218.146 287.49,218.073 287.705,218 287.92,217.927 288.135,217.855 288.35,217.782 288.565,217.71 288.78,217.638 288.995,217.565 289.21,217.493 289.425,217.421 289.64,217.35 289.855,217.278 290.07,217.206 290.285,217.135 290.5,217.063 290.715,216.992 290.93,216.921 291.145,216.85 291.36,216.779 291.575,216.708 291.79,216.638 292.005,216.567 292.22,216.497 292.435,216.427 292.65,216.356 292.865,216.286 293.08,216.216 293.295,216.147 293.51,216.077 293.725,216.007 293.94,215.938 294.155,215.869 294.37,215.799 294.585,215.73 294.8,215.661 295.015,215.592 295.23,215.524 295.445,215.455 295.66,215.387 295.875,215.318 296.09,215.25 296.305,215.182 296.52,215.114 296.735,215.046 296.95,214.979 297.165,214.911 297.38,214.844 297.595,214.776 297.81,214.709 298.025,214.642 298.24,214.575 298.455,214.508 298.67,214.442 298.885,214.375 299.1,214.309 299.315,214.242 299.53,214.176 299.745,214.11 299.96,214.044 300.175,213.978 300.39,213.913 300.605,213.847 300.82,213.782 301.035,213.717 301.25,213.651 301.465,213.586 301.68,213.522 301.895,213.457 302.11,213.392 302.325,213.328 302.54,213.264 302.755,213.199 302.97,213.135 303.185,213.071 303.4,213.008 303.615,212.944 303.83,212.88 304.045,212.817 304.26,212.754 304.475,212.691 304.69,212.628 304.905,212.565 305.12,212.502 305.335,212.44 305.55,212.377 305.765,212.315 305.98,212.253 306.195,212.191 306.41,212.129 306.625,212.067 306.84,212.005 307.055,211.944 307.27,211.883 307.485,211.821 307.7,211.76 307.915,211.699 308.13,211.639 308.345,211.578 308.56,211.518 308.775,211.457 308.99,211.397 309.205,211.337 309.42,211.277 309.635,211.217 309.85,211.158 310.065,211.098 310.28,211.039 310.495,210.98 310.71,210.921 310.925,210.862 311.14,210.803 311.355,210.744 311.57,210.686 311.785,210.627 312,210.569 312.215,210.511 312.43,210.453 312.645,210.395 312.86,210.338 313.075,210.28 313.29,210.223 313.505,210.166 313.72,210.109 313.935,210.052 314.15,209.995 314.365,209.939 314.58,209.882 314.795,209.826 315.01,209.77 315.225,209.714 315.44,209.658 315.655,209.602 315.87,209.547 316.085,209.491 316.3,209.436 316.515,209.381 316.73,209.326 316.945,209.271 317.16,209.216 317.375,209.162 317.59,209.107 317.805,209.053 318.02,208.999 318.235,208.945 318.45,208.892 318.665,208.838 318.88,208.784 319.095,208.731 319.31,208.678 319.525,208.625 319.74,208.572 319.955,208.52 320.17,208.467 320.385,208.415 320.6,208.362 320.815,208.31 321.03,208.258 321.245,208.207 321.46,208.155 321.675,208.104 321.89,208.052 322.105,208.001 322.32,207.95 322.535,207.899 322.75,207.849 322.965,207.798 323.18,207.748 323.395,207.698 323.61,207.648 323.825,207.598 324.04,207.548 324.255,207.498 324.47,207.449 324.685,207.4 324.9,207.351 325.115,207.302 325.33,207.253 325.545,207.204 325.76,207.156 325.975,207.107 326.19,207.059 326.405,207.011 326.62,206.963 326.835,206.916 327.05,206.868 327.265,206.821 327.48,206.774 327.695,206.727 327.91,206.68 328.125,206.633 328.34,206.587 328.555,206.54 328.77,206.494 328.985,206.448 329.2,206.402 329.415,206.356 329.63,206.311 329.845,206.265 330.06,206.22 330.275,206.175 330.49,206.13 330.705,206.085 330.92,206.041 331.135,205.996 331.35,205.952 331.565,205.908 331.78,205.864 331.995,205.82 332.21,205.777 332.425,205.733 332.64,205.69 332.855,205.647 333.07,205.604 333.285,205.561 333.5,205.518 333.715,205.476 333.93,205.434 334.145,205.392 334.36,205.35 334.575,205.308 334.79,205.266 335.005,205.225 335.22,205.184 335.435,205.142 335.65,205.101 335.865,205.061 336.08,205.02 336.295,204.98 336.51,204.939 336.725,204.899 336.94,204.859 337.155,204.82 337.37,204.78 337.585,204.741 337.8,204.701 338.015,204.662 338.23,204.623 338.445,204.585 338.66,204.546 338.875,204.508 339.09,204.469 339.305,204.431 339.52,204.393 339.735,204.356 339.95,204.318 340.165,204.281 340.38,204.243 340.595,204.206 340.81,204.169 341.025,204.133 341.24,204.096 341.455,204.06 341.67,204.024 341.885,203.988 342.1,203.952 342.315,203.916 342.53,203.881 342.745,203.845 342.96,203.81 343.175,203.775 343.39,203.74 343.605,203.706 343.82,203.671 344.035,203.637 344.25,203.603 344.465,203.569 344.68,203.535 344.895,203.502 345.11,203.468 345.325,203.435 345.54,203.402 345.755,203.369 345.97,203.336 346.185,203.304 346.4,203.271 346.615,203.239 346.83,203.207 347.045,203.175 347.26,203.144 347.475,203.112 347.69,203.081 347.905,203.05 348.12,203.019 348.335,202.988 348.55,202.957 348.765,202.927 348.98,202.897 349.195,202.867 349.41,202.837 349.625,202.807 349.84,202.778 350.055,202.748 350.27,202.719 350.485,202.69 350.7,202.661 350.915,202.632 351.13,202.604 351.345,202.576 351.56,202.548 351.775,202.52 351.99,202.492 352.205,202.464 352.42,202.437 352.635,202.41 352.85,202.383 353.065,202.356 353.28,202.329 353.495,202.303 353.71,202.276 353.925,202.25 354.14,202.224 354.355,202.198 354.57,202.173 354.785,202.147 355,202.122 355.215,202.097 355.43,202.072 355.645,202.047 355.86,202.023 356.075,201.998 356.29,201.974 356.505,201.95 356.72,201.927 356.935,201.903 357.15,201.879 357.365,201.856 357.58,201.833 357.795,201.81 358.01,201.787 358.225,201.765 358.44,201.743 358.655,201.72 358.87,201.698 359.085,201.677 359.3,201.655 359.515,201.634 359.73,201.612 359.945,201.591 360.16,201.57 360.375,201.55 360.59,201.529 360.805,201.509 361.02,201.489 361.235,201.469 361.45,201.449 361.665,201.429 361.88,201.41 362.095,201.39 362.31,201.371 362.525,201.352 362.74,201.334 362.955,201.315 363.17,201.297 363.385,201.279 363.6,201.261 363.815,201.243 364.03,201.225 364.245,201.208 364.46,201.191 364.675,201.174 364.89,201.157 365.105,201.14 365.32,201.124 365.535,201.107 365.75,201.091 365.965,201.075 366.18,201.06 366.395,201.044 366.61,201.029 366.825,201.013 367.04,200.998 367.255,200.984 367.47,200.969 367.685,200.954 367.9,200.94 368.115,200.926 368.33,200.912 368.545,200.898 368.76,200.885 368.975,200.872 369.19,200.858 369.405,200.845 369.62,200.833 369.835,200.82 370.05,200.808 370.265,200.795 370.48,200.783 370.695,200.771 370.91,200.76 371.125,200.748 371.34,200.737 371.555,200.726 371.77,200.715 371.985,200.704 372.2,200.694 372.415,200.683 372.63,200.673 372.845,200.663 373.06,200.653 373.275,200.644 373.49,200.634 373.705,200.625 373.92,200.616 374.135,200.607 374.35,200.598 374.565,200.59 374.78,200.581 374.995,200.573 375.21,200.565 375.425,200.557 375.64,200.55 375.855,200.542 376.07,200.535 376.285,200.528 376.5,200.521 376.715,200.515 376.93,200.508 377.145,200.502 377.36,200.496 377.575,200.49 377.79,200.484 378.005,200.479 378.22,200.473 378.435,200.468 378.65,200.463 378.865,200.459 379.08,200.454 379.295,200.45 379.51,200.445 379.725,200.441 379.94,200.437 380.155,200.434 380.37,200.43 380.585,200.427 380.8,200.424 381.015,200.421 381.23,200.418 381.445,200.416 381.66,200.413 381.875,200.411 382.09,200.409 382.305,200.408 382.52,200.406 382.735,200.405 382.95,200.403 383.165,200.402 383.38,200.401 383.595,200.401 383.81,200.4 384.025,200.4 384.24,200.4 384.455,200.4 384.67,200.4 384.885,200.4 385.1,200.4 385.315,200.4 385.53,200.4 385.745,200.4 385.96,200.4 386.175,200.4 386.39,200.4 386.605,200.4 386.82,200.4 387.035,200.4 387.25,200.4 387.465,200.4 387.68,200.4 387.895,200.4 388.11,200.4 388.325,200.4 388.54,200.4 388.755,200.4 388.97,200.4 389.185,200.4 389.4,200.4 389.615,200.4 389.83,200.4 390.045,200.4 390.26,200.4 390.475,200.4 390.69,200.4 390.905,200.4 391.12,200.4 391.335,200.4 391.55,200.4 391.765,200.4 391.98,200.4 392.195,200.4 392.41,200.4 392.625,200.4 392.84,200.4 393.055,200.4 393.27,200.4 393.485,200.4 393.7,200.4 393.915,200.4 394.13,200.4 394.345,200.4 394.56,200.4 394.775,200.4 394.99,200.4 395.205,200.4 395.42,200.4 395.635,200.4 395.85,200.4 396.065,200.4 396.28,200.4 396.495,200.4 396.71,200.4 396.925,200.4 397.14,200.4 397.355,200.4 397.57,200.4 397.785,200.4 398,200.4 398.215,200.4 398.43,200.4 398.645,200.4 398.86,200.4 399.075,200.4 399.29,200.4 399.505,200.4 399.72,200.4 399.935,200.4 400.15,200.4 400.365,200.4 400.58,200.4 400.795,200.4 401.01,200.4 401.225,200.4 401.44,200.4 401.655,200.4 401.87,200.4 402.085,200.4 402.3,200.4 402.515,200.4 402.73,200.4 402.945,200.4 403.16,200.4 403.375,200.4 403.59,200.4 403.805,200.4 404.02,200.4 404.235,200.4 404.45,200.4 404.665,200.4 404.88,200.4 405.095,200.4 405.31,200.401 405.525,200.403 405.74,200.406 405.955,200.409 406.17,200.413 406.385,200.418 406.6,200.424 406.815,200.43 407.03,200.437 407.245,200.445 407.46,200.454 407.675,200.463 407.89,200.473 408.105,200.484 408.32,200.496 408.535,200.508 408.75,200.521 408.965,200.535 409.18,200.55 409.395,200.565 409.61,200.581 409.825,200.598 410.04,200.616 410.255,200.634 410.47,200.653 410.685,200.673 410.9,200.694 411.115,200.715 411.33,200.737 411.545,200.76 411.76,200.783 411.975,200.808 412.19,200.833 412.405,200.858 412.62,200.885 412.835,200.912 413.05,200.94 413.265,200.969 413.48,200.998 413.695,201.029 413.91,201.06 414.125,201.091 414.34,201.124 414.555,201.157 414.77,201.191 414.985,201.225 415.2,201.261 415.415,201.297 415.63,201.334 415.845,201.371 416.06,201.41 416.275,201.449 416.49,201.489 416.705,201.529 416.92,201.57 417.135,201.612 417.35,201.655 417.565,201.698 417.78,201.743 417.995,201.787 418.21,201.833 418.425,201.879 418.64,201.927 418.855,201.974 419.07,202.023 419.285,202.072 419.5,202.122 419.715,202.173 419.93,202.224 420.145,202.276 420.36,202.329 420.575,202.383 420.79,202.437 421.005,202.492 421.22,202.548 421.435,202.604 421.65,202.661 421.865,202.719 422.08,202.778 422.295,202.837 422.51,202.897 422.725,202.957 422.94,203.019 423.155,203.081 423.37,203.144 423.585,203.207 423.8,203.271 424.015,203.336 424.23,203.402 424.445,203.468 424.66,203.535 424.875,203.603 425.09,203.671 425.305,203.74 425.52,203.81 425.735,203.881 425.95,203.952 426.165,204.024 426.38,204.096 426.595,204.169 426.81,204.243 427.025,204.318 427.24,204.393 427.455,204.469 427.67,204.546 427.885,204.623 428.1,204.701 428.315,204.78 428.53,204.859 428.745,204.939 428.96,205.02 429.175,205.101 429.39,205.184 429.605,205.266 429.82,205.35 430.035,205.434 430.25,205.518 430.465,205.604 430.68,205.69 430.895,205.777 431.11,205.864 431.325,205.952 431.54,206.041 431.755,206.13 431.97,206.22 432.185,206.311 432.4,206.402 432.615,206.494 432.83,206.587 433.045,206.68 433.26,206.774 433.475,206.868 433.69,206.963 433.905,207.059 434.12,207.156 434.335,207.253 434.55,207.351 434.765,207.449 434.98,207.548 435.195,207.648 435.41,207.748 435.625,207.849 435.84,207.95 436.055,208.052 436.27,208.155 436.485,208.258 436.7,208.362 436.915,208.467 437.13,208.572 437.345,208.678 437.56,208.784 437.775,208.892 437.99,208.999 438.205,209.107 438.42,209.216 438.635,209.326 438.85,209.436 439.065,209.547 439.28,209.658 439.495,209.77 439.71,209.882 439.925,209.995 440.14,210.109 440.355,210.223 440.57,210.338 440.785,210.453 441,210.569 441.215,210.686 441.43,210.803 441.645,210.921 441.86,211.039 442.075,211.158 442.29,211.277 442.505,211.397 442.72,211.518 442.935,211.639 443.15,211.76 443.365,211.883 443.58,212.005 443.795,212.129 444.01,212.253 444.225,212.377 444.44,212.502 444.655,212.628 444.87,212.754 445.085,212.88 445.3,213.008 445.515,213.135 445.73,213.264 445.945,213.392 446.16,213.522 446.375,213.651 446.59,213.782 446.805,213.913 447.02,214.044 447.235,214.176 447.45,214.309 447.665,214.442 447.88,214.575 448.095,214.709 448.31,214.844 448.525,214.979 448.74,215.114 448.955,215.25 449.17,215.387 449.385,215.524 449.6,215.661 449.815,215.799 450.03,215.938 450.245,216.077 450.46,216.216 450.675,216.356 450.89,216.497 451.105,216.638 451.32,216.779 451.535,216.921 451.75,217.063 451.965,217.206 452.18,217.35 452.395,217.493 452.61,217.638 452.825,217.782 453.04,217.927 453.255,218.073 453.47,218.219 453.685,218.366 453.9,218.513 454.115,218.66 454.33,218.808 454.545,218.956 454.76,219.105 454.975,219.254 455.19,219.404 455.405,219.554 455.62,219.704 455.835,219.855 456.05,220.007 456.265,220.158 456.48,220.31 456.695,220.463 456.91,220.616 457.125,220.769 457.34,220.923 457.555,221.077 457.77,221.232 457.985,221.387 458.2,221.543 458.415,221.698 458.63,221.855 458.845,222.011 459.06,222.168 459.275,222.326 459.49,222.483 459.705,222.641 459.92,222.8 460.135,222.959 460.35,223.118 460.565,223.278 460.78,223.438 460.995,223.598 461.21,223.759 461.425,223.92 461.64,224.081 461.855,224.243 462.07,224.405 462.285,224.568 462.5,224.731 462.715,224.894 462.93,225.057 463.145,225.221 463.36,225.385 463.575,225.55 463.79,225.715 464.005,225.88 464.22,226.046 464.435,226.211 464.65,226.377 464.865,226.544 465.08,226.711 465.295,226.878 465.51,227.045 465.725,227.213 465.94,227.381 466.155,227.549 466.37,227.718 466.585,227.887 466.8,228.056 467.015,228.225 467.23,228.395 467.445,228.565 467.66,228.735 467.875,228.906 468.09,229.077 468.305,229.248 468.52,229.419 468.735,229.591 468.95,229.763 469.165,229.935 469.38,230.107 469.595,230.28 469.81,230.453 470.025,230.626 470.24,230.8 470.455,230.973 470.67,231.147 470.885,231.321 471.1,231.496 471.315,231.67 471.53,231.845 471.745,232.02 471.96,232.195 472.175,232.371 472.39,232.546 472.605,232.722 472.82,232.898 473.035,233.075 473.25,233.251 473.465,233.428 473.68,233.605 473.895,233.782 474.11,233.959 474.325,234.137 474.54,234.314 474.755,234.492 474.97,234.67 475.185,234.849 475.4,235.027 475.615,235.206 475.83,235.384 476.045,235.563 476.26,235.742 476.475,235.921 476.69,236.101 476.905,236.28 477.12,236.46 477.335,236.64 477.55,236.82 477.765,237 477.98,237.18 478.195,237.36 478.41,237.541 478.625,237.722 478.84,237.902 479.055,238.083 479.27,238.264 479.485,238.445 479.7,238.626 479.915,238.808 480.13,238.989 480.345,239.171 480.56,239.352 480.775,239.534 480.99,239.716 481.205,239.898 481.42,240.08 481.635,240.262 481.85,240.444 482.065,240.626 482.28,240.809 482.495,240.991 482.71,241.174 482.925,241.356 483.14,241.539 483.355,241.722 483.57,241.904 483.785,242.087 484,242.27 484.215,242.453 484.43,242.636 484.645,242.819 484.86,243.002 485.075,243.185 485.29,243.368 485.505,243.551 485.72,243.734 485.935,243.917 486.15,244.101 486.365,244.284 486.58,244.467 486.795,244.65 487.01,244.833 487.225,245.017 487.44,245.2 487.655,245.383 487.87,245.567 488.085,245.75 488.3,245.933 488.515,246.116 488.73,246.299 488.945,246.483 489.16,246.666 489.375,246.849 489.59,247.032 489.805,247.215 490.02,247.398 490.235,247.581 490.45,247.764 490.665,247.947 490.88,248.13 491.095,248.313 491.31,248.496 491.525,248.678 491.74,248.861 491.955,249.044 492.17,249.226 492.385,249.409 492.6,249.591 492.815,249.774 493.03,249.956 493.245,250.138 493.46,250.32 493.675,250.502 493.89,250.684 494.105,250.866 494.32,251.048 494.535,251.229 494.75,251.411 494.965,251.592 495.18,251.774 495.395,251.955 495.61,252.136 495.825,252.317 496.04,252.498 496.255,252.678 496.47,252.859 496.685,253.04 496.9,253.22 497.115,253.4 497.33,253.58 497.545,253.76 497.76,253.94 497.975,254.12 498.19,254.299 498.405,254.479 498.62,254.658 498.835,254.837 499.05,255.016 499.265,255.194 499.48,255.373 499.695,255.551 499.91,255.73 500.125,255.908 500.34,256.086 500.555,256.263 500.77,256.441 500.985,256.618 501.2,256.795 501.415,256.972 501.63,257.149 501.845,257.325 502.06,257.502 502.275,257.678 502.49,257.854 502.705,258.029 502.92,258.205 503.135,258.38 503.35,258.555 503.565,258.73 503.78,258.904 503.995,259.079 504.21,259.253 504.425,259.427 504.64,259.6 504.855,259.774 505.07,259.947 505.285,260.12 505.5,260.293 505.715,260.465 505.93,260.637 506.145,260.809 506.36,260.981 506.575,261.152 506.79,261.323 507.005,261.494 507.22,261.665 507.435,261.835 507.65,262.005 507.865,262.175 508.08,262.344 508.295,262.513 508.51,262.682 508.725,262.851 508.94,263.019 509.155,263.187 509.37,263.355 509.585,263.522 509.8,263.689 510.015,263.856 510.23,264.023 510.445,264.189 510.66,264.354 510.875,264.52 511.09,264.685 511.305,264.85 511.52,265.015 511.735,265.179 511.95,265.343 512.165,265.506 512.38,265.669 512.595,265.832 512.81,265.995 513.025,266.157 513.24,266.319 513.455,266.48 513.67,266.641 513.885,266.802 514.1,266.962 514.315,267.122 514.53,267.282 514.745,267.441 514.96,267.6 515.175,267.759 515.39,267.917 515.605,268.074 515.82,268.232 516.035,268.389 516.25,268.545 516.465,268.702 516.68,268.857 516.895,269.013 517.11,269.168 517.325,269.323 517.54,269.477 517.755,269.631 517.97,269.784 518.185,269.937 518.4,270.09 518.615,270.242 518.83,270.393 519.045,270.545 519.26,270.696 519.475,270.846 519.69,270.996 519.905,271.146 520.12,271.295 520.335,271.444 520.55,271.592 520.765,271.74 520.98,271.887 521.195,272.034 521.41,272.181 521.625,272.327 521.84,272.473 522.055,272.618 522.27,272.762 522.485,272.907 522.7,273.05 522.915,273.194 523.13,273.337 523.345,273.479 523.56,273.621 523.775,273.762 523.99,273.903 524.205,274.044 524.42,274.184 524.635,274.323 524.85,274.462 525.065,274.601 525.28,274.739 525.495,274.876 525.71,275.013 525.925,275.15 526.14,275.286 526.355,275.421 526.57,275.556 526.785,275.691 527,275.825 527.215,275.958 527.43,276.091 527.645,276.224 527.86,276.356 528.075,276.487 528.29,276.618 528.505,276.749 528.72,276.878 528.935,277.008 529.15,277.136 529.365,277.265 529.58,277.392 529.795,277.52 530.01,277.646 530.225,277.772 530.44,277.898 530.655,278.023 530.87,278.147 531.085,278.271 531.3,278.395 531.515,278.517 531.73,278.64 531.945,278.761 532.16,278.882 532.375,279.003 532.59,279.123 532.805,279.242 533.02,279.361 533.235,279.479 533.45,279.597 533.665,279.714 533.88,279.831 534.095,279.947 534.31,280.062 534.525,280.177 534.74,280.291 534.955,280.405 535.17,280.518 535.385,280.63 535.6,280.742 535.815,280.853 536.03,280.964 536.245,281.074 536.46,281.184 536.675,281.293 536.89,281.401 537.105,281.508 537.32,281.616 537.535,281.722 537.75,281.828 537.965,281.933 538.18,282.038 538.395,282.142 538.61,282.245 538.825,282.348 539.04,282.45 539.255,282.551 539.47,282.652 539.685,282.752 539.9,282.852 540.115,282.951 540.33,283.049 540.545,283.147 540.76,283.244 540.975,283.341 541.19,283.437 541.405,283.532 541.62,283.626 541.835,283.72 542.05,283.813 542.265,283.906 542.48,283.998 542.695,284.089 542.91,284.18 543.125,284.27 543.34,284.359 543.555,284.448 543.77,284.536 543.985,284.623 544.2,284.71 544.415,284.796 544.63,284.882 544.845,284.966 545.06,285.05 545.275,285.134 545.49,285.216 545.705,285.299 545.92,285.38 546.135,285.461 546.35,285.541 546.565,285.62 546.78,285.699 546.995,285.777 547.21,285.854 547.425,285.931 547.64,286.007 547.855,286.082 548.07,286.157 548.285,286.231 548.5,286.304 548.715,286.376 548.93,286.448 549.145,286.519 549.36,286.59 549.575,286.66 549.79,286.729 550.005,286.797 550.22,286.865 550.435,286.932 550.65,286.998 550.865,287.064 551.08,287.129 551.295,287.193 551.51,287.256 551.725,287.319 551.94,287.381 552.155,287.443 552.37,287.503 552.585,287.563 552.8,287.622 553.015,287.681 553.23,287.739 553.445,287.796 553.66,287.852 553.875,287.908 554.09,287.963 554.305,288.017 554.52,288.071 554.735,288.124 554.95,288.176 555.165,288.227 555.38,288.278 555.595,288.328 555.81,288.377 556.025,288.426 556.24,288.473 556.455,288.521 556.67,288.567 556.885,288.613 557.1,288.657 557.315,288.702 557.53,288.745 557.745,288.788 557.96,288.83 558.175,288.871 558.39,288.911 558.605,288.951 558.82,288.99 559.035,289.029 559.25,289.066 559.465,289.103 559.68,289.139 559.895,289.175 560.11,289.209 560.325,289.243 560.54,289.276 560.755,289.309 560.97,289.34 561.185,289.371 561.4,289.402 561.615,289.431 561.83,289.46 562.045,289.488 562.26,289.515 562.475,289.542 562.69,289.567 562.905,289.592 563.12,289.617 563.335,289.64 563.55,289.663 563.765,289.685 563.98,289.706 564.195,289.727 564.41,289.747 564.625,289.766 564.84,289.784 565.055,289.802 565.27,289.819 565.485,289.835 565.7,289.85 565.915,289.865 566.13,289.879 566.345,289.892 566.56,289.904 566.775,289.916 566.99,289.927 567.205,289.937 567.42,289.946 567.635,289.955 567.85,289.963 568.065,289.97 568.28,289.976 568.495,289.982 568.71,289.987 568.925,289.991 569.14,289.994 569.355,289.997 569.57,289.999 569.785,290 570,290" fill="none" stroke="#2bb3a3" stroke-width="2" opacity="0.9"/>
<rect x="582" y="53" width="10" height="10" fill="#2bb3a3"/>
<text x="596" y="62" fill="#c9bfa9" font-size="10">macro LPF</text>
<text x="54" y="20" fill="#f3ead9" font-size="14" font-weight="700">TIDE OUT 32</text>
<text x="570" y="20" fill="#7c756a" font-size="10" text-anchor="end">50 bars @ 94 BPM · y = normalized 0..1</text>
</svg>