<svg xmlns="http://www.w3.org/2000/svg" width="720" height="320" viewBox="0 0 720 320" font-family="JetBrains Mono, ui-monospace, monospace">
<rect width="720" height="320" fill="#15130f"/>
<line x1="54" y1="290" x2="570" y2="290" stroke="#2a261f"/>
<text x="46" y="293" fill="#7c756a" font-size="10" text-anchor="end">0.0</text>
<line x1="54" y1="162" x2="570" y2="162" stroke="#2a261f"/>
<text x="46" y="165" fill="#7c756a" font-size="10" text-anchor="end">0.5</text>
<line x1="54" y1="34" x2="570" y2="34" stroke="#2a261f"/>
<text x="46" y="37" fill="#7c756a" font-size="10" text-anchor="end">1.0</text>
<line x1="54" y1="34" x2="54" y2="290" stroke="#211e18"/>
<text x="54" y="308" fill="#7c756a" font-size="10" text-anchor="middle">0</text>
<line x1="312" y1="34" x2="312" y2="290" stroke="#211e18"/>
<text x="312" y="308" fill="#7c756a" font-size="10" text-anchor="middle">4</text>
<line x1="570" y1="34" x2="570" y2="290" stroke="#211e18"/>
<text x="570" y="308" fill="#7c756a" font-size="10" text-anchor="middle">8</text>
<polyline points="54,264.4 55.344,264.388 56.688,264.352 58.031,264.292 59.375,264.208 60.719,264.1 62.063,263.969 63.406,263.813 64.75,263.633 66.094,263.43 67.438,263.203 68.781,262.953 70.125,262.678 71.469,262.381 72.813,262.059 74.156,261.715 75.5,261.347 76.844,260.956 78.188,260.542 79.531,260.105 80.875,259.645 82.219,259.162 83.563,258.657 84.906,258.13 86.25,257.58 87.594,257.008 88.938,256.413 90.281,255.797 91.625,255.16 92.969,254.501 94.313,253.82 95.656,253.118 97,252.396 98.344,251.652 99.688,250.889 101.031,250.104 102.375,249.3 103.719,248.475 105.063,247.631 106.406,246.767 107.75,245.884 109.094,244.982 110.438,244.062 111.781,243.122 113.125,242.165 114.469,241.189 115.813,240.196 117.156,239.185 118.5,238.157 119.844,237.112 121.188,236.05 122.531,234.972 123.875,233.877 125.219,232.767 126.563,231.642 127.906,230.501 129.25,229.345 130.594,228.175 131.938,226.99 133.281,225.791 134.625,224.579 135.969,223.353 137.313,222.115 138.656,220.864 140,219.6 141.344,218.324 142.688,217.037 144.031,215.739 145.375,214.429 146.719,213.109 148.063,211.779 149.406,210.438 150.75,209.088 152.094,207.729 153.438,206.362 154.781,204.985 156.125,203.601 157.469,202.209 158.813,200.81 160.156,199.403 161.5,197.99 162.844,196.571 164.188,195.146 165.531,193.716 166.875,192.28 168.219,190.84 169.563,189.395 170.906,187.947 172.25,186.495 173.594,185.04 174.938,183.582 176.281,182.122 177.625,180.66 178.969,179.196 180.313,177.732 181.656,176.266 183,174.8 184.344,173.334 185.688,171.868 187.031,170.404 188.375,168.94 189.719,167.478 191.063,166.018 192.406,164.56 193.75,163.105 195.094,161.653 196.438,160.205 197.781,158.76 199.125,157.32 200.469,155.884 201.813,154.454 203.156,153.029 204.5,151.61 205.844,150.197 207.188,148.79 208.531,147.391 209.875,145.999 211.219,144.615 212.563,143.238 213.906,141.871 215.25,140.512 216.594,139.162 217.938,137.821 219.281,136.491 220.625,135.171 221.969,133.861 223.313,132.563 224.656,131.276 226,130 227.344,128.736 228.688,127.485 230.031,126.247 231.375,125.021 232.719,123.809 234.063,122.61 235.406,121.425 236.75,120.255 238.094,119.099 239.438,117.958 240.781,116.833 242.125,115.723 243.469,114.628 244.813,113.55 246.156,112.488 247.5,111.443 248.844,110.415 250.188,109.404 251.531,108.411 252.875,107.435 254.219,106.478 255.563,105.538 256.906,104.618 258.25,103.716 259.594,102.833 260.938,101.969 262.281,101.125 263.625,100.3 264.969,99.496 266.313,98.711 267.656,97.948 269,97.204 270.344,96.482 271.688,95.78 273.031,95.099 274.375,94.44 275.719,93.803 277.063,93.187 278.406,92.592 279.75,92.02 281.094,91.47 282.438,90.943 283.781,90.438 285.125,89.955 286.469,89.495 287.813,89.058 289.156,88.644 290.5,88.253 291.844,87.885 293.188,87.541 294.531,87.219 295.875,86.922 297.219,86.647 298.563,86.397 299.906,86.17 301.25,85.967 302.594,85.787 303.938,85.631 305.281,85.5 306.625,85.392 307.969,85.308 309.313,85.248 310.656,85.212 312,85.2 313.344,85.212 314.688,85.248 316.031,85.308 317.375,85.392 318.719,85.5 320.063,85.631 321.406,85.787 322.75,85.967 324.094,86.17 325.438,86.397 326.781,86.647 328.125,86.922 329.469,87.219 330.813,87.541 332.156,87.885 333.5,88.253 334.844,88.644 336.188,89.058 337.531,89.495 338.875,89.955 340.219,90.438 341.563,90.943 342.906,91.47 344.25,92.02 345.594,92.592 346.938,93.187 348.281,93.803 349.625,94.44 350.969,95.099 352.313,95.78 353.656,96.482 355,97.204 356.344,97.948 357.688,98.711 359.031,99.496 360.375,100.3 361.719,101.125 363.063,101.969 364.406,102.833 365.75,103.716 367.094,104.618 368.438,105.538 369.781,106.478 371.125,107.435 372.469,108.411 373.813,109.404 375.156,110.415 376.5,111.443 377.844,112.488 379.188,113.55 380.531,114.628 381.875,115.723 383.219,116.833 384.563,117.958 385.906,119.099 387.25,120.255 388.594,121.425 389.938,122.61 391.281,123.809 392.625,125.021 393.969,126.247 395.313,127.485 396.656,128.736 398,130 399.344,131.276 400.688,132.563 402.031,133.861 403.375,135.171 404.719,136.491 406.063,137.821 407.406,139.162 408.75,140.512 410.094,141.871 411.438,143.238 412.781,144.615 414.125,145.999 415.469,147.391 416.813,148.79 418.156,150.197 419.5,151.61 420.844,153.029 422.188,154.454 423.531,155.884 424.875,157.32 426.219,158.76 427.563,160.205 428.906,161.653 430.25,163.105 431.594,164.56 432.938,166.018 434.281,167.478 435.625,168.94 436.969,170.404 438.313,171.868 439.656,173.334 441,174.8 442.344,176.266 443.688,177.732 445.031,179.196 446.375,180.66 447.719,182.122 449.063,183.582 450.406,185.04 451.75,186.495 453.094,187.947 454.438,189.395 455.781,190.84 457.125,192.28 458.469,193.716 459.813,195.146 461.156,196.571 462.5,197.99 463.844,199.403 465.188,200.81 466.531,202.209 467.875,203.601 469.219,204.985 470.563,206.362 471.906,207.729 473.25,209.088 474.594,210.438 475.938,211.779 477.281,213.109 478.625,214.429 479.969,215.739 481.313,217.037 482.656,218.324 484,219.6 485.344,220.864 486.688,222.115 488.031,223.353 489.375,224.579 490.719,225.791 492.063,226.99 493.406,228.175 494.75,229.345 496.094,230.501 497.438,231.642 498.781,232.767 500.125,233.877 501.469,234.972 502.813,236.05 504.156,237.112 505.5,238.157 506.844,239.185 508.188,240.196 509.531,241.189 510.875,242.165 512.219,243.122 513.563,244.062 514.906,244.982 516.25,245.884 517.594,246.767 518.938,247.631 520.281,248.475 521.625,249.3 522.969,250.104 524.313,250.889 525.656,251.652 527,252.396 528.344,253.118 529.688,253.82 531.031,254.501 532.375,255.16 533.719,255.797 535.063,256.413 536.406,257.008 537.75,257.58 539.094,258.13 540.438,258.657 541.781,259.162 543.125,259.645 544.469,260.105 545.813,260.542 547.156,260.956 548.5,261.347 549.844,261.715 551.188,262.059 552.531,262.381 553.875,262.678 555.219,262.953 556.563,263.203 557.906,263.43 559.25,263.633 560.594,263.813 561.938,263.969 563.281,264.1 564.625,264.208 565.969,264.292 567.313,264.352 568.656,264.388 570,264.4" fill="none" stroke="#c2622a" stroke-width="2" opacity="0.9"/>
<rect x="582" y="38" width="10" height="10" fill="#c2622a"/>
<text x="596" y="47" fill="#c9bfa9" font-size="10">PadsBus send F</text>
<polyline points="54,264.4 55.344,264.388 56.688,264.352 58.031,264.292 59.375,264.208 60.719,264.1 62.063,263.969 63.406,263.813 64.75,263.633 66.094,263.43 67.438,263.203 68.781,262.953 70.125,262.678 71.469,262.381 72.813,262.059 74.156,261.715 75.5,261.347 76.844,260.956 78.188,260.542 79.531,260.105 80.875,259.645 82.219,259.162 83.563,258.657 84.906,258.13 86.25,257.58 87.594,257.008 88.938,256.413 90.281,255.797 91.625,255.16 92.969,254.501 94.313,253.82 95.656,253.118 97,252.396 98.344,251.652 99.688,250.889 101.031,250.104 102.375,249.3 103.719,248.475 105.063,247.631 106.406,246.767 107.75,245.884 109.094,244.982 110.438,244.062 111.781,243.122 113.125,242.165 114.469,241.189 115.813,240.196 117.156,239.185 118.5,238.157 119.844,237.112 121.188,236.05 122.531,234.972 123.875,233.877 125.219,232.767 126.563,231.642 127.906,230.501 129.25,229.345 130.594,228.175 131.938,226.99 133.281,225.791 134.625,224.579 135.969,223.353 137.313,222.115 138.656,220.864 140,219.6 141.344,218.324 142.688,217.037 144.031,215.739 145.375,214.429 146.719,213.109 148.063,211.779 149.406,210.438 150.75,209.088 152.094,207.729 153.438,206.362 154.781,204.985 156.125,203.601 157.469,202.209 158.813,200.81 160.156,199.403 161.5,197.99 162.844,196.571 164.188,195.146 165.531,193.716 166.875,192.28 168.219,190.84 169.563,189.395 170.906,187.947 172.25,186.495 173.594,185.04 174.938,183.582 176.281,182.122 177.625,180.66 178.969,179.196 180.313,177.732 181.656,176.266 183,174.8 184.344,173.334 185.688,171.868 187.031,170.404 188.375,168.94 189.719,167.478 191.063,166.018 192.406,164.56 193.75,163.105 195.094,161.653 196.438,160.205 197.781,158.76 199.125,157.32 200.469,155.884 201.813,154.454 203.156,153.029 204.5,151.61 205.844,150.197 207.188,148.79 208.531,147.391 209.875,145.999 211.219,144.615 212.563,143.238 213.906,141.871 215.25,140.512 216.594,139.162 217.938,137.821 219.281,136.491 220.625,135.171 221.969,133.861 223.313,132.563 224.656,131.276 226,130 227.344,128.736 228.688,127.485 230.031,126.247 231.375,125.021 232.719,123.809 234.063,122.61 235.406,121.425 236.75,120.255 238.094,119.099 239.438,117.958 240.781,116.833 242.125,115.723 243.469,114.628 244.813,113.55 246.156,112.488 247.5,111.443 248.844,110.415 250.188,109.404 251.531,108.411 252.875,107.435 254.219,106.478 255.563,105.538 256.906,104.618 258.25,103.716 259.594,102.833 260.938,101.969 262.281,101.125 263.625,100.3 264.969,99.496 266.313,98.711 267.656,97.948 269,97.204 270.344,96.482 271.688,95.78 273.031,95.099 274.375,94.44 275.719,93.803 277.063,93.187 278.406,92.592 279.75,92.02 281.094,91.47 282.438,90.943 283.781,90.438 285.125,89.955 286.469,89.495 287.813,89.058 289.156,88.644 290.5,88.253 291.844,87.885 293.188,87.541 294.531,87.219 295.875,86.922 297.219,86.647 298.563,86.397 299.906,86.17 301.25,85.967 302.594,85.787 303.938,85.631 305.281,85.5 306.625,85.392 307.969,85.308 309.313,85.248 310.656,85.212 312,85.2 313.344,85.212 314.688,85.248 316.031,85.308 317.375,85.392 318.719,85.5 320.063,85.631 321.406,85.787 322.75,85.967 324.094,86.17 325.438,86.397 326.781,86.647 328.125,86.922 329.469,87.219 330.813,87.541 332.156,87.885 333.5,88.253 334.844,88.644 336.188,89.058 337.531,89.495 338.875,89.955 340.219,90.438 341.563,90.943 342.906,91.47 344.25,92.02 345.594,92.592 346.938,93.187 348.281,93.803 349.625,94.44 350.969,95.099 352.313,95.78 353.656,96.482 355,97.204 356.344,97.948 357.688,98.711 359.031,99.496 360.375,100.3 361.719,101.125 363.063,101.969 364.406,102.833 365.75,103.716 367.094,104.618 368.438,105.538 369.781,106.478 371.125,107.435 372.469,108.411 373.813,109.404 375.156,110.415 376.5,111.443 377.844,112.488 379.188,113.55 380.531,114.628 381.875,115.723 383.219,116.833 384.563,117.958 385.906,119.099 387.25,120.255 388.594,121.425 389.938,122.61 391.281,123.809 392.625,125.021 393.969,126.247 395.313,127.485 396.656,128.736 398,130 399.344,131.276 400.688,132.563 402.031,133.861 403.375,135.171 404.719,136.491 406.063,137.821 407.406,139.162 408.75,140.512 410.094,141.871 411.438,143.238 412.781,144.615 414.125,145.999 415.469,147.391 416.813,148.79 418.156,150.197 419.5,151.61 420.844,153.029 422.188,154.454 423.531,155.884 424.875,157.32 426.219,158.76 427.563,160.205 428.906,161.653 430.25,163.105 431.594,164.56 432.938,166.018 434.281,167.478 435.625,168.94 436.969,170.404 438.313,171.868 439.656,173.334 441,174.8 442.344,176.266 443.688,177.732 445.031,179.196 446.375,180.66 447.719,182.122 449.063,183.582 450.406,185.04 451.75,186.495 453.094,187.947 454.438,189.395 455.781,190.84 457.125,192.28 458.469,193.716 459.813,195.146 461.156,196.571 462.5,197.99 463.844,199.403 465.188,200.81 466.531,202.209 467.875,203.601 469.219,204.985 470.563,206.362 471.906,207.729 473.25,209.088 474.594,210.438 475.938,211.779 477.281,213.109 478.625,214.429 479.969,215.739 481.313,217.037 482.656,218.324 484,219.6 485.344,220.864 486.688,222.115 488.031,223.353 489.375,224.579 490.719,225.791 492.063,226.99 493.406,228.175 494.75,229.345 496.094,230.501 497.438,231.642 498.781,232.767 500.125,233.877 501.469,234.972 502.813,236.05 504.156,237.112 505.5,238.157 506.844,239.185 508.188,240.196 509.531,241.189 510.875,242.165 512.219,243.122 513.563,244.062 514.906,244.982 516.25,245.884 517.594,246.767 518.938,247.631 520.281,248.475 521.625,249.3 522.969,250.104 524.313,250.889 525.656,251.652 527,252.396 528.344,253.118 529.688,253.82 531.031,254.501 532.375,255.16 533.719,255.797 535.063,256.413 536.406,257.008 537.75,257.58 539.094,258.13 540.438,258.657 541.781,259.162 543.125,259.645 544.469,260.105 545.813,260.542 547.156,260.956 548.5,261.347 549.844,261.715 551.188,262.059 552.531,262.381 553.875,262.678 555.219,262.953 556.563,263.203 557.906,263.43 559.25,263.633 560.594,263.813 561.938,263.969 563.281,264.1 564.625,264.208 565.969,264.292 567.313,264.352 568.656,264.388 570,264.4" fill="none" stroke="#2bb3a3" stroke-width="2" opacity="0.9"/>
<rect x="582" y="53" width="10" height="10" fill="#2bb3a3"/>
<text x="596" y="62" fill="#c9bfa9" font-size="10">LeadsBus send F</text>
<text x="54" y="20" fill="#f3ead9" font-size="14" font-weight="700">VEIL 8</text>
<text x="570" y="20" fill="#7c756a" font-size="10" text-anchor="end">8 bars @ 94 BPM · y = normalized 0..1</text>
</svg>